<?xml version="1.0" encoding="UTF-8"?>
<svg width="100px" height="100px" viewBox="0 0 100 100" version="1.1" xmlns="http://www.w3.org/2000/svg" xmlns:xlink="http://www.w3.org/1999/xlink">
    <!-- Generator: Sketch 51.3 (57544) - http://www.bohemiancoding.com/sketch -->
    <title>診間</title>
    <desc>Created with Sketch.</desc>
    <defs></defs>
    <g id="Page-1" stroke="none" stroke-width="1" fill="none" fill-rule="evenodd">
        <g id="index_v2" transform="translate(-40.000000, -7072.000000)" fill-rule="nonzero">
            <g id="診間" transform="translate(40.000000, 7072.000000)">
                <circle id="Oval" fill="#D60057" cx="50" cy="50" r="50"></circle>
                <path d="M14.31,65.19 L14.9,64.84 L14.13,64.26 C14.6759593,63.6124945 15.1613289,62.9162401 15.58,62.18 L16.39,62.79 C15.9774454,63.4905607 15.5128025,64.1591116 15,64.79 L17.81,63.13 L19.81,66.52 C19.9644233,66.2887092 20.1046806,66.0482681 20.23,65.8 L20.99,66.7 C20.81,66.94 20.61,67.22 20.38,67.49 L22.38,70.81 L21.38,71.37 L17.38,64.67 L14.84,66.17 L14.16,66.53 C14.4717927,66.810491 14.806268,67.0646922 15.16,67.29 C15.2278077,66.9603074 15.2712584,66.6260712 15.29,66.29 L16.22,66.54 C16.1797732,66.9168873 16.1163192,67.290932 16.03,67.66 C16.4302098,67.7802465 16.8429215,67.8540649 17.26,67.88 L16.08,65.88 L17,65.4 L18.43,67.82 L19.08,67.67 L19.55,68.67 C19.3690522,68.7228686 19.1854693,68.7662609 19,68.8 L20.64,71.58 L19.8,72.07 L18.48,69.83 C18.2931082,70.2441893 18.1619652,70.6813327 18.09,71.13 C18.4156142,71.232723 18.7505705,71.3030638 19.09,71.34 L19.09,72.34 C18.7201784,72.2486233 18.3561878,72.1350849 18,72 C17.9808166,72.5150289 18.0109539,73.0307118 18.09,73.54 L17,73.6 C16.9753481,73.2270736 16.9753481,72.8529264 17,72.48 L15,73.67 L14,71.9 L12.86,72.57 C12.6077994,72.7477328 12.2876771,72.7990964 11.9925331,72.709185 C11.697389,72.6192735 11.4602743,72.3981556 11.35,72.11 L10.94,71.41 L11.66,70.72 C11.7390992,70.945715 11.8395544,71.163368 11.96,71.37 C12.006544,71.4698751 12.0962641,71.5429344 12.2034973,71.5682805 C12.3107305,71.5936265 12.4236659,71.5684676 12.51,71.5 L13.44,70.95 L12.22,69 L14.22,67.84 C13.9803992,67.6690459 13.750073,67.4854526 13.53,67.29 L13.88,66.65 C12.3405026,67.4666691 10.6226747,67.8892547 8.88,67.88 L9,66.79 C10.3555313,66.7976317 11.6942165,66.4894944 12.91,65.89 C12.3163318,65.676796 11.7353782,65.4297238 11.17,65.15 L12,64.3 C12.6383908,64.687117 13.3072719,65.0215575 14,65.3 L14.31,65.19 Z M12,70.47 C11.1579755,70.1349035 10.3722084,69.6728859 9.67,69.1 L10.25,68.26 C10.8508691,68.8139659 11.5448633,69.2574452 12.3,69.57 L12,70.47 Z M14.41,75.47 L13.41,75.42 C13.498946,74.567869 13.4821519,73.708008 13.36,72.86 L14.36,72.91 C14.474201,73.7755272 14.487624,74.6513797 14.4,75.52 L14.41,75.47 Z M13.49,69.47 L15.18,72.33 L15.67,72.04 L14,69.19 L13.49,69.47 Z M16.76,71.4 L15.07,68.54 L14.63,68.8 L16.32,71.66 L16.76,71.4 Z M17.24,70.52 C17.3842386,69.961635 17.606422,69.4263751 17.9,68.93 C17.3366868,68.9640791 16.7713646,68.920334 16.22,68.8 L17.24,70.52 Z" id="Shape" fill="#FFFFFF"></path>
                <path d="M22,73.64 L23,72.56 C22.62,72.3 22.23,72.02 21.84,71.74 L22.39,70.79 C23.4521692,71.6202558 24.6024152,72.331195 25.82,72.91 L25.32,74 C24.84,73.76 24.32,73.49 23.86,73.18 L22.76,74.39 L23.76,75.32 L23.03,76.13 L22.03,75.2 L21.69,75.58 C21.75,76.31 21.77,77.1 21.78,77.91 L20.66,78.2 C20.79,77.48 20.9,76.88 20.96,76.38 L17.5,80.2 L16.69,79.47 L20.05,75.76 C19.1185793,76.2429121 18.131114,76.6090132 17.11,76.85 L17.59,75.57 C18.8367806,75.4238557 20.0392002,75.0185074 21.12,74.38 L19.99,73.38 L20.72,72.57 L22,73.64 Z M27.39,80.9 L26.7,81.67 L24.78,80 L23.94,80.93 L25.53,82.37 L24.85,83.13 L23.26,81.69 L22.37,82.69 L24.45,84.57 L23.72,85.37 L18.72,80.82 L19.44,80.02 L21.53,81.91 L22.42,80.91 L20.87,79.51 L21.55,78.75 L23.1,80.15 L23.94,79.22 L22.19,77.64 L22.88,76.87 L27.39,80.9 Z M30.16,77.26 L27.72,79.96 L23.82,76.42 L26.26,73.73 L30.16,77.26 Z M28.67,77.26 L26.41,75.26 L25.28,76.4 L27.54,78.4 L28.67,77.26 Z" id="Shape" fill="#FFFFFF"></path>
                <path d="M29.14,88.53 L28.23,88.1 L28.45,87.62 L27.32,87.09 L27.1,87.56 L26.17,87.12 L27.93,83.36 L30.93,84.75 L29.14,88.53 Z M28.88,86.71 L29.59,85.2 L28.46,84.67 L27.75,86.18 L28.88,86.71 Z M31.56,83.08 L31.15,83.95 L28.38,82.65 L28.79,81.78 L31.56,83.08 Z M32.27,81.56 L31.86,82.43 L29.09,81.13 L29.5,80.26 L32.27,81.56 Z M32.16,79.51 L33.31,80.05 L32.87,80.98 L29.42,79.36 L29.86,78.42 L31.17,79.04 C31.17,78.62 31.17,78.2 31.17,77.77 L32.27,77.97 C32.2675735,78.4852065 32.2308254,78.9996791 32.16,79.51 Z M35.04,91.51 L34.04,91.05 L34.31,90.47 L31.2,89 L30.94,89.55 L29.94,89.09 L31.87,85 L37,87.41 L35.04,91.51 Z M34.41,83.24 C33.5787961,83.8356162 32.6790084,84.3291565 31.73,84.71 L31.44,83.71 C32.3217467,83.3610441 33.1551887,82.9006346 33.92,82.34 L34.41,83.24 Z M34.76,89.53 L35.54,87.87 L32.42,86.41 L31.64,88.07 L34.76,89.53 Z M34.76,82.97 L34.53,81.97 C35.4014116,81.5014663 36.1434364,80.8247122 36.69,80 L37.55,80.54 C37.36,80.8 37.18,81.03 36.98,81.25 L39.76,82.55 L39.41,83.29 C38.9546301,83.8094596 38.4450725,84.2787889 37.89,84.69 L37.45,83.78 C37.7902412,83.5501184 38.1082868,83.2889862 38.4,83 L37.57,82.61 C37.39,82.95 37.22,83.24 37.05,83.49 C36.7943222,84.6217252 37.1555656,85.804322 38,86.6 L37.24,87.26 C36.5201915,86.5257191 36.1552194,85.5147463 36.24,84.49 C35.415812,85.1669375 34.3640344,85.5032201 33.3,85.43 L33.3,84.43 C34.4639287,84.5721359 35.6131127,84.0703255 36.3,83.12 C36.43,82.92 36.6,82.62 36.8,82.24 L36.24,82 C35.7834339,82.3990754 35.2756108,82.7353821 34.73,83 L34.76,82.97 Z M35.23,81.17 L34.23,81.52 C34.085327,80.7920486 33.8640974,80.0814325 33.57,79.4 L34.5,79.08 C34.7990086,79.7563693 35.0333853,80.4594994 35.2,81.18 L35.23,81.17 Z" id="Shape" fill="#FFFFFF"></path>
                <path d="M39.72,92.79 L38.66,92.65 L39.25,88.31 L42.61,88.77 L42.04,92.92 L41.04,92.78 L41.11,92.27 L39.84,92.1 L39.72,92.79 Z M42.72,86.96 L42.59,87.96 L39.51,87.54 L39.64,86.54 L42.72,86.96 Z M41.2,83.26 C41.09,82.83 40.98,82.42 40.84,82.02 L42,81.89 C42.1460303,82.3909678 42.2530173,82.9024993 42.32,83.42 L43.6,83.6 L43.46,84.6 L39.63,84.08 L39.77,83.08 L41.2,83.26 Z M42.94,85.26 L42.8,86.26 L39.72,85.84 L39.85,84.84 L42.94,85.26 Z M41.44,89.57 L40.17,89.39 L40,91.07 L41.27,91.24 L41.44,89.57 Z M43.61,86.57 L43.06,85.57 C44.1131704,84.6797581 44.9075734,83.5226929 45.36,82.22 L46.43,82.52 C46.3033161,82.8617729 46.1563893,83.1956975 45.99,83.52 L50.2,84.1 C49.58,88.62 49.14,91.4 48.88,92.44 C48.8277074,92.8727026 48.5909959,93.2617047 48.2307218,93.5069977 C47.8704478,93.7522907 47.4217557,93.8299463 47,93.72 C46.74,93.72 46.3,93.6 45.67,93.48 L45.54,92.41 C46.09,92.52 46.54,92.61 46.98,92.67 C47.42,92.73 47.77,92.47 47.92,91.91 C48.07,91.35 48.43,89 49,85.11 L45.46,84.63 C45.2091266,85.0001511 44.9352542,85.3541812 44.64,85.69 L47.73,86.11 L46.96,91.76 L43.38,91.27 L44.06,86.27 L43.61,86.57 Z M46.23,89.17 L44.73,89 L44.53,90.44 L46.04,90.65 L46.23,89.17 Z M46.36,88.25 L46.55,86.87 L45,86.73 L44.81,88.11 L46.36,88.25 Z" id="Shape" fill="#FFFFFF"></path>
                <path d="M55.61,86.12 L55.38,85.29 L62.55,83.35 L62.44,82.95 L55.44,84.83 L55.23,84.06 L62.23,82.18 L62.11,81.75 L54.93,83.69 L54.7,82.86 L63,80.64 L63.88,83.91 L55.61,86.12 Z M59.35,85.57 L59.59,86.46 L58,86.89 L58.25,87.8 C58.83,87.55 59.37,87.31 59.88,87.07 L60.12,87.97 C58.97,88.51 57.65,89.1 56.12,89.71 L55.6,88.87 L57.22,88.22 L57,87.17 L55.56,87.56 L55.32,86.67 L59.35,85.57 Z M64.35,84.13 L65.06,86.76 L63.37,87.22 L63.56,87.92 L66,87.27 L66.27,88.27 L63.85,88.92 L64.21,90.24 C64.3651464,90.5364351 64.3617631,90.8908196 64.2009856,91.1842387 C64.040208,91.4776577 63.7433413,91.6712294 63.41,91.7 L61.92,92.1 L61.41,91.1 C61.8966667,91.02 62.3533333,90.92 62.78,90.8 C62.9041658,90.7744459 63.0101469,90.6941772 63.0683871,90.5815795 C63.1266272,90.4689818 63.1308949,90.3361028 63.08,90.22 L62.79,89.15 L58.86,90.21 C59.5958532,90.4077702 60.3121495,90.6721973 61,91 L60.48,91.91 C59.7100139,91.5405171 58.906325,91.2458312 58.08,91.03 L58.48,90.38 L56,91.06 L55.73,90.06 L62.55,88.22 L62.36,87.52 L60.62,88 L59.91,85.37 L64.35,84.13 Z M63.56,85.24 L61.12,85.9 L61.38,86.9 L63.82,86.24 L63.56,85.24 Z" id="Shape" fill="#FFFFFF"></path>
                <path d="M70.27,83 C70.0233333,83.4266667 69.7633333,83.8466667 69.49,84.26 L71.28,87.1 C71.4919236,87.3504889 71.5759016,87.6849982 71.5074202,88.0058824 C71.4389389,88.3267665 71.2257186,88.5978493 70.93,88.74 L70.06,89.29 L69.24,88.49 C69.516844,88.3703064 69.7842688,88.2299084 70.04,88.07 C70.1512858,88.0183991 70.2318093,87.9174467 70.2573773,87.7974739 C70.2829453,87.677501 70.2505779,87.5524899 70.17,87.46 L68.79,85.28 C68.49,85.67 68.19,86.06 67.87,86.44 L67,85.63 C67.4155774,85.2069121 67.8094172,84.763008 68.18,84.3 L66.84,82.17 L65.54,82.99 L64.96,82.07 L66.26,81.25 L65.1,79.49 L66.1,78.88 L67.21,80.64 L68.32,79.94 L68.9,80.86 L67.79,81.56 L68.9,83.32 C69.18,82.91 69.44,82.49 69.67,82.05 L70.27,83 Z M74.38,77.59 L71.7,80.06 C72.0095224,80.4760811 72.3434416,80.873445 72.7,81.25 C73.02,81.59 73.35,81.89 73.7,82.16 C73.9199409,81.1218949 73.9806356,80.0563658 73.88,79 L75,78.95 C75.1183905,80.2935415 74.9999247,81.647436 74.65,82.95 L75.21,83.29 C75.93,83.65 76.44,83.73 76.74,83.56 C77.04,83.39 76.74,82.71 76.33,81.56 L77.53,81.56 C77.6962505,82.155577 77.8100185,82.7645705 77.87,83.38 C77.87,84.01 77.78,84.43 77.46,84.63 C76.7972981,84.9330532 76.0307151,84.9071301 75.39,84.56 C75.0030987,84.4160722 74.6340125,84.2281737 74.29,84 C73.919173,84.8957937 73.4279861,85.7368672 72.83,86.5 L71.83,86.01 C72.4840164,85.2034811 73.0070774,84.2990918 73.38,83.33 C73.05,83.07 72.71,82.79 72.38,82.46 C71.8541358,81.9709545 71.3660729,81.4427767 70.92,80.88 L69.83,81.88 L69,81.05 L70.14,80.05 C69.56,79.28 68.95,78.41 68.33,77.43 L69.33,76.82 C69.91,77.74 70.46,78.57 71,79.29 L73.64,76.86 L74.38,77.59 Z M72.65,76.47 L72.06,77.47 C71.4863872,77.1755597 70.8913628,76.9248472 70.28,76.72 L70.88,75.77 C71.46,75.99 72.0466667,76.2366667 72.64,76.51 L72.65,76.47 Z" id="Shape" fill="#FFFFFF"></path>
                <path d="M74.75,74.55 C74.34,74.4 73.92,74.28 73.5,74.18 L73.98,73.18 C74.4829136,73.3348521 74.974157,73.5253343 75.45,73.75 L76.32,72.75 L77.1,73.42 L74.46,76.51 L73.68,75.84 L74.75,74.55 Z M77.33,74.26 L78.08,74.9 L76.08,77.25 L75.33,76.61 L77.33,74.26 Z M78.6,75.33 L79.35,75.97 L77.35,78.33 L76.6,77.69 L78.6,75.33 Z M77.77,68.8 C79.2691615,69.1147058 80.8248063,69.0284727 82.28,68.55 L82.58,69.66 C81.1792975,70.0834364 79.6964722,70.1589507 78.26,69.88 C78.7258273,71.2284235 78.9162551,72.6566322 78.82,74.08 L77.68,74 C77.8186141,72.5107916 77.6309234,71.0092663 77.13,69.6 L77.77,68.8 Z M82.82,78.8 L81.38,80.5 L81.79,80.85 L81.09,81.67 L77.9,78.94 L80.06,76.41 L82.82,78.8 Z M81.37,79 L80.12,77.93 L79.36,78.81 L80.61,79.88 L81.37,79 Z M80.71,70.69 C81.1662353,72.1548816 81.109802,73.7314866 80.55,75.16 L79.55,74.87 C80.0654221,73.5950613 80.1184884,72.1799603 79.7,70.87 L80.71,70.69 Z M82.71,70.74 C83.2491233,72.765344 83.0797613,74.9141248 82.23,76.83 L81.23,76.52 C82.0236675,74.7732243 82.1931256,72.8068045 81.71,70.95 L82.71,70.74 Z M84.91,71.14 C85.4165288,73.7145313 85.0652663,76.384126 83.91,78.74 L82.83,78.42 C83.9196287,76.2587345 84.2708892,73.7999109 83.83,71.42 L84.91,71.14 Z" id="Shape" fill="#FFFFFF"></path>
                <path d="M85.59,64.19 L84.27,67.19 L90.27,69.78 L89.82,70.78 L80,66.58 L81.77,62.51 L85.59,64.19 Z M82.2,63.95 L81.33,65.95 L81.92,66.21 L82.79,64.21 L82.2,63.95 Z M86,63.34 L82.13,61.66 L83.93,57.52 L92.78,61.37 C93.0634894,61.4444576 93.2952888,61.6482024 93.405501,61.9197967 C93.5157132,62.191391 93.4914397,62.4990494 93.34,62.75 C93.1866667,63.1033333 93.0233333,63.4366667 92.85,63.75 L91.73,63.59 C91.91,63.26 92.07,62.95 92.2,62.66 C92.2459022,62.5724121 92.2487315,62.4685226 92.2076644,62.3785662 C92.1665974,62.2886099 92.0862479,62.2226933 91.99,62.2 L87.35,60.2 L86,63.34 Z M83.38,66.82 L84.25,64.82 L83.63,64.55 L82.76,66.55 L83.38,66.82 Z M84.38,58.95 L83.49,61 L84.1,61.26 L85,59.19 L84.38,58.95 Z M85.47,61.89 L86.37,59.82 L85.78,59.56 L84.88,61.63 L85.47,61.89 Z M87.37,61.89 L91.78,63.81 L90,68.06 L85.59,66.14 L87.37,61.89 Z M88.72,63.66 L87.79,63.26 L86.79,65.49 L87.71,65.89 L88.72,63.66 Z M89.55,64.02 L88.55,66.25 L89.49,66.66 L90.49,64.43 L89.55,64.02 Z" id="Shape" fill="#FFFFFF"></path>
                <path d="M51.72,36.88 C51.7532803,36.5932276 51.6190056,36.3128104 51.3747297,36.1589427 C51.1304538,36.005075 50.8195462,36.005075 50.5752703,36.1589427 C50.3309944,36.3128104 50.1967197,36.5932276 50.23,36.88 C50.23,37.3080207 49.8830207,37.655 49.455,37.655 C49.0269793,37.655 48.68,37.3080207 48.68,36.88 C48.6361064,36.5017732 48.3157652,36.2164581 47.935,36.2164581 C47.5542348,36.2164581 47.2338936,36.5017732 47.19,36.88 C47.19,38.1336864 48.2063136,39.15 49.46,39.15 C50.7136864,39.15 51.73,38.1336864 51.73,36.88 L51.72,36.88 Z" id="Shape" fill="#FFFFFF"></path>
                <path d="M58.65,36.88 C58.6061064,36.5017732 58.2857652,36.2164581 57.905,36.2164581 C57.5242348,36.2164581 57.2038936,36.5017732 57.16,36.88 C57.16,37.3080207 56.8130207,37.655 56.385,37.655 C55.9569793,37.655 55.61,37.3080207 55.61,36.88 C55.6432803,36.5932276 55.5090056,36.3128104 55.2647297,36.1589427 C55.0204538,36.005075 54.7095462,36.005075 54.4652703,36.1589427 C54.2209944,36.3128104 54.0867197,36.5932276 54.12,36.88 C54.12,38.1336864 55.1363136,39.15 56.39,39.15 C57.6436864,39.15 58.66,38.1336864 58.66,36.88 L58.65,36.88 Z" id="Shape" fill="#FFFFFF"></path>
                <path d="M64.74,54.12 L63.4,53.55 C63.149922,53.4093745 62.8415308,53.4237382 62.6056068,53.587 C62.3696827,53.7502618 62.2475704,54.0338107 62.2910543,54.3174015 C62.3345382,54.6009922 62.535998,54.8349268 62.81,54.92 L64.15,55.49 C65.2630162,55.95191 65.9916207,57.0349706 66,58.24 L66,65 L39.86,65 L39.86,58.24 C39.8632711,57.0421972 40.578739,55.961133 41.68,55.49 L48.4,52.63 C49.3288668,52.2331844 49.9310456,51.3200768 49.93,50.31 L49.93,50 C51.8659435,50.7158578 53.9940565,50.7158578 55.93,50 L55.93,50.34 C55.9289544,51.3500768 56.5311332,52.2631844 57.46,52.66 L59.64,53.59 C60.0063578,53.7037481 60.3994958,53.5227094 60.5512277,53.1703827 C60.7029596,52.8180561 60.5643699,52.4080251 60.23,52.22 L58,51.25 C57.6197928,51.0938583 57.3738481,50.7209744 57.38,50.31 L57.38,49.31 C60.1464493,47.9427573 62.4081525,45.7335704 63.84,43 C64.7806537,41.2095564 65.4352436,39.2829026 65.78,37.29 C65.9841511,37.187104 66.1726919,37.0557988 66.34,36.9 C68.47,35 68.15,29 68.1,28.29 C67.9179277,25.5438621 66.9838428,22.9007478 65.4,20.65 L65,20 C64.9772217,19.9456224 64.9772217,19.8843776 65,19.83 L65.15,19.25 C65.2723507,18.7916741 65.1999791,18.3031659 64.95,17.9 C63.6668757,15.8120629 61.9848236,13.9974855 60,12.56 C57.3620339,10.6232388 53.9757299,10.0176184 50.83,10.92 C47.8345367,11.657443 45.5751182,14.1219047 45.1,17.17 C45.0043484,17.6436307 44.9707328,18.1276944 45,18.61 C44.111016,18.8772666 43.267991,19.2785465 42.5,19.8 C41.3148639,20.4530431 40.6106547,21.729179 40.69,23.08 C40.69,23.23 40.69,23.38 40.69,23.54 C40.0152617,23.383345 39.3148563,23.6675094 38.94,24.25 C38.56,24.76 37.94,26.1 37.73,29.36 C37.6507416,30.7002821 37.7482457,32.0451663 38.02,33.36 C38.2859135,34.5495747 38.8042745,35.6681431 39.54,36.64 C39.6635755,36.8143102 39.8285138,36.955195 40.02,37.05 C40.2043535,38.1528987 40.4751891,39.2395846 40.83,40.3 C40.9941151,40.6426094 41.3884787,40.8084048 41.7480998,40.6859806 C42.1077208,40.5635564 42.3190133,40.1915802 42.24,39.82 C41.9120559,38.8411157 41.661289,37.8380481 41.49,36.82 C41.6529836,36.6564541 41.7702179,36.453018 41.83,36.23 C42.2724175,34.138687 43.1855278,32.1756708 44.5,30.49 C45.7351761,29.0286541 47.3069265,27.8893067 49.08,27.17 L49.15,27.17 C49.944385,26.8440204 50.710347,26.4526774 51.44,26 C52.4066699,26.5321175 53.409074,26.9965648 54.44,27.39 C57.03,28.39 60.56,30.14 62.67,33.18 C63.3849546,34.1345787 63.873905,35.2389912 64.1,36.41 C64.0982678,36.439975 64.0982678,36.470025 64.1,36.5 C64.1385857,36.6877907 64.2170179,36.8651154 64.33,37.02 C64.0110681,38.8558954 63.4071109,40.6306522 62.54,42.28 C61.0539514,45.1107274 58.5917329,47.3064721 55.61,48.46 C53.8899173,49.1498211 51.9700827,49.1498211 50.25,48.46 C47.4755459,47.3863478 45.1459248,45.4056413 43.64,42.84 C43.4081818,42.5407191 42.9896731,42.4611134 42.6641653,42.6543836 C42.3386575,42.8476539 42.2082093,43.2532027 42.36,43.6 C43.7954612,46.0480525 45.9159345,48.022526 48.46,49.28 L48.46,50.28 C48.4661519,50.6909744 48.2202072,51.0638583 47.84,51.22 L41.12,54.08 C39.4683938,54.7826894 38.3972697,56.4051273 38.4,58.2 L38.4,65.7 C38.4,66.1142136 38.7357864,66.45 39.15,66.45 L66.75,66.45 C67.1642136,66.45 67.5,66.1142136 67.5,65.7 L67.5,58.2 C67.4773085,56.4108671 66.3922114,54.8068106 64.74,54.12 Z M48.57,25.75 L48.5,25.75 C46.5023255,26.5600765 44.7314927,27.8435871 43.34,29.49 C41.9733939,31.2229781 41.0008327,33.232938 40.49,35.38 C40.0081886,34.6685118 39.6686129,33.8705089 39.49,33.03 C39.2489399,31.8563027 39.1615404,30.6562394 39.23,29.46 C39.2073322,27.9755162 39.5219008,26.5052499 40.15,25.16 C40.24,25.03 40.29,25 40.33,25 C40.4527547,25.0426983 40.5804496,25.0695815 40.71,25.08 C40.7419915,25.9977421 40.8523935,26.9110685 41.04,27.81 C41.1220321,28.141896 41.4181365,28.376312 41.76,28.38 L41.94,28.38 C42.3389478,28.2813535 42.5842076,27.8800192 42.49,27.48 C42.240727,26.0337473 42.1269006,24.5673957 42.15,23.1 C42.0584147,22.2178899 42.5362061,21.3747285 43.34,21 C43.9538656,20.5701323 44.6277865,20.2331718 45.34,20 C46.313615,22.1611056 47.9443848,23.9598517 50,25.14 C49.46,25.39 49,25.59 48.57,25.75 Z M54.93,26.02 C53.2991372,25.3765722 51.7459989,24.5513626 50.3,23.56 C47.46,21.56 46.2,19.5 46.57,17.41 L46.57,17.35 C46.8653077,15.4946306 48.0126178,13.8846955 49.67,13 C50.8183808,14.4372561 52.3563102,15.5134595 54.1,16.1 C55.9,16.88 57.46,17.63 58.18,18.99 C58.2902776,19.2515337 58.538746,19.4284085 58.8219696,19.4469928 C59.1051932,19.4655772 59.3746437,19.3226868 59.5181509,19.0778058 C59.661658,18.8329248 59.6546329,18.5280119 59.5,18.29 C58.5,16.36 56.29,15.41 54.69,14.72 C53.3161595,14.2512193 52.0771344,13.4549483 51.08,12.4 L51.26,12.34 C52.0592612,12.1083844 52.8878783,11.9938601 53.72,12 C55.6614614,12.0067403 57.5512509,12.6261713 59.12,13.77 C60.9315115,15.0892244 62.4670853,16.7504979 63.64,18.66 C63.6656685,18.7172547 63.6656685,18.7827453 63.64,18.84 L63.49,19.42 C63.3715733,19.8708263 63.440079,20.3503663 63.68,20.75 L64.1,21.44 C65.5664607,23.4955154 66.4289333,25.9201373 66.59,28.44 C66.73,30.66 66.53,34.53 65.42,35.75 C65,34 63.16,29.09 54.93,26 L54.93,26.02 Z" id="Shape" fill="#FFFFFF"></path>
                <path d="M40.37,47.39 C40.4384799,47.0890409 40.4104906,46.7741618 40.29,46.49 L41.22,45.91 C41.5628073,45.6957613 41.8061532,45.3537925 41.8962293,44.9597096 C41.9863054,44.5656266 41.9156909,44.1518954 41.7,43.81 L41.36,43.26 L43.92,41.48 C44.2225488,41.232657 44.2844709,40.7944512 44.0623031,40.4729613 C43.8401352,40.1514713 43.4083416,40.0544513 43.07,40.25 L40.57,42 L40.27,41.51 C40.0557613,41.1671927 39.7137925,40.9238468 39.3197096,40.8337707 C38.9256266,40.7436946 38.5118954,40.8143091 38.17,41.03 L37.24,41.61 C36.7626905,41.0680492 35.9639369,40.9497153 35.35,41.33 L32.22,43.33 L29.09,45.33 L23.82,48.63 L23.27,47.76 C23.0381864,47.4437642 22.6019071,47.3594597 22.2689657,47.566565 C21.9360242,47.7736704 21.8188013,48.2022793 22,48.55 L22.93,50 L23.58,51 L22,52 L21.88,51.8 C21.6918989,51.4891027 21.3864088,51.2671614 21.0325979,51.1843545 C20.6787869,51.1015477 20.3065334,51.1648682 20,51.36 L18.73,52.15 C18.1212739,52.5606908 17.9524464,53.3826139 18.35,54 L20.87,58 C21.0586375,58.3041523 21.3611086,58.5202032 21.71,58.6 C21.8130005,58.6117287 21.9169995,58.6117287 22.02,58.6 C22.2716925,58.5980709 22.517753,58.5252924 22.73,58.39 L24,57.68 C24.632321,57.2850843 24.824829,56.4523752 24.43,55.82 L24.31,55.62 L25.86,54.62 L27.46,57.17 C27.6918136,57.4862358 28.1280929,57.5705403 28.4610343,57.363435 C28.7939758,57.1563296 28.9111987,56.7277207 28.73,56.38 L28.18,55.51 L33.45,52.21 L39.72,48.29 C40.0459762,48.0864934 40.2793007,47.7634288 40.37,47.39 Z M22.06,57.13 L19.69,53.34 L20.69,52.7 L21.14,53.41 L22.62,55.77 L23.06,56.48 L22.06,57.13 Z M23.51,54.35 L22.82,53.25 L24.37,52.25 L25.06,53.35 L23.51,54.35 Z M27.38,54.27 L25.25,50.86 L24.6,49.86 L26.47,48.69 L27.28,49.99 C27.5118136,50.3062358 27.9480929,50.3905403 28.2810343,50.183435 C28.6139758,49.9763296 28.7311987,49.5477207 28.55,49.2 L27.74,47.9 L29.25,46.96 L32,51.37 L27.38,54.27 Z M33.28,50.58 L30.5,46.12 L32.37,44.95 L33.18,46.25 C33.3101282,46.4997162 33.5691666,46.6555018 33.8507462,46.6533863 C34.1323258,46.6512708 34.3889943,46.4916109 34.5153559,46.2399677 C34.6417174,45.9883245 34.6164774,45.6871053 34.45,45.46 L33.64,44.16 L36.13,42.6 L36.49,43.17 L38.66,46.63 L38.92,47.05 L33.28,50.58 Z M38,42.86 L38.91,42.29 L40.35,44.6 L39.44,45.17 L38,42.86 Z" id="Shape" fill="#FFFFFF"></path>
            </g>
        </g>
    </g>
</svg>