<?xml version="1.0" encoding="UTF-8"?>
<svg width="241px" height="42px" viewBox="0 0 241 42" version="1.1" xmlns="http://www.w3.org/2000/svg" xmlns:xlink="http://www.w3.org/1999/xlink">
    <!-- Generator: Sketch 63.1 (92452) - https://sketch.com -->
    <title>Group</title>
    <desc>Created with Sketch.</desc>
    <g id="Page-1" stroke="none" stroke-width="1" fill="none" fill-rule="evenodd">
        <g id="index" transform="translate(-902.000000, -4945.000000)" fill="#FF8300" fill-rule="nonzero">
            <g id="Group" transform="translate(902.000000, 4945.000000)">
                <path d="M0,40.5 L0,1 L6.2,1 C9.8,1 12.4,1.2 14.1,1.7 C16.5,2.3 18.3,3.5 19.7,5.2 C21.1,6.9 21.8,8.9 21.8,11.2 C21.8,12.7 21.5,14.1 20.8,15.3 C20.2,16.5 19.1,17.7 17.7,18.8 C20.1,19.9 21.9,21.3 23,23 C24.1,24.7 24.7,26.7 24.7,29 C24.7,31.2 24.1,33.2 23,35.1 C21.9,36.9 20.4,38.3 18.6,39.2 C16.8,40.1 14.3,40.6 11.1,40.6 L0,40.6 L0,40.5 Z M7.5,8.2 L7.5,16.5 L9.1,16.5 C10.9,16.5 12.3,16.1 13.2,15.3 C14.1,14.5 14.5,13.5 14.5,12.2 C14.5,11 14.1,10 13.2,9.3 C12.4,8.6 11.1,8.2 9.3,8.2 L7.5,8.2 Z M7.5,23.2 L7.5,33.3 L9.4,33.3 C12.5,33.3 14.6,32.9 15.7,32.1 C16.8,31.3 17.3,30.2 17.3,28.7 C17.3,27 16.7,25.7 15.4,24.7 C14.1,23.7 12,23.2 9,23.2 L7.5,23.2 L7.5,23.2 Z" id="Shape"></path>
                <path d="M43.7,1 L51.3,1 L66.5,40.5 L58.7,40.5 L55.6,32.4 L39.5,32.4 L36.3,40.5 L28.5,40.5 L43.7,1 Z M47.5,11.5 L42.2,25 L52.8,25 L47.5,11.5 Z" id="Shape"></path>
                <polygon id="Path" points="72 1 79.5 1 79.5 33.3 90.5 33.3 90.5 40.5 72 40.5"></polygon>
                <path d="M108,1 L115.6,1 L130.8,40.5 L123,40.5 L119.9,32.4 L103.8,32.4 L100.6,40.5 L92.8,40.5 L108,1 Z M111.9,11.5 L106.6,25 L117.2,25 L111.9,11.5 Z" id="Shape"></path>
                <polygon id="Path" points="136.4 1 143.6 1 160.5 27 160.5 1 168 1 168 40.5 160.8 40.5 143.9 14.6 143.9 40.5 136.4 40.5"></polygon>
                <path d="M213.1,7.9 L207.8,12.9 C204.2,9.1 200.2,7.2 195.7,7.2 C191.9,7.2 188.7,8.5 186.2,11.1 C183.6,13.7 182.3,16.9 182.3,20.6 C182.3,23.2 182.9,25.6 184,27.6 C185.1,29.6 186.8,31.2 188.9,32.4 C191,33.6 193.3,34.1 195.9,34.1 C198.1,34.1 200.1,33.7 201.9,32.9 C203.7,32.1 205.7,30.6 207.9,28.5 L213,33.8 C210.1,36.6 207.3,38.6 204.7,39.7 C202.1,40.8 199.1,41.4 195.8,41.4 C189.7,41.4 184.6,39.5 180.7,35.6 C176.8,31.7 174.8,26.7 174.8,20.6 C174.8,16.7 175.7,13.2 177.5,10.1 C179.3,7 181.8,4.6 185.2,2.7 C188.5,0.9 192,0 195.9,0 C199.2,0 202.3,0.7 205.3,2.1 C208.3,3.4 210.9,5.4 213.1,7.9 Z" id="Path"></path>
                <polygon id="Path" points="219.4 1 241 1 241 8.4 226.9 8.4 226.9 15.5 241 15.5 241 22.7 226.9 22.7 226.9 33.1 241 33.1 241 40.5 219.4 40.5"></polygon>
            </g>
        </g>
    </g>
</svg>