<?xml version="1.0" encoding="UTF-8"?>
<svg width="216px" height="42px" viewBox="0 0 216 42" version="1.1" xmlns="http://www.w3.org/2000/svg" xmlns:xlink="http://www.w3.org/1999/xlink">
    <!-- Generator: Sketch 63.1 (92452) - https://sketch.com -->
    <title>Group</title>
    <desc>Created with Sketch.</desc>
    <g id="Page-1" stroke="none" stroke-width="1" fill="none" fill-rule="evenodd">
        <g id="index" transform="translate(-199.000000, -5389.000000)" fill="#D60057" fill-rule="nonzero">
            <g id="Group" transform="translate(199.000000, 5389.000000)">
                <polygon id="Path" points="0 1 7.5 1 7.5 40.5 0 40.5"></polygon>
                <polygon id="Path" points="18.7 1 25.9 1 42.8 27 42.8 1 50.3 1 50.3 40.5 43.1 40.5 26.2 14.6 26.2 40.5 18.7 40.5"></polygon>
                <polygon id="Path" points="58.2 1 80 1 80 8.4 72.8 8.4 72.8 40.5 65.2 40.5 65.2 8.4 58.2 8.4"></polygon>
                <polygon id="Path" points="88 1 109.6 1 109.6 8.4 95.5 8.4 95.5 15.5 109.6 15.5 109.6 22.7 95.5 22.7 95.5 33.1 109.6 33.1 109.6 40.5 88 40.5"></polygon>
                <polygon id="Path" points="119.3 1 126.5 1 143.4 27 143.4 1 150.9 1 150.9 40.5 143.7 40.5 126.8 14.6 126.8 40.5 119.3 40.5 119.3 1"></polygon>
                <path d="M183.5,6.4 L177.9,11.3 C175.9,8.6 174,7.2 171.9,7.2 C170.9,7.2 170.1,7.5 169.5,8 C168.9,8.5 168.6,9.1 168.6,9.8 C168.6,10.5 168.8,11.1 169.3,11.7 C169.9,12.5 171.7,14.2 174.8,16.8 C177.7,19.2 179.4,20.7 180,21.3 C181.5,22.8 182.6,24.3 183.2,25.7 C183.8,27.1 184.2,28.6 184.2,30.3 C184.2,33.5 183.1,36.2 180.8,38.3 C178.6,40.4 175.6,41.5 172,41.5 C169.2,41.5 166.7,40.8 164.6,39.4 C162.5,38 160.7,35.9 159.2,32.9 L165.5,29.1 C167.4,32.6 169.6,34.3 172.1,34.3 C173.4,34.3 174.5,33.9 175.4,33.2 C176.3,32.4 176.7,31.6 176.7,30.6 C176.7,29.7 176.4,28.8 175.7,27.9 C175,27 173.6,25.6 171.3,23.8 C167,20.3 164.2,17.6 163,15.7 C161.7,13.8 161.1,11.9 161.1,10 C161.1,7.3 162.1,4.9 164.2,3 C166.4,1 169,0 172,0 C174,0 175.8,0.5 177.6,1.4 C179.5,2.3 181.4,3.9 183.5,6.4 Z" id="Path"></path>
                <polygon id="Path" points="194.1 1 215.7 1 215.7 8.4 201.6 8.4 201.6 15.5 215.7 15.5 215.7 22.7 201.6 22.7 201.6 33.1 215.7 33.1 215.7 40.5 194.1 40.5"></polygon>
            </g>
        </g>
    </g>
</svg>