<?xml version="1.0" encoding="UTF-8"?>
<svg width="123px" height="42px" viewBox="0 0 123 42" version="1.1" xmlns="http://www.w3.org/2000/svg" xmlns:xlink="http://www.w3.org/1999/xlink">
    <!-- Generator: Sketch 63.1 (92452) - https://sketch.com -->
    <title>Group</title>
    <desc>Created with Sketch.</desc>
    <g id="Page-1" stroke="none" stroke-width="1" fill="none" fill-rule="evenodd">
        <g id="index" transform="translate(-138.000000, -4997.000000)" fill="#FFD100" fill-rule="nonzero">
            <g id="Group" transform="translate(138.000000, 4997.000000)">
                <path d="M24.1,6.4 L18.5,11.3 C16.5,8.6 14.6,7.2 12.5,7.2 C11.5,7.2 10.7,7.5 10.1,8 C9.6,8.5 9.2,9.1 9.2,9.8 C9.2,10.5 9.4,11.1 9.9,11.7 C10.5,12.5 12.3,14.2 15.4,16.8 C18.3,19.2 20,20.7 20.6,21.3 C22.1,22.8 23.2,24.3 23.8,25.7 C24.4,27.1 24.8,28.6 24.8,30.3 C24.8,33.5 23.7,36.2 21.4,38.3 C19.2,40.4 16.2,41.5 12.6,41.5 C9.8,41.5 7.3,40.8 5.2,39.4 C3.3,38 1.5,35.9 0,32.9 L6.3,29.1 C8.2,32.6 10.4,34.3 12.9,34.3 C14.2,34.3 15.3,33.9 16.2,33.2 C17.1,32.4 17.5,31.6 17.5,30.6 C17.5,29.7 17.2,28.8 16.5,27.9 C15.8,27 14.4,25.6 12.1,23.8 C7.8,20.3 5,17.6 3.8,15.7 C2.5,13.8 1.9,11.9 1.9,10 C1.9,7.3 2.9,4.9 5,3 C7.1,1 9.7,0 12.7,0 C14.7,0 16.5,0.5 18.3,1.4 C20.1,2.3 22.1,3.9 24.1,6.4 Z" id="Path"></path>
                <path d="M50.7,0 C56.3,0 61.1,2 65.1,6.1 C69.1,10.1 71.1,15.1 71.1,20.9 C71.1,26.7 69.1,31.5 65.1,35.5 C61.1,39.5 56.3,41.5 50.7,41.5 C44.8,41.5 39.8,39.4 35.9,35.3 C32,31.2 30,26.3 30,20.7 C30,16.9 30.9,13.4 32.7,10.3 C34.5,7.1 37,4.6 40.2,2.8 C43.5,0.9 47,0 50.7,0 Z M50.6,7.4 C46.9,7.4 43.9,8.7 41.4,11.2 C38.9,13.7 37.7,17 37.7,20.9 C37.7,25.3 39.3,28.7 42.4,31.3 C44.8,33.3 47.6,34.3 50.8,34.3 C54.4,34.3 57.4,33 59.9,30.4 C62.4,27.8 63.7,24.6 63.7,20.9 C63.7,17.1 62.4,14 59.9,11.4 C57.3,8.7 54.2,7.4 50.6,7.4 Z" id="Shape"></path>
                <polygon id="Path" points="78.3 1 97.9 1 97.9 8.3 85.8 8.3 85.8 15.5 97.9 15.5 97.9 22.7 85.8 22.7 85.8 40.5 78.3 40.5"></polygon>
                <polygon id="Path" points="100.7 1 122.5 1 122.5 8.4 115.3 8.4 115.3 40.5 107.7 40.5 107.7 8.4 100.7 8.4"></polygon>
            </g>
        </g>
    </g>
</svg>