<?xml version="1.0" encoding="UTF-8"?>
<svg width="224px" height="42px" viewBox="0 0 224 42" version="1.1" xmlns="http://www.w3.org/2000/svg" xmlns:xlink="http://www.w3.org/1999/xlink">
    <!-- Generator: Sketch 63.1 (92452) - https://sketch.com -->
    <title>Group</title>
    <desc>Created with Sketch.</desc>
    <g id="Page-1" stroke="none" stroke-width="1" fill="none" fill-rule="evenodd">
        <g id="index" transform="translate(-919.000000, -5391.000000)" fill="#8C189B" fill-rule="nonzero">
            <g id="Group" transform="translate(919.000000, 5391.000000)">
                <polygon id="Path" points="0 1 7.7 1 17.6 29.1 27.8 1 35.5 1 21.2 40.5 14 40.5"></polygon>
                <path d="M60.2,0 C65.8,0 70.6,2 74.6,6.1 C78.6,10.1 80.6,15.1 80.6,20.9 C80.6,26.7 78.6,31.5 74.6,35.5 C70.6,39.5 65.8,41.5 60.2,41.5 C54.3,41.5 49.3,39.4 45.4,35.3 C41.5,31.2 39.5,26.3 39.5,20.7 C39.5,16.9 40.4,13.4 42.2,10.3 C44,7.1 46.5,4.6 49.7,2.8 C53,0.9 56.5,0 60.2,0 Z M60.1,7.4 C56.4,7.4 53.4,8.7 50.9,11.2 C48.4,13.7 47.2,17 47.2,20.9 C47.2,25.3 48.8,28.7 51.9,31.3 C54.3,33.3 57.1,34.3 60.3,34.3 C63.9,34.3 66.9,33 69.4,30.4 C71.9,27.8 73.2,24.6 73.2,20.9 C73.2,17.1 71.9,14 69.4,11.4 C66.8,8.7 63.7,7.4 60.1,7.4 Z" id="Shape"></path>
                <polygon id="Path" points="88.1 1 95.6 1 95.6 33.3 106.6 33.3 106.6 40.5 88.1 40.5"></polygon>
                <path d="M114,1 L121.5,1 L121.5,26.5 C121.5,28.7 121.7,30.3 122.1,31.2 C122.5,32.1 123.1,32.8 124,33.4 C124.9,33.9 126,34.2 127.2,34.2 C128.5,34.2 129.7,33.9 130.6,33.3 C131.6,32.7 132.2,31.9 132.6,31 C133,30.1 133.1,28.3 133.1,25.6 L133.1,1 L140.6,1 L140.6,24.6 C140.6,28.6 140.4,31.3 139.9,32.9 C139.5,34.4 138.6,35.9 137.3,37.4 C136,38.8 134.6,39.9 132.9,40.6 C131.3,41.3 129.3,41.6 127.2,41.6 C124.3,41.6 121.8,40.9 119.7,39.6 C117.6,38.3 116.1,36.6 115.1,34.7 C114.2,32.7 113.7,29.4 113.7,24.7 L113.7,1 L114,1 Z" id="Path"></path>
                <polygon id="Path" points="155 1 162.3 1 171.5 28.6 180.7 1 188 1 194.6 40.5 187.3 40.5 183.1 15.6 174.7 40.5 168.1 40.5 159.8 15.6 155.5 40.5 148.2 40.5"></polygon>
                <polygon id="Path" points="202.1 1 223.7 1 223.7 8.4 209.6 8.4 209.6 15.5 223.7 15.5 223.7 22.7 209.6 22.7 209.6 33.1 223.7 33.1 223.7 40.5 202.1 40.5"></polygon>
            </g>
        </g>
    </g>
</svg>