<?xml version="1.0" encoding="UTF-8"?>
<svg width="34px" height="47px" viewBox="0 0 34 47" version="1.1" xmlns="http://www.w3.org/2000/svg" xmlns:xlink="http://www.w3.org/1999/xlink">
    <!-- Generator: Sketch 63.1 (92452) - https://sketch.com -->
    <title>Group 23</title>
    <desc>Created with Sketch.</desc>
    <g id="Page-1" stroke="none" stroke-width="1" fill="none" fill-rule="evenodd">
        <g id="Group-23">
            <rect id="Rectangle" fill="#FFFFFF" x="10" y="9" width="14" height="14"></rect>
            <g id="placeholder-copy-4" fill="#FF8300" fill-rule="nonzero">
                <path d="M29.0207982,4.81167127 L29.0207982,4.81167127 C22.3823772,-1.60389042 11.6185581,-1.60389042 4.97920177,4.81167127 L4.97920177,4.81167127 C-1.00267215,10.5927269 -1.67605383,21.4778507 3.40049583,28.0190483 L17,47 L30.5995042,28.0190483 C35.6760538,21.4778507 35.0026722,10.5927269 29.0207982,4.81167127 Z M17.1655397,21.6920643 C14.0661134,21.6920643 11.5540257,19.2643102 11.5540257,16.2689353 C11.5540257,13.2735603 14.0661134,10.8458062 17.1655397,10.8458062 C20.2649659,10.8458062 22.7770537,13.2735603 22.7770537,16.2689353 C22.7770537,19.2643102 20.2649659,21.6920643 17.1655397,21.6920643 Z" id="Shape"></path>
            </g>
        </g>
    </g>
</svg>