<?xml version="1.0" encoding="UTF-8"?>
<svg width="30px" height="27px" viewBox="0 0 30 27" version="1.1" xmlns="http://www.w3.org/2000/svg" xmlns:xlink="http://www.w3.org/1999/xlink">
    <!-- Generator: Sketch 51.3 (57544) - http://www.bohemiancoding.com/sketch -->
    <title>Shape</title>
    <desc>Created with Sketch.</desc>
    <defs></defs>
    <g id="Page-1" stroke="none" stroke-width="1" fill="none" fill-rule="evenodd">
        <g id="index_v2" transform="translate(-180.000000, -1049.000000)" fill="#E74732" fill-rule="nonzero">
            <g id="Stacked-Group-3" transform="translate(180.000000, 1042.000000)">
                <g id="Group-4">
                    <g id="check-mark" transform="translate(0.000000, 7.000000)">
                        <path d="M28.6590435,0.202766301 C27.3067489,-0.525392339 25.7984203,0.87891361 24.9142277,1.71109491 C22.8858707,3.68752551 21.1694968,5.97602409 19.2449925,8.05647735 C17.1125279,10.3449759 15.1360973,12.6334745 12.9516214,14.8700468 C11.7033495,16.1183187 10.3510548,17.4706133 9.51887354,19.0309533 C7.64646561,17.2104717 6.03411434,15.2340411 3.95366108,13.6217748 C2.44533247,12.4775255 -0.0512114414,11.6453442 0.000799890049,14.4019448 C0.104822553,17.9908116 3.27751377,21.8396502 5.61802369,24.2840977 C6.60623898,25.3243244 7.90652227,26.4165623 9.41485088,26.4685737 C11.2352475,26.5725963 13.1076554,24.3881204 14.1998934,23.1918598 C16.1243976,21.1114065 17.6847376,18.7708116 19.4530379,16.638432 C21.7415364,13.8298201 24.0820463,11.0731346 26.3185336,8.21251134 C27.7228396,6.44412607 32.1438027,2.07508925 28.6590435,0.202766301 Z M2.28921349,14.1938994 C2.23720216,14.1938994 2.18519082,14.1938994 2.08116816,14.2458258 C1.87312284,14.1938994 1.71708884,14.1418031 1.50904352,14.0377805 C1.66507751,13.9337578 1.92513417,13.9857691 2.28921349,14.1938994 Z" id="Shape"></path>
                    </g>
                </g>
            </g>
        </g>
    </g>
</svg>