<?xml version="1.0" encoding="UTF-8"?>
<svg width="18px" height="18px" viewBox="0 0 18 18" version="1.1" xmlns="http://www.w3.org/2000/svg" xmlns:xlink="http://www.w3.org/1999/xlink">
    <!-- Generator: Sketch 63.1 (92452) - https://sketch.com -->
    <title>icon_ig</title>
    <desc>Created with Sketch.</desc>
    <g id="Page-1" stroke="none" stroke-width="1" fill="none" fill-rule="evenodd">
        <g id="icon_ig" fill="#FF8300" fill-rule="nonzero">
            <path d="M15.3632812,0 L2.63671875,0 C1.1829529,0 0,1.1829529 0,2.63671875 L0,15.3632812 C0,16.8170471 1.1829529,18 2.63671875,18 L15.3632812,18 C16.8170471,18 18,16.8170471 18,15.3632812 L18,2.63671875 C18,1.1829529 16.8170471,0 15.3632812,0 Z M9.03515625,13.7109375 C6.41807557,13.7109375 4.2890625,11.5819244 4.2890625,8.96484375 C4.2890625,6.34776307 6.41807557,4.21875 9.03515625,4.21875 C11.6522369,4.21875 13.78125,6.34776307 13.78125,8.96484375 C13.78125,11.5819244 11.6522369,13.7109375 9.03515625,13.7109375 Z M14.3085938,5.2734375 C13.4362793,5.2734375 12.7265625,4.5637207 12.7265625,3.69140625 C12.7265625,2.8190918 13.4362793,2.109375 14.3085938,2.109375 C15.1809082,2.109375 15.890625,2.8190918 15.890625,3.69140625 C15.890625,4.5637207 15.1809082,5.2734375 14.3085938,5.2734375 Z" id="Shape"></path>
            <path d="M14.3085938,3.1640625 C14.0175934,3.1640625 13.78125,3.40040588 13.78125,3.69140625 C13.78125,3.98240662 14.0175934,4.21875 14.3085938,4.21875 C14.5995941,4.21875 14.8359375,3.98240662 14.8359375,3.69140625 C14.8359375,3.40040588 14.5995941,3.1640625 14.3085938,3.1640625 Z" id="Path"></path>
            <path d="M9.03515625,5.2734375 C6.99993896,5.2734375 5.34375,6.92962646 5.34375,8.96484375 C5.34375,11.000061 6.99993896,12.65625 9.03515625,12.65625 C11.0703735,12.65625 12.7265625,11.000061 12.7265625,8.96484375 C12.7265625,6.92962646 11.0703735,5.2734375 9.03515625,5.2734375 Z" id="Path"></path>
        </g>
    </g>
</svg>