<?xml version="1.0" encoding="UTF-8"?>
<svg width="16px" height="16px" viewBox="0 0 16 16" version="1.1" xmlns="http://www.w3.org/2000/svg" xmlns:xlink="http://www.w3.org/1999/xlink">
    <!-- Generator: Sketch 51.3 (57544) - http://www.bohemiancoding.com/sketch -->
    <title>telephone copy</title>
    <desc>Created with Sketch.</desc>
    <defs></defs>
    <g id="Page-1" stroke="none" stroke-width="1" fill="none" fill-rule="evenodd">
        <g id="telephone-copy" fill="#888888" fill-rule="nonzero">
            <path d="M12.1531476,10.5746362 C11.6309023,10.0590437 10.9789272,10.0590437 10.4600083,10.5746362 C10.0641663,10.9671518 9.66832432,11.3596674 9.27913514,11.7588358 C9.17269023,11.8686071 9.08287734,11.8918919 8.95314761,11.818711 C8.69701455,11.6790021 8.42424948,11.5659044 8.17809563,11.4128898 C7.03048649,10.6910603 6.06915593,9.76299376 5.21759667,8.71850312 C4.79514345,8.1995842 4.41925988,7.64407484 4.15647401,7.01871102 C4.10325156,6.89230769 4.11323077,6.80914761 4.21634927,6.70602911 C4.61219127,6.32349272 4.99805405,5.93097713 5.38724324,5.53846154 C5.92944699,4.99293139 5.92944699,4.35426195 5.38391684,3.80540541 C5.07456133,3.49272349 4.76520582,3.18669439 4.45585031,2.87401247 C4.13651559,2.55467775 3.82050728,2.23201663 3.49784615,1.91600832 C2.97560083,1.40706861 2.32362578,1.40706861 1.80470686,1.91933472 C1.40553846,2.31185031 1.02300208,2.71434511 0.617180873,3.1002079 C0.241297297,3.45613306 0.0516923077,3.89189189 0.0117754678,4.4008316 C-0.0514261954,5.22910603 0.151484407,6.01081081 0.437555094,6.77255717 C1.02300208,8.34927235 1.91447817,9.74968815 2.99555925,11.0336798 C4.45585031,12.7700624 6.19888565,14.1438669 8.23797089,15.1351351 C9.15605821,15.5808732 10.1074096,15.9234927 11.141921,15.9800416 C11.8537713,16.0199584 12.4724823,15.8403326 12.9681164,15.2848233 C13.3074096,14.9056133 13.6899459,14.5596674 14.0491975,14.1970894 C14.581422,13.6582121 14.5847484,13.006237 14.0558503,12.4740125 C13.4238337,11.8386694 12.7884906,11.2066528 12.1531476,10.5746362 Z" id="Shape"></path>
            <path d="M11.5178046,7.92349272 L12.7452474,7.71392931 C12.552316,6.58627859 12.0200915,5.56507277 11.2117755,4.75343035 C10.3568898,3.8985447 9.27580873,3.35966736 8.08495634,3.19334719 L7.91198337,4.42744283 C8.83339709,4.55717256 9.67165073,4.97297297 10.333605,5.63492723 C10.9589688,6.26029106 11.3681164,7.05197505 11.5178046,7.92349272 Z" id="Shape"></path>
            <path d="M13.4371393,2.58794179 C12.0200915,1.17089397 10.2271601,0.276091476 8.2479501,0 L8.07497713,1.23409563 C9.78474844,1.47359667 11.3348524,2.24864865 12.5589688,3.46943867 C13.7198836,4.63035343 14.4816299,6.0972973 14.7577214,7.71060291 L15.9851642,7.5010395 C15.6625031,5.63160083 14.7810062,3.93513514 13.4371393,2.58794179 Z" id="Shape"></path>
        </g>
    </g>
</svg>