<?xml version="1.0" encoding="UTF-8"?>
<svg width="243px" height="40px" viewBox="0 0 243 40" version="1.1" xmlns="http://www.w3.org/2000/svg" xmlns:xlink="http://www.w3.org/1999/xlink">
    <!-- Generator: Sketch 51.3 (57544) - http://www.bohemiancoding.com/sketch -->
    <title>资源 1</title>
    <desc>Created with Sketch.</desc>
    <defs></defs>
    <g id="Page-1" stroke="none" stroke-width="1" fill="none" fill-rule="evenodd">
        <g id="index_v2" transform="translate(-33.000000, -30.000000)" fill="#FF8300" fill-rule="nonzero">
            <g id="资源-1" transform="translate(33.000000, 30.000000)">
                <path d="M38.7024426,31.6455696 C36.4437428,29.8772525 34.3747183,27.8800889 32.5285177,25.6860759 C31.0428547,23.9174067 29.7137967,22.0233799 28.5563048,20.0253165 C27.6532985,18.278481 28.7440084,17.3113924 29.9361795,16.5518987 L30.1441754,16.4202532 L30.2253445,16.3696203 C31.6001461,15.5291139 36.0390814,12.8253165 36.820334,11.8126582 C37.9617745,10.3898734 37.1703758,8.42531646 35.9629854,7.60506329 C34.755595,6.78481013 33.0155324,7.17468354 31.960334,8.60759494 C31.2602505,9.53417722 30.3318789,10.7594937 29.4237996,11.756962 L29.3527766,11.8227848 C28.865762,12.2818565 28.4058038,12.7004219 27.9729019,13.078481 C26.6792693,13.9696203 25.4972443,13.3113924 24.9899374,11.9544304 C24.8022338,11.4481013 24.6246764,10.9113924 24.4572651,10.4 C24.2543424,9.77890295 24.0852401,9.19831224 23.9499582,8.65822785 C23.8261334,8.263777 23.7511705,7.85567658 23.7267432,7.44303797 C23.6996868,6.82194093 23.6996868,6.21434599 23.7267432,5.62025316 C23.7537996,5.02616034 23.7537996,4.4185654 23.7267432,3.79746835 C23.7516536,3.25101645 23.5540351,2.7177446 23.1788518,2.31898734 C22.7793245,1.94452711 22.2450228,1.74728958 21.6975157,1.7721519 L20.5814405,1.7721519 C20.0339333,1.74728958 19.4996317,1.94452711 19.1001044,2.31898734 C18.724921,2.7177446 18.5273026,3.25101645 18.5522129,3.79746835 L18.5522129,28.9620253 C18.5522129,31.4936709 18.334071,34.9468354 16.0156785,34.9367089 C15.6656367,34.9367089 15.3105219,34.9367089 14.9604802,34.9367089 C14.6104384,34.9367089 14.1995198,34.9012658 13.8241127,34.8759494 L13.5400209,34.8759494 C13.0903866,34.8391029 12.648793,35.0109178 12.3427766,35.3417722 C12.0695261,35.739511 12.0017459,36.2431241 12.1601461,36.6987342 L12.2818998,37.3063291 C12.3529029,37.7195284 12.559994,38.0972759 12.8703758,38.3797468 C13.1793041,38.6622071 13.5700965,38.8394976 13.9864509,38.8860759 C14.581691,38.9400844 15.170167,38.9805907 15.7518789,39.0075949 C16.3335908,39.0345992 16.9085386,39.0481013 17.4767223,39.0481013 C18.9572391,39.2148478 20.4460373,39.2976812 21.9359499,39.2962025 C24.8225261,39.1291139 25.1472025,36.0658228 24.8935491,34.1974684 C24.6398956,32.3291139 23.6963048,28.4658228 23.6963048,23.6860759 L23.6963048,22.6835443 C23.6963048,21.9004219 23.8180585,21.5088608 24.0615658,21.5088608 C24.3050731,21.5088608 24.5891649,21.7924051 24.9138413,22.3594937 C26.3426587,24.7377021 28.0248506,26.9547985 29.9311065,28.9721519 C31.8574953,30.9939212 33.9780577,32.8220946 36.2622965,34.4303797 C36.584163,34.6900029 36.9848331,34.8328235 37.3986639,34.835443 C37.9879914,34.8245492 38.5434513,34.5584423 38.9205846,34.1063291 C39.2464039,33.7720479 39.4158639,33.316123 39.3873069,32.8506329 C39.3369777,32.3713284 39.0887973,31.9346388 38.7024426,31.6455696 Z" id="Shape"></path>
                <path d="M182.772526,25.4025316 L182.853695,25.1594937 C182.879061,25.0531646 182.919645,24.8962025 182.975449,24.6936709 C183.031253,24.4911392 183.092129,24.2835443 183.158079,24.0658228 C183.224029,23.8481013 183.279833,23.6556962 183.320418,23.478481 C183.346784,23.3785225 183.367112,23.2770741 183.381294,23.1746835 L183.381294,21.5544304 C183.411693,21.1161133 183.250446,20.686131 182.939167,20.3754524 C182.627889,20.0647738 182.197076,19.9038374 181.757912,19.9341772 L180.139603,19.9341772 C177.998768,19.9341772 176.18261,19.235443 175.137557,19.3772152 C174.228499,19.4310578 173.444381,20.0330635 173.159061,20.8962025 C172.820233,21.7823907 173.240605,22.7777333 174.112797,23.1544304 C174.944781,23.443038 175.827495,23.1544304 177.227662,23.1544304 L178.064718,23.1544304 C178.578789,23.1544304 178.768184,23.4109705 178.632902,23.9240506 C177.503699,27.8132427 175.239577,31.2786758 172.129228,33.878481 C171.770977,34.1574235 171.534667,34.5638183 171.469729,35.0126582 C171.422776,35.4647647 171.587518,35.9131936 171.916159,36.2278481 C172.292248,36.6763048 172.852282,36.9296975 173.438079,36.9164557 C173.815629,36.9248887 174.185784,36.8112142 174.493278,36.5924051 C176.409891,35.2188413 178.108148,33.5648236 179.530835,31.6860759 C180.944158,29.779944 182.03889,27.6579649 182.772526,25.4025316 Z" id="Shape"></path>
                <path d="M172.14952,21.5898734 C172.190104,20.7443038 172.220543,19.8835443 172.245908,19.0126582 C172.286493,16.8759494 172.753215,15.0177215 175.832568,15.0177215 L192.066388,15.0177215 C193.434884,15.0336786 194.801523,15.12326 196.160355,15.2860759 C197.037996,15.3822785 198.255532,15.4531646 198.874447,14.835443 C199.561531,14.0385659 199.842266,12.9700916 199.635407,11.9392405 C199.393719,10.4492086 199.241256,8.94611977 199.178831,7.43797468 L199.178831,6.07594937 C199.21774,5.51718869 199.023069,4.96729394 198.641086,4.55696203 C198.23506,4.19718742 197.701513,4.01481783 197.159749,4.05063291 L169.283236,4.05063291 C168.741473,4.01481783 168.207925,4.19718742 167.8019,4.55696203 C167.416232,4.96561917 167.217815,5.51571475 167.254008,6.07594937 L167.254008,19.321519 C167.254008,20.6177215 167.20666,21.9679325 167.111962,23.3721519 C167.017265,24.7763713 166.861691,26.1822785 166.64524,27.5898734 C166.428453,28.9966727 166.137189,30.3910295 165.772672,31.7670886 C165.423923,33.098993 164.969287,34.401012 164.41309,35.6607595 C164.198599,36.1010359 164.141321,36.6012564 164.250752,37.078481 C164.360477,37.5702011 164.649873,38.0034579 165.062443,38.2936709 C165.371653,38.5478712 165.757711,38.6905803 166.158225,38.6987342 C166.72029,38.6962443 167.235222,38.3847658 167.497516,37.8886076 C168.534412,36.2018803 169.399458,34.4157532 170.079708,32.556962 C170.709329,30.8095128 171.191263,29.0125196 171.520459,27.1848101 C171.849464,25.3351269 172.05958,23.4663321 172.14952,21.5898734 Z M172.291566,9.46329114 C172.250089,8.91449617 172.450523,8.3749438 172.840434,7.98578468 C173.230344,7.59662557 173.770939,7.39657759 174.320793,7.43797468 L192.117119,7.43797468 C192.666974,7.39657759 193.207568,7.59662557 193.597479,7.98578468 C193.987389,8.3749438 194.187824,8.91449617 194.146347,9.46329114 L194.146347,9.58481013 C194.187824,10.1336051 193.987389,10.6731575 193.597479,11.0623166 C193.207568,11.4514757 192.666974,11.6515237 192.117119,11.6101266 L174.325866,11.6101266 C173.776012,11.6515237 173.235417,11.4514757 172.845507,11.0623166 C172.455596,10.6731575 172.255162,10.1336051 172.296639,9.58481013 L172.291566,9.46329114 Z" id="Shape"></path>
                <path d="M200.73119,34.121519 C199.373914,33.1952021 198.102282,32.1496948 196.931461,30.9974684 C196.072513,30.1490303 195.267699,29.2476847 194.521754,28.2987342 C193.750647,27.2860759 194.547119,26.0253165 195.374029,25.4582278 L196.327766,24.8101266 C197.112401,24.2700422 197.898727,23.7029536 198.686743,23.1088608 C199.172987,22.7781164 199.473954,22.2374182 199.498434,21.6506329 C199.488853,21.0708553 199.239076,20.5209389 198.808497,20.1316456 L198.402651,19.7265823 C198.03789,19.3257599 197.524556,19.0915453 196.982192,19.078481 C196.392865,19.0893748 195.837405,19.3554817 195.460271,19.8075949 L193.791232,21.4886076 L193.197683,22.0708861 C192.826042,22.4762741 192.272928,22.6645169 191.730562,22.5701958 C191.188196,22.4758748 190.731468,22.112014 190.519102,21.6050633 C190.356764,21.2556962 190.199499,20.9113924 190.057453,20.5924051 C189.915407,20.2734177 189.727704,19.8227848 189.590731,19.4987342 C189.490007,19.2944377 189.421557,19.0758185 189.387808,18.8506329 L189.387808,17.5746835 C189.435555,17.2292259 189.318452,16.881387 189.071387,16.6347983 C188.824322,16.3882096 188.475812,16.2713322 188.129687,16.3189873 L186.46572,16.3189873 C185.915865,16.2775902 185.375271,16.4776382 184.985361,16.8667973 C184.59545,17.2559565 184.395016,17.7955088 184.436493,18.3443038 L184.436493,33.4177215 C184.436493,34.2008439 184.26739,34.7206751 183.929186,34.9772152 C183.435283,35.274347 182.860278,35.4089648 182.285511,35.3620253 C181.987891,35.3620253 181.676743,35.3620253 181.352067,35.3620253 C181.02739,35.3620253 180.716242,35.3417722 180.418622,35.3012658 L180.13453,35.3012658 C179.74035,35.2756343 179.35471,35.4236714 179.079332,35.7063291 C178.822162,36.0407166 178.746281,36.4799784 178.876409,36.8810127 L178.998163,37.3873418 C179.063537,37.7995306 179.254891,38.1815006 179.546054,38.4810127 C179.831011,38.7630224 180.202614,38.9413333 180.601253,38.9873418 C181.14238,39.0683544 181.663215,39.1223629 182.163758,39.1493671 C182.664301,39.1763713 183.185136,39.1898734 183.726263,39.1898734 C184.431522,39.1912349 185.136236,39.1506567 185.83666,39.0683544 C186.463875,39.0072233 187.075305,38.8358044 187.642672,38.5620253 C188.169416,38.2941106 188.606588,37.878894 188.900793,37.3670886 C189.241729,36.7117778 189.402758,35.9780593 189.367516,35.2405063 L189.367516,30.2278481 C189.367516,29.5527426 189.502797,29.2151899 189.773361,29.2151899 C189.962756,29.2151899 190.219791,29.4177215 190.544468,29.8227848 C191.631903,31.2316554 192.849732,32.5352899 194.181858,33.7164557 C195.506377,34.8876097 196.926714,35.9461512 198.428017,36.8810127 C198.742984,37.0842862 199.108236,37.1964548 199.483215,37.2050633 C200.077404,37.215467 200.641611,36.9451694 201.005136,36.4759494 C201.326788,36.1320262 201.48879,35.6690036 201.451566,35.2 C201.381533,34.7524589 201.118167,34.3581708 200.73119,34.121519 Z" id="Shape"></path>
                <path d="M238.358142,12.6582278 L238.52048,12.6177215 C238.739293,12.5948761 238.954334,12.686859 239.088664,12.8607595 L239.697432,13.6303797 C239.958146,14.001427 240.379865,14.2269123 240.8338,14.2379747 C240.963413,14.2385584 241.092702,14.2249754 241.219353,14.1974684 C241.355743,14.1644407 241.485923,14.1097336 241.604906,14.035443 L241.888998,13.8734177 C242.281474,13.654371 242.572725,13.2910084 242.700689,12.8607595 C242.803135,12.4266973 242.714499,11.9696279 242.457182,11.6050633 C241.063913,9.4842013 239.551408,7.44380295 237.926931,5.49367089 C237.567168,5.01484192 237.004638,4.73037575 236.40501,4.72405063 C236.042201,4.74299742 235.691426,4.8602805 235.390397,5.06329114 L235.06572,5.26582278 C234.592405,5.49707462 234.259939,5.94202233 234.17286,6.46075949 C234.1399,6.98851294 234.348932,7.50263458 234.741044,7.85822785 C234.876326,7.99324895 235.011608,8.1350211 235.146889,8.2835443 C235.282171,8.43206751 235.417453,8.57383966 235.552735,8.70886076 C235.796242,8.95189873 235.884175,9.16118143 235.816534,9.33670886 C235.748894,9.51223629 235.539207,9.61350211 235.187474,9.64050633 L232.524113,9.80253165 C231.644781,9.85654008 230.756994,9.89704641 229.860752,9.92405063 L229.738998,9.92405063 C229.360209,9.92405063 229.136994,9.82953586 229.069353,9.64050633 C229.001712,9.45147679 229.116701,9.19493671 229.414322,8.87088608 C229.955449,8.30379747 230.476284,7.72320675 230.976827,7.12911392 C231.47737,6.5350211 231.971148,5.92742616 232.458163,5.30632911 C232.854567,4.88323125 233.014287,4.29112747 232.884301,3.72658228 C232.666978,3.18018988 232.184606,2.78280892 231.605887,2.67341772 L230.956534,2.51139241 C230.752252,2.43091027 230.536536,2.38306588 230.317328,2.36962025 C229.557543,2.35444375 228.865604,2.8041402 228.572192,3.50379747 C228.004008,4.5164557 227.368184,5.55105485 226.664718,6.60759494 C226.000657,7.60475445 225.178181,8.48721125 224.229645,9.22025316 C223.865773,9.49876064 223.573616,9.85978185 223.37737,10.2734177 C223.187935,10.6784627 223.144912,11.1364915 223.255616,11.5696203 L223.458539,12.7443038 C223.618819,13.5086397 224.299604,14.0522173 225.081921,14.0405063 L225.16309,14.0405063 L225.893612,13.9594937 C226.35357,13.9594937 226.50238,14.1755274 226.340042,14.6075949 C226.047722,15.3741963 225.625588,16.0849609 225.092067,16.7088608 C224.560126,17.3338397 223.953623,17.8915638 223.286054,18.3696203 C223.160712,18.473907 223.002806,18.5312166 222.839624,18.5316456 C222.542004,18.5316456 222.393194,18.3156118 222.393194,17.8835443 L222.393194,13.3265823 C222.434671,12.7777873 222.234237,12.2382349 221.844326,11.8490758 C221.454416,11.4599167 220.913821,11.2598687 220.363967,11.3012658 L218.902923,11.3012658 C218.735229,11.3253178 218.565984,11.2690895 218.446188,11.1495249 C218.326393,11.0299602 218.270056,10.8610415 218.294154,10.6936709 L218.294154,7.8835443 C218.270056,7.7161737 218.326393,7.54725497 218.446188,7.42769031 C218.565984,7.30812565 218.735229,7.25189736 218.902923,7.27594937 L221.343069,7.27594937 C221.802527,7.30154051 222.250957,7.12945793 222.57489,6.80324514 C222.898824,6.47703236 223.067222,6.02794529 223.037474,5.56962025 C223.065994,5.11027995 222.895587,4.66081918 222.569533,4.33539347 C222.243479,4.00996775 221.79315,3.83988902 221.332923,3.86835443 L206.30142,3.86835443 C205.840341,3.83837004 205.388616,4.00777636 205.061407,4.3333852 C204.734199,4.65899405 204.563123,5.10934279 204.591795,5.56962025 C204.563275,6.02896056 204.733682,6.47842132 205.059736,6.80384704 C205.38579,7.12927276 205.836119,7.29935149 206.296347,7.27088608 L208.898831,7.27088608 C209.066525,7.24683407 209.23577,7.30306235 209.355565,7.42262702 C209.475361,7.54219168 209.531698,7.71111041 209.507599,7.87848101 L209.507599,10.7189873 C209.531698,10.8863579 209.475361,11.0552767 209.355565,11.1748413 C209.23577,11.294406 209.066525,11.3506343 208.898831,11.3265823 L207.559541,11.3265823 C207.023867,11.2905128 206.496506,11.4732711 206.098497,11.8329114 C205.742978,12.216794 205.559759,12.7288203 205.59119,13.2506329 L205.59119,37.2455696 C205.563273,37.7567387 205.753831,38.2557504 206.11555,38.6187021 C206.477268,38.9816539 206.97622,39.1745034 207.488518,39.1493671 L207.995825,39.1493671 C208.366458,39.1653157 208.726796,39.025345 208.989117,38.7635296 C209.251438,38.5017143 209.391679,38.1420711 209.375699,37.7721519 L209.375699,37.0025316 C209.351601,36.835161 209.407938,36.6662423 209.527733,36.5466777 C209.647529,36.427113 209.816774,36.3708847 209.984468,36.3949367 L217.98977,36.3949367 C218.368559,36.3949367 218.557954,36.5974684 218.557954,37.0025316 L218.557954,37.5696203 C218.514532,37.8891623 218.626186,38.2102414 218.858618,38.4342256 C219.091049,38.6582099 219.416467,38.7583178 219.734906,38.7037975 L221.64238,38.7037975 C221.846101,38.7385589 222.054164,38.6736651 222.201806,38.5293154 C222.349447,38.3849658 222.418742,38.1786856 222.388121,37.9746835 L222.388121,37.6101266 C222.388121,37.5037975 222.413486,37.4481013 222.46929,37.4481013 C222.525094,37.4481013 222.565678,37.4886076 222.591044,37.5696203 L223.098351,38.4202532 C223.391528,38.9002776 223.914966,39.1922234 224.478225,39.1898734 C225.042877,39.1325732 225.592683,38.9748086 226.101608,38.7240506 C226.832129,38.4135021 227.604927,38.0489451 228.42,37.6303797 C229.235073,37.2118143 229.992651,36.7864979 230.692735,36.3544304 C231.3962,35.9223629 231.903507,35.5983122 232.214656,35.3822785 C232.301413,35.2987428 232.418933,35.2547575 232.539332,35.2607595 C232.684323,35.2556082 232.826971,35.2983199 232.945177,35.3822785 C233.954274,36.0882667 235.006435,36.7308601 236.095553,37.3063291 C237.191336,37.8869198 238.309102,38.4202532 239.448852,38.9063291 C239.684197,38.9859012 239.930893,39.0269379 240.179374,39.0278481 C240.90226,39.0319641 241.570449,38.6442309 241.924509,38.0151899 C242.160662,37.6183271 242.219535,37.1409052 242.086848,36.6987342 C241.940434,36.267925 241.615048,35.9210239 241.193987,35.7468354 C240.48714,35.4092827 239.810731,35.0565401 239.16476,34.6886076 C239.058225,34.6227848 238.911106,34.5367089 238.713257,34.4303797 L238.129854,34.0708861 C237.064509,33.3417722 236.359353,32.3544304 237.089875,31.1291139 C237.336764,30.8523207 237.573507,30.5670886 237.800104,30.2734177 L237.830543,30.2481013 C239.191757,28.8952296 240.141515,27.1854494 240.57,25.3164557 L240.651169,25.0987342 C240.715898,24.9562987 240.763575,24.8067432 240.793215,24.6531646 L240.793215,22.9721519 C240.837953,22.5194708 240.677074,22.0706046 240.354805,21.7489573 C240.032537,21.42731 239.582804,21.2667402 239.129248,21.3113924 L231.839248,21.3113924 C231.406347,21.3113924 231.271065,21.0953586 231.433403,20.6632911 L231.717495,20.0556962 C231.903463,19.7339878 231.926037,19.343451 231.778372,19.0025316 C231.612854,18.6645068 231.309846,18.4137163 230.946388,18.3139241 L229.931775,17.9898734 C229.730416,17.9480375 229.56743,17.8008586 229.505637,17.6050633 C229.471973,17.3981857 229.52317,17.1864922 229.647683,17.0177215 C230.252488,16.0553491 230.729941,15.0188903 231.068142,13.9341772 C231.140393,13.7026148 231.336136,13.5306927 231.575449,13.4886076 C231.737787,13.4632911 231.905198,13.443038 232.082756,13.4278481 C232.260313,13.4126582 232.427724,13.3924051 232.590063,13.3670886 C233.022965,13.3670886 233.239415,13.5696203 233.239415,13.9746835 L233.239415,16.9367089 C233.239415,18.7763713 234.161023,19.6962025 236.004238,19.6962025 L240.717119,19.6962025 C241.319676,19.7298084 241.891444,19.4280671 242.202865,18.9121247 C242.514285,18.3961824 242.514285,17.7506531 242.202865,17.2347107 C241.891444,16.7187684 241.319676,16.417027 240.717119,16.4506329 L238.444384,16.4506329 C238.265479,16.4764366 238.08486,16.4165084 237.957041,16.2889357 C237.829222,16.161363 237.769178,15.9810919 237.795031,15.8025316 L237.795031,13.2708861 C237.779106,13.112898 237.831501,12.9556371 237.939047,12.8386279 C238.046594,12.7216186 238.199066,12.6559868 238.358142,12.6582278 Z M213.165282,7.99493671 C213.165282,7.59225821 213.492348,7.26582278 213.895804,7.26582278 C214.29926,7.26582278 214.626326,7.59225821 214.626326,7.99493671 L214.626326,10.5924051 C214.626326,10.9950836 214.29926,11.321519 213.895804,11.321519 C213.492348,11.321519 213.165282,10.9950836 213.165282,10.5924051 L213.165282,7.99493671 Z M209.385846,15.2962025 C209.385846,14.9830081 209.64023,14.7291139 209.954029,14.7291139 C210.267828,14.7291139 210.522213,14.9830081 210.522213,15.2962025 L210.522213,17.6101266 C210.522213,18.0421941 210.501921,18.4742616 210.461336,18.9063291 C210.421958,19.3303496 210.347296,19.7503642 210.238121,20.1620253 C210.129896,20.8101266 209.960793,21.1341772 209.730814,21.1341772 C209.500835,21.1341772 209.379081,20.7291139 209.365553,19.9189873 L209.385846,15.2962025 Z M218.141962,32.5620253 C217.843568,32.8496958 217.440444,33.0033195 217.025887,32.9873418 L210.938205,32.9873418 C210.085063,32.9873418 209.393455,32.2970669 209.393455,31.4455696 C209.393455,30.5940724 210.085063,29.9037975 210.938205,29.9037975 L217.025887,29.9037975 C217.648968,29.919523 218.204794,30.2987496 218.445682,30.8724899 C218.686571,31.4462302 218.56767,32.1076545 218.141962,32.5620253 Z M218.202839,26.1367089 C217.95538,26.3815129 217.617601,26.5134326 217.269395,26.5012658 L210.674405,26.5012658 C210.326162,26.5141789 209.98826,26.3817664 209.741845,26.1358262 C209.49543,25.8898859 209.362761,25.5526356 209.375699,25.2050633 L209.375699,24.2683544 C209.375699,24.1316456 209.401065,24.0658228 209.456868,24.0658228 C209.519566,24.0704112 209.57791,24.0995274 209.619207,24.1468354 L209.781545,24.3088608 L209.943883,24.4708861 C210.061104,24.5620916 210.201823,24.6182709 210.349729,24.6329114 C210.520131,24.6296301 210.681636,24.5563602 210.796159,24.4303797 C211.39662,23.8077235 211.908697,23.1058268 212.318079,22.3443038 C212.659737,21.6620921 212.912078,20.9388614 213.068894,20.1924051 C213.23388,19.424956 213.322245,18.6430749 213.332693,17.8582278 C213.332693,17.0481013 213.332693,16.2042194 213.332693,15.3265823 C213.312517,15.1708733 213.365856,15.0146319 213.47709,14.9036121 C213.588324,14.7925923 213.744867,14.7393562 213.900877,14.7594937 C214.038909,14.7468885 214.175414,14.7961699 214.273425,14.8939923 C214.371437,14.9918147 214.420813,15.1280564 214.408184,15.2658228 L214.408184,21.1443038 C214.39124,21.613552 214.467089,22.0815347 214.631399,22.521519 C214.75773,22.8415537 214.959607,23.126417 215.219875,23.3518987 C215.471626,23.5585597 215.771887,23.6979467 216.092443,23.756962 C216.460945,23.8286299 216.833777,23.8759898 217.208518,23.8987342 C217.555413,23.9130547 217.886056,24.0493614 218.141962,24.2835443 C218.388887,24.5211031 218.521881,24.8529464 218.507223,25.1949367 C218.537184,25.5354458 218.427332,25.8735026 218.202839,26.1316456 L218.202839,26.1367089 Z M218.5681,20.8253165 C218.5681,21.043038 218.471712,21.1493671 218.284008,21.1493671 L217.959332,21.1493671 C217.780427,21.1751708 217.599808,21.1152426 217.471989,20.9876699 C217.34417,20.8600972 217.284126,20.6798261 217.309979,20.5012658 L217.309979,15.3468354 C217.309979,14.9417722 217.52643,14.7392405 217.959332,14.7392405 C218.127026,14.7151885 218.296271,14.7714168 218.416066,14.8909814 C218.535862,15.0105461 218.592199,15.1794648 218.5681,15.3468354 L218.5681,20.8253165 Z M222.388121,19.8126582 C222.388121,19.5966245 222.428706,19.4886076 222.509875,19.4886076 C222.591044,19.4886076 222.672213,19.5696203 222.753382,19.7316456 L223.118643,20.3392405 C223.363057,20.8385389 223.86114,21.1647758 224.417349,21.1898734 C224.673256,21.1795518 224.923293,21.1102309 225.147871,20.9873418 L225.8581,20.5822785 L226.527745,20.1772152 C226.712947,20.0232681 226.938123,19.9249438 227.177098,19.8936709 C227.393549,19.8936709 227.380021,20.150211 227.136514,20.6632911 C227.028288,20.9063291 226.832129,21.3113924 226.548038,21.878481 C226.263946,22.4455696 225.939269,23.0194093 225.574008,23.6 C225.242645,24.1348753 224.869459,24.6427847 224.457933,25.1189873 C224.214212,25.4746077 223.830643,25.7101952 223.402735,25.7670886 C222.726326,25.7670886 222.388121,24.9957806 222.388121,23.4531646 L222.388121,19.8126582 Z M228.582338,32.4050633 C228.504056,33.0127092 228.121898,33.5390702 227.567724,33.8025316 C226.756033,34.2886076 225.942651,34.7341772 225.127578,35.1392405 C224.760666,35.3240675 224.360589,35.4342208 223.950626,35.4632911 C223.494492,35.4783904 223.060785,35.265752 222.793967,34.8962025 C222.493467,34.4480885 222.344172,33.9159182 222.367829,33.3772152 L222.367829,29.3265823 C222.367829,29.1105485 222.421942,29.0025316 222.530167,29.0025316 C222.555532,29.0025316 222.636701,29.0683544 222.773674,29.2050633 L223.17952,29.7113924 C223.402916,30.0276049 223.765888,30.2162884 224.153549,30.2177215 C224.462789,30.2125959 224.756308,30.0807669 224.96524,29.8531646 C225.060323,29.7329331 225.161937,29.6179928 225.269624,29.5088608 L225.614593,29.164557 C225.734516,29.0011108 225.91961,28.897658 226.1219,28.8810127 C226.375188,28.8863587 226.606748,29.0250267 226.730668,29.2455696 C226.920063,29.5156118 227.109457,29.7721519 227.298852,30.0151899 C227.488246,30.2582278 227.691169,30.5012658 227.90762,30.7443038 C228.351891,31.1816553 228.595956,31.7824013 228.582338,32.4050633 Z M230.46952,25.3670886 C230.76714,24.8810127 231.36238,24.6379747 232.25524,24.6379747 L232.853862,24.6379747 C233.719666,24.6379747 234.314906,24.8810127 234.639582,25.3670886 C234.964259,25.8531646 234.896618,26.4607595 234.43666,27.1898734 L234.071399,27.7974684 C233.772183,28.3021971 233.237956,28.622116 232.650939,28.6481013 C232.237776,28.6677778 231.836913,28.5047776 231.555157,28.2025316 C231.281681,27.9020313 231.037099,27.5765503 230.824635,27.2303797 C230.293653,26.4708861 230.176973,25.8481013 230.474593,25.3620253 L230.46952,25.3670886 Z" id="Shape"></path>
                <path d="M16.2338205,16.6632911 C16.3149896,16.3527426 16.3961587,16.028692 16.4773278,15.6911392 C16.5584969,15.3535865 16.6329019,15.0295359 16.7005428,14.7189873 C16.7489875,14.5260053 16.7829026,14.3296771 16.8020042,14.1316456 L16.8020042,12.3848101 C16.8458467,11.9099126 16.6765012,11.4400508 16.339605,11.101849 C16.0027088,10.7636472 15.5329292,10.5919071 15.0568685,10.6329114 L10.9070981,10.6329114 C7.44219207,10.6329114 5.11365344,8.81518987 3.35837161,10.1265823 C1.60308977,11.4379747 2.12561587,15.5088608 5.07306889,15.1443038 C7.48784969,14.8405063 7.91906054,14.1316456 10.602714,14.1316456 L11.2064092,14.1316456 C11.7204802,14.1316456 11.9098747,14.3746835 11.7745929,14.8607595 C11.0981987,18.0554084 9.96187811,21.1354679 8.40100209,24.0050633 C6.82025798,26.8793025 4.7617414,29.46461 2.31331942,31.6506329 C1.96945819,31.9345731 1.75088608,32.341788 1.70455115,32.7848101 C1.69757354,33.2307596 1.88223592,33.6583506 2.21185804,33.9594937 C2.55243783,34.3415013 3.03883556,34.5621651 3.55114823,34.5670886 C3.97807825,34.5688278 4.39298386,34.4260326 4.72810021,34.1620253 C7.47527645,32.0766039 9.8535492,29.5471791 11.7644468,26.678481 C13.6709536,23.7721057 15.1232545,20.5931043 16.0714823,17.2506329 C16.0985386,17.1696203 16.1526514,16.9738397 16.2338205,16.6632911 Z" id="Shape"></path>
                <path d="M77.4962004,33.2202532 C77.0294781,32.4 77.0345511,31.8886076 76.7352401,31.2911392 C76.4465254,30.676362 75.8810421,30.2361352 75.2133194,30.1063291 C74.3758224,29.930149 73.5040566,30.1570463 72.8594154,30.7189873 C72.1948434,31.4025316 72.0984551,32.0759494 71.7687056,33.1139241 C70.8301879,34.7696203 68.5016493,34.7443038 67.9943424,32.8860759 C67.9131733,32.6227848 67.8370772,32.3797468 67.7508351,32.0911392 C67.6354861,31.6885345 67.3936303,31.3335498 67.0608977,31.078481 C66.6647199,30.7859706 66.1685094,30.662157 65.681023,30.7341772 L65.3969311,30.7949367 L64.8287474,30.9164557 C64.2152046,30.9952364 63.6819411,31.3754047 63.4082881,31.9291139 C63.370663,32.0189671 63.3417827,32.1122233 63.3220459,32.2075949 C62.6929854,34.2329114 60.0499165,36.5468354 59.2128601,33.9088608 C59.1215449,33.4632911 59.0200835,33.0177215 58.908476,32.5721519 C58.8174449,32.1417695 58.5810359,31.755664 58.2388309,31.478481 C57.8990897,31.2086066 57.4757212,31.0653684 57.0415866,31.0734177 C56.9050647,31.0676429 56.7684139,31.0812817 56.6357411,31.1139241 L56.0675574,31.1949367 L55.7783925,31.2658228 C55.6373397,31.3046968 55.499868,31.3555141 55.3674739,31.4177215 C54.5671764,31.6725136 53.7318377,31.8006481 52.8918163,31.7974684 C51.2937996,31.7974684 50.9183925,31.5848101 49.9950939,31.0582278 C49.9139248,31.0075949 49.8276827,30.956962 49.7312944,30.9113924 L49.3254489,30.7088608 C49.0243904,30.5526547 48.6907101,30.4693954 48.3514196,30.4658228 C47.5483218,30.459998 46.8304904,30.964768 46.5656994,31.721519 C46.3830689,32.1164557 46.2105846,32.4759494 46.0583925,32.8202532 C45.4039666,34.0810127 44.6683716,34.3949367 44.0798956,34.9924051 C43.4914196,35.5898734 42.3144676,37.2759494 43.7958038,38.7291139 C44.3520363,39.2784712 45.120807,39.5581503 45.9007677,39.4949006 C46.6807285,39.4316509 47.3941785,39.0317735 47.8542589,38.4 C48.2651775,37.7518987 48.5797077,36.7139241 49.1834029,35.6810127 L49.3203758,35.4987342 C49.6704175,35.0278481 49.8885595,34.7493671 50.1219207,34.4253165 C51.2633612,33.2303797 51.9431524,33.3063291 52.8968894,33.4126582 C53.8506263,33.5189873 54.5760752,33.4987342 55.0681628,34.5417722 L55.0681628,34.5924051 C55.0681628,34.6481013 55.1138205,34.6987342 55.1391858,34.7594937 C55.2677035,35.0734177 55.3894572,35.3873418 55.5044468,35.7012658 C55.7344259,36.335865 55.9576409,36.9907173 56.1740919,37.6658228 C56.2965281,38.0650761 56.5370248,38.418066 56.8640292,38.678481 C57.2000683,38.9385228 57.615917,39.0744865 58.0409812,39.0632911 C58.0948997,39.0697631 58.1494009,39.0697631 58.2033194,39.0632911 C58.2572157,39.0564597 58.3117613,39.0564597 58.3656576,39.0632911 C60.2680585,38.7949367 61.9168058,37.2455696 62.8350313,36.0253165 C63.7532568,34.8050633 64.9403549,36.4303797 65.0012317,36.5316456 C65.1500418,36.8691983 65.2937787,37.2253165 65.4324426,37.6 C65.6718605,38.3754963 66.4059186,38.8916768 67.2181628,38.8556962 C67.3680358,38.8592946 67.517827,38.8457034 67.6645929,38.8151899 C69.293048,38.8151899 70.5562422,37.078481 71.6165136,35.7772152 C72.5499582,34.6379747 73.782714,35.7063291 74.376263,36.3544304 C75.3198539,37.4278481 74.8379123,37.4936709 75.1676618,38.3797468 C75.4974113,39.2658228 76.8468476,39.8379747 77.8969729,39.4886076 C78.9470981,39.1392405 79.8298121,38.3797468 79.7993737,37.4329114 C79.7969918,36.704814 79.5644206,35.9960418 79.1348017,35.4075949 C78.5361767,34.7191066 77.9885308,33.9880631 77.4962004,33.2202532 Z" id="Shape"></path>
                <path d="M119.293215,34.3037975 C117.821044,34.1280966 116.407672,33.6226865 115.158664,32.8253165 C114.752818,32.4472574 114.806931,32.1232068 115.321002,31.8531646 C115.943299,31.5156118 116.572359,31.1780591 117.208184,30.8405063 C117.690125,30.5670886 118.161921,30.2835443 118.633716,30 L118.958392,29.8025316 L119.095365,29.721519 C119.181757,29.6638819 119.264754,29.6013312 119.343946,29.5341772 C121.241273,28.1164557 120.668017,26.6835443 120.109979,25.8734177 C119.491065,24.9721519 118.207578,24.6886076 117.573445,25.3670886 L117.573445,25.4683544 C117.563273,25.4353625 117.563273,25.4000805 117.573445,25.3670886 L117.573445,13.2759494 C117.614922,12.7271544 117.414487,12.187602 117.024577,11.7984429 C116.634666,11.4092838 116.094072,11.2092358 115.544217,11.2506329 L97.8189144,11.2506329 C97.2690597,11.2092358 96.7284654,11.4092838 96.3385547,11.7984429 C95.9486441,12.187602 95.7482098,12.7271544 95.7896868,13.2759494 L95.7896868,28.3544304 C95.7896868,30.8860759 95.581691,32.764557 94.6279541,34.4303797 C93.6742171,36.0962025 94.3844468,38.1873418 95.7896868,38.8506329 C97.1949269,39.5139241 98.5088518,38.4708861 100.558372,37.7164557 L101.507035,37.3772152 L101.689666,37.3113924 L101.963612,37.2101266 L102.024489,37.2101266 C104.439269,36.3696203 106.666347,36.3949367 107.376576,36.2632911 C107.926004,36.1587152 108.399507,35.8137767 108.666792,35.3233904 C108.934077,34.8330041 108.966982,34.2488424 108.756451,33.7316456 C108.504934,32.9241624 107.858672,32.3001382 107.041754,32.0759494 C106.881445,32.0071045 106.70896,31.9709526 106.534447,31.9696203 C106.362789,31.9770915 106.192564,32.004275 106.02714,32.0506329 L105.727829,32.1367089 L105.692317,32.1367089 L105.651733,32.1367089 L103.72904,32.678481 C102.98499,32.8945148 102.247704,33.0970464 101.517182,33.2860759 C101.439968,33.3172269 101.356837,33.3310554 101.273674,33.3265823 C100.93547,33.3265823 100.766367,33.1240506 100.766367,32.7189873 L100.766367,26.7797468 C100.742269,26.6123762 100.798606,26.4434575 100.918401,26.3238928 C101.038197,26.2043282 101.207442,26.1480999 101.375136,26.1721519 L105.113987,26.1721519 C105.362193,26.1591887 105.590941,26.3059575 105.682171,26.5367089 C106.33522,27.9599406 107.087897,29.3354962 107.934614,30.6531646 C108.701037,31.8522403 109.592064,32.9672717 110.592902,33.9797468 C111.593452,34.9769757 112.689385,35.8740785 113.865031,36.6582278 L114.301315,36.9367089 C119.841106,40.4810127 121.099228,38.0050633 121.286931,36.9924051 C121.391432,36.370315 121.238094,35.732551 120.862122,35.2255368 C120.486149,34.7185225 119.919841,34.385814 119.293215,34.3037975 Z M101.106263,14.921519 C101.359856,14.6885642 101.695276,14.5648434 102.039708,14.5772152 L111.343716,14.5772152 C111.686789,14.5501123 112.024762,14.6729403 112.270049,14.9138686 C112.515336,15.1547968 112.643792,15.4901098 112.622129,15.8329114 C112.634525,16.1766793 112.510565,16.5114532 112.277161,16.764557 C112.038772,17.0104541 111.706547,17.1430879 111.364008,17.1291139 L102.044781,17.1291139 C101.696537,17.142027 101.358636,17.0096145 101.112221,16.7636743 C100.865805,16.517734 100.733137,16.1804837 100.746075,15.8329114 C100.730101,15.4916954 100.861201,15.159969 101.106263,14.921519 Z M107.295407,22.8506329 C104.500146,22.8506329 101.172213,22.4860759 101.172213,21.5746835 C101.172213,20.9822785 101.238163,20.2987342 105.519833,20.2987342 L111.348789,20.2987342 C111.690082,20.273337 112.025752,20.3961893 112.269688,20.6357756 C112.513624,20.8753618 112.64209,21.2083679 112.622129,21.5493671 C112.634525,21.893135 112.510565,22.2279089 112.277161,22.4810127 C112.039143,22.7274618 111.706659,22.8601991 111.364008,22.8455696 L107.295407,22.8506329 Z M111.389374,27.878481 C111.104851,27.5294818 111.049411,27.0472924 111.247328,26.643038 C111.526288,26.2986561 111.963679,26.1225051 112.403987,26.1772152 L114.02737,26.1772152 C114.893173,26.1772152 115.380188,26.3324895 115.488413,26.643038 C115.596639,26.9535865 115.31762,27.3654008 114.651357,27.878481 C114.522019,27.955257 114.399783,28.0433682 114.286096,28.1417722 C114.172409,28.2401761 114.050173,28.3282873 113.920835,28.4050633 C113.615224,28.6323544 113.246635,28.759697 112.865637,28.7696203 C112.243366,28.7785192 111.670427,28.4326669 111.389374,27.878481 Z" id="Shape"></path>
                <path d="M159.42119,34.5670886 C157.943366,34.1656102 156.521925,33.5804385 155.190251,32.8253165 C154.672797,32.4675105 154.165491,32.0877637 153.66833,31.6860759 C153.518953,31.5998852 153.42371,31.4438264 153.415503,31.2718112 C153.407296,31.099796 153.48725,30.9354106 153.627745,30.835443 C154.65503,29.5646215 155.573126,28.2096108 156.372276,26.7848101 C157.166204,25.374771 157.812215,23.8867199 158.300042,22.3443038 L158.381211,22.1012658 C158.408267,21.9932489 158.448852,21.8514768 158.502965,21.6759494 C158.557077,21.5004219 158.604426,21.3316456 158.64501,21.1696203 C158.685595,20.9940928 158.72618,20.8253165 158.766764,20.6632911 C158.793798,20.5772173 158.814151,20.4891933 158.827641,20.4 L158.827641,18.7341772 C158.856161,18.2748369 158.685754,17.8253761 158.3597,17.4999504 C158.033646,17.1745247 157.583317,17.004446 157.12309,17.0329114 L152.085532,17.0329114 C151.917839,17.0569634 151.748594,17.0007351 151.628798,16.8811705 C151.509003,16.7616058 151.452666,16.5926871 151.476764,16.4253165 L151.476764,10.4 C151.452666,10.2326294 151.509003,10.0637107 151.628798,9.94414601 C151.748594,9.82458134 151.917839,9.76835306 152.085532,9.79240506 L154.850355,9.79240506 C155.33737,9.79240506 155.540292,10.035443 155.459123,10.521519 C155.242672,11.4126582 154.999165,12.2565401 154.728601,13.0531646 C154.590811,13.4561518 154.605244,13.8954942 154.769186,14.2886076 C154.945229,14.6675719 155.246012,14.974923 155.621461,15.1594937 C155.872275,15.2898446 156.150386,15.3592383 156.433152,15.3620253 C157.021769,15.380734 157.570925,15.0675353 157.853612,14.5518987 C158.31357,13.849789 158.753236,13.1409283 159.17261,12.4253165 C159.591983,11.7097046 160.004593,10.9873418 160.410438,10.2582278 C160.573157,9.96013318 160.65697,9.62552665 160.653946,9.28607595 L160.653946,8.10126582 C160.682466,7.64192552 160.512059,7.19246475 160.186005,6.86703904 C159.859951,6.54161332 159.409622,6.37153459 158.949395,6.4 L152.100752,6.4 C151.933058,6.424052 151.763813,6.36782372 151.644017,6.24825906 C151.524222,6.12869439 151.467885,5.95977567 151.491983,5.79240506 L151.491983,3.46329114 C151.516894,2.91683924 151.319275,2.38356739 150.944092,1.98481013 C150.544565,1.61034989 150.010263,1.41311236 149.462756,1.43797468 L148.640919,1.43797468 C148.093411,1.41311236 147.55911,1.61034989 147.159582,1.98481013 C146.784399,2.38356739 146.586781,2.91683924 146.611691,3.46329114 L146.611691,5.77721519 C146.635789,5.94458579 146.579453,6.11350452 146.459657,6.23306918 C146.339861,6.35263385 146.170617,6.40886213 146.002923,6.38481013 L139.585491,6.38481013 C139.035636,6.34341303 138.495042,6.54346101 138.105131,6.93262013 C137.71522,7.32177925 137.514786,7.86133161 137.556263,8.41012658 C137.583319,10.2227848 137.610376,12.0607595 137.637432,13.9240506 C137.664489,15.7873418 137.637432,17.6438819 137.556263,19.4936709 C137.475094,21.3333333 137.326284,23.164557 137.109833,24.9873418 C136.893111,26.8121505 136.554148,28.6204186 136.095219,30.4 C136.101308,30.4266623 136.101308,30.4543503 136.095219,30.4810127 C136.088952,30.5076546 136.088952,30.5353833 136.095219,30.5620253 L136.054635,30.6025316 L135.973466,30.4 L135.932881,29.9544304 C135.878768,29.4953586 135.648789,29.2658228 135.242944,29.2658228 C135.202836,29.2570409 135.161298,29.2570409 135.12119,29.2658228 C135.081119,29.2749382 135.039507,29.2749382 134.999436,29.2658228 L133.538392,29.6708861 C133.474806,29.6998861 133.40534,29.7137524 133.33547,29.7113924 C132.956681,29.7113924 132.767286,29.4953586 132.767286,29.0632911 L132.767286,21.6708861 C132.743188,21.5035155 132.799524,21.3345967 132.91932,21.2150321 C133.039116,21.0954674 133.20836,21.0392391 133.376054,21.0632911 L134.553006,21.0632911 C135.185096,21.0976952 135.784495,20.7806871 136.110912,20.2393517 C136.437329,19.6980162 136.437329,19.0209712 136.110912,18.4796357 C135.784495,17.9383002 135.185096,17.6212922 134.553006,17.6556962 L133.376054,17.6556962 C133.20836,17.6797482 133.039116,17.6235199 132.91932,17.5039553 C132.799524,17.3843906 132.743188,17.2154719 132.767286,17.0481013 L132.767286,9.22025316 C132.743188,9.05288256 132.799524,8.88396383 132.91932,8.76439917 C133.039116,8.64483451 133.20836,8.58860622 133.376054,8.61265823 L135.12119,8.61265823 C135.581417,8.64112364 136.031746,8.47104491 136.3578,8.14561919 C136.683854,7.82019348 136.854262,7.37073271 136.825741,6.91139241 C136.854262,6.4520521 136.683854,6.00259133 136.3578,5.67716562 C136.031746,5.3517399 135.581417,5.18166117 135.12119,5.21012658 L130.732985,5.21012658 C128.999385,5.18322251 127.268565,5.06152106 125.548309,4.84556962 C124.533695,4.65822785 123.361816,4.72405063 122.788559,5.81772152 C122.215303,6.91139241 122.550125,8.61772152 123.833612,8.8556962 C125.117098,9.09367089 125.213486,8.80506329 126.689749,8.61265823 L127.334029,8.61265823 C127.501723,8.58860622 127.670968,8.64483451 127.790764,8.76439917 C127.910559,8.88396383 127.966896,9.05288256 127.942797,9.22025316 L127.942797,17.0481013 C127.966896,17.2154719 127.910559,17.3843906 127.790764,17.5039553 C127.670968,17.6235199 127.501723,17.6797482 127.334029,17.6556962 L125.710647,17.6556962 C125.078558,17.6212922 124.479159,17.9383002 124.152741,18.4796357 C123.826324,19.0209712 123.826324,19.6980162 124.152741,20.2393517 C124.479159,20.7806871 125.078558,21.0976952 125.710647,21.0632911 L127.334029,21.0632911 C127.501723,21.0392391 127.670968,21.0954674 127.790764,21.2150321 C127.910559,21.3345967 127.966896,21.5035155 127.942797,21.6708861 L127.942797,30.5518987 C127.96113,30.8564074 127.738892,31.1225797 127.435491,31.1594937 L125.117098,31.6658228 C124.558914,31.7601432 124.061897,32.0738274 123.737223,32.5367089 C123.434726,33.0134484 123.360364,33.5997775 123.534301,34.1367089 L123.696639,34.7443038 C123.994259,35.756962 124.603027,36.2632911 125.522944,36.2632911 C126.092882,36.201034 126.652254,36.0648648 127.18691,35.8582278 C127.998601,35.5881857 128.866096,35.2708861 129.789395,34.9063291 C130.712693,34.5417722 131.585261,34.185654 132.407098,33.8379747 C133.232317,33.5004219 133.820793,33.2438819 134.172526,33.0683544 C134.33358,32.9996666 134.505088,32.958584 134.679833,32.9468354 C135.112735,32.9468354 135.22096,33.2438819 135.004509,33.8379747 C134.842171,34.243038 134.673069,34.6481013 134.497203,35.0531646 C134.321336,35.4582278 134.118413,35.849789 133.888434,36.2278481 C133.627366,36.644632 133.553734,37.1517081 133.685511,37.6253165 C133.839846,38.0935793 134.176173,38.4803402 134.618956,38.6987342 C134.933307,38.8582505 135.280922,38.9415174 135.63357,38.9417722 C136.204309,38.9655072 136.75037,38.708142 137.094614,38.2531646 C138.510216,36.3752671 139.596065,34.2711011 140.305866,32.0303797 C141.030561,29.7716901 141.573413,27.4588564 141.929248,25.1139241 C142.010418,24.4388186 142.17952,24.1012658 142.436555,24.1012658 C142.693591,24.1012658 142.937098,24.371308 143.167077,24.9113924 C143.735261,25.9240506 144.337265,26.9367089 144.97309,27.9493671 C145.608914,28.9620253 146.285324,29.9156118 147.002317,30.8101266 C147.142812,30.9100941 147.222767,31.0744796 147.21456,31.2464948 C147.206353,31.41851 147.11111,31.5745688 146.961733,31.6607595 C144.934945,33.2898797 142.743346,34.703443 140.422547,35.878481 C140.014402,36.0836487 139.712195,36.4514833 139.590564,36.8911392 C139.506478,37.3466666 139.616818,37.8165449 139.894948,38.1873418 C140.261006,38.7365931 140.877683,39.0671334 141.538622,39.0683544 C142.1746,38.9982022 142.789333,38.798282 143.344635,38.4810127 C144.142797,38.0894515 144.969708,37.6371308 145.825365,37.1240506 C146.681023,36.6109705 147.487641,36.1046414 148.245219,35.6050633 C149.002797,35.0919831 149.543925,34.7004219 149.868601,34.4303797 C150.095875,34.214346 150.453019,34.214346 150.680292,34.4303797 C151.294134,34.9367089 151.93334,35.3873418 152.592839,35.8227848 C155.098935,37.6050633 156.585344,38.5518987 157.63547,38.8911392 C158.685595,39.2303797 161.572171,39.6101266 161.901921,37.4177215 C162.23167,35.2253165 160.420585,34.9012658 159.42119,34.5670886 Z M142.426409,11.8177215 C142.384932,11.2689265 142.585366,10.7293742 142.975277,10.3402151 C143.365188,9.95105595 143.905782,9.75100797 144.455637,9.79240506 L144.582463,9.79240506 C145.132318,9.75100797 145.672913,9.95105595 146.062823,10.3402151 C146.452734,10.7293742 146.653168,11.2689265 146.611691,11.8177215 L146.611691,14.9822785 C146.653168,15.5310735 146.452734,16.0706258 146.062823,16.4597849 C145.672913,16.8489441 145.132318,17.048992 144.582463,17.0075949 L144.46071,17.0075949 C143.910855,17.048992 143.370261,16.8489441 142.98035,16.4597849 C142.59044,16.0706258 142.390005,15.5310735 142.431482,14.9822785 L142.426409,11.8177215 Z M151.776075,25.8227848 C151.37023,26.5248945 150.883215,26.8759494 150.315031,26.8759494 C149.662362,26.8355748 149.081478,26.449065 148.793111,25.8632911 C148.495491,25.4042194 148.211399,24.9248945 147.940835,24.4253165 C147.670271,23.9257384 147.413236,23.4329114 147.169729,22.9468354 C147.002098,22.5946811 146.742798,22.2939133 146.418914,22.0759494 C146.117441,21.8785008 145.764887,21.7729383 145.404301,21.7721519 C145.125331,21.7685865 144.848746,21.823797 144.59261,21.9341772 L143.293904,22.4405063 C143.156459,22.5147925 143.003676,22.5563803 142.847474,22.5620253 C142.387516,22.5620253 142.198121,22.2649789 142.27929,21.6708861 C142.279335,21.3296095 142.414229,21.00212 142.654697,20.7594937 C142.904672,20.5360469 143.23265,20.4196572 143.56785,20.435443 L151.329645,20.435443 C151.981306,20.380107 152.620833,20.6354248 153.054489,21.1240506 C153.426491,21.6500772 153.46586,22.3416323 153.15595,22.9063291 C152.939499,23.4194093 152.723048,23.9257384 152.506597,24.4253165 C152.289159,24.9042588 152.045277,25.3707978 151.776075,25.8227848 Z" id="Shape"></path>
                <path d="M47.6361169,29.4582278 L74.4574322,29.4582278 C75.7459916,29.4582278 77.0700626,29.5898734 77.7346347,29.6202532 C78.4620018,29.6728511 79.1835859,29.4585935 79.7638622,29.0177215 C80.3979958,28.3696203 80.3979958,26.4860759 79.3681628,25.8835443 C78.4600835,25.3316456 77.4454697,25.564557 76.1467641,25.6911392 C74.8480585,25.8177215 74.4523591,25.0278481 74.4523591,23.0936709 L74.4523591,19.9291139 C74.4282606,19.7617433 74.4845975,19.5928246 74.6043931,19.4732599 C74.7241886,19.3536953 74.8934335,19.297467 75.0611273,19.321519 L76.8874322,19.321519 C77.5195215,19.355923 78.1189208,19.038915 78.445338,18.4975795 C78.7717553,17.956244 78.7717553,17.279199 78.445338,16.7378635 C78.1189208,16.1965281 77.5195215,15.87952 76.8874322,15.9139241 L75.0814196,15.9139241 C74.9137258,15.9379761 74.7444809,15.8817478 74.6246853,15.7621831 C74.5048898,15.6426184 74.4485529,15.4736997 74.4726514,15.3063291 L74.4726514,9.46835443 C74.4485529,9.30098383 74.5048898,9.1320651 74.6246853,9.01250044 C74.7444809,8.89293577 74.9137258,8.83670749 75.0814196,8.86075949 L76.4207098,8.86075949 C76.8818761,8.88937617 77.3330945,8.71863078 77.6593322,8.39205286 C77.9855698,8.06547494 78.1553033,7.61462077 78.125261,7.15443038 C78.1537813,6.69509008 77.9833742,6.24562931 77.65732,5.92020359 C77.3312659,5.59477788 76.8809372,5.42469915 76.4207098,5.45316456 L51.8670564,5.45316456 C51.2988727,5.45316456 51.1500626,5.19662447 51.4206263,4.6835443 L51.7858873,3.91392405 C52.0231266,3.54446494 52.0611424,3.08156642 51.8873486,2.67848101 C51.6774744,2.2906598 51.3056832,2.01606462 50.8727349,1.92911392 L49.6957829,1.64556962 C49.4956722,1.60058114 49.2919447,1.57346982 49.0870146,1.56455696 C48.2107576,1.52993558 47.4237455,2.09607708 47.1795407,2.93670886 C46.196292,5.58486018 44.9201335,8.11527523 43.374739,10.4810127 C43.1325896,10.8539813 43.0120822,11.2926318 43.0297704,11.7367089 C43.0356058,12.1772508 43.1852139,12.6038787 43.4559081,12.9518987 C43.7133517,13.3322887 44.13322,13.571751 44.5922756,13.6 C44.9785032,13.5928616 45.3390458,13.4054409 45.5663048,13.0936709 C46.026263,12.5805907 46.4862213,12.0405063 46.9461795,11.4734177 C47.2437996,11.0953586 47.4873069,10.9063291 47.6767015,10.9063291 C47.9472651,10.9063291 48.082547,11.2303797 48.082547,11.878481 L48.082547,15.2860759 C48.1066454,15.4534466 48.0503086,15.6223653 47.930513,15.7419299 C47.8107174,15.8614946 47.6414725,15.9177229 47.4737787,15.8936709 L46.905595,15.8936709 C45.3329436,15.8936709 44.7647599,15.3316456 43.4305428,15.8329114 C42.0963257,16.3341772 41.8578914,18.7696203 43.5421503,19.4379747 C44.7799791,19.9443038 45.6677662,19.3822785 47.1896868,19.3012658 L47.4737787,19.3012658 C47.6414725,19.2772138 47.8107174,19.3334421 47.930513,19.4530068 C48.0503086,19.5725714 48.1066454,19.7414902 48.082547,19.9088608 L48.082547,24 C48.082547,24.6025316 47.123737,25.2962025 46.1395616,25.2050633 C45.1553862,25.1139241 43.663904,25.0177215 42.8725052,25.9037975 C42.0811065,26.7898734 41.8578914,28.3493671 42.8725052,29.164557 C43.887119,29.9797468 45.65762,29.4582278 47.6361169,29.4582278 Z M55.2964509,24.5924051 C55.3284601,25.1348075 55.0567149,25.6502541 54.590686,25.9311003 C54.1246572,26.2119465 53.5410839,26.2119465 53.0750551,25.9311003 C52.6090262,25.6502541 52.337281,25.1348075 52.3692902,24.5924051 L52.3692902,22.8607595 C52.5417745,21.0582278 53.018643,20.6075949 53.7339457,20.3949367 C54.4492484,20.1822785 55.2964509,20.556962 55.2964509,22.0556962 L55.2964509,24.5924051 Z M70.1250313,24.5113924 C70.1424645,24.9216258 69.9965635,25.3220804 69.7191858,25.6253165 C69.4307771,25.9156066 69.0325364,26.0701795 68.6234029,26.0506329 C68.2151086,26.0664626 67.8187185,25.9115162 67.5297931,25.6231476 C67.2408677,25.3347791 67.085622,24.9391529 67.1014823,24.5316456 L67.1014823,20.8202532 C67.0818979,20.4119083 67.2367693,20.0144351 67.52762,19.7265823 C67.8311487,19.4492565 68.2325835,19.3035616 68.6436952,19.321519 C69.0577924,19.2837034 69.4673068,19.4315476 69.7613408,19.7250149 C70.0553748,20.0184822 70.2035045,20.4272073 70.1656159,20.8405063 L70.1250313,24.5113924 Z M67.08119,10.3341772 C67.0609575,9.9257272 67.215928,9.52799963 67.5073278,9.24050633 C67.8108564,8.96318054 68.2122912,8.81748561 68.6234029,8.83544304 C69.0375001,8.79762747 69.4470145,8.94547164 69.7410485,9.23893894 C70.0350825,9.53240624 70.1832122,9.94113134 70.1453236,10.3544304 L70.1453236,13.3924051 C70.1453236,14.4050633 69.3589979,14.8151899 68.5270146,14.3189873 C67.5659222,13.8580417 66.9962769,12.8463917 67.1014823,11.7873418 L67.08119,10.3341772 Z M59.6034864,10.4151899 C59.6034864,9.5413216 60.3132647,8.83291139 61.1888205,8.83291139 C62.0643763,8.83291139 62.7741545,9.5413216 62.7741545,10.4151899 L62.7741545,14.3088608 C62.7741545,15.182729 62.0643763,15.8911392 61.1888205,15.8911392 C60.3132647,15.8911392 59.6034864,15.182729 59.6034864,14.3088608 L59.6034864,10.4151899 Z M59.6034864,20.8759494 C59.6034864,20.0020811 60.3132647,19.2936709 61.1888205,19.2936709 C62.0643763,19.2936709 62.7741545,20.0020811 62.7741545,20.8759494 L62.7741545,24.4202532 C62.7741545,25.2941214 62.0643763,26.0025316 61.1888205,26.0025316 C60.3132647,26.0025316 59.6034864,25.2941214 59.6034864,24.4202532 L59.6034864,20.8759494 Z M52.3692902,10.2936709 C52.337281,9.75126841 52.6090262,9.23582189 53.0750551,8.95497569 C53.5410839,8.67412949 54.1246572,8.67412949 54.590686,8.95497569 C55.0567149,9.23582189 55.3284601,9.75126841 55.2964509,10.2936709 L55.2964509,14.4303797 C55.3284601,14.9727822 55.0567149,15.4882287 54.590686,15.7690749 C54.1246572,16.0499211 53.5410839,16.0499211 53.0750551,15.7690749 C52.6090262,15.4882287 52.337281,14.9727822 52.3692902,14.4303797 L52.3692902,10.2936709 Z" id="Shape"></path>
                <path d="M117.253841,9.26075949 C118.040167,9.43291139 120.394071,9.26075949 120.297683,7.30126582 C120.297683,7.22531646 120.297683,7.15443038 120.297683,7.07341772 C120.318041,6.61521172 120.149358,6.16869918 119.83096,5.83797468 C119.530018,5.54696348 119.128808,5.38207805 118.709812,5.37721519 C118.231561,5.31536226 117.747312,5.31536226 117.269061,5.37721519 L107.731691,5.37721519 C107.583559,5.391272 107.435937,5.34569951 107.321626,5.25062368 C107.207314,5.15554784 107.135782,5.01884367 107.122923,4.87088608 C107.06881,4.53333333 107.007933,4.21603376 106.940292,3.91898734 L106.940292,3.87341772 C106.869269,3.23544304 106.940292,2.86075949 106.909854,2.35443038 C106.848977,1.51898734 106.02714,0.415189873 104.210981,0.506329114 C102.724572,0.582278481 101.674447,1.58481013 101.99405,3.03797468 C102.032033,3.28837056 102.118165,3.5290748 102.247704,3.74683544 L102.288288,3.81772152 C102.3238,3.88860759 102.364384,3.95949367 102.404969,4.03037975 L102.694134,4.53670886 C102.821557,4.70513283 102.852285,4.92748709 102.775303,5.12405063 C102.694134,5.27257384 102.504739,5.34683544 102.207119,5.34683544 L90.7470564,5.34683544 C90.2028666,5.33425011 89.6764274,5.54040626 89.2860125,5.91898734 C88.9108292,6.3177446 88.7132108,6.85101645 88.7381211,7.39746835 L88.7381211,19.5240506 C88.7473924,19.7565423 88.5967139,19.9654146 88.3728601,20.0303797 C86.962547,20.7054852 85.5403967,21.3130802 84.1064092,21.8531646 C83.6047653,22.0383383 83.1868757,22.3978936 82.9294572,22.8658228 C82.684057,23.3346911 82.6401103,23.882966 82.8077035,24.3848101 L82.8888727,24.7088608 C82.995729,25.1222473 83.2214563,25.4953875 83.5382255,25.7822785 C83.8175502,26.0306475 84.1787435,26.1676364 84.5528392,26.1670886 C84.8981957,26.1688494 85.2366123,26.0703348 85.5268685,25.8835443 C86.1286594,25.5677929 86.7068037,25.2090528 87.256785,24.8101266 C87.4328234,24.6736797 87.6437941,24.589454 87.8655532,24.5670886 C88.2037578,24.5670886 88.3255115,24.8506329 88.2308142,25.4177215 C87.5551609,29.1340768 86.0558856,32.6527455 83.8426096,35.7164557 C83.5231527,36.0979767 83.3692389,36.5908506 83.4149421,37.0859639 C83.4606452,37.5810773 83.7021951,38.0375872 84.0861169,38.3544304 C84.4154042,38.6674574 84.8490915,38.8478122 85.3036534,38.8607595 C85.8434636,38.8480035 86.3494176,38.5955141 86.6835282,38.1721519 C87.8890145,36.7915673 88.9576594,35.2976698 89.8744885,33.7113924 C90.6784327,32.3137764 91.3574661,30.8481969 91.9037161,29.3316456 C92.4149236,27.8829025 92.7885914,26.3894169 93.0197912,24.8708861 C93.2541643,23.3117405 93.4099346,21.7418306 93.4865136,20.1670886 C93.5676827,18.5468354 93.594739,16.8506329 93.5676827,15.078481 C93.5406263,13.3063291 93.5270981,11.421097 93.5270981,9.42278481 C93.5029997,9.25541421 93.5593365,9.08649548 93.6791321,8.96693082 C93.7989276,8.84736615 93.9681726,8.79113787 94.1358664,8.81518987 L110.988601,8.81518987 C113.085255,8.80668263 115.179579,8.95562618 117.253841,9.26075949 Z" id="Shape"></path>
                <path d="M5.4636952,8.24810127 C6.8334238,7.78734177 7.18853862,5.95949367 5.88983299,5.21012658 C5.36178149,4.89841491 4.72718348,4.8213084 4.13962422,4.99746835 C3.55238486,5.18499699 3.10361543,5.66161328 2.9525261,6.25822785 C2.66336117,7.55949367 4.29181628,8.64303797 5.4636952,8.24810127 Z" id="Shape"></path>
                <path d="M1.09578288,8.47088608 C0.873450858,8.49109382 0.676778997,8.62302961 0.574072228,8.82087162 C0.471365459,9.01871363 0.476795317,9.25516351 0.588475992,9.44810127 C0.696742827,9.67743669 0.900798369,9.84747357 1.14621298,9.91285639 C1.3916276,9.97823921 1.65344064,9.93231801 1.86181628,9.78734177 C2.70394572,9.30632911 1.81108559,8.32405063 1.09578288,8.47088608 Z" id="Shape"></path>
                <path d="M85.1311691,11.7822785 C82.5286848,11.4075949 80.8342797,14.5012658 82.2395198,16.2936709 C82.8372542,17.0058752 83.7347197,17.3975253 84.6644468,17.3518987 C85.2079906,17.3219889 85.7335518,17.1471395 86.1863674,16.8455696 C86.7859142,16.4658612 87.243965,15.9001827 87.4901461,15.235443 C87.9873069,13.7822785 86.8255741,12.0253165 85.1311691,11.7822785 Z" id="Shape"></path>
                <path d="M80.3168267,31.3924051 C79.8543965,31.3886665 79.4121817,31.5813345 79.1005296,31.9223318 C78.7888775,32.2633292 78.6371829,32.7204934 78.6832985,33.1797468 C78.8202714,34.0759494 79.9464927,34.8962025 80.8342797,34.5367089 L80.8647182,34.5367089 C82.2750313,33.8886076 81.8793319,31.4683544 80.3168267,31.3924051 Z" id="Shape"></path>
            </g>
        </g>
    </g>
</svg>