<?xml version="1.0" encoding="UTF-8"?>
<svg width="258px" height="143px" viewBox="0 0 258 143" version="1.1" xmlns="http://www.w3.org/2000/svg" xmlns:xlink="http://www.w3.org/1999/xlink">
    <!-- Generator: Sketch 63.1 (92452) - https://sketch.com -->
    <title>Group 39</title>
    <desc>Created with Sketch.</desc>
    <g id="Page-1" stroke="none" stroke-width="1" fill="none" fill-rule="evenodd">
        <g id="index" transform="translate(-1026.000000, -1049.000000)">
            <g id="Group-39" transform="translate(1026.000000, 1049.000000)">
                <rect id="Rectangle-Copy-2" fill="#FFD100" x="0" y="0" width="258" height="143" rx="1"></rect>
                <g id="Group-47" transform="translate(30.000000, 32.000000)" fill="#FFFFFF">
                    <polygon id="Fill-1" points="12.2681319 0 12.2681319 3.43736264 3.84175824 3.43736264 3.84175824 22.6549451 3.67959631e-13 22.6549451 3.67959631e-13 0"></polygon>
                    <path d="M46.112967,27.0151648 C42.4272527,23.9184615 39.2052747,21.3646154 36.4426374,19.3558242 L38.7041758,16.969011 C42.1349451,19.3140659 45.4843956,21.7008791 48.7503297,24.1272527 L46.112967,27.0151648 Z M19.3635165,10.4393407 L19.3635165,7.04813187 L48.1217582,7.04813187 L48.1217582,10.4393407 L37.0712088,10.4393407 C35.8140659,12.4481319 34.5591209,14.3316484 33.3041758,16.0898901 L35.312967,16.0898901 L35.312967,34.6767033 L31.5437363,34.6767033 L31.5437363,18.223956 C28.8646154,21.4063736 25.1810989,24.547033 20.4931868,27.6437363 C19.6558242,26.3052747 18.901978,25.3008791 18.2316484,24.6305495 C25.1810989,20.1931868 30.0382418,15.4613187 32.8008791,10.4393407 L19.3635165,10.4393407 Z" id="Fill-3"></path>
                    <path d="M70.5720879,33.9230769 C67.1391209,34.0901099 65.503956,32.4989011 65.6731868,29.1516484 L65.6731868,5.16483516 L69.1896703,5.16483516 L69.1896703,17.0945055 C71.7852747,15.1692308 74.5479121,12.4483516 77.4797802,8.93186813 L80.2402198,11.3164835 C76.6424176,15.5868132 72.9589011,18.978022 69.1896703,21.4901099 L69.1896703,28.6483516 C69.1061538,30.156044 69.8995604,30.8681319 71.5764835,30.7824176 L74.2138462,30.7824176 C75.8885714,30.8681319 76.8094505,30.1978022 76.9764835,28.7736264 C77.06,28.0197802 77.2687912,26.3054945 77.6050549,23.6241758 C77.9391209,23.7098901 78.5259341,23.9186813 79.3632967,24.2527473 C80.1171429,24.5032967 80.66,24.7142857 80.9962637,24.8813187 C80.7457143,27.1406593 80.449011,29.0241758 80.1171429,30.5318681 C79.7808791,32.8747253 77.9391209,34.0043956 74.5896703,33.9230769 L70.5720879,33.9230769 Z M51.6094505,23.4989011 L50.3545055,19.2285714 C53.6182418,15.2945055 56.2556044,10.5230769 58.2643956,4.91208791 L61.7808791,6.04175824 C60.692967,8.63956044 59.5215385,11.1098901 58.2643956,13.4527473 L58.2643956,34.6769231 L55.0006593,34.6769231 L55.0006593,18.8527473 C54.6643956,19.356044 54.1215385,20.1076923 53.3676923,21.1120879 C52.6138462,22.2021978 52.027033,22.9956044 51.6094505,23.4989011 L51.6094505,23.4989011 Z" id="Fill-5"></path>
                    <path d="M100.431209,21.8663736 C101.76967,22.7894505 103.068571,23.7498901 104.323516,24.7542857 C105.831209,22.6641758 106.963077,19.3982418 107.714725,14.9586813 L102.567473,14.9586813 C101.894945,17.3894505 101.185055,19.6905495 100.431209,21.8663736 L100.431209,21.8663736 Z M95.2817582,14.9586813 L95.2817582,11.6949451 L100.055385,11.6949451 C100.725714,9.26637363 101.226813,7.00703297 101.563077,4.91252747 L105.077363,5.41582418 C104.826813,6.58725275 104.281758,8.67956044 103.446593,11.6949451 L113.242198,11.6949451 L113.242198,14.9586813 L110.855385,14.9586813 C110.268571,19.9828571 108.971868,23.9191209 106.963077,26.7652747 C107.967473,27.4356044 109.431209,28.5213187 111.358681,30.029011 C112.193846,30.7015385 112.822418,31.1608791 113.242198,31.4114286 L111.105934,34.2993407 C108.927912,32.4575824 106.835604,30.8268132 104.826813,29.4026374 C102.734505,31.2421978 99.8861538,33.0421978 96.2861538,34.8026374 C95.4487912,33.2949451 94.8202198,32.2905495 94.4048352,31.7872527 C97.7498901,30.5323077 100.347692,29.0246154 102.189451,27.2663736 C101.268571,26.5125275 100.305934,25.7586813 99.3015385,25.007033 L98.8004396,26.3872527 L96.0356044,24.8817582 C97.207033,21.7828571 98.2531868,18.4773626 99.1762637,14.9586813 L95.2817582,14.9586813 Z M82.9762637,23.4993407 L82.9762637,20.3586813 L91.0136264,20.3586813 L91.0136264,16.5916484 L87.3718681,16.5916484 L87.3718681,17.8465934 L84.4817582,17.8465934 L84.4817582,6.29494505 L87.3718681,6.29494505 L87.3718681,13.4531868 L91.0136264,13.4531868 L91.0136264,5.0378022 L94.1542857,5.0378022 L94.1542857,34.6773626 L91.0136264,34.6773626 L91.0136264,23.4993407 L88.3762637,23.4993407 C88.3762637,23.7498901 88.3323077,24.0861538 88.250989,24.5037363 L88.250989,25.3828571 C88.3323077,29.0685714 87.2465934,32.1213187 84.9850549,34.5498901 C84.7323077,34.3806593 84.3147253,34.0487912 83.7279121,33.5454945 C83.1432967,33.1257143 82.7235165,32.7916484 82.472967,32.5410989 C84.4817582,30.7015385 85.4861538,28.2312088 85.4861538,25.1323077 L85.4861538,23.4993407 L82.9762637,23.4993407 Z" id="Fill-7"></path>
                    <path d="M123.383736,27.0151648 C123.133187,26.6810989 122.713407,26.0964835 122.128791,25.2569231 C122.045275,25.1756044 121.961758,25.0898901 121.876044,25.0063736 L121.876044,34.801978 L118.737582,34.801978 L118.737582,18.601978 C117.816703,20.1074725 116.854066,21.5316484 115.84967,22.8701099 C115.763956,22.369011 115.599121,21.5316484 115.348571,20.3602198 C115.179341,19.6063736 115.051868,19.0613187 114.970549,18.7272527 C117.733187,14.6261538 119.825495,10.0195604 121.24967,4.91186813 L124.515604,5.79098901 C123.761758,8.13604396 122.88044,10.4393407 121.876044,12.6986813 L121.876044,24.2525275 C126.22989,20.8217582 129.412308,17.0525275 131.421099,12.9492308 L123.887033,12.9492308 L123.887033,9.93604396 L132.803516,9.93604396 L132.803516,5.03714286 L135.944176,5.03714286 L135.944176,9.93604396 L145.236484,9.93604396 L145.236484,12.9492308 L135.440879,12.9492308 C135.944176,15.7118681 136.570549,18.1426374 137.324396,20.2349451 C138.328791,19.4810989 139.878242,18.223956 141.970549,16.4657143 C142.221099,16.2151648 142.42989,16.0481319 142.599121,15.9646154 L144.607912,18.4767033 C144.357363,18.6437363 144.023297,18.8964835 143.603516,19.2305495 C141.344176,20.8217582 139.667253,21.990989 138.579341,22.7448352 C140.003516,25.5931868 142.348571,28.2305495 145.612308,30.6569231 C145.027692,31.0767033 144.273846,31.9140659 143.352967,33.169011 C137.992527,29.5712088 134.601319,23.8349451 133.179341,15.9646154 C132.845275,16.5514286 132.258462,17.4701099 131.421099,18.7272527 C131.003516,19.3140659 130.709011,19.7756044 130.544176,20.1074725 L130.92,19.9821978 L130.92,29.6525275 C131.924396,29.2349451 133.346374,28.6063736 135.19033,27.769011 C135.355165,27.6876923 135.482637,27.6437363 135.566154,27.6437363 C135.816703,28.7316484 136.067253,29.7778022 136.32,30.7821978 C133.054066,31.7865934 129.704615,33.1250549 126.271648,34.801978 L125.016703,31.6613187 L127.779341,30.9074725 L127.779341,23.2481319 C126.524396,24.5030769 125.058462,25.7602198 123.383736,27.0151648" id="Fill-9"></path>
                    <path d="M174.216484,34.0485714 C173.295604,32.1210989 172.207692,30.0727473 170.952747,27.8947253 L173.965934,26.8903297 C175.220879,29.1496703 176.392308,31.1606593 177.482418,32.9167033 L174.216484,34.0485714 Z M173.840659,11.3167033 C173.504396,10.9826374 173.001099,10.398022 172.335165,9.55846154 C171.579121,8.55406593 170.992308,7.84417582 170.574725,7.4243956 L172.836264,6.04197802 C174.091209,7.29912088 175.220879,8.51230769 176.225275,9.68593407 L173.840659,11.3167033 Z M165.928571,33.798022 C165.842857,33.6287912 165.759341,33.376044 165.675824,33.041978 C164.838462,31.2002198 164.126374,29.6112088 163.543956,28.2705495 L166.807692,27.641978 C167.13956,28.3145055 167.561538,29.2353846 168.062637,30.4068132 C168.565934,31.4925275 168.943956,32.3716484 169.194505,33.041978 L165.928571,33.798022 Z M162.79011,15.2112088 L162.79011,12.3210989 L166.42967,12.3210989 C166.596703,9.64417582 166.68022,7.13208791 166.68022,4.78703297 L169.820879,4.78703297 C169.737363,5.54087912 169.695604,6.79582418 169.695604,8.55406593 C169.60989,10.230989 169.57033,11.4859341 169.57033,12.3210989 L177.104396,12.3210989 L177.104396,15.2112088 L170.198901,15.2112088 C171.11978,19.0617582 173.671429,21.9101099 177.858242,23.7496703 C177.104396,24.6727473 176.392308,25.5936264 175.724176,26.5123077 C171.704396,24.1694505 169.194505,21.2815385 168.19011,17.8463736 C167.436264,21.4485714 165.007692,24.5035165 160.904396,27.0156044 C160.57033,26.5123077 159.981319,25.8024176 159.148352,24.8815385 C158.976923,24.6287912 158.853846,24.4617582 158.77033,24.3782418 C163.121978,21.8661538 165.552747,18.8112088 166.053846,15.2112088 L162.79011,15.2112088 Z M158.143956,34.0485714 C157.891209,33.2112088 157.471429,31.8705495 156.886813,30.0287912 C156.634066,29.3606593 156.425275,28.8178022 156.258242,28.3958242 L159.398901,28.02 C159.48022,28.2705495 159.649451,28.6903297 159.9,29.2771429 C160.57033,30.9518681 161.073626,32.3716484 161.407692,33.5452747 L158.143956,34.0485714 Z M151.108791,34.6771429 L147.845055,33.6705495 C148.513187,32.4156044 149.603297,30.3232967 151.108791,27.3914286 L154.121978,28.2705495 C153.537363,29.8617582 152.532967,31.9958242 151.108791,34.6771429 L151.108791,34.6771429 Z M148.721978,18.3496703 C148.638462,18.0178022 148.42967,17.4705495 148.095604,16.7167033 C147.845055,15.9628571 147.634066,15.4617582 147.467033,15.2112088 C150.22967,12.2815385 152.321978,8.7232967 153.748352,4.53648352 L156.886813,5.16285714 L155.62967,8.05076923 L162.79011,8.05076923 L162.79011,11.0661538 C161.02967,18.2683516 156.801099,23.7936264 150.104396,27.641978 C149.853846,27.3101099 149.392308,26.8068132 148.721978,26.1364835 C148.304396,25.6331868 148.00989,25.3013187 147.845055,25.1320879 C150.357143,23.8771429 152.405495,22.4947253 153.998901,20.987033 C153.495604,20.5694505 152.783516,20.0265934 151.862637,19.3540659 C151.19011,18.852967 150.689011,18.4771429 150.357143,18.2243956 L152.113187,16.2156044 C153.286813,16.9694505 154.581319,17.8068132 156.007692,18.7276923 C156.089011,18.6441758 156.174725,18.5606593 156.258242,18.4771429 C156.508791,18.1430769 156.842857,17.6397802 157.262637,16.9694505 C156.007692,16.0485714 154.667033,15.1694505 153.245055,14.3320879 L154.875824,12.3210989 C155.212088,12.4903297 155.671429,12.7826374 156.258242,13.2002198 C157.262637,13.787033 158.016484,14.2068132 158.517582,14.4573626 C159.020879,13.3694505 159.438462,12.1562637 159.774725,10.8156044 L154.249451,10.8156044 C152.994505,13.1606593 151.150549,15.6727473 148.721978,18.3496703 L148.721978,18.3496703 Z" id="Fill-11"></path>
                    <path d="M28.1549451,71.58 L46.9901099,71.58 L46.9901099,68.1250549 L28.1549451,68.1250549 L28.1549451,71.58 Z M28.1549451,63.1030769 L46.9901099,63.1030769 L46.9901099,59.8063736 L28.1549451,59.8063736 L28.1549451,63.1030769 Z M28.1549451,54.7843956 L46.9901099,54.7843956 L46.9901099,51.3294505 L28.1549451,51.3294505 L28.1549451,54.7843956 Z M32.2340659,41.4393407 L40.0846154,41.9096703 C39.8736264,42.4349451 39.5593407,43.3756044 39.1417582,44.736044 C39.0362637,45.2613187 38.9307692,45.6261538 38.8274725,45.8349451 L53.5835165,45.8349451 L53.5835165,78.958022 L46.9901099,78.958022 L46.9901099,76.7602198 L28.1549451,76.7602198 L28.1549451,78.958022 L21.5615385,78.958022 L21.5615385,45.8349451 L31.2934066,45.8349451 C31.8164835,44.1624176 32.1307692,42.6942857 32.2340659,41.4393407 L32.2340659,41.4393407 Z" id="Fill-13"></path>
                    <path d="M76.9373626,72.990989 L89.1813187,72.990989 L89.1813187,70.3228571 L76.9373626,70.3228571 L76.9373626,72.990989 Z M73.4846154,47.0920879 L93.1087912,47.0920879 L93.1087912,42.8525275 L73.4846154,42.8525275 L73.4846154,47.0920879 Z M71.2868132,64.3602198 L94.9901099,64.3602198 L94.9901099,60.1206593 L71.2868132,60.1206593 L71.2868132,64.3602198 Z M71.2868132,58.8657143 L94.9901099,58.8657143 L94.9901099,54.6261538 L71.2868132,54.6261538 L71.2868132,58.8657143 Z M70.9725275,78.958022 L70.9725275,65.6151648 L95.1461538,65.6151648 L95.1461538,78.958022 L89.1835165,78.958022 L89.1835165,77.3865934 L76.9373626,77.3865934 L76.9373626,78.958022 L70.9725275,78.958022 Z M70.0318681,53.3712088 L96.7197802,53.3712088 L96.7197802,48.347033 L70.0318681,48.347033 L70.0318681,53.3712088 Z M68.3043956,78.958022 L62.3395604,78.958022 L62.3395604,62.4745055 C61.5,63.7316484 60.6142857,65.0920879 59.6714286,66.5558242 C59.5659341,65.7184615 59.4076923,64.412967 59.1989011,62.6327473 C58.8846154,60.6437363 58.6758242,59.1250549 58.5725275,58.0789011 C61.2912088,53.0569231 63.3835165,47.5096703 64.8494505,41.4393407 L71.1307692,43.1668132 C70.1879121,46.3052747 69.2450549,48.9734066 68.3043956,51.1712088 L68.3043956,78.958022 Z" id="Fill-15"></path>
                    <path d="M126.193187,72.2074725 C126.087692,73.3591209 126.558022,73.8821978 127.606374,73.7767033 L129.645934,73.7767033 C130.588791,73.7767033 131.10967,73.3063736 131.217363,72.3635165 C131.426154,71.5283516 131.582198,70.48 131.687692,69.2250549 C132.103077,69.3305495 132.733846,69.5393407 133.571209,69.8536264 C135.243736,70.3767033 136.498681,70.7415385 137.338242,70.9525275 C137.026154,72.6272527 136.711868,73.9876923 136.397582,75.0338462 C135.769011,77.2316484 133.832747,78.3305495 130.588791,78.3305495 L124.78,78.3305495 C121.430549,78.4338462 119.808571,76.9679121 119.916264,73.9349451 L119.916264,66.3986813 L126.193187,66.3986813 L126.193187,72.2074725 Z M110.494286,55.723956 L125.878901,55.723956 L125.878901,54.1547253 L110.494286,54.1547253 L110.494286,55.723956 Z M104.373407,59.3349451 L132.158022,59.3349451 L132.158022,50.2294505 L104.373407,50.2294505 L104.373407,59.3349451 Z M99.6635165,68.2821978 L99.6635165,60.7481319 L136.711868,60.7481319 L136.711868,68.2821978 L130.744835,68.2821978 L130.744835,65.2997802 L105.786593,65.2997802 L105.786593,68.2821978 L99.6635165,68.2821978 Z M115.832747,41.7525275 L122.111868,41.7525275 L122.111868,44.2646154 L137.182198,44.2646154 L137.182198,48.9745055 L99.1931868,48.9745055 L99.1931868,44.2646154 L115.832747,44.2646154 L115.832747,41.7525275 Z M114.733846,66.3986813 C114.733846,70.690989 114.681099,72.5745055 114.577802,72.0514286 C114.155824,75.3986813 110.127253,77.858022 102.48989,79.4294505 C101.755824,78.1723077 100.551429,76.5481319 98.8789011,74.5613187 C106.098681,73.7261538 109.395385,71.7898901 108.769011,68.7547253 L108.769011,66.3986813 L114.733846,66.3986813 Z" id="Fill-16"></path>
                    <path d="M169.172747,66.8696703 C170.636484,65.929011 171.891429,64.9861538 172.93978,64.0432967 L167.757363,64.0432967 C167.966154,64.6718681 168.388132,65.5114286 169.014505,66.5553846 C169.117802,66.6608791 169.172747,66.7663736 169.172747,66.8696703 L169.172747,66.8696703 Z M165.55956,71.5795604 C164.093626,69.3817582 162.944176,66.8696703 162.106813,64.0432967 L161.007912,64.0432967 L161.007912,72.3641758 L165.55956,71.5795604 Z M161.007912,58.5487912 L169.799121,58.5487912 L169.799121,56.0367033 L161.007912,56.0367033 L161.007912,58.5487912 Z M161.007912,51.0147253 L169.799121,51.0147253 L169.799121,48.6608791 L161.007912,48.6608791 L161.007912,51.0147253 Z M155.357363,78.6432967 L153.944176,73.4630769 L154.570549,73.4630769 C154.887033,73.3597802 155.146374,73.307033 155.357363,73.307033 L155.357363,43.1663736 L175.44967,43.1663736 L175.44967,64.0432967 L174.509011,64.0432967 L177.335385,67.4982418 C175.44967,68.8586813 173.827692,69.8520879 172.467253,70.4806593 C173.933187,71.529011 175.763956,72.4696703 177.961758,73.307033 C176.706813,75.0850549 175.711209,76.8103297 174.981538,78.4872527 C171.62989,77.0191209 168.803516,75.1905495 166.502418,72.9927473 L166.502418,76.4454945 C165.247473,76.6542857 164.827692,76.7597802 165.247473,76.7597802 C160.328791,77.5949451 157.032088,78.2235165 155.357363,78.6432967 L155.357363,78.6432967 Z M145.623297,70.3224176 L148.92,70.3224176 L148.92,66.3971429 L145.623297,66.3971429 L145.623297,70.3224176 Z M145.623297,61.3751648 L148.92,61.3751648 L148.92,57.4498901 L145.623297,57.4498901 L145.623297,61.3751648 Z M145.623297,52.4279121 L148.92,52.4279121 L148.92,48.6608791 L145.623297,48.6608791 L145.623297,52.4279121 Z M140.757363,43.3224176 L153.471648,43.3224176 L153.471648,77.7026374 L148.92,77.7026374 L148.92,75.3465934 L145.623297,75.3465934 L145.623297,78.0147253 L140.757363,78.0147253 L140.757363,43.3224176 Z" id="Fill-17"></path>
                    <polygon id="Fill-18" points="198.235604 54.6874725 198.235604 77.1358242 186.077363 77.1358242 186.077363 73.7314286 194.426813 73.7314286 194.426813 54.6874725"></polygon>
                </g>
            </g>
        </g>
    </g>
</svg>