<?xml version="1.0" encoding="UTF-8"?>
<svg width="904px" height="85px" viewBox="0 0 904 85" version="1.1" xmlns="http://www.w3.org/2000/svg" xmlns:xlink="http://www.w3.org/1999/xlink">
    <!-- Generator: Sketch 63.1 (92452) - https://sketch.com -->
    <title>Group 5</title>
    <desc>Created with Sketch.</desc>
    <defs>
        <polygon id="path-1" points="0 0.683151812 43.9658333 0.683151812 43.9658333 46.4891304 0 46.4891304"></polygon>
        <linearGradient x1="50%" y1="0%" x2="50%" y2="100%" id="linearGradient-3">
            <stop stop-color="#FFB900" offset="0%"></stop>
            <stop stop-color="#FF8300" offset="100%"></stop>
        </linearGradient>
        <linearGradient x1="50%" y1="0%" x2="50%" y2="100%" id="linearGradient-4">
            <stop stop-color="#FFB900" offset="0%"></stop>
            <stop stop-color="#FF8300" offset="100%"></stop>
        </linearGradient>
        <polygon id="path-5" points="0 45.275 343 45.275 343 0.275 0 0.275"></polygon>
        <linearGradient x1="50%" y1="0%" x2="50%" y2="100%" id="linearGradient-7">
            <stop stop-color="#FFB900" offset="0%"></stop>
            <stop stop-color="#FF8300" offset="100%"></stop>
        </linearGradient>
        <linearGradient x1="50%" y1="0%" x2="50%" y2="100%" id="linearGradient-8">
            <stop stop-color="#FFB900" offset="0%"></stop>
            <stop stop-color="#FF8300" offset="100%"></stop>
        </linearGradient>
        <linearGradient x1="50%" y1="0%" x2="50%" y2="100%" id="linearGradient-9">
            <stop stop-color="#FFB900" offset="0%"></stop>
            <stop stop-color="#FF8300" offset="100%"></stop>
        </linearGradient>
        <linearGradient x1="50%" y1="0%" x2="50%" y2="100%" id="linearGradient-10">
            <stop stop-color="#FFB900" offset="0%"></stop>
            <stop stop-color="#FF8300" offset="100%"></stop>
        </linearGradient>
    </defs>
    <g id="Page-1" stroke="none" stroke-width="1" fill="none" fill-rule="evenodd">
        <g id="index" transform="translate(-122.000000, -828.000000)">
            <g id="Group-5" transform="translate(122.000000, 828.000000)">
                <g id="Group-43-Copy-4" transform="translate(561.000000, 37.000000)">
                    <g id="Group-3" transform="translate(0.000000, 0.275000)">
                        <mask id="mask-2" fill="white">
                            <use xlink:href="#path-1"></use>
                        </mask>
                        <g id="Clip-2"></g>
                        <path d="M0,41.815304 C10.0648333,41.2741228 16.3251667,38.9615866 18.781,34.9277605 L1.05933333,34.9277605 L1.05933333,30.9416156 L19.8403333,30.9416156 L19.936,29.6625685 L19.936,26.6610395 L0.0968333333,26.6610395 L0.0968333333,22.6760866 L19.7925,22.6760866 L19.7925,18.7900721 L3.51633333,18.7900721 L3.51633333,14.8039272 L19.7925,14.8039272 L19.7925,11.1134054 L1.44433333,11.1134054 L1.44433333,7.12845254 L12.5685,7.12845254 C11.557,5.40716268 10.5945,4.12811558 9.72766667,3.19356486 L13.0025,0.683151812 C14.2065,1.96219891 15.5061667,3.6846808 16.758,5.84940543 L14.9765,7.12845254 L26.8706667,7.12845254 C28.3161667,4.22586196 29.3755,2.05994529 29.8561667,0.732025 L33.4681667,2.6523837 L31.3973333,7.12845254 L42.0875,7.12845254 L42.0875,11.1134054 L23.8373333,11.1134054 L23.8373333,14.8039272 L39.872,14.8039272 L39.872,18.7900721 L23.8373333,18.7900721 L23.8373333,22.6760866 L43.435,22.6760866 L43.435,26.6610395 L24.0298333,26.6610395 L24.0298333,29.6625685 L23.933,30.9416156 L42.4725,30.9416156 L42.4725,34.9277605 L25.6666667,34.9277605 C29.6158333,39.6505793 35.7793333,42.1598004 43.9658333,42.2086736 L42.9053333,46.4892496 L42.4235,46.4892496 C33.6128333,45.9480685 26.8216667,42.6521083 22.1515,36.8958004 L20.8028333,38.8626482 C17.4801667,42.5531699 10.8348333,45.063583 1.05933333,46.2925649 L0,41.815304 Z" id="Fill-1" fill="url(#linearGradient-3)" mask="url(#mask-2)"></path>
                    </g>
                    <path d="M85.9941201,11.7858306 L67.8783074,11.7858306 L67.8783074,14.7833947 L68.0215246,14.9735516 L85.8035489,14.9735516 L85.9941201,14.7833947 L85.9941201,11.7858306 Z M67.8783074,8.50360735 L85.9941201,8.50360735 L85.9941201,5.22138414 L85.8035489,5.07963082 L68.0215246,5.07963082 C67.8783074,5.07963082 67.8297984,5.12688192 67.8783074,5.22138414 L67.8783074,8.50360735 Z M69.9757455,41.3258395 C69.3566779,40.3266514 67.7350903,38.1381185 65.1132927,34.761393 L68.2606048,32.5728601 C70.0242545,34.4755815 71.6920412,36.7597691 73.2166107,39.3747145 L69.9757455,41.3258395 Z M89.8552079,17.7314027 C89.8552079,18.1117165 89.6646367,18.3018734 89.2834943,18.3018734 L64.4942251,18.3018734 C64.2077908,18.3018734 64.0172197,18.1117165 64.0172197,17.7314027 L64.0172197,2.31947471 C64.0172197,1.98641203 64.2077908,1.79625514 64.4942251,1.79625514 L89.2834943,1.79625514 C89.6646367,1.79625514 89.8552079,1.98641203 89.8552079,2.31947471 L89.8552079,17.7314027 Z M82.1792314,31.6693267 L60.6319824,31.6693267 L60.6319824,28.0067897 L82.1792314,28.0067897 L82.1792314,24.4871585 L61.9671357,24.4871585 L61.9671357,21.0147784 L91.2377152,21.0147784 L91.2377152,24.4871585 L86.2320454,24.4871585 L86.2320454,28.0067897 L92,28.0067897 L92,31.6693267 L86.2320454,31.6693267 L86.2320454,39.4703692 C86.2320454,40.0892434 86.2320454,44.275 80.74937,44.275 C79.2248005,44.275 77.3167787,43.9891884 75.0299244,43.4659689 L75.0299244,39.2802123 C77.1747165,39.8518354 78.7963041,40.1364945 79.9870853,40.1364945 C81.8465981,40.1364945 82.1792314,39.613275 82.1792314,38.3766789 L82.1792314,31.6693267 Z M48.0473541,11.3582657 C52.0031499,8.36070156 55.0545989,4.60366235 57.1046829,0.275 L60.7278454,2.08206671 C57.7711046,7.60007399 54.5302394,11.6429248 51.1935111,14.0688657 L48.0473541,11.3582657 Z M54.149097,25.3434408 L51.2408652,28.0067897 L48,25.3906919 C52.6707266,21.5852491 56.3412432,16.876273 58.7262705,11.4055168 L62.4429861,13.1653324 C60.8710626,16.1144929 59.4412012,18.587685 58.0101848,20.6817157 L58.0101848,44.1320942 L54.149097,44.1320942 L54.149097,25.3434408 Z" id="Fill-4" fill="url(#linearGradient-4)"></path>
                    <path d="M114,22.775 C114,25.8098789 111.534879,28.275 108.5,28.275 C105.465121,28.275 103,25.8098789 103,22.775 C103,19.7401211 105.465121,17.275 108.5,17.275 C111.629073,17.275 114,19.8354637 114,22.775" id="Fill-6" fill="url(#linearGradient-4)"></path>
                    <mask id="mask-6" fill="white">
                        <use xlink:href="#path-5"></use>
                    </mask>
                    <g id="Clip-9"></g>
                    <path d="M132.103478,38.1878553 L162.897691,38.1878553 L162.897691,31.9567186 L132.103478,31.9567186 L132.103478,38.1878553 Z M132.103478,27.8831391 L162.897691,27.8831391 L162.897691,20.8867548 L132.103478,20.8867548 L132.103478,27.8831391 Z M132.103478,16.8108528 L162.897691,16.8108528 L162.897691,10.4368854 C162.897691,10.053681 162.704738,9.86207873 162.269715,9.86207873 L132.682339,9.86207873 C132.19937,9.86207873 132.054363,10.1012912 132.103478,10.4368854 L132.103478,16.8108528 Z M132.103478,42.2614348 L132.103478,44.275 L128,44.275 L128,7.17848632 C128,6.2669242 128.482969,5.78733802 129.447736,5.78733802 L143.204738,5.78733802 C144.169505,3.58333179 144.893373,1.76253002 145.327226,0.275 L149.189805,1.71375854 C148.851844,2.95975364 148.368876,4.3497407 147.742069,5.78733802 L165.552264,5.78733802 C166.517031,5.78733802 167,6.2669242 167,7.17848632 L167,44.275 L162.897691,44.275 L162.897691,42.2614348 L132.103478,42.2614348 Z" id="Fill-8" fill="url(#linearGradient-7)" mask="url(#mask-6)"></path>
                    <path d="M213.803817,43.9882647 C211.875747,39.1681049 210.041158,35.4937303 208.305895,32.917737 L211.923656,30.9603059 C213.900805,33.9189983 215.780966,37.6419329 217.614386,42.2713212 L213.803817,43.9882647 Z M214.093612,8.34058756 C211.682939,6.09757725 209.607634,4.47428526 207.872371,3.42446395 L210.235134,0.322403826 C212.164373,1.46818898 214.334329,3.1388848 216.650351,5.33333509 L214.093612,8.34058756 Z M200.684757,43.7500893 C200.444041,40.5994692 199.864451,36.9736546 199.093223,32.917737 L203.145676,32.4402302 C203.867827,36.3527801 204.447416,40.0745585 204.736043,43.5593178 L200.684757,43.7500893 Z M188.048299,43.4159502 C188.193197,41.6504467 188.241106,39.8363832 188.241106,37.9760721 C188.241106,36.3042201 188.193197,34.5872766 188.097377,32.917737 L192.196572,33.0125447 C192.29356,34.5872766 192.29356,36.1620086 192.29356,37.6893368 C192.29356,39.8363832 192.244482,41.888622 192.100753,43.844897 L188.048299,43.4159502 Z M182.840171,8.53135905 C185.250844,9.58118037 187.807582,11.0611047 190.603869,12.9214158 C191.425344,10.5824417 192.003765,7.29076624 192.003765,6.95662708 C192.003765,6.57508409 191.810958,6.38431259 191.425344,6.38431259 L183.418593,6.38431259 L182.840171,8.53135905 Z M179.945728,15.1644261 C181.971955,16.7391581 184.141911,18.7439931 186.408855,21.081811 C187.421968,19.9360259 188.290184,18.4098539 189.20631,16.5009828 C186.360945,14.5435516 183.852116,13.1121873 181.634251,12.062366 L179.945728,15.1644261 Z M183.804207,33.3940877 C181.634251,37.9760721 179.077512,41.6030429 176.136328,44.275 C175.266944,42.9870034 174.398728,42.0319897 173.530512,41.3637114 C176.424955,38.8825258 178.643989,35.5885379 180.138535,31.5811804 L183.804207,33.3940877 Z M214.624124,30.6261667 C209.655544,26.5228453 206.183848,22.32356 204.205531,18.0283109 L201.987666,22.4657715 C199.623734,25.7586031 196.296936,28.5739279 192.148663,30.8169382 L189.447027,27.6200704 C196.441833,24.5180103 200.49195,19.4111152 201.554142,12.3965052 L194.414438,12.3965052 C193.305505,15.7367406 192.148663,18.4572577 191.135549,20.4135327 C187.95248,25.6152354 183.321605,29.4329777 177.293171,31.8679157 L173.965204,28.5739279 C177.823682,27.3333351 181.151649,25.7100431 183.659309,23.8023281 C181.441444,21.4159502 179.367307,19.4596752 177.485978,18.0283109 L176.232147,19.1729399 L173,16.8825258 C177.96858,12.5398728 179.415217,8.00644839 180.958842,0.275 L184.479616,1.086646 L184.189821,2.47060647 L194.80122,2.47060647 C195.668268,2.47060647 196.152038,2.80474564 196.152038,3.56783162 C196.152038,3.85456695 196.152038,5.18996742 195.427551,8.67472672 L201.794858,8.67472672 L201.794858,0.751350641 L205.894053,0.751350641 L205.894053,8.67472672 L216.843158,8.67472672 L216.843158,12.3965052 L206.280836,12.3965052 C207.775383,18.4572577 211.682939,23.7063643 218,28.1923849 L214.624124,30.6261667 Z" id="Fill-10" fill="url(#linearGradient-8)" mask="url(#mask-6)"></path>
                    <path d="M240,22.775 C240,25.8098789 237.534879,28.275 234.5,28.275 C231.465121,28.275 229,25.8098789 229,22.775 C229,19.7401211 231.465121,17.275 234.5,17.275 C237.629073,17.275 240,19.8354637 240,22.775" id="Fill-11" fill="url(#linearGradient-4)" mask="url(#mask-6)"></path>
                    <path d="M289.405503,18.497734 L277.897457,18.497734 C277.897457,19.9474959 277.897457,20.5271664 278.891172,20.5271664 L289.405503,20.5271664 L289.405503,18.497734 Z M278.701839,13.277186 C277.897457,13.277186 277.897457,13.4704095 277.897457,15.3066184 L289.405503,15.3066184 C289.405503,13.7608303 289.405503,13.277186 288.316547,13.277186 L278.701839,13.277186 Z M289.405503,23.8623214 L275.386778,23.8623214 C274.581249,23.8623214 274.249628,23.4278613 274.249628,22.6549672 L274.249628,11.05453 C274.249628,10.328478 274.581249,9.94203099 275.339731,9.94203099 L291.867988,9.94203099 C292.627618,9.94203099 293.053332,10.328478 293.053332,11.1025431 L293.053332,41.1657799 C293.053332,42.9071337 292.106663,45.275 288.080167,45.275 C286.80073,45.275 285.333107,45.0817765 283.723197,44.5981322 L284.101865,40.5380963 C285.805868,41.1177668 287.133499,41.3601745 287.984926,41.3601745 C289.026835,41.3601745 289.405503,40.5380963 289.405503,39.7171891 L289.405503,23.8623214 Z M282.065093,6.12440276 L276.997835,6.12440276 C275.907732,7.76738816 274.581249,9.26516317 273.208867,10.5217015 C272.356292,9.11995277 271.549615,8.15383519 270.698188,7.47696737 C272.829052,5.68877157 274.534203,3.27172106 275.765445,0.275 L279.318034,2.16039308 L278.986413,2.78924779 L294,2.78924779 L294,6.12440276 L286.279776,6.12440276 L287.133499,8.0086248 L283.81729,9.6516102 L282.065093,6.12440276 Z M279.60146,35.6559821 L264.39854,35.6559821 L264.39854,38.0730326 L264.49378,38.2674272 L279.412127,38.2674272 L279.60146,38.0730326 L279.60146,35.6559821 Z M264.39854,32.5152217 L279.60146,32.5152217 L279.60146,30.048987 L279.412127,29.9049477 L264.49378,29.9049477 C264.39854,29.9049477 264.351493,29.9529608 264.39854,30.048987 L264.39854,32.5152217 Z M283.249289,41.1177668 C283.249289,41.4081876 283.059956,41.6014111 282.728335,41.6014111 L261.177572,41.6014111 C260.845951,41.6014111 260.703664,41.4081876 260.703664,41.1177668 L260.703664,27.0054239 C260.703664,26.7150031 260.845951,26.5697927 261.177572,26.5697927 L282.728335,26.5697927 C283.059956,26.5697927 283.249289,26.7150031 283.249289,27.0054239 L283.249289,41.1177668 Z M265.914357,20.5271664 C266.815126,20.5271664 266.815126,20.0435221 266.815126,18.497734 L255.115452,18.497734 L255.115452,20.5271664 L265.914357,20.5271664 Z M256.015074,13.277186 C255.115452,13.277186 255.115452,13.5195936 255.115452,15.3066184 L266.815126,15.3066184 C266.815126,13.5676068 266.815126,13.277186 266.00845,13.277186 L256.015074,13.277186 Z M269.418751,9.94203099 C270.129039,9.94203099 270.46066,10.2804649 270.46066,10.9573327 L270.46066,22.7509934 C270.46066,23.4758744 270.129039,23.8623214 269.371704,23.8623214 L255.115452,23.8623214 L255.115452,45.1789738 L251.46877,45.1789738 L251.46877,10.9573327 C251.46877,10.2804649 251.801539,9.94203099 252.511827,9.94203099 L269.418751,9.94203099 Z M260.04157,6.51084979 L255.494119,6.51084979 C254.500404,7.71937505 253.316208,8.83070302 252.132012,9.6516102 C251.420576,8.34705871 250.710288,7.33292802 250,6.65606019 C252.227253,4.91470646 254.026496,2.78924779 255.210692,0.275 L258.525753,2.3536166 L258.004799,3.12651066 L270.649993,3.12651066 L270.649993,6.51084979 L264.256252,6.51084979 L264.919494,8.0086248 L261.604433,9.6516102 L260.04157,6.51084979 Z" id="Fill-12" fill="url(#linearGradient-9)" mask="url(#mask-6)"></path>
                    <path d="M336.938442,5.67586815 L327.419858,5.67586815 C327.277584,5.67586815 327.230541,5.72481009 327.277584,5.82269398 L327.277584,8.82963918 L327.419858,9.02660065 L336.938442,9.02660065 L337.127758,8.82963918 L337.127758,5.82269398 L336.938442,5.67586815 Z M340.775249,11.8831389 C340.775249,12.2281199 340.585933,12.4250814 340.254343,12.4250814 L324.056915,12.4250814 C323.725325,12.4250814 323.583051,12.2281199 323.583051,11.8831389 L323.583051,2.76800054 C323.583051,2.42301953 323.725325,2.275 324.056915,2.275 L340.254343,2.275 C340.585933,2.275 340.775249,2.42301953 340.775249,2.76800054 L340.775249,11.8831389 Z M323.536009,25.4328947 L323.536009,28.5365301 L335.707314,28.5365301 L335.89663,28.2906267 L335.89663,25.4328947 L323.536009,25.4328947 Z M323.536009,18.4855263 L323.536009,21.7873169 L335.89663,21.7873169 L335.89663,18.6824878 C335.89663,18.5344683 335.849588,18.4855263 335.707314,18.4855263 L323.536009,18.4855263 Z M319.559223,28.5365301 L319.559223,25.4328947 L307.008138,25.4328947 L307.008138,28.2906267 C306.961096,28.4374525 307.008138,28.4875882 307.150412,28.5365301 L319.559223,28.5365301 Z M319.559223,21.7873169 L319.559223,18.4855263 L307.150412,18.4855263 C307.008138,18.4855263 306.961096,18.5344683 307.008138,18.6824878 L307.008138,21.7873169 L319.559223,21.7873169 Z M315.486058,5.67586815 L305.919284,5.67586815 C305.77701,5.67586815 305.729968,5.72481009 305.77701,5.82269398 L305.77701,8.82963918 L305.919284,9.02660065 L315.486058,9.02660065 L315.628332,8.82963918 L315.628332,5.82269398 L315.486058,5.67586815 Z M319.321717,11.8831389 C319.321717,12.2281199 319.131254,12.4250814 318.799664,12.4250814 L302.604531,12.4250814 C302.272941,12.4250814 302.130667,12.2281199 302.130667,11.8831389 L302.130667,2.76800054 C302.130667,2.42301953 302.272941,2.275 302.604531,2.275 L318.799664,2.275 C319.131254,2.275 319.321717,2.42301953 319.321717,2.76800054 L319.321717,11.8831389 Z M319.559223,38.7844954 L300,38.7844954 L300,34.9920917 L319.559223,34.9920917 L319.559223,32.133166 L304.11906,32.133166 C303.504069,32.133166 303.172479,31.8383207 303.172479,31.0994167 L303.172479,15.8748915 C303.172479,15.2338714 303.504069,14.8888904 304.11906,14.8888904 L338.737519,14.8888904 C339.400699,14.8888904 339.733437,15.2338714 339.733437,15.8748915 L339.733437,31.0994167 C339.733437,31.8383207 339.400699,32.133166 338.737519,32.133166 L323.536009,32.133166 L323.536009,34.9920917 L343,34.9920917 L343,38.7844954 L323.536009,38.7844954 L323.536009,46.275 L319.559223,46.275 L319.559223,38.7844954 Z" id="Fill-13" fill="url(#linearGradient-10)" mask="url(#mask-6)"></path>
                </g>
                <g id="资源-1-copy" fill="#FF8300" fill-rule="nonzero">
                    <path d="M85.4635892,68.2822382 C80.4193338,64.4182143 75.7986719,60.0541281 71.675633,55.2598983 C68.3577667,51.3951048 65.3896396,47.2563874 62.8046636,42.890335 C60.7880192,39.0732515 63.2238537,36.9600256 65.8862775,35.300424 L66.3507854,35.0127598 L66.5320568,34.9021197 C69.6023413,33.065494 79.5156212,27.1573126 81.2603585,24.9445106 C83.8094876,21.8355237 82.0420914,17.5426878 79.3456793,15.7503182 C76.6492671,13.9579485 72.7632614,14.8098773 70.4067331,17.9409922 C68.8432673,19.965706 66.7699756,22.6431965 64.7420017,24.8228065 L64.5833892,24.9666386 C63.4957608,25.9697755 62.4685562,26.8844004 61.5017753,27.7105131 C58.6127623,29.6577789 55.9729975,28.2194576 54.8400512,25.2543029 C54.4208611,24.1479018 54.0243299,22.9751168 53.6504576,21.8576518 C53.1972791,20.5004665 52.8196303,19.2317934 52.5175113,18.0516323 C52.2409787,17.1897012 52.0735674,16.2979438 52.0190149,15.3962698 C51.9585911,14.0390846 51.9585911,12.7114034 52.0190149,11.4132262 C52.0794388,10.115049 52.0794388,8.7873678 52.0190149,7.43018256 C52.0746461,6.23610756 51.6333135,5.07083284 50.795433,4.1994916 C49.9031861,3.38124282 48.7099536,2.9502508 47.4872298,3.00457851 L44.994748,3.00457851 C43.7720242,2.9502508 42.5787917,3.38124282 41.6865448,4.1994916 C40.8486643,5.07083284 40.4073317,6.23610756 40.4629629,7.43018256 L40.4629629,62.4183128 C40.4629629,67.9503179 39.975796,75.4959728 34.7982314,75.4738448 C34.0164985,75.4738448 33.2234361,75.4738448 32.4417032,75.4738448 C31.6599702,75.4738448 30.7422838,75.3963967 29.9039035,75.3410767 L29.2694536,75.3410767 C28.2653051,75.2605619 27.2791134,75.6360018 26.5957004,76.3589656 C25.9854619,77.2280816 25.8340915,78.3285476 26.1878397,79.3241203 L26.4597468,80.6518015 C26.6183149,81.5547007 27.0808024,82.3801325 27.7739645,82.9973717 C28.4638806,83.6145874 29.3366202,84.0019924 30.2664463,84.1037727 C31.59577,84.2217888 32.9099876,84.3103009 34.2090994,84.3693089 C35.5082111,84.428317 36.7922169,84.457821 38.0611167,84.457821 C41.36749,84.8221859 44.692358,85.0031885 48.0197146,85 C54.4661789,84.6348452 55.1912645,77.941119 54.6247914,73.8584993 C54.0583183,69.7758796 51.9510382,61.3340399 51.9510382,50.8896143 L51.9510382,48.6989403 C51.9510382,46.9877067 52.2229453,46.13209 52.7667595,46.13209 C53.3105737,46.13209 53.9450236,46.7516745 54.6701093,47.9908437 C57.8610246,53.1875667 61.6177903,58.0322371 65.874948,62.4404409 C70.1770679,66.8582939 74.9128272,70.8531123 80.0141176,74.3674438 C80.7329281,74.9347571 81.6277271,75.2468406 82.5519173,75.2525646 C83.8680366,75.22876 85.108521,74.6472787 85.9507561,73.6593471 C86.6783943,72.9288951 87.0568419,71.9326346 86.9930667,70.9154726 C86.8806688,69.8681241 86.3264183,68.9138954 85.4635892,68.2822382 Z" id="Shape"></path>
                    <path d="M399.664561,54.4251115 L399.841562,53.8852954 C399.896875,53.6491258 399.985375,53.3004945 400.107063,52.8506477 C400.228752,52.4008009 400.361502,51.939708 400.505316,51.4561226 C400.649129,50.9725373 400.770817,50.5451829 400.859318,50.1515669 C400.916812,49.9295472 400.961142,49.7042184 400.992068,49.4767967 L400.992068,45.8780223 C401.058356,44.9044682 400.706733,43.9494264 400.027946,43.2593724 C399.349158,42.5693185 398.409708,42.2118595 397.452049,42.2792479 L393.923092,42.2792479 C389.254692,42.2792479 385.294295,40.7272765 383.015407,41.0421692 C381.033075,41.1617601 379.323191,42.4988861 378.701009,44.4160202 C377.962146,46.3843493 378.878828,48.5951232 380.78077,49.4318121 C382.59503,50.0728437 384.519916,49.4318121 387.573182,49.4318121 L389.398505,49.4318121 C390.519511,49.4318121 390.932513,50.001618 390.637512,51.1412299 C388.175122,59.7795866 383.237875,67.4767245 376.455309,73.2512001 C375.674092,73.8707645 375.158785,74.7734154 375.017176,75.7703421 C374.91479,76.7745241 375.274033,77.770538 375.990682,78.4694229 C376.8108,79.4654985 378.032034,80.0283136 379.30945,79.9989021 C380.132751,80.0176327 380.939928,79.7651482 381.610462,79.2791472 C385.789914,76.2282993 389.49321,72.5545297 392.595585,68.3816085 C395.67754,64.1478635 398.064762,59.4346963 399.664561,54.4251115 Z" id="Shape"></path>
                    <path d="M376.247466,47.4768151 C376.335481,45.6223102 376.401492,43.7344909 376.456502,41.824462 L376.456502,41.824462 C376.544517,37.1382282 377.556688,33.0627594 384.234815,33.0627594 L419.44076,33.0627594 C422.408588,33.0977564 425.372388,33.2942267 428.319259,33.6513149 C430.22258,33.8623064 432.863026,34.0177739 434.205253,32.6629859 C435.695318,30.9152735 436.304143,28.5718937 435.855531,26.3110292 C435.331386,23.0430885 435.000744,19.7465113 434.865364,16.4388447 L434.865364,13.4516483 C434.949746,12.2261733 434.527566,11.0201431 433.699167,10.1202024 C432.818628,9.33114413 431.661535,8.93117079 430.486625,9.0097205 L370.031417,9.0097205 C368.856507,8.93117079 367.699413,9.33114413 366.818874,10.1202024 C365.982484,11.0164701 365.552182,12.2229407 365.630674,13.4516483 L365.630674,42.501856 C365.630674,45.3446897 365.52799,48.3059749 365.322622,51.3857115 C365.117254,54.4654481 364.779863,57.5488863 364.310451,60.6360261 C363.84031,63.721421 363.208652,66.7795267 362.418131,69.7975022 C361.661805,72.7186374 360.675846,75.5742278 359.469633,78.3371083 C359.004473,79.3027234 358.880254,80.3998079 359.117574,81.4464578 C359.355533,82.5248991 359.98314,83.4751189 360.877871,84.1116144 C361.548448,84.669127 362.385686,84.9821169 363.254273,85 C364.47321,84.9945391 365.589932,84.3114039 366.158763,83.2232289 C368.407457,79.5238955 370.283466,75.6065583 371.758709,71.529854 C373.124155,67.6973452 374.169314,63.7561763 374.883236,59.7476406 C375.596742,55.6909119 376.052416,51.5922678 376.247466,47.4768151 Z M376.555518,20.8807725 C376.465568,19.6771544 376.900246,18.4938071 377.745837,17.6403026 C378.591428,16.7867981 379.763803,16.3480525 380.956262,16.4388447 L419.550778,16.4388447 C420.743237,16.3480525 421.915612,16.7867981 422.761203,17.6403026 C423.606794,18.4938071 424.041472,19.6771544 423.951521,20.8807725 L423.951521,21.1472882 C424.041472,22.3509063 423.606794,23.5342535 422.761203,24.387758 C421.915612,25.2412625 420.743237,25.6800081 419.550778,25.5892159 L380.967263,25.5892159 C379.774805,25.6800081 378.602429,25.2412625 377.756839,24.387758 C376.911248,23.5342535 376.47657,22.3509063 376.56652,21.1472882 L376.555518,20.8807725 Z" id="Shape"></path>
                    <path d="M439.42972,73.1461531 C436.492523,71.1624647 433.740662,68.9235325 431.206963,66.4560634 C429.348166,64.639151 427.606517,62.708938 425.992264,60.6767802 C424.32356,58.5081936 426.047155,55.8083033 427.83662,54.5938948 L427.83662,54.5938948 L429.900543,53.2059993 C431.598523,52.0494198 433.300161,50.8350113 435.005459,49.5627739 C436.057708,48.8544916 436.709015,47.6965976 436.76199,46.4400092 C436.741255,45.1984275 436.200728,44.0207929 435.268939,43.1871293 L434.390674,42.3196946 C433.601317,41.4613417 432.490443,40.959776 431.316746,40.9317992 C430.041419,40.9551281 428.839382,41.5249905 428.023252,42.4931815 L424.411386,46.0930353 L423.126924,47.3399726 C422.322678,48.2081026 421.12572,48.6112206 419.952019,48.409234 C418.778318,48.2072475 417.789942,47.4280472 417.330374,46.3424228 C416.979068,45.5942604 416.63874,44.8569409 416.331347,44.1738362 C416.023954,43.4907314 415.617757,42.5257103 415.321342,41.8317626 C415.103373,41.3942659 414.955244,40.9260975 414.88221,40.4438672 L414.88221,37.7114481 C414.985536,36.9716578 414.732121,36.2267678 414.197463,35.6987033 C413.662805,35.1706387 412.908615,34.9203481 412.159588,35.0224007 L408.558701,35.0224007 C407.368794,34.9337497 406.198928,35.3621483 405.355146,36.1955245 C404.511365,37.0289007 404.077617,38.1843409 404.167375,39.3595739 L404.167375,71.6389854 C404.167375,73.3160257 403.801431,74.4292335 403.069544,74.9786088 C402.00072,75.6149104 400.756387,75.9031915 399.51257,75.8026717 C398.868509,75.8026717 398.195172,75.8026717 397.49256,75.8026717 C396.789948,75.8026717 396.116611,75.7592999 395.47255,75.6725565 L394.857765,75.6725565 C394.004744,75.6176671 393.170205,75.9346855 392.574275,76.5399911 C392.017751,77.256075 391.853541,78.1967451 392.135143,79.0555516 L392.398622,80.1398449 C392.540095,81.0225387 392.954192,81.8405194 393.58428,82.4819184 C394.200938,83.0858363 395.005101,83.4676855 395.86777,83.5662117 C397.03879,83.7396986 398.165897,83.8553566 399.24909,83.9131855 C400.332284,83.9710145 401.459391,84 402.630411,84 C404.156619,84.0028446 405.681647,83.9159471 407.19739,83.7396986 C408.554708,83.6087877 409.877865,83.2416976 411.10567,82.6554053 C412.245563,82.0816714 413.191619,81.1924938 413.828292,80.0964731 C414.566089,78.6931385 414.914563,77.1218957 414.838296,75.5424413 L414.838296,64.8079376 C414.838296,63.3622132 415.131052,62.639351 415.716562,62.639351 C416.126419,62.639351 416.682653,63.0730684 417.385265,63.940503 C419.738516,66.9575702 422.373946,69.7492765 425.256717,72.2787185 C428.123027,74.7867205 431.196688,77.0535652 434.445565,79.0555516 C435.127166,79.4908576 435.917585,79.7310643 436.729055,79.7494993 C438.014902,79.7717785 439.235868,79.1929419 440.022549,78.1881169 C440.718616,77.4516125 441.069196,76.4600593 440.988641,75.4556978 C440.837088,74.4972979 440.267153,73.6529379 439.42972,73.1461531 L439.42972,73.1461531 Z" id="Shape"></path>
                    <path d="M521.347672,27.3548017 L521.70508,27.2667938 C522.186823,27.2171578 522.660263,27.4170084 522.956008,27.7948409 L524.296287,29.4669899 C524.870281,30.2731619 525.798748,30.7630724 526.798142,30.7871076 C527.083504,30.7883759 527.368148,30.758864 527.646986,30.6990997 C527.947266,30.6273407 528.233874,30.508479 528.49583,30.3470683 L529.121294,29.995037 C529.985379,29.5191156 530.626606,28.72964 530.908333,27.7948409 C531.133882,26.8517568 530.938739,25.8586849 530.372221,25.0665977 C527.304767,20.4586144 523.974796,16.0254539 520.398307,11.7884143 C519.606244,10.7480657 518.367763,10.1300079 517.047609,10.1162653 C516.248838,10.1574309 515.476563,10.4122511 514.813809,10.853331 L514.098993,11.2933702 C513.056931,11.7958096 512.324965,12.7625447 512.13325,13.8896016 C512.060685,15.0362482 512.520895,16.153277 513.384178,16.9258722 C513.682018,17.2192317 513.979858,17.5272591 514.277697,17.8499546 C514.575537,18.17265 514.873377,18.4806774 515.171217,18.7740369 C515.707329,19.302084 515.900925,19.7567912 515.752005,20.1381585 C515.603085,20.5195258 515.141433,20.7395454 514.367049,20.7982173 L508.503326,21.1502487 C506.567367,21.2675925 504.612792,21.3556003 502.639603,21.4142722 L502.371547,21.4142722 C501.537595,21.4142722 501.04616,21.2089206 500.89724,20.7982173 C500.74832,20.3875141 501.001484,19.830131 501.656731,19.1260683 C502.848091,17.8939585 503.994775,16.6325127 505.096782,15.341731 C506.19879,14.0509493 507.285906,12.7308317 508.358129,11.3813781 C509.230862,10.462116 509.582506,9.1756559 509.296325,7.94907216 C508.817862,6.76192888 507.755859,5.89854178 506.481738,5.66086823 L505.052106,5.30883686 C504.602352,5.13397383 504.127428,5.03002264 503.644813,5.00080941 C501.972052,4.96783552 500.448662,5.94488812 499.802678,7.46502902 C498.55175,9.66522511 497.151903,11.9130921 495.603135,14.20863 C494.141121,16.3751522 492.330338,18.2924604 490.242017,19.8851359 C489.440908,20.4902474 488.797687,21.2746358 488.365626,22.1733399 C487.948562,23.0533786 487.853841,24.0485348 488.09757,24.9895909 L488.54433,27.5418183 C488.897208,29.202486 490.396039,30.3835136 492.118408,30.3580693 L492.297112,30.3580693 L493.905448,30.1820536 C494.918104,30.1820536 495.245727,30.6514288 494.88832,31.5901791 C494.244741,33.255769 493.315359,34.8000428 492.140746,36.155586 C490.969613,37.5134738 489.634319,38.7252374 488.164584,39.7639076 C487.888626,39.9904909 487.540977,40.115007 487.181712,40.115939 C486.526464,40.115939 486.19884,39.6465638 486.19884,38.7078135 L486.19884,28.8069311 C486.290157,27.6145677 485.848876,26.4422857 484.990439,25.5967622 C484.132002,24.7512387 482.941816,24.3165957 481.731242,24.4065389 L478.514571,24.4065389 C478.145372,24.4587965 477.772758,24.3366297 477.509013,24.0768523 C477.245268,23.8170749 477.121235,23.4500663 477.174291,23.0864213 L477.174291,16.9808771 C477.121235,16.6172321 477.245268,16.2502234 477.509013,15.990446 C477.772758,15.7306686 478.145372,15.6085018 478.514571,15.6607595 L483.886858,15.6607595 C484.898412,15.7163612 485.885688,15.3424784 486.598867,14.633718 C487.312047,13.9249576 487.682797,12.9492289 487.617303,11.953429 C487.680094,10.9554233 487.304921,9.97888274 486.587072,9.27183236 C485.869223,8.56478197 484.877768,8.195253 483.86452,8.25709962 L450.770783,8.25709962 C449.75566,8.19195273 448.761131,8.56002075 448.040741,9.26746901 C447.32035,9.97491728 446.943707,10.9533871 447.006832,11.953429 C446.944041,12.9514348 447.319213,13.9279753 448.037062,14.6350257 C448.754911,15.3420761 449.746366,15.7116051 450.759615,15.6497585 L456.48931,15.6497585 C456.858509,15.5975008 457.231123,15.7196677 457.494867,15.9794451 C457.758612,16.2392224 457.882645,16.6062311 457.829589,16.9698761 L457.829589,23.1414262 C457.882645,23.5050712 457.758612,23.8720798 457.494867,24.1318572 C457.231123,24.3916346 456.858509,24.5138014 456.48931,24.4615438 L453.540695,24.4615438 C452.361341,24.3831759 451.200291,24.7802537 450.324024,25.5616419 C449.541305,26.3957012 449.137924,27.5081774 449.207124,28.6419164 L449.207124,80.7755627 C449.145662,81.8861765 449.565199,82.9703761 450.361568,83.758959 C451.157936,84.5475419 452.256441,84.9665449 453.384329,84.9119313 L454.501228,84.9119313 C455.317224,84.9465827 456.110553,84.6424694 456.688085,84.0736248 C457.265618,83.5047802 457.574376,82.7233857 457.539195,81.9196647 L457.539195,80.2475156 C457.48614,79.8838706 457.610172,79.5168619 457.873917,79.2570846 C458.137662,78.9973072 458.510276,78.8751403 458.879475,78.927398 L476.504151,78.927398 C477.338103,78.927398 477.755079,79.3674372 477.755079,80.2475156 L477.755079,81.4796254 C477.65948,82.1738925 477.9053,82.8714989 478.417028,83.3581481 C478.928755,83.8447972 479.645203,84.0623011 480.346286,83.9438451 L484.545829,83.9438451 C484.994347,84.019371 485.452424,83.8783766 485.777475,83.564749 C486.102526,83.2511214 486.255088,82.8029379 486.187671,82.3597039 L486.187671,81.5676333 C486.187671,81.3366127 486.243516,81.2156019 486.366375,81.2156019 C486.489234,81.2156019 486.578586,81.3036098 486.634431,81.4796254 L487.751331,83.3277902 C488.396797,84.3707362 489.549211,85.0050449 490.789298,84.9999698 C492.032448,84.8754433 493.242915,84.5326692 494.363377,83.987849 C495.971712,83.3131222 497.673123,82.5210516 499.467608,81.6116372 C501.262094,80.7022228 502.929997,79.7781405 504.471319,78.8393901 C506.020086,77.9006398 507.136986,77.1965771 507.822017,76.7272019 C508.013024,76.5457045 508.271761,76.4501378 508.536833,76.4631784 C508.85605,76.4519861 509.170106,76.5447856 509.430353,76.7272019 C511.652006,78.261098 513.96847,79.6572566 516.3663,80.9075745 C518.778803,82.1690202 521.239705,83.3277902 523.749006,84.3838843 C524.267148,84.55677 524.81028,84.6459303 525.357342,84.6479078 C526.948866,84.6568506 528.419968,83.8144252 529.199477,82.4477117 C529.719396,81.5854504 529.849012,80.5481589 529.556885,79.5874568 C529.234536,78.6514404 528.518159,77.8977305 527.591141,77.5192725 C526.034928,76.7858738 524.545728,76.0194721 523.123543,75.2200676 C522.888994,75.0770548 522.565093,74.8900382 522.129502,74.6590176 L520.845067,73.877948 C518.499578,72.2938068 516.947088,70.1486156 518.555423,67.4863783 C519.098981,66.8849914 519.620201,66.2652695 520.119083,65.6272126 L520.186097,65.5722077 C523.18298,62.632832 525.273991,58.9180034 526.217355,54.8572528 L526.396059,54.3842106 C526.538567,54.0747419 526.643535,53.7498037 526.70879,53.4161243 L526.70879,49.7637988 C526.807288,48.7802616 526.45309,47.8050128 525.743576,47.1061718 C525.034062,46.4073307 524.043918,46.0584617 523.04536,46.1554772 L506.995512,46.1554772 C506.042424,46.1554772 505.744584,45.6861021 506.101992,44.7473517 L506.727456,43.4272341 C507.136887,42.7282603 507.186588,41.8797435 506.861484,41.1390302 C506.497076,40.4046056 505.829966,39.8597149 505.029768,39.6428968 L502.795969,38.9388341 C502.352652,38.8479374 501.993819,38.5281627 501.857773,38.1027596 C501.783658,37.6532778 501.896375,37.1933328 502.170505,36.8266458 C503.50206,34.7357054 504.553233,32.4837979 505.297824,30.1270487 C505.456893,29.6239346 505.887847,29.2504006 506.414724,29.1589625 C506.772132,29.1039576 507.140709,29.0599536 507.531624,29.0269507 C507.922538,28.9939477 508.291115,28.9499438 508.648523,28.8949389 C509.601611,28.8949389 510.078155,29.3349781 510.078155,30.2150566 L510.078155,36.6506301 C510.078155,40.647653 512.107189,42.6461645 516.165258,42.6461645 L526.541256,42.6461645 C527.86786,42.7191798 529.12668,42.0635882 529.812311,40.9426036 C530.497942,39.8216189 530.497942,38.4190816 529.812311,37.2980969 C529.12668,36.1771123 527.86786,35.5215207 526.541256,35.594536 L521.537545,35.594536 C521.143663,35.6505996 520.746007,35.5203939 520.464598,35.2432175 C520.183188,34.9660411 520.050994,34.5743672 520.107914,34.1864105 L520.107914,28.6859203 C520.072853,28.3426607 520.188206,28.0009809 520.424983,27.7467556 C520.66176,27.4925303 520.997446,27.3499326 521.347672,27.3548017 L521.347672,27.3548017 Z M465.882436,17.2228987 C465.882436,16.3480017 466.602512,15.6387575 467.490771,15.6387575 C468.37903,15.6387575 469.099107,16.3480017 469.099107,17.2228987 L469.099107,22.8664016 C469.099107,23.7412987 468.37903,24.4505428 467.490771,24.4505428 C466.602512,24.4505428 465.882436,23.7412987 465.882436,22.8664016 L465.882436,17.2228987 Z M457.561533,33.0863125 C457.561533,32.405837 458.121593,31.8542027 458.812461,31.8542027 C459.503329,31.8542027 460.063389,32.405837 460.063389,33.0863125 L460.063389,38.1137605 C460.063389,39.0525109 460.018713,39.9912612 459.929361,40.9300115 C459.842665,41.8512781 459.678286,42.7638413 459.437925,43.6582547 C459.199653,45.0663802 458.827353,45.7704429 458.321025,45.7704429 C457.814697,45.7704429 457.546641,44.8903645 457.516857,43.1302076 L457.561533,33.0863125 Z M476.839221,70.5996558 C476.182269,71.2246757 475.29474,71.5584528 474.382042,71.5237381 L460.979246,71.5237381 C459.100948,71.5237381 457.578287,70.0239822 457.578287,68.1739396 C457.578287,66.3238969 459.100948,64.8241411 460.979246,64.8241411 L474.382042,64.8241411 C475.753832,64.8583079 476.977552,65.6822511 477.507899,66.928813 C478.038246,68.1753749 477.77647,69.6124473 476.839221,70.5996558 L476.839221,70.5996558 Z M476.973249,56.6394116 C476.428438,57.1712958 475.684775,57.4579169 474.918154,57.4314822 L460.398458,57.4314822 C459.631757,57.4595384 458.887824,57.1718466 458.34531,56.6374937 C457.802796,56.1031409 457.510711,55.3703993 457.539195,54.6152312 L457.539195,52.5800498 C457.539195,52.2830233 457.59504,52.1400106 457.717899,52.1400106 C457.855935,52.1499799 457.984388,52.2132403 458.075307,52.3160263 L458.432715,52.6680577 L458.790123,53.020089 C459.048198,53.2182507 459.35801,53.3403111 459.683643,53.3721204 C460.058805,53.3649913 460.414379,53.2057981 460.666514,52.9320812 C461.988505,51.5792399 463.115906,50.0542334 464.017213,48.3996773 C464.769416,46.9174403 465.324976,45.3460815 465.670225,43.7242606 C466.033462,42.0568288 466.228009,40.3580408 466.251013,38.6528086 C466.251013,36.8926517 466.251013,35.059155 466.251013,33.1523184 C466.206592,32.8140104 466.324024,32.4745458 466.56892,32.2333337 C466.813816,31.9921216 467.158465,31.876456 467.50194,31.9202085 C467.805836,31.8928213 468.106368,31.9998947 468.322152,32.2124329 C468.537937,32.4249711 468.646645,32.7209825 468.61884,33.0203066 L468.61884,45.7924449 C468.581536,46.8119774 468.748527,47.8287605 469.110276,48.7847116 C469.388409,49.4800489 469.832868,50.0989696 470.405879,50.5888724 C470.960141,51.0378834 471.621202,51.3407287 472.326947,51.4689508 C473.13825,51.6246631 473.959087,51.7275617 474.784126,51.7769782 C475.547858,51.8080923 476.275811,52.1042451 476.839221,52.6130528 C477.382858,53.1291953 477.67566,53.8501892 477.643389,54.5932292 C477.70935,55.3330512 477.467498,56.0675451 476.973249,56.6284106 L476.973249,56.6394116 Z M477.777417,45.0993831 C477.777417,45.5724253 477.565206,45.8034459 477.151953,45.8034459 L476.437137,45.8034459 C476.043255,45.8595094 475.6456,45.7293037 475.36419,45.4521273 C475.08278,45.1749509 474.950586,44.7832771 475.007506,44.3953204 L475.007506,33.1963223 C475.007506,32.3162438 475.48405,31.8762046 476.437137,31.8762046 C476.806336,31.823947 477.17895,31.9461138 477.442695,32.2058912 C477.70644,32.4656686 477.830473,32.8326772 477.777417,33.1963223 L477.777417,45.0993831 Z M486.187671,42.899187 C486.187671,42.4298119 486.277023,42.1951243 486.455727,42.1951243 C486.634431,42.1951243 486.813135,42.37114 486.991839,42.7231713 L487.796007,44.043289 C488.334114,45.1281115 489.430706,45.8369242 490.65527,45.8914537 C491.218681,45.8690281 491.769169,45.718415 492.263605,45.4514145 L493.827265,44.5713361 L495.301572,43.6912576 C495.709318,43.3567778 496.205069,43.1431492 496.731204,43.0752027 C497.207748,43.0752027 497.177964,43.6325857 496.641852,44.7473517 C496.40358,45.2753988 495.971712,46.1554772 495.346248,47.387587 C494.720785,48.6196969 494.005969,49.8664746 493.201801,51.1279204 C492.472264,52.2900405 491.650647,53.3935721 490.744622,54.4282145 C490.208039,55.2008686 489.363564,55.7127282 488.421471,55.83634 C486.932271,55.83634 486.187671,54.160524 486.187671,50.808892 L486.187671,42.899187 Z M499.825016,70.2586254 C499.652668,71.5788537 498.8113,72.7224751 497.591217,73.294896 C495.804177,74.3509901 494.013415,75.3190764 492.218929,76.1991548 C491.411126,76.6007272 490.530306,76.8400567 489.627722,76.9032176 C488.623486,76.9360237 487.668626,76.4740256 487.081191,75.6711078 C486.419603,74.6974933 486.090911,73.5412503 486.142995,72.3708136 L486.142995,63.5700293 C486.142995,63.1006541 486.262131,62.8659665 486.500403,62.8659665 C486.556248,62.8659665 486.734952,63.0089793 487.036515,63.3060057 L487.930035,64.4061038 C488.42187,65.0931366 489.220998,65.503088 490.074482,65.5062018 C490.755312,65.4950654 491.401531,65.2086414 491.861522,64.7141312 C492.070859,64.4529051 492.294575,64.2031751 492.531661,63.9660646 L493.291153,63.2179979 C493.555178,62.8628795 493.962686,62.6381082 494.408053,62.601943 C494.965698,62.6135582 495.475506,62.9148414 495.748332,63.3940136 C496.165308,63.9807325 496.582284,64.5381156 496.99926,65.0661626 C497.416236,65.5942097 497.862996,66.1222567 498.339539,66.6503038 C499.317657,67.6005347 499.854998,68.9057716 499.825016,70.2586254 L499.825016,70.2586254 Z M503.979883,54.9672626 C504.63513,53.9111685 505.945626,53.3831214 507.911369,53.3831214 L509.229311,53.3831214 C511.135486,53.3831214 512.445982,53.9111685 513.160798,54.9672626 C513.875614,56.0233567 513.726694,57.3434743 512.714038,58.9276155 L511.90987,60.2477332 C511.25111,61.3443542 510.074941,62.0394398 508.782551,62.0958979 C507.872921,62.1386489 506.990369,61.7844996 506.370048,61.1278116 C505.767957,60.4749164 505.229479,59.7677459 504.761712,59.0156234 C503.592691,57.3654763 503.335804,56.0123557 503.991052,54.9562616 L503.979883,54.9672626 Z" id="Shape"></path>
                    <path d="M34.7437561,34.1972493 C34.9210932,33.5242007 35.0984303,32.821889 35.2757674,32.0903144 C35.4531045,31.3587399 35.6156635,30.6564282 35.7634444,29.9833796 C35.8692858,29.5651315 35.9433829,29.1396314 35.9851158,28.7104398 L35.9851158,24.9245413 C36.0809023,23.8953008 35.7109186,22.876974 34.9748726,22.1439928 C34.2388267,21.4110115 33.212459,21.0388009 32.1723683,21.1276691 L23.1060096,21.1276691 C15.5359325,21.1276691 10.4485747,17.1881399 6.61366013,20.0303072 C2.77874555,22.8724745 3.92035307,31.6952642 10.3599062,30.9051636 C15.6356846,30.2467465 16.5777879,28.7104398 22.4409955,28.7104398 L23.7599401,28.7104398 C24.883075,28.7104398 25.2968615,29.2371735 25.0012997,30.2906409 C23.5235233,37.2143708 21.0409064,43.8897522 17.6307269,50.1089968 C14.1771398,56.338306 9.67972232,61.9414165 4.33044509,66.6791614 C3.57918201,67.2945422 3.1016488,68.1770948 3.00041691,69.1372521 C2.98517233,70.1037539 3.38862006,71.0304675 4.10877372,71.6831317 C4.85286756,72.511053 5.91554235,72.9892953 7.03483572,73 C7.96758631,73.0037352 8.87406614,72.6942568 9.60622353,72.1220765 C15.6082148,67.602364 20.804231,62.1203676 24.9791326,55.9030676 C29.1444414,49.6041102 32.3174074,42.714293 34.3890819,35.4701891 C34.4481943,35.2946112 34.566419,34.8702979 34.7437561,34.1972493 Z" id="Shape"></path>
                    <path d="M168.980827,70.9798619 C167.964063,69.1751597 167.975115,68.0500059 167.32306,66.7354697 C166.694089,65.3828509 165.462173,64.4142739 164.007526,64.1286776 C162.183022,63.7410502 160.283863,64.2402645 158.8795,65.4766342 C157.431717,66.9805527 157.221733,68.4621909 156.503368,70.745919 L156.503368,70.745919 C154.458788,74.3887438 149.386021,74.3330431 148.280844,70.2446128 L148.280844,70.2446128 C148.104015,69.6653257 147.938238,69.1305991 147.750358,68.4956113 C147.499068,67.6098096 146.972181,66.8287804 146.247316,66.2675839 C145.384235,65.6240092 144.303231,65.3515975 143.241232,65.5100546 L142.622332,65.6437363 L141.384533,65.9110996 C140.047918,66.084431 138.886193,66.9208687 138.290035,68.139127 C138.208068,68.3368198 138.145151,68.542 138.102155,68.7518345 L138.102155,68.7518345 C136.731734,73.2078893 130.973757,78.2989319 129.150213,72.4949205 L129.150213,72.4949205 C128.951281,71.5145885 128.730245,70.5342564 128.487106,69.5539244 C128.288793,68.607007 127.773772,67.7575065 127.028271,67.1476548 C126.288139,66.5538832 125.365822,66.238734 124.420051,66.2564438 C124.122636,66.2437382 123.824939,66.2737458 123.535909,66.3455649 L122.29811,66.5238071 L121.668158,66.679769 L121.668158,66.679769 C121.360872,66.7652988 121.061387,66.8771058 120.772964,67.0139731 C119.0295,67.5745607 117.209699,67.8564794 115.379696,67.8494834 C111.898385,67.8494834 111.080553,67.3815976 109.06913,66.2230234 C108.892301,66.111622 108.704421,66.0002207 108.494437,65.8999594 L107.610295,65.4543539 C106.954433,65.110673 106.227504,64.9274878 105.488353,64.9196274 C103.738789,64.9068117 102.174979,66.0173952 101.598127,67.6823813 C101.200262,68.551312 100.824502,69.3422617 100.492949,70.0997911 L100.492949,70.0997911 C99.067269,72.8736852 97.464761,73.5643737 96.1827545,74.8789098 C94.9007481,76.193446 92.3367352,79.9031116 95.5638549,83.1003309 C96.7756183,84.3090142 98.4504002,84.9243576 100.14956,84.7851972 C101.84872,84.6460367 103.402985,83.7662357 104.405279,82.376222 C105.300473,80.9502845 105.985683,78.6665564 107.300845,76.3939685 L107.599243,75.9929235 C108.361816,74.9568908 108.837042,74.3441833 109.345424,73.6312145 C111.832074,71.0021422 113.313013,71.1692442 115.390747,71.4031871 C117.468482,71.63713 119.048887,71.5925694 120.120909,73.8874376 L120.120909,73.998839 C120.120909,74.1213805 120.220375,74.2327819 120.275634,74.3664635 C120.555612,75.057152 120.820855,75.7478405 121.071362,76.438529 C121.572376,77.8347595 122.058654,79.2755506 122.530197,80.7609022 C122.796927,81.63933 123.320854,82.4159705 124.033239,82.9889295 C124.765307,83.5610675 125.671241,83.8602118 126.597252,83.83558 C126.714714,83.8498193 126.833446,83.8498193 126.950909,83.83558 C127.068323,83.8205496 127.187152,83.8205496 127.304566,83.83558 C131.448983,83.2451527 135.040812,79.8362708 137.041184,77.1514978 C139.041556,74.4667248 141.627672,78.0427087 141.760294,78.2655115 C142.084479,79.0081873 142.397613,79.7917102 142.699695,80.6160804 C143.221271,82.3223095 144.820431,83.4579979 146.589921,83.3788343 C146.916422,83.3867514 147.242746,83.3568485 147.562478,83.2897132 C151.110099,83.2897132 153.861992,79.4686463 156.171814,76.6056311 C158.205342,74.0991002 160.890924,76.4496691 162.183982,77.8756067 C164.239613,80.2373157 163.189694,80.3821375 163.90806,82.3316615 C164.626426,84.2811854 167.566199,85.5400209 169.853917,84.7713515 C172.141636,84.002682 174.064645,82.3316615 173.998335,80.2484559 C173.993146,78.6465127 173.486485,77.0870884 172.550552,75.7924011 C171.246435,74.2776049 170.053378,72.6691798 168.980827,70.9798619 Z" id="Shape"></path>
                    <path d="M262.444712,72.7367853 C259.134302,72.3578018 255.956112,71.2676421 253.147519,69.5477303 C252.234912,68.7322641 252.356593,68.0332932 253.512563,67.4508174 C254.911895,66.7227226 256.326437,65.9946279 257.756189,65.2665331 C258.839911,64.6767764 259.900817,64.0651768 260.961724,63.4535772 L260.961724,63.4535772 L261.69181,63.0276418 L261.999815,62.852899 C262.194081,62.7285769 262.380713,62.5936564 262.558788,62.4488065 C266.825229,59.3908085 265.536171,56.3000463 264.281335,54.5526189 C262.889608,52.6086059 260.003486,51.9970064 258.577536,53.4604768 L258.577536,53.6789052 C258.554662,53.6077424 258.554662,53.5316396 258.577536,53.4604768 L258.577536,27.3801229 C258.670804,26.1963828 258.220096,25.0325787 257.34332,24.19317 C256.466544,23.3537613 255.250932,22.9222617 254.014497,23.0115544 L214.15635,23.0115544 C212.919914,22.9222617 211.704303,23.3537613 210.827527,24.19317 C209.950751,25.0325787 209.500043,26.1963828 209.593311,27.3801229 L209.593311,59.9041153 C209.593311,65.3648259 209.125599,69.4166732 206.980971,73.0098208 C204.836342,76.6029684 206.433406,81.1135153 209.593311,82.5442215 C212.753215,83.9749277 215.707783,81.7251149 220.316453,80.0978232 L220.316453,80.0978232 L222.449673,79.3660879 L222.449673,79.3660879 L222.860347,79.2241095 L223.476357,79.005681 L223.613248,79.005681 C229.043265,77.1927251 234.051201,77.2473322 235.648264,76.9633753 C236.883741,76.737807 237.948485,75.9937814 238.549519,74.9360276 C239.150552,73.8782738 239.224542,72.6182482 238.751131,71.5026647 C238.185554,69.760939 236.732333,68.414931 234.895363,67.9313599 C234.534883,67.7828629 234.147025,67.7048838 233.754603,67.7020101 C233.368602,67.7181255 232.985826,67.7767596 232.613843,67.8767528 L231.940795,68.062417 L231.860942,68.062417 L231.769681,68.062417 L227.446201,69.231009 C225.773087,69.6969897 224.115183,70.1338465 222.472489,70.5415796 C222.298861,70.6087716 222.111928,70.6385993 221.924924,70.628951 C221.164417,70.628951 220.784164,70.1920941 220.784164,69.3183804 L220.784164,56.5075533 C220.729975,56.1465382 220.856657,55.7821837 221.126037,55.5242851 C221.395416,55.2663864 221.77599,55.1451031 222.153076,55.1969828 L230.560476,55.1969828 C231.118606,55.1690215 231.632982,55.4855989 231.838127,55.9833251 C233.30661,59.0532085 234.999122,62.0202553 236.9031,64.8624406 C238.626524,67.4488239 240.630139,69.853925 242.880681,72.0378143 C245.130577,74.1888176 247.594956,76.1238511 250.238582,77.8152461 L251.219635,78.4159243 C263.676732,86.0609191 266.505817,80.7203442 266.927898,78.5360599 C267.162885,77.1942238 266.81808,75.8185791 265.972646,74.7249592 C265.127213,73.6313392 263.853779,72.9136933 262.444712,72.7367853 L262.444712,72.7367853 Z M221.548473,30.9295848 C222.118716,30.4271058 222.872962,30.1602425 223.647471,30.1869282 L244.569006,30.1869282 C245.34046,30.1284677 246.100445,30.3934055 246.652011,30.913083 C247.203578,31.4327606 247.492433,32.1560242 247.44372,32.8954406 C247.471594,33.6369414 247.192851,34.3590422 246.668004,34.9049821 C246.131948,35.4353775 245.384888,35.7214661 244.614636,35.6913245 L223.658879,35.6913245 C222.875798,35.7191778 222.115973,35.4335666 221.56187,34.9030782 C221.007766,34.3725897 220.709441,33.6451473 220.738534,32.8954406 C220.702613,32.1594442 220.997412,31.443917 221.548473,30.9295848 L221.548473,30.9295848 Z M235.465743,48.0325304 C229.180156,48.0325304 221.696772,47.2461881 221.696772,45.2803323 C221.696772,44.002526 221.845071,42.5281342 231.473083,42.5281342 L244.580413,42.5281342 C245.347865,42.473353 246.102671,42.7383431 246.6512,43.255126 C247.19973,43.7719089 247.488605,44.4901965 247.44372,45.2257252 C247.471594,45.967226 247.192851,46.6893267 246.668004,47.2352667 C246.132784,47.7668527 245.38514,48.0531645 244.614636,48.021609 L235.465743,48.0325304 Z M244.671674,58.8775017 C244.03188,58.1247172 243.907214,57.0846439 244.352261,56.2126749 C244.979548,55.4698498 245.963091,55.0898955 246.953194,55.2079042 L250.603625,55.2079042 C252.550522,55.2079042 253.645651,55.5428278 253.889013,56.2126749 C254.132375,56.8825221 253.504958,57.7707977 252.00676,58.8775017 C251.715923,59.043106 251.441057,59.2331602 251.185413,59.4454156 C250.929768,59.6576711 250.654902,59.8477253 250.364066,60.0133295 C249.676852,60.503592 248.848021,60.7782676 247.991285,60.7996719 C246.592012,60.8188668 245.303666,60.0728699 244.671674,58.8775017 L244.671674,58.8775017 Z" id="Shape"></path>
                    <path d="M347.502073,74.0315843 C344.278254,73.1587176 341.177433,71.8864778 338.272433,70.2447437 C337.143629,69.4668269 336.036957,68.6412075 334.952419,67.7678858 C334.626559,67.5804958 334.41879,67.2412037 334.400887,66.8672201 C334.382983,66.4932365 334.557401,66.1358411 334.863885,65.9184985 C337.10487,63.1555662 339.107662,60.2095956 340.850978,57.1118925 C342.582905,54.046283 343.992153,50.8110651 345.056329,47.4576507 L345.233397,46.9292543 C345.292419,46.6944115 345.380953,46.3861803 345.498998,46.0045607 C345.617043,45.6229411 345.720332,45.2559992 345.808866,44.9037349 C345.8974,44.5221154 345.985933,44.1551734 346.074467,43.8029092 C346.133441,43.6157733 346.177839,43.4243977 346.207268,43.2304798 L346.207268,39.6087631 C346.269484,38.6100972 345.897747,37.6329106 345.186472,36.9253925 C344.475196,36.2178744 343.492821,35.848101 342.488852,35.9099886 L331.499604,35.9099886 C331.133786,35.9622808 330.764585,35.8400331 330.503255,35.5800839 C330.241926,35.3201347 330.119029,34.9528833 330.171599,34.5889977 L330.171599,21.4891712 C330.119029,21.1252856 330.241926,20.7580342 330.503255,20.498085 C330.764585,20.2381358 331.133786,20.1158881 331.499604,20.1681803 L337.530964,20.1681803 C338.593368,20.1681803 339.036037,20.6965767 338.858969,21.7533694 C338.386789,23.6908227 337.855587,25.5255323 337.265362,27.2574982 C336.964779,28.1336451 336.996263,29.088833 337.353896,29.943513 C337.737928,30.7674309 338.394075,31.4356525 339.213104,31.8369333 C339.760246,32.1203334 340.366934,32.2712042 340.983778,32.2772636 C342.267824,32.3179387 343.465788,31.6370038 344.082458,30.5159424 C345.085841,28.989464 346.044956,27.448308 346.959804,25.8924742 C347.874652,24.3366405 348.774745,22.7661291 349.660082,21.18094 C350.015048,20.5328432 350.197883,19.8053648 350.191285,19.0673546 L350.191285,16.4914223 C350.253501,15.4927564 349.881764,14.5155699 349.170489,13.8080518 C348.459213,13.1005337 347.476838,12.7307603 346.472869,12.7926478 L331.532804,12.7926478 C331.166987,12.84494 330.797785,12.7226924 330.536455,12.4627431 C330.275126,12.2027939 330.152229,11.8355425 330.204799,11.4716569 L330.204799,6.40785844 C330.25914,5.2198005 329.828042,4.06039771 329.009594,3.19344725 C328.138039,2.3793217 326.97248,1.95050149 325.778113,2.00455544 L323.985305,2.00455544 C322.790939,1.95050149 321.625379,2.3793217 320.753825,3.19344725 C319.935376,4.06039771 319.504279,5.2198005 319.55862,6.40785844 L319.55862,11.4386321 C319.61119,11.8025177 319.488293,12.1697691 319.226963,12.4297184 C318.965633,12.6896676 318.596432,12.8119152 318.230614,12.759623 L304.23122,12.759623 C303.031732,12.6696203 301.852446,13.1045508 301.00187,13.9506337 C300.151294,14.7967165 299.714054,15.9697739 299.804535,17.162926 C299.863557,21.1038822 299.92258,25.0998797 299.981602,29.1509185 C300.040625,33.2019572 299.981602,37.2383183 299.804535,41.2600017 C299.627467,45.2596686 299.302844,49.2409884 298.830664,53.2039611 C298.357893,57.171334 297.618457,61.1027455 296.617321,64.9717884 C296.630603,65.0297558 296.630603,65.0899531 296.617321,65.1479205 C296.603649,65.2058437 296.603649,65.2661295 296.617321,65.3240526 L296.528787,65.4121187 L296.35172,64.9717884 L296.263186,64.0030617 C296.145141,63.0049797 295.64345,62.5059387 294.758113,62.5059387 C294.67062,62.4868456 294.580005,62.4868456 294.492512,62.5059387 C294.405099,62.5257567 294.314324,62.5257567 294.226911,62.5059387 L291.039697,63.3865993 C290.900985,63.4496491 290.749449,63.4797963 290.597028,63.4746654 C289.770714,63.4746654 289.357556,63.0049797 289.357556,62.0656084 L289.357556,45.9935524 C289.304987,45.6296668 289.427883,45.2624154 289.689213,45.0024662 C289.950543,44.742517 290.319744,44.6202693 290.685562,44.6725615 L293.25304,44.6725615 C294.63192,44.7473604 295.939487,44.0581434 296.651555,42.8812093 C297.363622,41.7042751 297.363622,40.2322906 296.651555,39.0553565 C295.939487,37.8784224 294.63192,37.1892054 293.25304,37.2640042 L290.685562,37.2640042 C290.319744,37.3162964 289.950543,37.1940488 289.689213,36.9340996 C289.427883,36.6741503 289.304987,36.3068989 289.357556,35.9430133 L289.357556,18.9242472 C289.304987,18.5603616 289.427883,18.1931102 289.689213,17.933161 C289.950543,17.6732118 290.319744,17.5509641 290.685562,17.6032563 L294.492512,17.6032563 C295.496481,17.6651439 296.478857,17.2953704 297.190132,16.5878523 C297.901407,15.8803343 298.273144,14.9031477 298.210928,13.9044818 C298.273144,12.9058159 297.901407,11.9286294 297.190132,11.2211113 C296.478857,10.5135932 295.496481,10.1438198 294.492512,10.2057073 L284.919804,10.2057073 C281.138019,10.1472143 277.362298,9.88261944 273.609622,9.41311274 C271.396279,9.00580721 268.839868,9.14891456 267.58933,11.5266982 C266.338791,13.9044818 267.069194,17.6142646 269.869073,18.1316527 C272.668951,18.6490408 272.879219,18.0215701 276.099633,17.6032563 L277.505106,17.6032563 C277.870923,17.5509641 278.240125,17.6732118 278.501455,17.933161 C278.762784,18.1931102 278.885681,18.5603616 278.833111,18.9242472 L278.833111,35.9430133 C278.885681,36.3068989 278.762784,36.6741503 278.501455,36.9340996 C278.240125,37.1940488 277.870923,37.3162964 277.505106,37.2640042 L273.963757,37.2640042 C272.584877,37.1892054 271.27731,37.8784224 270.565242,39.0553565 C269.853175,40.2322906 269.853175,41.7042751 270.565242,42.8812093 C271.27731,44.0581434 272.584877,44.7473604 273.963757,44.6725615 L277.505106,44.6725615 C277.870923,44.6202693 278.240125,44.742517 278.501455,45.0024662 C278.762784,45.2624154 278.885681,45.6296668 278.833111,45.9935524 L278.833111,65.3020361 C278.873103,65.9640778 278.388298,66.5427711 277.72644,66.623027 L272.668951,67.7238528 C271.451292,67.9289178 270.367069,68.6109082 269.658805,69.617273 C268.998919,70.6537672 268.8367,71.9285233 269.216137,73.0958824 L269.570271,74.4168733 C270.219519,76.6185248 271.547524,77.7193506 273.554289,77.7193506 C274.797589,77.5839953 276.017838,77.2879458 277.184171,76.83869 C278.954845,76.2515829 280.847253,75.5617321 282.861395,74.7691376 C284.875537,73.976543 286.779012,73.2022956 288.57182,72.4463952 C290.372005,71.7125114 291.655744,71.1547597 292.423036,70.7731401 C292.774369,70.6238037 293.148507,70.5344847 293.529708,70.5089419 C294.474067,70.5089419 294.710157,71.1547597 294.237977,72.4463952 C293.883843,73.3270558 293.514952,74.2077164 293.131306,75.088377 C292.74766,75.9690376 292.304991,76.8203429 291.8033,77.6422928 C291.233788,78.5484356 291.073165,79.6508852 291.360632,80.6805718 C291.697307,81.6986366 292.430993,82.5395053 293.396907,83.0143224 C294.082652,83.3611317 294.840962,83.5421648 295.61025,83.5427188 C296.855296,83.5943218 298.046508,83.0347763 298.797464,82.0455958 C301.885547,77.962801 304.254288,73.3880688 305.802694,68.5164473 C307.383589,63.6057604 308.567801,58.5773574 309.344042,53.4791675 C309.52111,52.0113999 309.89,51.277516 310.450714,51.277516 C311.011427,51.277516 311.54263,51.8646231 312.044321,53.0388372 C313.283793,55.2404887 314.597043,57.4421402 315.984071,59.6437917 C317.371099,61.8454432 318.846661,63.9186651 320.410757,65.8634572 C320.717241,66.0807998 320.891659,66.4381952 320.873755,66.8121788 C320.855852,67.1861624 320.648083,67.5254545 320.322223,67.7128445 C315.900859,71.2547651 311.119967,74.3280366 306.057228,76.882723 C305.166875,77.3287845 304.507622,78.1285051 304.242287,79.0843745 C304.058857,80.0747506 304.299561,81.0963276 304.90629,81.9024884 C305.704832,83.0966327 307.050091,83.8152706 308.491905,83.8179252 C309.879268,83.6654051 311.220286,83.2307524 312.431656,82.5409674 C314.172819,81.6896621 315.976693,80.7062578 317.843279,79.5907543 C319.709865,78.4752509 321.469472,77.3744252 323.122102,76.2882771 C324.774731,75.1727737 325.95518,74.3214684 326.66345,73.7343614 C327.159239,73.2646757 327.938336,73.2646757 328.434124,73.7343614 C329.773197,74.8351871 331.167603,75.814922 332.606276,76.7616322 L332.606276,76.7616322 C338.073233,80.6365388 341.31578,82.695083 343.60659,83.4326362 C345.8974,84.1701895 352.19436,84.9958088 352.913696,80.2292333 C353.633033,75.4626578 349.682216,74.7581293 347.502073,74.0315843 Z M310.42858,24.5714833 C310.3381,23.3783312 310.77534,22.2052738 311.625916,21.359191 C312.476491,20.5131081 313.655778,20.0781776 314.855266,20.1681803 L315.131934,20.1681803 C316.331422,20.0781776 317.510709,20.5131081 318.361284,21.359191 C319.21186,22.2052738 319.6491,23.3783312 319.55862,24.5714833 L319.55862,31.4516443 C319.6491,32.6447963 319.21186,33.8178538 318.361284,34.6639366 C317.510709,35.5100195 316.331422,35.94495 315.131934,35.8549473 L314.866333,35.8549473 C313.666845,35.94495 312.487558,35.5100195 311.636982,34.6639366 C310.786407,33.8178538 310.349166,32.6447963 310.439647,31.4516443 L310.42858,24.5714833 Z M330.824535,55.0203236 C329.939198,56.546802 328.876793,57.3100412 327.637321,57.3100412 C326.213547,57.2222615 324.94637,56.3819387 324.317307,55.1083897 C323.66806,54.1103076 323.048324,53.0681926 322.458099,51.9820445 C321.867874,50.8958964 321.30716,49.824426 320.775958,48.7676333 C320.410277,48.0020036 319.844624,47.3480951 319.138085,46.874213 C318.480431,46.444934 317.711347,46.2154273 316.924742,46.2137176 C316.31618,46.205966 315.712819,46.3260007 315.154067,46.5659818 L312.320989,47.6668076 C312.021157,47.8283155 311.687866,47.9187329 311.347118,47.9310058 C310.343736,47.9310058 309.930578,47.285188 310.107646,45.9935524 C310.107743,45.2515726 310.40201,44.5395674 310.926583,44.0120661 C311.471893,43.5262637 312.187366,43.2732171 312.918591,43.3075376 L329.850664,43.3075376 C331.272238,43.1872297 332.667343,43.7423241 333.613347,44.8046606 C334.424856,45.9483112 334.510738,47.4518424 333.834681,48.6795673 C333.362501,49.7950707 332.890321,50.8958964 332.418142,51.9820445 C331.943809,53.0233278 331.411789,54.0376448 330.824535,55.0203236 Z" id="Shape"></path>
                    <path d="M103.030882,63.6247977 L162.310397,63.6247977 C165.158326,63.6247977 168.08474,63.9156233 169.553554,63.9827369 C171.161154,64.0989339 172.755974,63.6256055 174.03848,62.6516504 C175.44002,61.2198935 175.44002,57.05885 173.163919,55.7277636 C171.156915,54.5085331 168.914452,55.0230707 166.044099,55.3027107 C163.173746,55.5823508 162.299185,53.837397 162.299185,49.5644976 L162.299185,42.5734971 C162.245924,42.2037493 162.370437,41.8305815 162.635205,41.5664444 C162.899973,41.3023074 163.274032,41.1780904 163.644663,41.231225 L167.681097,41.231225 C169.078118,41.3072289 170.402889,40.6069086 171.124325,39.411014 C171.845761,38.2151194 171.845761,36.7194213 171.124325,35.5235267 C170.402889,34.3276321 169.078118,33.6273118 167.681097,33.7033157 L163.689512,33.7033157 C163.318881,33.7564503 162.944822,33.6322333 162.680054,33.3680963 C162.415287,33.1039593 162.290773,32.7307914 162.344034,32.3610436 L162.344034,19.464046 C162.290773,19.0942982 162.415287,18.7211303 162.680054,18.4569933 C162.944822,18.1928563 163.318881,18.0686393 163.689512,18.1217739 L166.649564,18.1217739 C167.668817,18.1849926 168.666084,17.8077894 169.387123,17.0863277 C170.108162,16.3648661 170.4833,15.3688589 170.416902,14.3522264 C170.479937,13.337472 170.103309,12.344543 169.382676,11.6256267 C168.662042,10.9067105 167.666742,10.5309801 166.649564,10.5938646 L112.381954,10.5938646 C111.126175,10.5938646 110.79728,10.0271275 111.39527,8.89365328 L112.202557,7.19344197 C112.726895,6.3772491 112.810916,5.354634 112.426803,4.46415539 C111.962947,3.60739778 111.141227,3.00077415 110.18434,2.80868648 L107.583083,2.18229284 C107.140805,2.08290625 106.690534,2.02301312 106.237605,2.00332323 C104.300933,1.92683919 102.561507,3.17753416 102.021774,5.03462102 C99.8486327,10.8848008 97.0281127,16.4748827 93.6125369,21.7011661 C93.077347,22.525112 92.8110058,23.4941595 92.8500995,24.4751951 C92.8629968,25.4484211 93.1936553,26.3909086 93.791934,27.1597393 C94.3609267,28.00008 95.2889046,28.5290897 96.3034928,28.5914962 C97.1571194,28.5757263 97.9539778,28.1616848 98.4562575,27.4729361 C99.4728408,26.3394619 100.489424,25.1463311 101.506007,23.8935439 C102.163797,23.0583523 102.701988,22.6407566 103.120581,22.6407566 C103.718571,22.6407566 104.017566,23.356635 104.017566,24.7883919 L104.017566,32.3163012 C104.070828,32.686049 103.946314,33.0592169 103.681546,33.3233539 C103.416778,33.5874909 103.042719,33.7117079 102.672088,33.6585733 L101.416309,33.6585733 C97.9404909,33.6585733 96.6847115,32.4169716 93.7358724,33.5243461 C90.7870333,34.6317206 90.2600544,40.0119945 93.9825434,41.4884938 C96.7183485,42.6070539 98.6805038,41.3654522 102.044199,41.1864826 L102.672088,41.1864826 C103.042719,41.133348 103.416778,41.257565 103.681546,41.521702 C103.946314,41.7858391 104.070828,42.1590069 104.017566,42.5287547 L104.017566,51.5667201 C104.017566,52.8978066 101.898439,54.4302339 99.7232492,54.2288931 C97.5480599,54.0275522 94.251639,53.8150258 92.5025177,55.772506 C90.7533964,57.7299861 90.2600544,61.1751511 92.5025177,62.9760328 C94.7449809,64.7769146 98.6580792,63.6247977 103.030882,63.6247977 Z M119.96148,52.8754354 C120.032225,54.0736871 119.431624,55.212389 118.401623,55.8328221 C117.371623,56.4532552 116.08183,56.4532552 115.05183,55.8328221 C114.021829,55.212389 113.421228,54.0736871 113.491973,52.8754354 L113.491973,49.0499599 C113.873192,45.0678861 114.92715,44.0723676 116.508086,43.6025724 C118.089023,43.1327771 119.96148,43.9605116 119.96148,47.2714494 L119.96148,52.8754354 Z M152.73508,52.6964658 C152.77361,53.6027354 152.451144,54.4874021 151.838094,55.1572979 C151.200664,55.7985942 150.320486,56.1400699 149.416234,56.0968884 C148.513836,56.1318587 147.637749,55.7895577 146.999176,55.1525066 C146.360604,54.5154555 146.017485,53.6414555 146.052539,52.7412082 L146.052539,44.5421628 C146.009254,43.6400652 146.351546,42.7619848 146.994374,42.1260731 C147.665222,41.5134171 148.552459,41.1915542 149.461083,41.231225 C150.376306,41.1476845 151.2814,41.4742954 151.931264,42.1226105 C152.581127,42.7709256 152.908518,43.6738631 152.824778,44.5869052 L152.73508,52.6964658 Z M146.00769,21.3767837 C145.962973,20.4744538 146.305483,19.5958115 146.949524,18.9606939 C147.620373,18.348038 148.507609,18.0261751 149.416234,18.0658459 C150.331457,17.9823054 151.236551,18.3089162 151.886414,18.9572313 C152.536278,19.6055464 152.863669,20.508484 152.779929,21.4215261 L152.779929,28.1328865 C152.779929,30.3700067 151.04202,31.2760404 149.2032,30.1798515 C147.079028,29.1615507 145.820018,26.9266578 146.052539,24.5870511 L146.00769,21.3767837 Z M129.480736,21.5557533 C129.480736,19.6252418 131.049463,18.0602531 132.984585,18.0602531 C134.919707,18.0602531 136.488434,19.6252418 136.488434,21.5557533 L136.488434,30.1574803 C136.488434,32.0879917 134.919707,33.6529805 132.984585,33.6529805 C131.049463,33.6529805 129.480736,32.0879917 129.480736,30.1574803 L129.480736,21.5557533 Z M129.480736,44.6652044 C129.480736,42.734693 131.049463,41.1697042 132.984585,41.1697042 C134.919707,41.1697042 136.488434,42.734693 136.488434,44.6652044 L136.488434,52.4951249 C136.488434,54.4256364 134.919707,55.9906252 132.984585,55.9906252 C131.049463,55.9906252 129.480736,54.4256364 129.480736,52.4951249 L129.480736,44.6652044 Z M113.491973,21.2872989 C113.421228,20.0890471 114.021829,18.9503453 115.05183,18.3299122 C116.08183,17.7094791 117.371623,17.7094791 118.401623,18.3299122 C119.431624,18.9503453 120.032225,20.0890471 119.96148,21.2872989 L119.96148,30.4259347 C120.032225,31.6241865 119.431624,32.7628883 118.401623,33.3833214 C117.371623,34.0037545 116.08183,34.0037545 115.05183,33.3833214 C114.021829,32.7628883 113.421228,31.6241865 113.491973,30.4259347 L113.491973,21.2872989 Z" id="Shape"></path>
                    <path d="M256.354341,19.1820221 C258.069516,19.5589998 263.203976,19.1820221 262.993729,14.8911297 C262.993729,14.724816 262.993729,14.5695899 262.993729,14.3921887 C263.038135,13.3888107 262.670196,12.4110391 261.975689,11.6868198 C261.319257,11.0495644 260.444118,10.6884989 259.530181,10.6778502 C258.486994,10.5424049 257.430725,10.5424049 256.387538,10.6778502 L235.584122,10.6778502 C235.261009,10.7086318 234.939008,10.6088373 234.689666,10.4006406 C234.440324,10.1924438 234.284294,9.89308949 234.256245,9.56909247 C234.138211,8.82992064 234.005424,8.13509912 233.857882,7.48462791 L233.857882,7.38483971 C233.702963,5.98780495 233.857882,5.16732422 233.791488,4.05856647 C233.6587,2.22911619 231.866065,-0.1879757 227.904564,0.0116006941 C224.662329,0.177914356 222.371741,2.37325469 223.068876,5.55538943 C223.151727,6.10370544 223.339603,6.63079878 223.622159,7.10765027 L223.710684,7.26287636 C223.788143,7.41810244 223.876668,7.57332853 223.965194,7.72855461 L223.965194,7.72855461 L224.595935,8.83731236 C224.873877,9.20612659 224.940905,9.69303717 224.772986,10.1234713 C224.595935,10.4487069 224.182818,10.6113248 223.533633,10.6113248 L198.536338,10.6113248 C197.349322,10.5837654 196.201025,11.0352055 195.349432,11.864221 C194.531062,12.7374183 194.100006,13.9051751 194.154342,15.1017936 L194.154342,41.6565417 C194.174565,42.1656511 193.845897,42.623039 193.357615,42.7652994 C190.281366,44.2436431 187.179296,45.5741524 184.051407,46.7568273 C182.957195,47.16232 182.045672,47.9496731 181.484177,48.9743428 C180.948897,50.0010691 180.853038,51.2016794 181.218601,52.300616 L181.395652,53.010221 C181.628732,53.9154533 182.121101,54.7325545 182.812054,55.3607874 C183.421332,55.9046649 184.209186,56.2046428 185.025184,56.2034433 C185.778493,56.2072991 186.516666,55.9915721 187.149788,55.582539 C188.462446,54.8911075 189.723525,54.1055398 190.923173,53.2319725 C191.307158,52.9331816 191.767338,52.7487446 192.251051,52.6997688 C192.988761,52.6997688 193.254336,53.3206732 193.047777,54.5624818 C191.574007,62.7005438 188.303708,70.4057124 183.475993,77.1146144 C182.779177,77.9500677 182.443452,79.0293613 182.543142,80.1135588 C182.642832,81.1977563 183.169714,82.1974201 184.007144,82.8912423 C184.725403,83.5767077 185.671385,83.971648 186.662899,84 C187.840362,83.9720671 188.943976,83.4191665 189.672755,82.4920895 C192.302226,79.4688902 194.633211,76.1975585 196.633047,72.7239337 C198.386652,69.663439 199.867796,66.454118 201.059305,63.1331792 C202.174378,59.9607266 202.989442,56.6902969 203.493748,53.3650235 C204.004975,49.9508118 204.344749,46.5130286 204.511787,43.064664 C204.688837,39.5166392 204.747854,35.8023008 204.688837,31.9216486 C204.629821,28.0409965 204.600312,23.9127219 204.600312,19.5368246 C204.547747,19.170317 204.670632,18.8004194 204.931937,18.5385971 C205.193241,18.2767748 205.562407,18.1536463 205.92819,18.2063153 L242.688267,18.2063153 C247.2616,18.1876862 251.82985,18.5138423 256.354341,19.1820221 L256.354341,19.1820221 Z" id="Shape"></path>
                    <path d="M11.0596099,17.8075355 C14.3209551,16.7315435 15.166489,12.4630475 12.0742506,10.7130824 C10.8169518,9.9851554 9.30596402,9.80509185 7.90697625,10.2164707 C6.50875017,10.6543983 5.44022319,11.7674201 5.08047712,13.1606687 C4.39197092,16.1994595 8.26934793,18.7298144 11.0596099,17.8075355 Z" id="Shape"></path>
                    <path d="M1.39797812,17.0398533 C0.875666227,17.094252 0.413636281,17.4494197 0.172353147,17.9820052 C-0.0689299874,18.5145907 -0.0561739318,19.1511076 0.206191084,19.6704909 C0.460536163,20.2878559 0.93991217,20.7455907 1.51645067,20.9215995 C2.09298918,21.0976084 2.70805158,20.9739897 3.19757656,20.5837175 C5.17594304,19.288844 3.07839785,16.6445762 1.39797812,17.0398533 Z" id="Shape"></path>
                    <path d="M185.522361,24.0722667 C179.762194,23.2031426 176.01191,30.3792887 179.122175,34.5369904 C180.445161,36.1890349 182.431552,37.0975151 184.489349,36.9916787 C185.692393,36.9222993 186.855635,36.5167147 187.857867,35.8171867 C189.184865,34.9364069 190.198684,33.6242466 190.743565,32.0823021 C191.843948,28.7115101 189.272645,24.6360228 185.522361,24.0722667 Z" id="Shape"></path>
                    <path d="M175.220851,67.0001323 C174.313583,66.9908754 173.445976,67.4679372 172.834529,68.312275 C172.223081,69.1566129 171.925462,70.2885895 172.015939,71.4257392 C172.284674,73.6448112 174.494271,75.6758263 176.236071,74.7856901 L176.29579,74.7856901 C179.062763,73.1809374 178.286418,67.1881892 175.220851,67.0001323 Z" id="Shape"></path>
                </g>
            </g>
        </g>
    </g>
</svg>