<?xml version="1.0" encoding="UTF-8"?>
<svg width="258px" height="143px" viewBox="0 0 258 143" version="1.1" xmlns="http://www.w3.org/2000/svg" xmlns:xlink="http://www.w3.org/1999/xlink">
    <!-- Generator: Sketch 63.1 (92452) - https://sketch.com -->
    <title>Group 40</title>
    <desc>Created with Sketch.</desc>
    <g id="Page-1" stroke="none" stroke-width="1" fill="none" fill-rule="evenodd">
        <g id="index" transform="translate(-1093.000000, -1216.000000)">
            <g id="Group-40" transform="translate(1093.000000, 1216.000000)">
                <rect id="Rectangle" fill="#FF8300" x="0" y="0" width="258" height="143"></rect>
                <g id="Group-54" transform="translate(30.000000, 27.000000)" fill="#FFFFFF">
                    <polygon id="Fill-20" points="3.67959631e-13 -7.80816193e-15 3.67959631e-13 22.6549451 3.84175824 22.6549451 3.84175824 3.43736264 12.2681319 3.43736264 12.2681319 -7.80816193e-15"></polygon>
                    <path d="M51.1604396,46.3654945 L59.6087912,46.3654945 L59.6087912,40.2402198 L51.1604396,40.2402198 L51.1604396,46.3654945 Z M51.1604396,33.0621978 L59.6087912,33.0621978 L59.6087912,27.1479121 L51.1604396,27.1479121 L51.1604396,33.0621978 Z M51.1604396,19.9676923 L59.6087912,19.9676923 L59.6087912,14.0534066 L51.1604396,14.0534066 L51.1604396,19.9676923 Z M33.8417582,20.8116484 L29.8285714,20.8116484 C29.2637363,24.7545055 28.4901099,28.6973626 27.5076923,32.638022 L30.6747253,35.8072527 C32.221978,32.427033 33.2791209,27.4314286 33.8417582,20.8116484 L33.8417582,20.8116484 Z M19.6923077,13.2072527 L24.1274725,13.2072527 C24.4087912,10.2512088 24.7604396,7.36769231 25.1824176,4.54791209 L32.5736264,5.18307692 L31.0967033,13.2072527 L41.2351648,13.2072527 L41.2351648,20.6006593 C40.389011,30.0358242 38.8395604,36.9347253 36.589011,41.2973626 L41.6571429,45.9435165 L41.2351648,46.3654945 L42.9230769,46.3654945 L42.9230769,6.66 L67.8461538,6.66 L67.8461538,46.3654945 L70.8021978,46.3654945 L70.8021978,53.5479121 L39.756044,53.5479121 L39.756044,47.8446154 L35.9538462,51.4358242 C35.8131868,51.292967 35.6725275,51.081978 35.5318681,50.8006593 C34.6857143,49.816044 33.6307692,48.7632967 32.3648352,47.6336264 C29.6879121,50.449011 26.9428571,52.9830769 24.1274725,55.2358242 C22.7186813,53.5479121 20.9582418,51.5742857 18.8461538,49.3237363 C22.2263736,46.9303297 24.8989011,44.4665934 26.8747253,41.9303297 L25.3956044,40.4534066 C25.2527473,41.0182418 25.0417582,41.6512088 24.7604396,42.3545055 L18.8461538,39.1852747 C20.3934066,32.9918681 21.7318681,26.8665934 22.8593407,20.8116484 L19.6923077,20.8116484 L19.6923077,13.2072527 Z" id="Fill-21"></path>
                    <path d="M106.658022,26.0912088 C107.926154,27.6428571 109.752527,30.0340659 112.15033,33.2714286 C113.132747,34.6802198 113.908571,35.7373626 114.473407,36.4384615 L107.290989,41.0868132 C104.334945,36.5813187 101.869011,32.9923077 99.8997802,30.3153846 L106.658022,26.0912088 Z M83.8492308,43.1989011 L89.9723077,43.1989011 L89.9723077,35.8076923 L83.8492308,35.8076923 L83.8492308,43.1989011 Z M83.8492308,27.7813187 L89.9723077,27.7813187 L89.9723077,20.3901099 L83.8492308,20.3901099 L83.8492308,27.7813187 Z M123.343736,43.6208791 C123.343736,50.3791209 120.244835,53.8274725 114.049231,53.9703297 C111.517363,54.1087912 108.275604,54.1813187 104.334945,54.1813187 C104.194286,53.6164835 104.051429,52.7725275 103.912967,51.6450549 C103.629451,49.9571429 103.207473,48.056044 102.647033,45.943956 C104.334945,46.0868132 106.871209,46.1549451 110.249231,46.1549451 C113.343736,46.4384615 114.895385,44.9593407 114.895385,41.7197802 L114.895385,32.8494505 C115.036044,26.9351648 115.106374,22.7857143 115.106374,20.3879121 L107.712967,20.3879121 C106.871209,22.6428571 105.882198,24.8230769 104.759121,26.9351648 C102.647033,25.8120879 100.462418,24.6120879 98.2096703,23.3461538 L98.2096703,53.9703297 L89.9723077,53.9703297 L89.9723077,51.0120879 L83.8492308,51.0120879 L83.8492308,54.1813187 L75.6118681,54.1813187 L75.6118681,12.3637363 L81.523956,12.3637363 C82.2294505,9.54835165 82.7195604,6.94395604 83.0030769,4.54835165 L92.2975824,5.60549451 C92.1547253,6.02747253 92.0140659,6.59010989 91.8734066,7.29340659 C91.5920879,8.84505495 91.1679121,10.5351648 90.6074725,12.3637363 L98.2096703,12.3637363 L98.2096703,21.2340659 C101.025055,15.1813187 103.137143,9.54835165 104.545934,4.33736264 L112.994286,6.23846154 C112.851429,6.94395604 112.572308,7.92857143 112.15033,9.1967033 C111.728352,10.6054945 111.374505,11.6604396 111.095385,12.3637363 L123.976703,12.3637363 C123.693187,27.8538462 123.482198,38.2714286 123.343736,43.6208791 L123.343736,43.6208791 Z" id="Fill-23"></path>
                    <path d="M129.62967,9.61736264 L140.398901,9.61736264 C139.976923,8.91406593 139.343956,7.92725275 138.5,6.66131868 C138.078022,5.95802198 137.794505,5.46571429 137.653846,5.1821978 L146.948352,4.12505495 C148.073626,5.6767033 149.128571,7.50527473 150.115385,9.61736264 L157.295604,9.61736264 C157.717582,8.91406593 158.28022,7.99978022 158.985714,6.87230769 C159.689011,5.46571429 160.179121,4.54923077 160.462637,4.12505495 L169.757143,5.1821978 C169.614286,5.46571429 169.332967,5.88769231 168.913187,6.45032967 C168.627473,6.87230769 167.926374,7.92725275 166.801099,9.61736264 L177.781319,9.61736264 L177.781319,15.9536264 L157.930769,15.9536264 L157.930769,18.2767033 L175.036264,18.2767033 L175.036264,24.612967 L157.930769,24.612967 L157.930769,26.7250549 L178.627473,26.7250549 L178.627473,33.2723077 L128.574725,33.2723077 L128.574725,26.7250549 L149.06044,26.7250549 L149.06044,24.612967 L132.796703,24.612967 L132.796703,18.2767033 L149.06044,18.2767033 L149.06044,15.9536264 L129.62967,15.9536264 L129.62967,9.61736264 Z M149.06044,34.1162637 L157.930769,34.1162637 L157.930769,36.2283516 L177.994505,36.2283516 L177.994505,42.5646154 L158.774725,42.5646154 C160.886813,45.2415385 167.713187,46.7184615 179.26044,46.9997802 C178.695604,47.9865934 177.994505,49.4613187 177.148352,51.4349451 C176.442857,52.9821978 175.950549,54.1074725 175.669231,54.8151648 C164.968132,53.8283516 157.645055,51.5052747 153.706593,47.8459341 C150.042857,50.9404396 142.651648,53.4041758 131.528571,55.2371429 C131.245055,54.5316484 130.684615,53.4041758 129.840659,51.8569231 C128.994505,49.8832967 128.361538,48.5514286 127.937363,47.8459341 C138.921978,47.2832967 145.328571,45.5206593 147.159341,42.5646154 L129.416484,42.5646154 L129.416484,36.2283516 L148.847253,36.2283516 C148.847253,35.947033 148.917582,35.5953846 149.06044,35.1734066 L149.06044,34.1162637 Z" id="Fill-24"></path>
                    <path d="M41.4450549,68.5782418 C40.5307692,67.5232967 39.4758242,66.4661538 38.278022,65.409011 L40.0736264,64.0375824 C41.2692308,65.0243956 42.3593407,66.0441758 43.3461538,67.0991209 L41.4450549,68.5782418 Z M39.9659341,87.3738462 C38.1351648,87.3738462 37.2208791,86.4595604 37.2208791,84.6287912 L37.2208791,73.5408791 L39.7549451,73.5408791 L39.7549451,83.8903297 C39.7549451,84.5958242 40.0736264,84.9452747 40.7065934,84.9452747 L41.1285714,84.9452747 C41.7637363,84.9452747 42.1483516,84.5232967 42.2912088,83.6793407 C42.4296703,82.2705495 42.5,80.9342857 42.5,79.6661538 C43.5571429,80.02 44.2604396,80.230989 44.6120879,80.2991209 C44.5417582,82.0595604 44.4032967,83.5386813 44.1923077,84.7342857 C43.9087912,86.5650549 42.8868132,87.4441758 41.1285714,87.3738462 L39.9659341,87.3738462 Z M32.0472527,72.0617582 L32.0472527,69.6331868 L34.5813187,69.6331868 L34.5813187,66.4661538 C34.6516484,64.9167033 34.6868132,63.6859341 34.6868132,62.7694505 L37.3263736,62.7694505 C37.3263736,64.2485714 37.256044,66.5364835 37.1153846,69.6331868 L43.9791209,69.6331868 L43.9791209,72.0617582 L37.0098901,72.0617582 C36.8692308,78.6815385 35.0736264,84.030989 31.6252747,88.1145055 C31.2714286,87.830989 30.532967,87.2683516 29.4054945,86.4243956 C32.7879121,82.8331868 34.4758242,78.0485714 34.4758242,72.0617582 L32.0472527,72.0617582 Z M29.7241758,83.3628571 C29.4406593,82.6595604 28.8428571,81.3914286 27.9307692,79.5606593 L30.0428571,78.8221978 C30.743956,80.02 31.3417582,81.2507692 31.8362637,82.5167033 L29.7241758,83.3628571 Z M22.9659341,75.5474725 L28.5637363,75.5474725 L28.5637363,72.2749451 L22.9659341,72.2749451 L22.9659341,75.5474725 Z M20.4296703,77.7650549 L20.4296703,70.0551648 L31.0978022,70.0551648 L31.0978022,77.7650549 L27.1901099,77.7650549 L27.1901099,84.5232967 C27.2582418,86.5650549 26.3087912,87.5848352 24.3395604,87.5848352 C23.8450549,87.6551648 23.0340659,87.6903297 21.9087912,87.6903297 C21.7681319,86.9167033 21.5923077,86.1079121 21.3813187,85.2617582 C21.5923077,85.2617582 21.943956,85.2969231 22.4384615,85.3694505 L23.3879121,85.3694505 C24.2318681,85.3694505 24.6538462,84.9804396 24.6538462,84.2068132 L24.6538462,77.7650549 L20.4296703,77.7650549 Z M19.2692308,68.0507692 L19.2692308,65.7276923 L24.5505495,65.7276923 L24.5505495,62.8749451 L27.0846154,62.8749451 L27.0846154,65.7276923 L32.2582418,65.7276923 L32.2582418,68.0507692 L19.2692308,68.0507692 Z M21.0648352,85.1562637 C20.6428571,85.0156044 19.9021978,84.7716484 18.8472527,84.4178022 C19.2692308,83.5738462 19.9373626,81.9540659 20.8538462,79.5606593 C20.921978,79.2793407 20.9923077,79.1035165 21.0648352,79.030989 L23.3879121,79.6661538 C22.4010989,82.3430769 21.6274725,84.1716484 21.0648352,85.1562637 L21.0648352,85.1562637 Z" id="Fill-25"></path>
                    <path d="M52.2175824,71.7457143 L65.2065934,71.7457143 L65.2065934,69.7391209 L52.2175824,69.7391209 L52.2175824,71.7457143 Z M52.2175824,67.9435165 L65.2065934,67.9435165 L65.2065934,66.0424176 L52.2175824,66.0424176 L52.2175824,67.9435165 Z M49.367033,73.8578022 L68.0593407,73.8578022 L68.0593407,63.8248352 L49.367033,63.8248352 L49.367033,73.8578022 Z M46.2,77.9764835 L46.2,75.6534066 L71.3318681,75.6534066 L71.3318681,77.9764835 L60.4549451,77.9764835 L60.4549451,80.1940659 L69.4307692,80.1940659 L69.4307692,82.4116484 L60.4549451,82.4116484 L60.4549451,84.9457143 L71.5428571,84.9457143 C71.4725275,85.016044 71.4,85.1918681 71.3318681,85.4731868 C71.1186813,86.2468132 70.978022,86.8094505 70.9098901,87.1632967 C66.1208791,87.1632967 62.567033,87.1281319 60.243956,87.0578022 C56.0197802,87.0578022 53.2021978,86.0006593 51.7934066,83.8907692 C51.0197802,85.3676923 49.6483516,86.8094505 47.6769231,88.2182418 C47.1142857,87.5852747 46.5142857,86.9171429 45.8813187,86.2138462 C48.7692308,84.5237363 50.3186813,81.9896703 50.5274725,78.6094505 L53.167033,79.0314286 C53.0263736,79.8775824 52.8527473,80.616044 52.6395604,81.249011 C53.7648352,83.292967 55.4549451,84.4534066 57.7098901,84.7347253 L57.7098901,77.9764835 L46.2,77.9764835 Z" id="Fill-26"></path>
                    <path d="M78.4087912,83.9940659 L93.1934066,83.9940659 L93.1934066,80.4050549 L78.4087912,80.4050549 L78.4087912,83.9940659 Z M78.4087912,78.081978 L93.1934066,78.081978 L93.1934066,74.4907692 L78.4087912,74.4907692 L78.4087912,78.081978 Z M78.4087912,72.0621978 L93.1934066,72.0621978 L93.1934066,68.470989 L78.4087912,68.470989 L78.4087912,72.0621978 Z M75.4505495,88.0094505 L75.4505495,65.9369231 L82.3142857,65.9369231 C82.6659341,64.7413187 82.9472527,63.6512088 83.1604396,62.6643956 L86.5384615,62.9808791 C86.2571429,63.8248352 85.9406593,64.8116484 85.5868132,65.9369231 L96.1494505,65.9369231 L96.1494505,88.0094505 L93.1912088,88.0094505 L93.1912088,86.3193407 L78.4087912,86.3193407 L78.4087912,88.0094505 L75.4505495,88.0094505 Z" id="Fill-27"></path>
                    <path d="M122.656484,87.3742857 C121.878462,85.7545055 120.964176,84.0314286 119.909231,82.2006593 L122.443297,81.3545055 C123.50044,83.2556044 124.485055,84.9457143 125.401538,86.4248352 L122.656484,87.3742857 Z M122.337802,68.26 C122.056484,67.9808791 121.634505,67.4863736 121.06967,66.7830769 C120.436703,65.9369231 119.944396,65.3413187 119.592747,64.9874725 L121.493846,63.8248352 C122.548791,64.881978 123.50044,65.9017582 124.346593,66.8885714 L122.337802,68.26 Z M115.685055,87.1632967 C115.614725,87.0204396 115.544396,86.8094505 115.474066,86.5303297 C114.770769,84.9808791 114.170769,83.6446154 113.678462,82.5171429 L116.425714,81.9896703 C116.704835,82.5545055 117.058681,83.3281319 117.482857,84.3127473 C117.902637,85.2248352 118.219121,85.9654945 118.43011,86.5303297 L115.685055,87.1632967 Z M113.045495,71.5347253 L113.045495,69.1061538 L116.109231,69.1061538 C116.247692,66.8534066 116.318022,64.7413187 116.318022,62.7698901 L118.957582,62.7698901 C118.887253,63.4028571 118.854286,64.46 118.854286,65.9369231 C118.781758,67.3479121 118.748791,68.4028571 118.748791,69.1061538 L125.082857,69.1061538 L125.082857,71.5347253 L119.276264,71.5347253 C120.04989,74.7742857 122.197143,77.1676923 125.718022,78.7149451 C125.082857,79.4907692 124.485055,80.2643956 123.922418,81.038022 C120.542198,79.0687912 118.43011,76.6402198 117.586154,73.7523077 C116.953187,76.7808791 114.911429,79.3501099 111.460879,81.4621978 C111.17956,81.038022 110.687253,80.4424176 109.981758,79.6665934 C109.841099,79.4534066 109.735604,79.3149451 109.667473,79.2424176 C113.326813,77.1303297 115.370769,74.5610989 115.790549,71.5347253 L113.045495,71.5347253 Z M109.14,87.3742857 C108.926813,86.670989 108.575165,85.5435165 108.082857,83.9940659 C107.86967,83.4336264 107.693846,82.9764835 107.555385,82.6226374 L110.194945,82.3061538 C110.263077,82.5171429 110.405934,82.870989 110.616923,83.3610989 C111.17956,84.7698901 111.603736,85.9654945 111.885055,86.9523077 L109.14,87.3742857 Z M103.223516,87.9017582 L100.478462,87.0578022 C101.041099,86.0006593 101.957582,84.2424176 103.223516,81.7786813 L105.75978,82.5171429 C105.265275,83.8556044 104.421319,85.649011 103.223516,87.9017582 L103.223516,87.9017582 Z M101.219121,74.1742857 C101.148791,73.8951648 100.970769,73.4358242 100.691648,72.8028571 C100.478462,72.1676923 100.302637,71.7457143 100.164176,71.5347253 C102.485055,69.070989 104.245495,66.0797802 105.443297,62.5589011 L108.082857,63.0863736 L107.027912,65.5149451 L113.045495,65.5149451 L113.045495,68.0512088 C111.566374,74.103956 108.012527,78.7523077 102.37956,81.9896703 C102.168571,81.7083516 101.781758,81.2863736 101.219121,80.7215385 C100.865275,80.2995604 100.621319,80.0182418 100.478462,79.8775824 C102.590549,78.8204396 104.315824,77.66 105.654286,76.3918681 C105.23011,76.0402198 104.632308,75.5830769 103.858681,75.0182418 C103.293846,74.5984615 102.871868,74.2797802 102.590549,74.0687912 L104.06967,72.3786813 C105.054286,73.0116484 106.144396,73.7171429 107.342198,74.4907692 C107.412527,74.4226374 107.485055,74.3501099 107.555385,74.2797802 C107.766374,74.0006593 108.047692,73.5764835 108.399341,73.0116484 C107.342198,72.238022 106.216923,71.4995604 105.021319,70.7962637 L106.392747,69.1061538 C106.674066,69.2468132 107.060879,69.492967 107.555385,69.8446154 C108.399341,70.3391209 109.034505,70.6907692 109.454286,70.8995604 C109.878462,69.9874725 110.23011,68.9654945 110.511429,67.838022 L105.863077,67.838022 C104.808132,69.8094505 103.260879,71.9215385 101.219121,74.1742857 L101.219121,74.1742857 Z" id="Fill-28"></path>
                    <path d="M147.894725,69.9507692 L145.888132,68.4716484 C147.085934,67.0650549 148.213407,65.5859341 149.268352,64.0364835 L151.38044,65.3046154 C150.885934,66.0101099 150.145275,66.9947253 149.162857,68.2606593 C148.598022,69.0364835 148.176044,69.5991209 147.894725,69.9507692 L147.894725,69.9507692 Z M138.18044,69.8452747 C137.125495,68.3661538 136.033187,66.887033 134.905714,65.4101099 L136.912308,64.141978 C138.18044,65.552967 139.305714,66.9947253 140.292527,68.4716484 L138.18044,69.8452747 Z M134.694725,73.5397802 L134.694725,71.1112088 L141.769451,71.1112088 L141.769451,62.7683516 L144.516703,62.7683516 L144.516703,71.1112088 L151.802418,71.1112088 L151.802418,73.5397802 L144.516703,73.5397802 L144.516703,76.1815385 L145.677143,74.9134066 C147.576044,76.2518681 149.725495,77.8716484 152.118901,79.7705495 L150.428791,81.9903297 C148.879341,80.5815385 146.907912,78.9265934 144.516703,77.0254945 L144.516703,83.7837363 L141.769451,83.7837363 L141.769451,76.3925275 C140.430989,78.4342857 138.354066,80.4057143 135.540879,82.3068132 C134.976044,81.5331868 134.378242,80.7221978 133.745275,79.8782418 C136.98044,78.1178022 139.446374,76.0057143 141.136484,73.5397802 L134.694725,73.5397802 Z M132.582637,68.1551648 C132.09033,67.8035165 131.422198,67.3112088 130.576044,66.676044 C129.31011,65.8320879 128.358462,65.1991209 127.725495,64.7771429 L129.202418,62.876044 C130.962857,63.930989 132.617802,64.9881319 134.167253,66.0430769 L132.582637,68.1551648 Z M128.252967,88.0079121 L126.984835,84.9463736 C127.409011,84.5947253 128.004615,84.0320879 128.782637,83.2562637 C129.272747,82.763956 129.65956,82.4101099 129.943077,82.2013187 L129.943077,76.709011 L127.198022,76.709011 L127.198022,74.2804396 L132.688132,74.2804396 L132.688132,82.0936264 C133.745275,83.9265934 135.576044,84.8408791 138.18044,84.8408791 C140.855165,84.9112088 145.712308,84.876044 152.751868,84.7353846 C152.681538,84.876044 152.611209,85.0145055 152.540879,85.1573626 C152.332088,85.72 152.118901,86.4584615 151.907912,87.3749451 L142.932088,87.3749451 C140.74967,87.3749451 138.954066,87.3375824 137.545275,87.2694505 C134.589231,87.1991209 132.512308,86.2474725 131.314505,84.4189011 C130.116703,85.6145055 129.096923,86.8101099 128.252967,88.0079121 L128.252967,88.0079121 Z M131.736484,73.1178022 C131.244176,72.7661538 130.576044,72.2738462 129.72989,71.6408791 C128.463956,70.7947253 127.514505,70.1617582 126.879341,69.7397802 L128.358462,67.7331868 C129.061758,68.1551648 130.048571,68.7881319 131.314505,69.6342857 C132.228791,70.2672527 132.934286,70.7265934 133.426593,71.0057143 L131.736484,73.1178022 Z" id="Fill-29"></path>
                    <path d="M177.464176,87.4804396 C171.47956,84.3134066 167.960879,79.7375824 166.903736,73.7507692 C165.848791,79.6650549 162.257582,84.3485714 156.132308,87.7969231 C155.567473,86.8826374 154.899341,86.0013187 154.125714,85.1573626 C160.883956,81.709011 164.508132,76.4276923 165.002637,69.3156044 C165.143297,67.6276923 165.215824,65.5156044 165.215824,62.9815385 L168.382857,62.9815385 C168.312527,63.1925275 168.275165,63.8254945 168.275165,64.8804396 C168.204835,65.7265934 168.16967,66.3595604 168.16967,66.7837363 C168.804835,75.9353846 172.607033,81.952967 179.576264,84.8408791 C178.65978,85.8254945 177.956484,86.7046154 177.464176,87.4804396" id="Fill-30"></path>
                    <polygon id="Fill-31" points="198.568571 66.1613187 198.568571 88.6096703 186.41033 88.6096703 186.41033 85.2052747 194.75978 85.2052747 194.75978 66.1613187"></polygon>
                </g>
            </g>
        </g>
    </g>
</svg>