<?xml version="1.0" encoding="UTF-8"?>
<svg width="521px" height="179px" viewBox="0 0 521 179" version="1.1" xmlns="http://www.w3.org/2000/svg" xmlns:xlink="http://www.w3.org/1999/xlink">
    <!-- Generator: Sketch 63.1 (92452) - https://sketch.com -->
    <title>Group 41</title>
    <desc>Created with Sketch.</desc>
    <defs>
        <polygon id="path-1" points="0 0.0487596206 31.0838677 0.0487596206 31.0838677 25.1951433 0 25.1951433"></polygon>
        <polygon id="path-3" points="0 88.3638074 430 88.3638074 430 0 0 0"></polygon>
    </defs>
    <g id="Page-1" stroke="none" stroke-width="1" fill="none" fill-rule="evenodd">
        <g id="index" transform="translate(-89.000000, -1103.000000)">
            <g id="Group-41" transform="translate(89.000000, 1103.000000)">
                <rect id="Rectangle-Copy-3" fill="#D60057" x="0" y="0" width="521" height="179"></rect>
                <g id="Group-18-Copy" transform="translate(46.000000, 45.000000)">
                    <g id="Group-3" transform="translate(5.000000, 0.000000)">
                        <mask id="mask-2" fill="white">
                            <use xlink:href="#path-1"></use>
                        </mask>
                        <g id="Clip-2"></g>
                        <path d="M30.5673581,4.94415616 C28.5013197,5.61194795 26.8016428,6.79868637 25.4723313,8.578794 C24.1430198,10.2120679 23.480366,11.9921755 23.5524371,13.7722831 C23.9228025,13.5490154 24.5133852,13.4745928 25.3982582,13.4745928 C26.947787,13.4745928 28.2770985,13.9955509 29.4602658,15.1078667 C30.493285,16.2201826 31.0838677,17.6301887 31.0838677,19.3358738 C31.0838677,21.0415588 30.493285,22.451565 29.3121196,23.5638808 C28.1309543,24.6017741 26.6534966,25.1951433 24.8817486,25.1951433 C22.8157102,25.1951433 21.1901064,24.3060952 19.8607949,22.6728213 C18.5314834,21.0415588 17.9409007,18.8913497 17.9409007,16.3690277 C17.9409007,12.362277 19.0499949,8.95090689 21.3382525,6.056472 C23.5524371,3.08962596 26.6534966,1.08826202 30.5673581,0.0483573363 L30.5673581,4.94415616 Z M12.6256566,4.94415616 C10.5596182,5.61194795 8.93401439,6.79868637 7.60470288,8.578794 C6.20131828,10.2120679 5.53666253,11.9921755 5.61073561,13.7722831 C5.98110102,13.5490154 6.57168369,13.4745928 7.45655672,13.4745928 C9.0060855,13.4745928 10.337399,13.9955509 11.4444913,15.1078667 C12.5515835,16.2201826 13.1421662,17.6301887 13.1421662,19.3358738 C13.1421662,21.0415588 12.5515835,22.451565 11.4444913,23.5638808 C10.2613239,24.6017741 8.71179515,25.1951433 6.94004712,25.1951433 C4.87400875,25.1951433 3.24840491,24.3060952 1.99516845,22.6728213 C0.663854966,21.0415588 -0.000800790068,18.8913497 -0.000800790068,16.3690277 C-0.000800790068,12.362277 1.10829345,8.95090689 3.39655107,6.056472 C5.61073561,3.08962596 8.71179515,1.08826202 12.6256566,0.0483573363 L12.6256566,4.94415616 Z" id="Fill-1" fill="#FFFFFF" mask="url(#mask-2)"></path>
                    </g>
                    <path d="M433.081571,2.45763543 C434.335851,4.09740533 435,6.25616645 435,8.86323904 C435,12.8091878 433.819736,16.2361453 431.607241,19.2147914 C429.318729,22.1187189 426.220036,24.1300623 422.383178,25.2468021 L422.383178,20.3315312 C424.375623,19.5863649 426.072003,18.3969259 427.474317,16.757156 C428.800613,14.9699683 429.392746,13.2574993 429.392746,11.4682922 C428.950647,11.6177294 428.360515,11.7671665 427.546333,11.7671665 C425.92597,11.7671665 424.597673,11.1714373 423.489425,10.0546975 C422.383178,8.9359382 421.867062,7.52234345 421.867062,5.88257355 C421.867062,4.09740533 422.457194,2.67977175 423.637458,1.63775048 C424.743706,0.521010634 426.220036,0 428.064449,0 C430.054894,0 431.753274,0.81786553 433.081571,2.45763543 M415.079544,2.45763543 C416.407841,4.09740533 417.07199,6.25616645 417.07199,8.86323904 C417.07199,12.8091878 415.889725,16.2361453 413.67723,19.2147914 C411.390719,22.1187189 408.292026,24.1300623 404.455167,25.2468021 L404.455167,20.3315312 C406.447613,19.5863649 408.143993,18.3969259 409.47229,16.757156 C410.800587,14.9699683 411.464735,13.2574993 411.464735,11.4682922 C411.022636,11.6177294 410.432504,11.7671665 409.618322,11.7671665 C407.99796,11.7671665 406.669663,11.1714373 405.635431,10.0546975 C404.455167,8.9359382 403.939052,7.52234345 403.939052,5.88257355 C403.939052,4.09740533 404.455167,2.67977175 405.635431,1.63775048 C406.815695,0.521010634 408.292026,0 410.136438,0 C412.126883,0 413.751247,0.81786553 415.079544,2.45763543" id="Fill-4" fill="#FFFFFF"></path>
                    <path d="M106.392204,39.2010259 C106.63199,41.386348 106.999799,44.2974152 107.489532,47.9402924 C107.731351,49.8850471 107.857341,51.3405807 107.857341,52.3089149 C112.734359,47.4551146 116.514047,43.0864921 119.202503,39.2010259 L106.392204,39.2010259 Z M95.0470412,62.503715 C93.5819038,56.4389916 92.6044681,48.6680593 92.1208305,39.2010259 L77.477585,39.2010259 L77.477585,47.9402924 C78.9427224,47.7017467 81.1394124,47.4551146 84.0676551,47.2105041 C86.9958978,46.7273478 89.1905558,46.4847588 90.6556932,46.4847588 C90.6556932,48.184903 90.5276714,50.7341084 90.2878847,54.1283319 L90.2878847,60.318393 C88.8247794,60.318393 86.7500148,60.5630035 84.0676551,61.0481814 C81.1394124,61.2927919 78.9427224,61.5353809 77.477585,61.7759482 L77.477585,72.3346318 C84.7992078,68.9363651 90.6556932,65.6614144 95.0470412,62.503715 L95.0470412,62.503715 Z M49.2985833,6.0694417 C62.7144461,5.83089591 75.1569374,4.97576991 86.6280894,3.52023628 L89.1905558,16.6261037 C88.4590031,16.6261037 87.3616741,16.7534629 85.8965367,16.9920086 C82.4765281,17.2366192 79.6763071,17.3558921 77.477585,17.3558921 L77.477585,25.7292536 L91.3872458,25.7292536 C90.6556932,15.5344534 90.2878847,7.28642954 90.2878847,0.97103085 L105.294875,0.97103085 C105.294875,3.15635287 105.414768,8.01419636 105.660651,15.5344534 C105.900438,19.9050975 106.026427,23.3074073 106.026427,25.7292536 L122.496522,25.7292536 C119.076514,22.0883979 113.953613,17.1173463 107.123756,10.8019476 L116.274261,1.69879767 C122.130746,6.0694417 127.619423,10.8019476 132.744356,15.9003584 L122.860267,25.7292536 L134.941046,25.7292536 L134.941046,39.2010259 L122.860267,39.2010259 L132.378579,46.4847588 C127.495465,53.0366817 120.907427,59.9545096 112.614465,67.2362209 C113.346018,68.2106198 114.077571,69.30227 114.811155,70.5131932 C116.274261,72.4599694 117.493515,73.426282 118.468919,73.426282 C119.934056,73.426282 120.907427,72.3346318 121.399193,70.1493097 C122.130746,65.5421415 122.736309,61.2927919 123.228075,57.4053042 C125.66252,58.8628594 128.838677,60.5630035 132.744356,62.503715 C134.207461,62.9929361 135.306822,63.4760924 136.038375,63.9612702 C134.327354,72.4599694 132.862217,78.0334502 131.647027,80.7079933 C129.450337,85.8064041 125.298775,88.353588 119.202503,88.353588 C110.905477,88.5941554 104.683215,84.5873947 100.535718,76.3393708 C96.1443701,79.0078491 91.3872458,81.6763275 86.2643452,84.3488489 C85.2848774,82.8933153 83.8217721,80.8272662 81.8729972,78.1587879 C79.9160938,75.7369416 78.4509564,73.7901654 77.477585,72.3346318 L77.477585,74.8818156 C77.7194038,82.6487048 74.5513744,86.6534438 67.9633363,86.8980544 C66.500231,87.1366001 63.9377647,87.2619378 60.2779693,87.2619378 C56.8579607,87.5004836 54.2954943,87.6258212 52.5905702,87.6258212 C52.3446872,86.4088333 51.980943,84.5873947 51.4932412,82.1635269 C51.2473582,80.9465391 50.637731,78.2800823 49.6643596,74.1540488 C52.5905702,74.3986593 55.3928233,74.5179322 58.0833114,74.5179322 C61.2493087,74.7625427 62.7144461,73.0623986 62.4746594,69.4215429 L62.4746594,63.5953653 C61.009522,63.8399758 58.814864,64.0845863 55.8866213,64.3231321 C52.7124956,64.8123531 50.3959122,65.1782581 48.9328069,65.4168039 L46.738149,50.8533813 C49.9041463,50.3682034 54.7872602,49.8850471 61.3773304,49.3958261 L62.4746594,49.3958261 L62.4746594,39.2010259 L47.4676695,39.2010259 L47.4676695,25.7292536 L62.4746594,25.7292536 L62.4746594,18.4475423 C58.3230981,18.9367633 54.423516,19.1753091 50.7616886,19.1753091 C50.7616886,16.2642418 50.2699226,11.8935978 49.2985833,6.0694417 L49.2985833,6.0694417 Z" id="Fill-6" fill="#FFFFFF"></path>
                    <path d="M179.648061,32.0440181 L179.648061,48.017075 C180.377539,58.1813811 175.386695,65.8041068 164.683634,70.8852521 L160.30474,64.7137063 C167.360412,61.3276198 171.007802,56.4903533 171.252987,50.1938449 L161.765722,50.1938449 L161.765722,32.0440181 L179.648061,32.0440181 Z" id="Fill-8" fill="#FFFFFF"></path>
                    <mask id="mask-4" fill="white">
                        <use xlink:href="#path-3"></use>
                    </mask>
                    <g id="Clip-11"></g>
                    <path d="M213.082773,26.0440733 L220.324363,26.0440733 L220.324363,19.1388738 L213.082773,19.1388738 L213.082773,26.0440733 Z M206.18182,13.2708919 L227.395634,13.2708919 L227.395634,31.9141091 L213.082773,31.9141091 L213.082773,34.3294912 L206.18182,34.3294912 L206.18182,13.2708919 Z M232.398466,31.5690545 L232.398466,9.47118362 L202.042889,9.47118362 L202.042889,2.91309255 L243.781038,2.91309255 L243.781038,9.47118362 L239.642108,9.47118362 L239.642108,33.6393821 C239.869882,38.8193087 237.399247,41.4647272 232.226097,41.5797454 C228.776646,41.6927097 225.844305,41.7543266 223.431126,41.7543266 C223.431126,41.6372545 223.369565,41.4647272 223.258756,41.2346908 C222.797051,38.357182 222.394854,36.2889084 222.050114,35.0196004 C223.541935,35.1366725 225.784796,35.1941816 228.776646,35.1941816 C231.419651,35.3091998 232.626241,34.1015087 232.398466,31.5690545 L232.398466,31.5690545 Z" id="Fill-10" fill="#FFFFFF" mask="url(#mask-4)"></path>
                    <path d="M276.759691,1.82377064 L284.105126,1.82377064 C284.105126,5.23676014 283.991306,9.22027317 283.761634,13.7682187 L283.761634,14.9640848 C283.649847,19.5140607 283.021806,23.383875 281.883609,26.5674369 C282.336856,27.1379605 283.078716,28.0475496 284.105126,29.2982346 C286.609159,32.2584599 288.375396,34.3618847 289.401806,35.6125697 L283.590905,40.9015868 C281.883609,38.1707891 280.060462,35.6125697 278.125527,33.222868 C275.847101,35.7262684 272.032109,38.5687343 266.680552,41.7543266 C264.857404,39.1372275 263.320838,37.2043507 262.066789,35.9536656 C267.989478,32.6564051 271.80447,29.6982102 273.511765,27.0790808 C275.334913,24.6914094 276.35929,20.5393787 276.588962,14.6229889 C276.700749,12.3490161 276.759691,8.08328678 276.759691,1.82377064 L276.759691,1.82377064 Z M265.312683,0.97103085 C267.36347,4.38402035 269.694741,8.13810577 272.316658,12.2332871 L265.826904,15.9873725 C263.662298,11.8921912 261.495659,7.96755781 259.335117,4.21347239 L265.312683,0.97103085 Z M265.826904,21.4489679 C266.168363,24.5208614 266.621609,27.1948098 267.19274,29.4687826 C261.1542,33.5639639 255.802642,37.4317479 251.136035,41.0741651 L246.693002,35.1009259 L249.768166,33.222868 L249.768166,2.33541452 L257.113601,2.33541452 L257.113601,28.1043989 C257.796519,27.6496043 258.763986,26.9085329 260.018035,25.8852451 C262.522068,24.0680972 264.459035,22.5879846 265.826904,21.4489679 L265.826904,21.4489679 Z" id="Fill-12" fill="#FFFFFF" mask="url(#mask-4)"></path>
                    <path d="M210.026212,59.5245955 L234.487517,59.5245955 L234.487517,56.4656461 L210.026212,56.4656461 L210.026212,59.5245955 Z M218.858394,46.6094808 L225.992858,46.6094808 L225.992858,50.5175767 L241.282436,50.5175767 L241.282436,61.0530593 L237.034096,61.0530593 L237.034096,65.4706431 L207.647384,65.4706431 L207.647384,61.0530593 L203.231293,61.0530593 L203.231293,50.5175767 L218.858394,50.5175767 L218.858394,46.6094808 Z M235.845693,78.8952457 C236.072055,77.7650721 236.241827,76.347806 236.355008,74.6474912 C238.844997,75.4420497 240.997462,76.175955 242.810384,76.857294 C242.582,78.2159285 242.242456,79.8596336 241.791752,81.7843657 C241.67655,82.1240244 241.62198,82.4050514 241.62198,82.6335123 C240.82769,85.1243422 238.844997,86.3717789 235.675921,86.3717789 L228.541458,86.3717789 C225.030817,86.2585593 223.215874,84.2751956 223.106735,80.4257313 L223.106735,74.4776619 L219.537482,74.4776619 C219.650663,80.8240214 215.177982,85.1243422 206.117416,87.3927765 C204.985603,85.352803 203.625406,83.3148513 202.042889,81.2748778 C208.948969,80.0294629 212.344407,77.7650721 212.235268,74.4776619 L202.721977,74.4776619 L202.721977,68.3597631 L241.62198,68.3597631 L241.62198,74.4776619 L230.41097,74.4776619 L230.41097,78.7254164 C230.41097,80.1992922 231.029425,80.9352192 232.278461,80.9352192 L233.466865,80.9352192 C234.82504,81.0504605 235.617309,80.3691215 235.845693,78.8952457 L235.845693,78.8952457 Z" id="Fill-13" fill="#FFFFFF" mask="url(#mask-4)"></path>
                    <path d="M249.038989,50.9905772 L257.797787,50.9905772 C257.454465,50.4311603 256.939482,49.6431645 256.252838,48.632605 C255.909516,48.071183 255.678591,47.6781876 255.564151,47.4516138 L263.123366,46.6094808 C264.038891,47.8466142 264.897196,49.3063113 265.698281,50.9905772 L271.540886,50.9905772 C271.884208,50.4311603 272.337884,49.7013118 272.914174,48.8010316 C273.486378,47.6781876 273.884877,46.946334 274.115801,46.6094808 L281.672973,47.4516138 C281.558532,47.6781876 281.329651,48.0150408 280.986329,48.4621733 C280.757448,48.8010316 280.183201,49.6431645 279.269719,50.9905772 L288.200179,50.9905772 L288.200179,56.04538 L272.055869,56.04538 L272.055869,57.9000776 L285.966542,57.9000776 L285.966542,62.9568854 L272.055869,62.9568854 L272.055869,64.6411513 L288.886823,64.6411513 L288.886823,69.8663858 L248.180684,69.8663858 L248.180684,64.6411513 L264.839976,64.6411513 L264.839976,62.9568854 L251.615947,62.9568854 L251.615947,57.9000776 L264.839976,57.9000776 L264.839976,56.04538 L249.038989,56.04538 L249.038989,50.9905772 Z M264.839976,70.5400921 L272.055869,70.5400921 L272.055869,72.224358 L288.37184,72.224358 L288.37184,77.2811659 L272.742513,77.2811659 C274.459123,79.4165744 280.01154,80.5955606 289.401806,80.8201294 C288.942,81.6081252 288.37184,82.7831012 287.685196,84.3590928 C287.110949,85.5942212 286.71245,86.4924963 286.481525,87.0559233 C277.777903,86.2679275 271.822901,84.4132299 268.618562,81.4938357 C265.641061,83.9640924 259.628838,85.9310743 250.585981,87.3927765 C250.355056,86.8293495 249.897294,85.9310743 249.21065,84.695946 C248.524006,83.1199543 248.009022,82.0572628 247.663657,81.4938357 C256.59616,81.0467032 261.805255,79.6411432 263.295027,77.2811659 L248.867328,77.2811659 L248.867328,72.224358 L264.668315,72.224358 C264.668315,72.0017943 264.725535,71.7190783 264.839976,71.3822251 L264.839976,70.5400921 Z" id="Fill-14" fill="#FFFFFF" mask="url(#mask-4)"></path>
                    <path d="M327.92548,60.5702766 C326.124064,58.9967328 324.318628,56.803004 322.519223,53.9910972 C321.166151,56.465816 319.531608,58.6595448 317.617604,60.5702766 L327.92548,60.5702766 Z M300.043753,80.982191 L303.932075,80.982191 L303.932075,77.7768983 L300.043753,77.7768983 L300.043753,80.982191 Z M295.142134,52.4717442 L308.831684,52.4717442 L308.831684,47.9176996 L295.142134,47.9176996 L295.142134,52.4717442 Z M294.635486,87.3927765 L294.635486,72.7150646 L309.338332,72.7150646 L309.338332,87.3927765 L303.930065,87.3927765 L303.930065,85.7048296 L300.043753,85.7048296 L300.043753,87.3927765 L294.635486,87.3927765 Z M294.466603,71.3663128 L309.505204,71.3663128 L309.505204,66.6416671 L294.466603,66.6416671 L294.466603,71.3663128 Z M294.466603,65.2929152 L309.505204,65.2929152 L309.505204,60.7388706 L294.466603,60.7388706 L294.466603,65.2929152 Z M335.022573,58.2079538 C334.909985,58.5451418 334.741102,59.0529308 334.515925,59.7273067 C334.176149,60.8512666 333.725796,62.4248105 333.162853,64.4499453 C332.151568,63.7755694 331.190545,63.1593985 330.291848,62.5934044 L330.291848,66.6416671 L325.390229,66.6416671 L325.390229,70.3547489 L331.982685,70.3547489 L331.982685,76.4261393 L325.390229,76.4261393 L325.390229,80.305808 L333.331736,80.305808 L333.331736,86.0420176 L311.027159,86.0420176 L311.027159,80.305808 L318.968666,80.305808 L318.968666,76.4261393 L312.380231,76.4261393 L312.380231,70.3547489 L318.968666,70.3547489 L318.968666,66.6416671 L313.900175,66.6416671 L313.900175,63.4383814 C313.110045,63.8879654 312.265632,64.3937473 311.366935,64.9557273 C311.027159,64.0565594 310.520511,62.8764015 309.84498,61.4132466 C309.507215,60.5140787 309.223733,59.8397027 309.000567,59.3901188 L309.169449,59.3901188 L293.284424,59.3901188 L293.284424,54.1596911 L310.689393,54.1596911 L310.689393,58.3765478 C312.488798,57.142199 314.294234,55.4542521 316.09565,53.3167212 L312.211348,53.3167212 L312.211348,47.5805117 L324.545815,47.5805117 C327.473115,52.5319564 330.967378,56.07243 335.022573,58.2079538 L335.022573,58.2079538 Z" id="Fill-15" fill="#FFFFFF" mask="url(#mask-4)"></path>
                    <path d="M372.708168,54.648542 L374.951029,54.648542 L374.951029,51.8906363 L372.708168,51.8906363 L372.708168,54.648542 Z M366.328428,54.648542 L368.571289,54.648542 L368.571289,51.8906363 L366.328428,51.8906363 L366.328428,54.648542 Z M364.775047,70.8473931 L365.983688,73.0885759 L368.916029,73.0885759 L370.122619,70.8473931 L364.775047,70.8473931 Z M359.948688,54.648542 L362.189498,54.648542 L362.189498,51.8906363 L359.948688,51.8906363 L359.948688,54.648542 Z M338.905192,75.8444311 C340.975683,73.2034032 342.584469,70.7346163 343.735654,68.4339693 L339.424354,68.4339693 L339.424354,62.9202085 L344.597504,62.9202085 L344.597504,61.3679895 L341.148053,62.2312447 C340.803313,60.2791806 340.169238,58.0379978 339.251984,55.5076963 L342.701435,54.648542 C342.929209,55.3354553 343.273949,56.3709515 343.735654,57.7488791 C344.080394,59.0140298 344.365625,60.049526 344.597504,60.8512666 L344.597504,53.6130458 C344.020885,53.7299236 343.218544,53.7852868 342.184325,53.7852868 C341.148053,53.9021646 340.341608,53.9575277 339.769094,53.9575277 C339.537215,52.0054636 339.251984,50.1661764 338.905192,48.4437669 C344.310221,48.3289396 349.196088,48.0418713 353.566897,47.5805117 L354.428746,52.7518411 C352.932821,52.8666684 351.496405,53.0389093 350.117446,53.2685639 L350.117446,59.8178209 C350.34522,59.1288571 350.747417,58.093361 351.324035,56.7154334 C351.553862,55.6819877 351.781637,54.9356102 352.013515,54.476301 L355.290596,55.3354553 L355.290596,47.5805117 L379.609121,47.5805117 L379.609121,58.7843752 L370.64178,58.7843752 L370.64178,60.5067847 L378.747272,60.5067847 L378.747272,64.8148589 L370.64178,64.8148589 L370.64178,66.3670779 L380.470971,66.3670779 L380.470971,70.8473931 L376.50441,70.8473931 L374.951029,73.0885759 L379.264381,73.0885759 L379.264381,77.3966501 L370.64178,77.3966501 L370.64178,79.1190596 L380.643341,79.1190596 L380.643341,83.4291842 L370.64178,83.4291842 L370.64178,87.3927765 L364.259989,87.3927765 L364.259989,83.4291842 L353.911636,83.4291842 L353.911636,79.1190596 L364.259989,79.1190596 L364.259989,77.3966501 L355.807706,77.3966501 L355.807706,73.0885759 L359.948688,73.0885759 L358.740047,70.8473931 L354.773486,70.8473931 L354.773486,66.3670779 L364.259989,66.3670779 L364.259989,64.8148589 L356.324816,64.8148589 L356.324816,60.5067847 L364.259989,60.5067847 L364.259989,58.7843752 L355.290596,58.7843752 L355.290596,55.8542286 C355.058717,56.3135378 354.773486,57.1193794 354.428746,58.2676524 C353.739267,60.1048892 353.222157,61.4848672 352.877417,62.4034856 L350.117446,61.3679895 L350.117446,62.9202085 L354.256376,62.9202085 L354.256376,68.4339693 L350.117446,68.4339693 L350.117446,70.1584293 C350.806926,70.5029112 351.726232,71.019634 352.877417,71.7085978 C354.024498,72.3975616 354.886347,72.9737486 355.462966,73.4330578 L352.877417,78.6023367 C351.841145,77.9133729 350.921839,77.2244091 350.117446,76.5354453 L350.117446,87.2205356 L344.597504,87.2205356 L344.597504,77.0521682 C343.446319,79.1190596 342.067359,81.0752246 340.458573,82.9104109 C340.226695,82.1086703 339.941464,80.7861059 339.596724,78.9468186 C339.251984,77.4561142 339.020105,76.4226685 338.905192,75.8444311 L338.905192,75.8444311 Z" id="Fill-16" fill="#FFFFFF" mask="url(#mask-4)"></path>
                    <path d="M386.790678,86.4217457 L394.879751,86.4217457 L394.879751,78.539426 L386.790678,78.539426 L386.790678,86.4217457 Z M395.20316,48.5515425 L393.909524,74.7695323 L387.5992,74.7695323 L386.467269,48.5515425 L395.20316,48.5515425 Z" id="Fill-17" fill="#FFFFFF" mask="url(#mask-4)"></path>
                </g>
            </g>
        </g>
    </g>
</svg>