<?xml version="1.0" encoding="UTF-8"?>
<svg width="492px" height="203px" viewBox="0 0 492 203" version="1.1" xmlns="http://www.w3.org/2000/svg" xmlns:xlink="http://www.w3.org/1999/xlink">
    <!-- Generator: Sketch 63.1 (92452) - https://sketch.com -->
    <title>Group 26</title>
    <desc>Created with Sketch.</desc>
    <g id="Page-1" stroke="none" stroke-width="1" fill="none" fill-rule="evenodd">
        <g id="index" transform="translate(-188.000000, -5817.000000)">
            <g id="Group-26" transform="translate(188.000000, 5817.000000)">
                <path d="M34.7194492,82.2661765 C34.7194492,97.1326996 35.5762661,109.461723 37.2899257,119.253615 C39.0035852,129.045508 41.681138,136.836021 45.3226645,142.625388 C48.964191,148.414755 53.676684,152.452957 59.4602849,154.740114 C65.2438858,157.027272 72.1341218,158.170833 80.1311996,158.170833 C90.6987666,158.170833 98.9813301,156.205337 104.979138,152.274285 C110.976947,148.343233 115.475236,142.911316 118.47414,135.97837 C121.473044,129.045424 123.365181,120.826076 124.150609,111.320078 C124.936036,101.81408 125.328744,91.4862894 125.328744,80.3363971 C125.328744,70.3300834 125.007437,60.7884917 124.364815,51.7113358 C123.722193,42.6341798 121.901457,34.629249 118.902552,27.6963031 C115.903648,20.7633572 111.369659,15.2599673 105.300448,11.1859681 C99.2312372,7.11196901 90.8415716,5.075 80.1311996,5.075 C70.1348523,5.075 62.1378945,6.96902382 56.1400862,10.7571283 C50.1422778,14.5452327 45.5725877,19.8699412 42.4308785,26.7314134 C39.2891694,33.5928856 37.2185285,41.7407617 36.2188938,51.1752859 C35.2192591,60.6098102 34.7194492,70.9733368 34.7194492,82.2661765 Z M148.081973,203 C136.54306,202.429517 127.105511,201.716423 119.769041,200.860698 C112.432572,200.004973 106.378295,198.650095 101.606029,196.796024 C96.8337626,194.941953 92.8806758,192.374816 89.7466502,189.094536 C86.6126245,185.814256 83.4786458,181.393076 80.3446201,175.830863 C78.3502402,172.550583 76.2134365,169.448626 73.9341451,166.524898 C71.6548537,163.601171 69.5892769,161.140998 67.7373526,159.144306 C58.4777313,157.860718 49.7524498,154.937034 41.5612463,150.373167 C33.3700429,145.809299 26.1761373,140.104551 19.9793138,133.25875 C13.7824903,126.412948 8.90345532,118.568919 5.34206251,109.726426 C1.7806697,100.883933 0,91.5424066 0,81.7015675 C0,69.5787946 2.45732418,58.5971533 7.37204626,48.7563142 C12.2867683,38.9154751 18.5903391,30.5009707 26.2829475,23.5125487 C33.975556,16.5241267 42.5939973,11.1402701 52.1385301,7.36081739 C61.6830628,3.58136468 71.013772,1.69166667 80.1309376,1.69166667 C89.9603818,1.69166667 99.6828383,3.54571 109.298599,7.25385228 C118.91436,10.9619946 127.461574,16.2388871 134.940499,23.0846883 C142.419424,29.9304894 148.473701,38.2380297 153.103512,48.0075584 C157.733322,57.7770872 160.048193,68.7943831 160.048193,81.0597768 C160.048193,91.7563411 157.875776,101.917925 153.530877,111.544833 C149.185977,121.17174 143.345381,129.6219 136.008911,136.895563 C128.672442,144.169227 120.196455,149.90963 110.580694,154.116946 C100.964933,158.324261 90.8151161,160.427887 80.1309376,160.427887 C77.4242791,160.427887 75.0025683,160.213959 72.8657326,159.786096 C74.2902897,161.354926 75.6792121,162.638494 77.0325414,163.63684 C78.3858706,164.635186 80.0953136,165.455244 82.1609214,166.097038 C84.2265292,166.738832 86.6838534,167.273652 89.5329677,167.701514 C92.3820819,168.129377 96.0146481,168.557233 100.430775,168.985096 C107.553561,169.6982 112.931183,171.694862 116.563804,174.975142 C120.196425,178.255421 123.366017,182.320055 126.072675,187.169164 C127.497232,189.736339 128.743701,191.839966 129.812119,193.480105 C130.880537,195.120245 132.162619,196.439468 133.658404,197.437814 C135.154189,198.43616 137.006085,199.113599 139.214149,199.470151 C141.422213,199.826704 144.378124,200.004977 148.081973,200.004977 L148.081973,203 Z M260.819277,24.3794258 C260.819277,22.0914824 260.537008,19.8035734 259.972461,17.51563 C259.407915,15.2276866 258.561107,13.154269 257.432014,11.295315 C256.30292,9.43636099 254.856291,7.93492066 253.092083,6.79094896 C251.327874,5.64697727 249.175572,5.075 246.635112,5.075 C246.211702,5.075 245.259044,5.14649716 243.777108,5.28949362 C242.295173,5.43249008 240.742693,5.96871877 239.119621,6.89819577 C237.49655,7.82767278 236.04992,9.3291131 234.77969,11.4025618 C233.50946,13.4760105 232.874355,16.3716454 232.874355,20.0895534 C232.874355,22.2345004 233.191907,24.558158 233.827022,27.0605961 C234.462137,29.5630342 235.308945,32.1369319 236.36747,34.7823664 C237.425995,37.427801 238.625639,40.0731958 239.966437,42.7186304 C241.307236,45.3640649 242.61273,47.7592197 243.88296,49.9041667 C245.294327,48.9031914 246.987942,47.6877397 248.963855,46.2577751 C250.939769,44.8278105 252.809802,43.0761301 254.57401,41.0026814 C256.338219,38.9292327 257.820132,36.5340779 259.019793,33.8171451 C260.219455,31.1002124 260.819277,27.9543374 260.819277,24.3794258 Z M224.85522,74.1474178 C223.856715,72.1459994 222.929547,70.18035 222.073686,68.2504108 C221.217825,66.3204716 220.575939,64.9981256 220.148008,64.2833333 C217.152495,66.5706687 214.549291,68.6435353 212.338317,70.5019953 C210.127343,72.3604553 208.273006,74.3261047 206.775249,76.3990023 C205.277493,78.4719 204.172023,80.7592011 203.458805,83.2609742 C202.745588,85.7627473 202.388985,88.7290908 202.388985,92.1600939 C202.388985,94.7333462 202.888229,98.1285587 203.886734,102.345833 C204.885238,106.563108 206.275991,111.030493 208.059034,115.748122 C209.842078,120.465751 211.981698,125.18331 214.477959,129.900939 C216.974219,134.618568 219.684405,138.871519 222.608596,142.659918 C225.532787,146.448317 228.670897,149.557617 232.023018,151.987911 C235.37514,154.418205 238.762872,155.633333 242.186315,155.633333 C246.037689,155.633333 249.496741,154.739856 252.563576,152.952876 C255.630411,151.165895 258.946822,148.842855 262.512909,145.983685 C261.086474,143.982267 259.981004,142.30253 259.196465,140.944425 C258.411925,139.58632 257.663058,138.121017 256.949841,136.548474 L224.85522,74.1474178 Z M281.519512,122.561478 C283.510791,119.704021 285.573155,114.739265 287.706668,107.66706 C289.84018,100.594855 290.90692,91.6297189 290.90692,80.7713836 C290.90692,74.7707247 290.444666,69.948839 289.520144,66.3055818 C288.595622,62.6623246 287.20886,59.8406284 285.359816,57.8404088 C283.510771,55.8401892 281.199501,54.4829176 278.425935,53.7685535 C275.652369,53.0541893 272.41659,52.6970126 268.718502,52.6970126 L268.718502,49.6966981 L311.815238,49.6966981 L311.815238,52.6970126 C308.543852,53.2685039 305.841443,53.8757043 303.707931,54.5186321 C301.574419,55.1615598 299.832076,56.3759607 298.480852,58.1618711 C297.129627,59.9477815 296.134003,62.5194539 295.493949,65.8769654 C294.853895,69.234477 294.391641,73.9849274 294.107173,80.1284591 C293.964939,82.9859158 293.716033,86.3790946 293.360447,90.3080975 C293.004862,94.2371004 292.435934,98.308915 291.653646,102.523664 C290.871358,106.738412 289.804618,110.881662 288.453393,114.953538 C287.102169,119.025413 285.359826,122.704334 283.226314,125.990409 L293.040422,143.349371 C293.609359,144.349481 294.604983,145.635317 296.027325,147.206918 C297.449666,148.778519 299.440915,149.564308 302.00113,149.564308 C304.134642,149.564308 305.841426,148.849955 307.121534,147.421226 C308.401641,145.992498 309.432824,144.349485 310.215112,142.492138 C310.997399,140.634792 311.495212,138.848908 311.708563,137.134434 C311.921914,135.41996 312.028588,134.276994 312.028588,133.705503 C312.028588,132.991139 311.99303,132.348221 311.921913,131.77673 C311.850796,131.205238 311.673006,130.56232 311.388537,129.847956 L314.37544,129.847956 C314.517674,130.133702 314.659906,130.598031 314.80214,131.240959 C314.944375,131.883887 315.015491,132.562523 315.015491,133.276887 C315.015491,133.848378 314.873259,135.598544 314.58879,138.527437 C314.304322,141.45633 313.27314,144.563768 311.495213,147.849843 C309.717286,151.135918 306.943761,154.100485 303.174556,156.743632 C299.40535,159.386779 294.107207,160.708333 287.279967,160.708333 C281.021664,160.708333 276.185775,159.458215 272.772155,156.95794 C269.358535,154.457666 266.371662,151.493099 263.811448,148.064151 C261.677935,149.778625 259.580013,151.38592 257.517617,152.886085 C255.455222,154.38625 253.108393,155.707804 250.477061,156.850786 C247.845729,157.993769 244.823299,158.922428 241.409679,159.636792 C237.996059,160.351157 234.013562,160.708333 229.462069,160.708333 C218.652272,160.708333 209.905002,158.958167 203.219997,155.457783 C196.534991,151.957399 191.307964,147.742713 187.538758,142.813601 C183.769553,137.884488 181.209377,132.776861 179.858152,127.490566 C178.506927,122.204271 177.831325,117.703845 177.831325,113.989151 C177.831325,107.417001 179.146972,101.523585 181.778304,96.3087264 C184.409636,91.0938681 187.752088,86.3791353 191.805762,82.1643868 C195.859436,77.9496383 200.304187,74.163565 205.140148,70.8060535 C209.97611,67.4485419 214.669767,64.3411044 219.22126,61.4836478 C216.945513,55.4829889 215.238729,50.6611031 214.100856,47.0178459 C212.962982,43.3745887 212.394054,39.6956685 212.394054,35.9809748 C212.394054,31.5519171 213.283005,27.3015141 215.060932,23.2296384 C216.838859,19.1577627 219.221245,15.5145601 222.208163,12.2999214 C225.19508,9.08528267 228.608649,6.51361027 232.448971,4.58482704 C236.289294,2.65604382 240.200674,1.69166667 244.183231,1.69166667 C246.88568,1.69166667 249.445857,2.08456106 251.863837,2.87036164 C254.281818,3.65616221 256.415299,4.90628074 258.264343,6.62075472 C260.113387,8.3352287 261.571265,10.585442 262.638022,13.3714623 C263.704778,16.1574825 264.238148,19.5506613 264.238148,23.5511006 C264.238148,27.8372856 263.064734,32.3734299 260.71787,37.1596698 C258.371006,41.9459097 253.357327,46.9106661 245.676682,52.0540881 L281.519512,122.561478 Z M389.741465,36.3708333 L365.824441,94.7333333 L414.939759,94.7333333 L389.741465,36.3708333 Z M319.24957,155.178412 L337.164429,155.178412 L400.719526,0 L406.477873,0 L473.658596,155.178412 L492,155.178412 L492,158.170833 L420.340562,158.170833 L420.340562,155.178412 L440.174871,155.178412 L415.435303,97.8949212 L364.24999,97.8949212 L340.576783,155.178412 L359.558003,155.178412 L359.558003,158.170833 L319.24957,158.170833 L319.24957,155.178412 Z" id="Q&amp;A" fill="#F6F2EC" opacity="0.900714"></path>
                <g id="Group-11" transform="translate(113.000000, 101.000000)" fill="#FF8300">
                    <path d="M6.07115546,21.5966413 L6.07115546,14.0843734 L45.295043,14.0843734 L45.295043,21.5374895 L50.9830992,21.5374895 L50.9830992,8.76071895 L41.1475021,8.76071895 C42.3325138,7.10447091 43.5767761,5.15246429 44.7617878,2.90469909 L39.4292351,0.952692477 C38.2442234,3.6736714 36.7629587,6.27634689 35.1039423,8.76071895 L28.5271274,8.76071895 L28.5271274,0.183720172 L22.8390711,0.183720172 L22.8390711,8.76071895 L15.3142468,8.76071895 C14.1292351,5.92143659 12.8257222,3.49621625 11.4629587,1.36675449 L6.13040604,3.3187611 C7.43391892,4.97500914 8.61893063,6.80871233 9.62619058,8.76071895 L0.38309925,8.76071895 L0.38309925,21.5966413 L6.07115546,21.5966413 Z M28.4033931,55.2455172 L28.4033931,40.4224904 L41.5909046,40.4224904 L41.5909046,44.9879827 C41.5909046,46.4109932 40.7629891,47.1224985 39.1662948,47.1224985 L35.0267172,46.8853301 L36.5051378,52.2216198 L40.9995363,52.2216198 C45.0799771,52.2216198 47.1497659,50.2056881 47.1497659,46.2331169 L47.1497659,35.3233691 L28.4033931,35.3233691 L28.4033931,31.6472585 L41.5317678,31.6472585 L41.5317678,17.7729053 L9.83443075,17.7729053 L9.83443075,31.6472585 L22.7262581,31.6472585 L22.7262581,35.3233691 L4.21643258,35.3233691 L4.21643258,52.6366645 L9.7161571,52.6366645 L9.7161571,40.4224904 L22.7262581,40.4224904 L22.7262581,55.2455172 L28.4033931,55.2455172 Z M35.6497659,26.9498715 L14.9497659,26.9498715 L14.9497659,22.3613884 L35.6497659,22.3613884 L35.6497659,26.9498715 Z M60.9431353,55.2455172 C67.8282164,53.5891366 72.8301983,51.2228785 75.8902344,48.2058994 C78.8914236,45.0706074 80.5391353,40.9296558 80.8922164,35.723888 L88.2480722,35.723888 L88.2480722,47.2593962 C88.2480722,51.5778172 90.3077119,53.7666059 94.4269911,53.7666059 L104.372108,53.7666059 C106.725982,53.7666059 108.550234,53.2341979 109.727171,52.2876946 C110.962955,51.2228785 111.845658,47.9101171 112.316433,42.4677235 L107.13791,40.8113429 C106.902523,44.5381994 106.431748,46.7861445 105.843279,47.496022 C105.313658,48.146743 104.489802,48.5016817 103.312865,48.5016817 L96.1335497,48.5016817 C94.485838,48.5016817 93.720829,47.6734913 93.720829,46.1354236 L93.720829,35.723888 L104.607496,35.723888 L104.607496,2.47796172 L65.1801083,2.47796172 L65.1801083,35.723888 L75.4783065,35.723888 C75.1252254,39.3324315 73.8894416,42.2902542 71.6532614,44.6565123 C69.1816938,47.0227704 64.5916398,48.9749333 57.8830992,50.513001 L60.9431353,55.2455172 Z M98.5164326,12.4196751 L70.1497659,12.4196751 L70.1497659,7.83119199 L98.5164326,7.83119199 L98.5164326,12.4196751 Z M98.5164326,21.5966413 L70.1497659,21.5966413 L70.1497659,17.0081582 L98.5164326,17.0081582 L98.5164326,21.5966413 Z M98.5164326,30.7736074 L70.1497659,30.7736074 L70.1497659,26.1851243 L98.5164326,26.1851243 L98.5164326,30.7736074 Z M124.849676,55.2455172 L124.849676,26.193717 L141.449766,26.193717 L141.449766,2.47796172 L119.216433,2.47796172 L119.216433,55.2455172 L124.849676,55.2455172 Z M162.562586,55.2455172 C166.336945,55.2455172 168.283099,53.3418399 168.283099,49.5344853 L168.283099,2.47796172 L146.049766,2.47796172 L146.049766,26.2144382 L162.798484,26.2144382 L162.798484,47.6902979 C162.798484,49.1775458 162.031817,49.9509147 160.498484,49.9509147 C158.906176,49.9509147 157.19592,49.8319349 155.367715,49.6534651 L156.783099,55.0670475 C158.670279,55.1860273 160.616433,55.2455172 162.562586,55.2455172 Z M136.083099,12.4196751 L125.349766,12.4196751 L125.349766,7.83119199 L136.083099,7.83119199 L136.083099,12.4196751 Z M162.916433,12.4196751 L151.416433,12.4196751 L151.416433,7.83119199 L162.916433,7.83119199 L162.916433,12.4196751 Z M136.083099,21.5966413 L125.349766,21.5966413 L125.349766,17.0081582 L136.083099,17.0081582 L136.083099,21.5966413 Z M162.916433,21.5966413 L151.416433,21.5966413 L151.416433,17.0081582 L162.916433,17.0081582 L162.916433,21.5966413 Z M156.016433,48.3627926 L156.016433,30.0088602 L132.249766,30.0088602 L132.249766,48.3627926 L156.016433,48.3627926 Z M150.649766,43.0095623 L137.616433,43.0095623 L137.616433,34.5973433 L150.649766,34.5973433 L150.649766,43.0095623 Z M199.716433,23.8908828 L199.716433,2.47796172 L179.783099,2.47796172 L179.783099,23.8908828 L199.716433,23.8908828 Z M204.950055,47.5980454 C208.661986,45.6542298 211.835088,43.4158967 214.409491,40.9419495 L211.356129,38.3501954 L220.037257,38.3501954 L217.522723,40.7063355 C221.234654,43.0624757 224.108407,45.3008088 226.143981,47.4213349 L229.616433,43.9460282 C227.461118,42.0611161 224.886715,40.2351075 221.893222,38.3501954 L227.520988,38.3501954 L227.520988,10.7244522 L217.462853,10.7244522 C217.822072,9.60528564 218.121422,8.48611908 218.360901,7.30804901 L229.556563,7.30804901 L229.556563,2.47796172 L203.21383,2.47796172 L203.21383,7.30804901 L212.852875,7.30804901 C212.613396,8.48611908 212.373916,9.60528564 212.014697,10.7244522 L204.950055,10.7244522 L204.950055,38.3501954 L210.278472,38.3501954 C208.003417,40.411818 205.249404,42.2378266 202.016433,43.8282212 L204.950055,47.5980454 Z M194.349766,10.8901807 L185.149766,10.8901807 L185.149766,7.06644481 L194.349766,7.06644481 L194.349766,10.8901807 Z M221.949766,19.3023997 L209.683099,19.3023997 L209.683099,15.4786638 L221.949766,15.4786638 L221.949766,19.3023997 Z M194.349766,19.3023997 L185.149766,19.3023997 L185.149766,15.4786638 L194.349766,15.4786638 L194.349766,19.3023997 Z M221.949766,26.1851243 L209.683099,26.1851243 L209.683099,23.1261356 L221.949766,23.1261356 L221.949766,26.1851243 Z M179.164154,55.2455172 C180.827879,52.3509731 182.194509,49.2201397 183.204628,45.9120892 C185.403121,48.8066333 187.898707,50.8741649 190.750806,52.0556115 C194.256512,53.5324197 203.050484,54.30036 217.132723,54.30036 L229.4324,54.30036 L230.383099,48.747561 C227.313993,48.9735769 222.777053,49.0914982 216.720278,49.101325 L215.884929,49.101995 C204.238858,49.101995 196.752098,48.570344 193.543487,47.6251868 C193.484068,47.6251868 193.424649,47.5661144 193.365231,47.5661144 L193.365231,42.3086771 L200.970828,42.3086771 L200.970828,37.2875291 L193.365231,37.2875291 L193.365231,31.9119472 L201.980946,31.9119472 L201.980946,26.9498715 L177.143917,26.9498715 L177.143917,31.9119472 L188.433476,31.9119472 L188.433476,44.9078596 C187.007426,43.726413 185.700214,42.2496048 184.452421,40.4774349 C184.690096,38.705265 184.868352,36.8149505 184.98719,34.924636 L180.114854,34.3339127 C179.81776,40.7137242 178.154036,46.5618848 175.183099,51.7602498 L179.164154,55.2455172 Z M221.949766,34.5973433 L209.683099,34.5973433 L209.683099,30.7736074 L221.949766,30.7736074 L221.949766,34.5973433 Z" id="常見問題" fill-rule="nonzero"></path>
                    <rect id="Rectangle-10" x="128.216849" y="64.4507829" width="87" height="8"></rect>
                </g>
            </g>
        </g>
    </g>
</svg>