<?xml version="1.0" encoding="UTF-8"?>
<svg width="434px" height="53px" viewBox="0 0 434 53" version="1.1" xmlns="http://www.w3.org/2000/svg" xmlns:xlink="http://www.w3.org/1999/xlink">
    <!-- Generator: Sketch 63.1 (92452) - https://sketch.com -->
    <title>水無痕玻尿酸系列</title>
    <desc>Created with Sketch.</desc>
    <g id="Page-1" stroke="none" stroke-width="1" fill="none" fill-rule="evenodd">
        <g id="index" transform="translate(-121.000000, -4781.000000)" fill="#8C189B" fill-rule="nonzero">
            <path d="M145.19,4832.445 C148.765,4832.445 150.58,4830.465 150.58,4826.615 L150.58,4804.065 C154.595,4812.755 161.085,4820.73 169.995,4827.935 L173.295,4823.15 C166.64,4818.75 161.195,4813.195 156.96,4806.485 C161.47,4802.91 165.87,4798.565 170.05,4793.395 L165.815,4790.26 C162.46,4794.77 158.72,4798.84 154.595,4802.47 C153.055,4799.555 151.68,4796.475 150.58,4793.175 L150.58,4781.79 L145.3,4781.79 L145.3,4825.295 C145.3,4826.835 144.64,4827.66 143.375,4827.66 C141.285,4827.66 139.085,4827.55 136.775,4827.33 L137.93,4832.445 L145.19,4832.445 Z M125.17,4827.275 C133.585,4821.005 139.14,4811.765 141.78,4799.555 L141.78,4795.43 L123.685,4795.43 L123.685,4800.49 L136.61,4800.49 C133.915,4810.17 129.02,4817.705 121.87,4822.985 L125.17,4827.275 Z M180.61,4796.75 C182.59,4795.21 184.35,4793.505 185.89,4791.635 L224.665,4791.635 L224.665,4786.685 L189.08,4786.685 C189.74,4785.365 190.29,4783.935 190.785,4782.395 L185.725,4781.735 C184.295,4785.97 181.49,4789.6 177.42,4792.57 L180.61,4796.75 Z M226.535,4817.815 L226.535,4812.92 L220.815,4812.92 L220.815,4804.945 L225.82,4804.945 L225.82,4800.105 L220.815,4800.105 L220.815,4793.835 L215.755,4793.835 L215.755,4800.105 L210.64,4800.105 L210.64,4793.835 L205.635,4793.835 L205.635,4800.105 L200.41,4800.105 L200.41,4793.835 L195.35,4793.835 L195.35,4800.105 L190.235,4800.105 L190.235,4793.835 L185.23,4793.835 L185.23,4800.105 L179.235,4800.105 L179.235,4804.945 L185.23,4804.945 L185.23,4812.92 L178.465,4812.92 L178.465,4817.815 L226.535,4817.815 Z M195.35,4812.92 L190.235,4812.92 L190.235,4804.945 L195.35,4804.945 L195.35,4812.92 Z M205.635,4812.92 L200.41,4812.92 L200.41,4804.945 L205.635,4804.945 L205.635,4812.92 Z M215.755,4812.92 L210.64,4812.92 L210.64,4804.945 L215.755,4804.945 L215.755,4812.92 Z M223.015,4832.72 L227.36,4829.64 C225.655,4826.615 223.18,4823.095 219.99,4819.025 L215.975,4821.555 C218.945,4825.625 221.255,4829.365 223.015,4832.72 Z M182.7,4832.995 C185.34,4829.75 187.595,4825.9 189.465,4821.39 L185.12,4819.3 C183.25,4823.37 180.995,4826.89 178.465,4829.86 L182.7,4832.995 Z M208.66,4832.28 L213.885,4831.125 C212.785,4827.22 211.52,4823.59 210.09,4820.235 L205.305,4821.28 C206.625,4824.47 207.725,4828.1 208.66,4832.28 Z M195.79,4832.61 L201.015,4831.4 C200.135,4827.55 199.145,4823.92 198.045,4820.565 L193.205,4821.61 C194.195,4824.8 195.075,4828.43 195.79,4832.61 Z M237.26,4832.665 C242.87,4825.57 245.84,4816.11 246.115,4804.34 L246.115,4790.645 L282.14,4790.645 L282.14,4785.64 L263.935,4785.64 C263.385,4784.045 262.78,4782.615 262.23,4781.295 L256.95,4782.175 C257.555,4783.275 258.105,4784.43 258.6,4785.64 L240.945,4785.64 L240.945,4804.34 C240.945,4804.67 240.89,4805.11 240.89,4805.55 C238.25,4807.64 235.39,4809.51 232.2,4811.215 L233.74,4816.385 C236.16,4814.845 238.36,4813.195 240.34,4811.49 C239.35,4818.695 237.04,4824.58 233.3,4829.145 L237.26,4832.665 Z M236.435,4802.8 L240.835,4800.93 C239.515,4797.19 237.975,4793.615 236.215,4790.26 L231.815,4792.075 C233.465,4795.155 235.005,4798.73 236.435,4802.8 Z M249.415,4832.225 C255.96,4830.96 261.405,4829.64 265.75,4828.21 L264.595,4823.48 C261.515,4824.525 258.435,4825.405 255.355,4826.12 L255.355,4814.57 L277.85,4814.57 L277.85,4794.11 L250.24,4794.11 L250.24,4826.725 C250.24,4827.33 249.58,4827.77 248.26,4828.1 L249.415,4832.225 Z M272.79,4802.195 L255.355,4802.195 L255.355,4798.84 L272.79,4798.84 L272.79,4802.195 Z M272.79,4809.84 L255.355,4809.84 L255.355,4806.705 L272.79,4806.705 L272.79,4809.84 Z M280.05,4832.665 L283.02,4828.265 C279.5,4827.055 276.42,4825.515 273.67,4823.59 C276.09,4822.325 278.29,4820.62 280.27,4818.53 L276.915,4815.175 C274.715,4817.485 272.405,4819.3 270.04,4820.565 C268.555,4819.135 267.235,4817.485 266.08,4815.67 L262.395,4817.76 C266.135,4824.47 272.02,4829.475 280.05,4832.665 Z M310.96,4833.105 C315.91,4831.015 320.145,4828.32 323.61,4825.075 C326.8,4827.88 330.815,4830.465 335.545,4832.775 L338.46,4828.21 C333.95,4826.23 330.1,4823.975 326.965,4821.445 C330.045,4817.485 332.245,4812.865 333.51,4807.53 L333.51,4803.075 L324.215,4803.075 L324.215,4793.175 L331.31,4793.175 C330.65,4795.375 329.935,4797.3 329.055,4799.06 L333.95,4800.38 C335.27,4797.245 336.205,4794.055 336.755,4790.865 L336.755,4788.39 L324.215,4788.39 L324.215,4781.9 L319.045,4781.9 L319.045,4788.39 L306.34,4788.39 L306.34,4805.55 C306.12,4815.12 303.865,4822.985 299.575,4829.255 L303.59,4832.775 C308.265,4825.845 310.795,4817.54 311.18,4807.915 L312.775,4807.915 C313.985,4812.865 316.405,4817.43 320.035,4821.5 C316.735,4824.58 312.61,4827.055 307.605,4829.035 L310.96,4833.105 Z M288.08,4826.01 C293.47,4824.47 298.53,4822.545 303.37,4820.29 L303.37,4815.285 C301.83,4816.055 300.235,4816.77 298.585,4817.43 L298.585,4806.87 L303.59,4806.87 L303.59,4801.81 L298.585,4801.81 L298.585,4790.15 L304.305,4790.15 L304.305,4785.145 L287.53,4785.145 L287.53,4790.15 L293.36,4790.15 L293.36,4801.81 L287.86,4801.81 L287.86,4806.87 L293.36,4806.87 L293.36,4819.3 C291.16,4819.96 288.96,4820.51 286.76,4820.95 L288.08,4826.01 Z M319.045,4803.075 L311.235,4803.075 L311.235,4793.175 L319.045,4793.175 L319.045,4803.075 Z M323.28,4817.925 C320.585,4814.955 318.715,4811.655 317.615,4807.915 L328.285,4807.915 C327.185,4811.655 325.535,4814.955 323.28,4817.925 Z M346.38,4832.28 C350.67,4824.03 352.87,4814.185 352.925,4802.745 L352.925,4798.895 L389.005,4798.895 L389.005,4783.77 L347.755,4783.77 L347.755,4802.745 C347.7,4813.36 345.94,4822.05 342.42,4828.76 L346.38,4832.28 Z M383.835,4794.11 L352.925,4794.11 L352.925,4788.72 L383.835,4788.72 L383.835,4794.11 Z M370.195,4832.28 C373.605,4832.28 375.365,4830.465 375.365,4826.835 L375.365,4814.79 C379.105,4821.5 384.055,4826.34 390.215,4829.2 L393.13,4824.525 C388.18,4822.545 384.055,4819.465 380.81,4815.395 C382.68,4814.075 384.22,4812.755 385.43,4811.545 C386.97,4810.005 388.51,4807.97 390.05,4805.495 L385.76,4802.8 C384.55,4805 383.23,4806.87 381.8,4808.41 C380.7,4809.62 379.49,4810.665 378.17,4811.545 C377.07,4809.73 376.135,4807.75 375.365,4805.605 L375.365,4800.38 L370.25,4800.38 L370.25,4825.515 C370.25,4827.055 369.645,4827.88 368.49,4827.88 C366.95,4827.88 365.355,4827.77 363.705,4827.55 L364.75,4832.28 L370.195,4832.28 Z M354.465,4828.87 C361.56,4824.525 366.235,4818.2 368.435,4809.895 L368.435,4806.1 L354.52,4806.1 L354.52,4810.665 L363.485,4810.665 C361.175,4816.715 357.105,4821.39 351.275,4824.745 L354.465,4828.87 Z M422.665,4807.145 C427.395,4805.55 430.365,4801.645 431.575,4795.485 L435.315,4795.045 L435.315,4801.645 C435.315,4804.065 436.47,4805.275 438.89,4805.275 L447.305,4805.275 L447.305,4801.26 L440.925,4801.26 C439.99,4801.26 439.55,4800.765 439.55,4799.775 L439.55,4794.44 C440.155,4794.33 440.815,4794.275 441.53,4794.165 C442.135,4795.1 442.74,4796.09 443.29,4797.135 L447.14,4794.495 C445.49,4791.635 443.125,4788.39 440.045,4784.65 L436.47,4786.85 C437.35,4788.06 438.285,4789.27 439.165,4790.535 C436.415,4790.975 432.51,4791.47 427.45,4792.075 C429.76,4789.875 432.015,4786.96 434.325,4783.22 L429.485,4781.845 C426.515,4787.51 423.655,4791.03 420.85,4792.46 L421.675,4796.585 C423.325,4796.42 425.085,4796.255 426.9,4796.035 C425.8,4799.775 423.6,4802.195 420.19,4803.295 L422.665,4807.145 Z M421.95,4832.72 C426.79,4831.125 430.86,4829.09 434.215,4826.67 C437.625,4829.09 441.75,4830.96 446.48,4832.39 L448.185,4828.045 C444.28,4826.89 440.815,4825.35 437.845,4823.48 C440.76,4820.455 442.795,4816.88 443.95,4812.755 L443.95,4808.85 L433.17,4808.85 C433.94,4807.31 434.545,4805.66 435.095,4804.01 L430.64,4803.02 C429.705,4805.77 428.385,4808.3 426.625,4810.72 C426.295,4810.06 426.02,4809.29 425.745,4808.52 L421.95,4810.445 C422.39,4811.71 422.94,4812.975 423.6,4814.24 C422.5,4815.34 421.18,4816.44 419.75,4817.54 L419.75,4793.945 L414.36,4793.945 L414.36,4788.225 L420.74,4788.225 L420.74,4783.66 L397.86,4783.66 L397.86,4788.225 L404.075,4788.225 L404.075,4793.945 L398.685,4793.945 L398.685,4832.61 L402.92,4832.61 L402.92,4829.695 L419.75,4829.695 L419.75,4828.76 L421.95,4832.72 Z M410.51,4793.945 L407.925,4793.945 L407.925,4788.225 L410.51,4788.225 L410.51,4793.945 Z M402.92,4811.82 L402.92,4798.015 L405.505,4798.015 L405.505,4801.81 C405.45,4806.21 404.57,4809.51 402.92,4811.82 Z M415.515,4825.35 L402.92,4825.35 L402.92,4812.865 L404.515,4814.24 C406.77,4811.6 407.925,4807.475 407.98,4801.81 L407.98,4798.015 L410.455,4798.015 L410.455,4808.63 C410.455,4810.83 411.39,4811.93 413.37,4811.93 L415.515,4811.93 L415.515,4825.35 Z M415.515,4808.905 L414.085,4808.905 C413.315,4808.905 412.93,4808.52 412.93,4807.86 L412.93,4798.015 L415.515,4798.015 L415.515,4808.905 Z M434.16,4820.785 C432.18,4819.08 430.53,4817.21 429.1,4815.12 C429.65,4814.46 430.2,4813.745 430.75,4812.975 L439.165,4812.975 C438.12,4815.89 436.47,4818.475 434.16,4820.785 Z M414.25,4820.345 L414.25,4816.055 L404.24,4816.055 L404.24,4820.345 L414.25,4820.345 Z M419.75,4828.485 L419.75,4817.87 L422.5,4821.445 C423.765,4820.455 424.92,4819.465 426.02,4818.42 C427.34,4820.29 428.825,4822.05 430.585,4823.7 C427.67,4825.68 424.04,4827.275 419.75,4828.485 Z M459.515,4791.8 C467.105,4790.7 473.375,4789.545 478.38,4788.335 C482.89,4787.235 487.29,4785.86 491.69,4784.155 L489.16,4782.615 C485.31,4784.045 480.965,4785.255 476.125,4786.355 C470.845,4787.565 464.795,4788.555 457.92,4789.325 L459.515,4791.8 Z M475.685,4832.115 C478.27,4832.115 479.59,4830.85 479.59,4828.32 L479.59,4813.36 C485.09,4813.03 489.985,4812.59 494.275,4812.095 C495.485,4813.965 496.585,4815.725 497.575,4817.43 L499.94,4815.78 C497.685,4811.985 494.44,4807.53 490.205,4802.36 L488.005,4803.735 C489.655,4805.77 491.195,4807.805 492.625,4809.785 C485.2,4810.555 476.18,4811.16 465.62,4811.71 C473.815,4808.63 483.385,4803.295 494.385,4795.815 L491.58,4794.44 C488.94,4796.255 486.355,4797.96 483.88,4799.5 C478.27,4799.94 472.66,4800.325 466.995,4800.655 C472.66,4798.235 477.995,4795.045 483.055,4791.085 L480.8,4789.49 C473.76,4794.99 466.72,4798.675 459.57,4800.545 L460.01,4803.185 C466.555,4802.855 473.1,4802.47 479.7,4802.03 C472.33,4806.375 465.73,4809.455 459.845,4811.325 C459.075,4811.6 458.195,4811.765 457.205,4811.875 L458.03,4814.46 C464.74,4814.185 470.955,4813.855 476.675,4813.525 L476.675,4827.55 C476.675,4828.87 476.015,4829.53 474.695,4829.53 C472.825,4829.53 470.845,4829.42 468.81,4829.31 L469.415,4832.115 L475.685,4832.115 Z M498.07,4831.345 L500.16,4829.255 C496.585,4825.075 492.075,4820.84 486.685,4816.605 L484.76,4818.475 C490.37,4822.985 494.825,4827.275 498.07,4831.345 Z M455.72,4831.125 C461.22,4827.66 465.895,4823.645 469.69,4819.025 L467.655,4817.155 C463.915,4821.555 459.295,4825.46 453.85,4828.76 L455.72,4831.125 Z M549.825,4831.84 C553.18,4831.84 554.885,4830.08 554.885,4826.67 L554.885,4782.615 L551.915,4782.615 L551.915,4825.9 C551.915,4828.1 550.87,4829.2 548.78,4829.2 C546.525,4829.2 544.16,4829.145 541.63,4829.035 L542.29,4831.84 L549.825,4831.84 Z M510.28,4831.84 C522.27,4825.46 529.695,4814.46 532.61,4798.895 L532.61,4796.255 L519.19,4796.255 C519.96,4793.615 520.565,4790.81 520.95,4787.84 L535.525,4787.84 L535.525,4784.87 L509.07,4784.87 L509.07,4787.84 L518.035,4787.84 C516.88,4797.3 513.47,4804.725 507.805,4810.115 L509.235,4812.92 C510.775,4811.435 512.205,4809.785 513.525,4808.025 C517.485,4810.17 520.95,4812.48 523.81,4815.01 C520.18,4821.06 515.12,4825.79 508.74,4829.2 L510.28,4831.84 Z M543.115,4821.665 L543.115,4786.795 L540.145,4786.795 L540.145,4821.665 L543.115,4821.665 Z M525.185,4812.48 C522.325,4810.06 518.915,4807.805 515.065,4805.715 C516.275,4803.68 517.375,4801.48 518.255,4799.115 L529.805,4799.115 C528.76,4803.955 527.22,4808.41 525.185,4812.48 Z" id="水無痕玻尿酸系列"></path>
        </g>
    </g>
</svg>