<?xml version="1.0" encoding="UTF-8"?>
<svg width="260px" height="134px" viewBox="0 0 260 134" version="1.1" xmlns="http://www.w3.org/2000/svg" xmlns:xlink="http://www.w3.org/1999/xlink">
    <!-- Generator: Sketch 51.3 (57544) - http://www.bohemiancoding.com/sketch -->
    <title>Group 13 Copy</title>
    <desc>Created with Sketch.</desc>
    <defs></defs>
    <g id="Page-1" stroke="none" stroke-width="1" fill="none" fill-rule="evenodd">
        <g id="Group-13-Copy" fill="#D60057">
            <path d="M2.87866109,105.066127 C3.23849552,107.356737 4.07809661,110.039121 5.39748954,113.11336 C6.71688247,116.1876 8.63597067,119.080958 11.1548117,121.793522 C13.6736528,124.506086 16.8521426,126.826801 20.6903766,128.755735 C24.5286105,130.68467 29.206388,131.649123 34.7238494,131.649123 C40.6011451,131.649123 45.3089084,130.564113 48.8472803,128.394062 C52.3856523,126.224011 55.1143558,123.330652 57.0334728,119.7139 C58.9525898,116.097148 60.2119914,111.907806 60.8117155,107.145749 C61.4114395,102.383692 61.7112971,97.4107322 61.7112971,92.2267206 C61.7112971,88.8510852 61.5913541,85.2645264 61.3514644,81.4669366 C61.1115748,77.6693467 60.2719737,74.1430662 58.832636,70.8879892 C57.3932982,67.6329122 55.0843953,64.9505279 51.9058577,62.8407557 C48.7273202,60.7309836 44.1994715,59.6761134 38.3221757,59.6761134 C34.3639969,59.6761134 30.6457636,60.3391747 27.167364,61.6653171 C23.6889645,62.9914596 20.2106171,64.7395303 16.7322176,66.9095816 L15.292887,64.3778677 C19.2510658,61.8461412 23.0592565,60.0679313 26.7175732,59.0431849 C30.37589,58.0184384 34.3639951,57.0841248 38.6820084,56.2402159 C40.1213461,55.8785407 41.9804628,55.336036 44.2594142,54.6126856 C46.5383656,53.8893351 48.7573114,52.4727951 50.916318,50.3630229 C53.0753246,48.2532508 54.9344413,45.2393358 56.4937238,41.3211876 C58.0530064,37.4030393 58.832636,32.0684098 58.832636,25.317139 C58.832636,23.6293213 58.7426787,21.5195808 58.5627615,18.9878543 C58.3828443,16.4561277 57.7531435,13.9545783 56.6736402,11.4831309 C55.5941369,9.01168355 53.8849489,6.90194306 51.5460251,5.15384615 C49.2071013,3.40574924 45.8786827,2.5317139 41.5606695,2.5317139 C38.2022147,2.5317139 35.2636109,3.28519265 32.7447699,4.79217274 C30.2259288,6.29915283 28.9665272,8.86098057 28.9665272,12.4777328 C28.9665272,12.9599664 29.0564845,13.7134452 29.2364017,14.7381916 C29.4163189,15.7629381 29.5962334,16.8780866 29.7761506,18.0836707 C29.9560678,19.2892548 30.1059966,20.4044033 30.2259414,21.4291498 C30.3458862,22.4538963 30.4058577,23.1470967 30.4058577,23.5087719 C30.4058577,25.6788233 30.0160429,27.3364765 29.2364017,28.4817814 C28.4567604,29.6270862 27.4972163,30.4709824 26.3577406,31.0134953 C25.2182649,31.5560081 23.988849,31.8573996 22.6694561,31.9176788 C21.3500631,31.977958 20.150633,32.0080972 19.0711297,32.0080972 C16.7921783,32.0080972 14.5732326,31.4053142 12.4142259,30.1997301 C10.2552193,28.994146 9.17573222,26.7035706 9.17573222,23.3279352 C9.17573222,16.0944308 12.3542221,10.3981315 18.7112971,6.2388664 C25.0683721,2.07960134 33.6442975,0 44.4393305,0 C52.2357433,0 58.592723,0.964452794 63.5104603,2.89338731 C68.4281975,4.82232184 72.2663739,7.17317552 75.0251046,9.94601889 C77.7838353,12.7188623 79.6729377,15.6122206 80.6924686,18.6261808 C81.7119995,21.640141 82.2217573,24.2923862 82.2217573,26.582996 C82.2217573,31.2847738 81.172256,35.2932808 79.0732218,38.608637 C76.9741876,41.9239932 74.1555268,44.7570733 70.6171548,47.1079622 C67.0787829,49.4588512 62.9407489,51.4178959 58.2029289,52.9851552 C53.4651088,54.5524145 48.457488,55.9990937 43.1799163,57.3252362 L43.1799163,57.6869096 C48.6973777,58.6513768 54.0348417,59.9774994 59.1924686,61.6653171 C64.3500955,63.3531348 68.90793,65.6135711 72.8661088,68.4466937 C76.8242876,71.2798162 80.0027774,74.7759576 82.4016736,78.9352227 C84.8005699,83.0944877 86,88.1277257 86,94.0350877 C86,98.3751904 85.0404559,102.926202 83.1213389,107.688259 C81.2022219,112.450316 78.2636181,116.760215 74.3054393,120.618084 C70.3472605,124.475953 65.309654,127.670703 59.1924686,130.202429 C53.0752832,132.734156 45.7587595,134 37.2426778,134 C32.8047198,134 28.5767286,133.517774 24.5585774,132.553306 C20.5404262,131.588839 16.9121501,130.021603 13.6736402,127.851552 C10.4351303,125.681501 7.64645521,122.818281 5.30753138,119.261808 C2.96860755,115.705335 1.19944812,111.27488 0,105.97031 L2.87866109,105.066127 Z" id="3"></path>
            <path d="M260,131 L204.15864,131 L204.15864,128.480769 L221.201133,128.480769 L221.201133,16.375 C217.212445,18.5343515 213.223816,20.7536516 209.235127,23.032967 C205.246439,25.3122825 201.318244,27.5315826 197.450425,29.6909341 L196,27.3516484 C200.351297,24.832405 204.219058,22.6131048 207.603399,20.6936813 C210.987741,18.7742578 214.160514,16.8548631 217.121813,14.9354396 C220.083112,13.016016 223.074584,10.8866875 226.096317,8.54739011 C229.118051,6.2080927 232.441908,3.35899115 236.067989,0 L243.320113,0 L243.320113,128.480769 L260,128.480769 L260,131 Z" id="1-copy"></path>
            <path d="M112.428571,54.7524476 C112.428571,52.9137437 113.095231,51.328678 114.428571,49.9972028 C115.761911,48.6657276 117.349197,48 119.190476,48 C121.031755,48 122.619041,48.6657276 123.952381,49.9972028 C125.285721,51.328678 125.952381,52.9137437 125.952381,54.7524476 C125.952381,56.5911514 125.285721,58.1762171 123.952381,59.5076923 C122.619041,60.8391675 121.031755,61.5048951 119.190476,61.5048951 C117.349197,61.5048951 115.761911,60.8391675 114.428571,59.5076923 C113.095231,58.1762171 112.428571,56.5911514 112.428571,54.7524476 Z M107,75.2 L125,75.2 L125,114.668531 L131.380952,114.668531 L131.380952,116 L107,116 L107,114.668531 L113.380952,114.668531 L113.380952,76.5314685 L107,76.5314685 L107,75.2 Z M137.571429,114.668531 L143.857143,114.668531 L143.857143,76.5314685 L137.571429,76.5314685 L137.571429,75.2 L155.285714,75.2 L155.285714,84.7104895 L155.47619,84.7104895 C155.73016,84.1398573 156.1746,83.2680711 156.809524,82.0951049 C157.444448,80.9221387 158.365073,79.7650407 159.571429,78.6237762 C160.777784,77.4825118 162.333324,76.4839204 164.238095,75.627972 C166.142867,74.7720237 168.523795,74.3440559 171.380952,74.3440559 C175.57145,74.3440559 178.825385,75.5487059 181.142857,77.958042 C183.460329,80.367378 184.619048,83.6643147 184.619048,87.848951 L184.619048,114.668531 L191,114.668531 L191,116 L167.095238,116 L167.095238,114.668531 L173,114.668531 L173,84.6153846 C173,81.9524342 172.460323,80.0028034 171.380952,78.7664336 C170.301582,77.5300637 168.841279,76.9118881 167,76.9118881 C165.476183,76.9118881 164.01588,77.2764532 162.619048,78.0055944 C161.222215,78.7347356 160.000005,79.8284309 158.952381,81.2867133 C157.904757,82.7449956 157.063495,84.5519706 156.428571,86.7076923 C155.793648,88.863414 155.47619,91.3995192 155.47619,94.3160839 L155.47619,114.668531 L161.47619,114.668531 L161.47619,116 L137.571429,116 L137.571429,114.668531 Z" id="in"></path>
        </g>
    </g>
</svg>