<?xml version="1.0" encoding="UTF-8"?>
<svg width="730px" height="156px" viewBox="0 0 730 156" version="1.1" xmlns="http://www.w3.org/2000/svg" xmlns:xlink="http://www.w3.org/1999/xlink">
    <!-- Generator: Sketch 51.3 (57544) - http://www.bohemiancoding.com/sketch -->
    <title>Advantage</title>
    <desc>Created with Sketch.</desc>
    <defs></defs>
    <g id="Page-1" stroke="none" stroke-width="1" fill="none" fill-rule="evenodd" fill-opacity="0.15">
        <g id="index_v2" transform="translate(-547.000000, -3559.000000)" fill="#A0A4A6">
            <path d="M596.45,3584.65 L579.65,3625.6 L614.15,3625.6 L596.45,3584.65 Z M547.25,3667.9 L559.85,3667.9 L604.55,3559 L608.6,3559 L655.85,3667.9 L668.75,3667.9 L668.75,3670 L618.35,3670 L618.35,3667.9 L632.3,3667.9 L614.9,3627.7 L578.9,3627.7 L562.25,3667.9 L575.6,3667.9 L575.6,3670 L547.25,3670 L547.25,3667.9 Z M720.95,3637.9 C720.95,3634.59998 720.775002,3631.05002 720.425,3627.25 C720.074998,3623.44998 719.350005,3619.95002 718.25,3616.75 C717.149995,3613.54998 715.500011,3610.90001 713.3,3608.8 C711.099989,3606.69999 708.150018,3605.65 704.45,3605.65 C701.949988,3605.65 699.825009,3606.19999 698.075,3607.3 C696.324991,3608.40001 694.900006,3610.19999 693.8,3612.7 C692.699995,3615.20001 691.925002,3618.52498 691.475,3622.675 C691.024998,3626.82502 690.8,3631.89997 690.8,3637.9 C690.8,3642.80002 690.924999,3647.22498 691.175,3651.175 C691.425001,3655.12502 691.974996,3658.49999 692.825,3661.3 C693.675004,3664.10001 694.924992,3666.24999 696.575,3667.75 C698.225008,3669.25001 700.449986,3670 703.25,3670 C707.450021,3670 710.724988,3668.92501 713.075,3666.775 C715.425012,3664.62499 717.199994,3661.92502 718.4,3658.675 C719.600006,3655.42498 720.324999,3651.92502 720.575,3648.175 C720.825001,3644.42498 720.95,3641.00002 720.95,3637.9 Z M739.25,3667.9 L749.15,3667.9 L749.15,3670 L721.25,3670 L721.25,3658.9 L720.95,3658.9 C719.349992,3663.10002 717.125014,3666.32499 714.275,3668.575 C711.424986,3670.82501 707.750023,3671.95 703.25,3671.95 C698.349976,3671.95 693.90002,3671.00001 689.9,3669.1 C685.89998,3667.19999 682.475014,3664.67502 679.625,3661.525 C676.774986,3658.37498 674.550008,3654.75002 672.95,3650.65 C671.349992,3646.54998 670.55,3642.25002 670.55,3637.75 C670.55,3634.24998 671.174994,3630.50002 672.425,3626.5 C673.675006,3622.49998 675.624987,3618.80002 678.275,3615.4 C680.925013,3611.99998 684.29998,3609.17501 688.4,3606.925 C692.500021,3604.67499 697.449971,3603.55 703.25,3603.55 C707.750023,3603.55 711.399986,3604.59999 714.2,3606.7 C717.000014,3608.80001 719.149992,3611.94998 720.65,3616.15 L720.95,3616.15 L720.95,3563.95 L710.75,3563.95 L710.75,3561.85 L739.25,3561.85 L739.25,3667.9 Z M750.35,3605.65 L789.5,3605.65 L789.5,3607.75 L778.7,3607.75 L797.15,3649.3 L813.5,3607.75 L801.95,3607.75 L801.95,3605.65 L822.95,3605.65 L822.95,3607.75 L816.05,3607.75 L789.5,3674.05 L788.3,3674.05 L758.45,3607.75 L750.35,3607.75 L750.35,3605.65 Z M866,3632.8 L865.7,3632.8 C865.499999,3633.4 865.125003,3633.975 864.575,3634.525 C864.024997,3635.075 863.050007,3635.7 861.65,3636.4 C859.74999,3637.3 857.850009,3638.175 855.95,3639.025 C854.049991,3639.875 852.350008,3640.94999 850.85,3642.25 C849.349992,3643.55001 848.125005,3645.14999 847.175,3647.05 C846.224995,3648.95001 845.75,3651.39999 845.75,3654.4 C845.75,3655.60001 845.824999,3656.99999 845.975,3658.6 C846.125001,3660.20001 846.524997,3661.74999 847.175,3663.25 C847.825003,3664.75001 848.799994,3666.02499 850.1,3667.075 C851.400007,3668.12501 853.199989,3668.65 855.5,3668.65 C856.800006,3668.65 858.074994,3668.35 859.325,3667.75 C860.575006,3667.15 861.699995,3666.22501 862.7,3664.975 C863.700005,3663.72499 864.499997,3662.07501 865.1,3660.025 C865.700003,3657.97499 866,3655.50001 866,3652.6 L866,3632.8 Z M896.3,3667.6 C894.899993,3669.70001 892.875013,3670.95 890.225,3671.35 C887.574987,3671.75 885.100011,3671.95 882.8,3671.95 C877.699975,3671.95 873.925012,3671.05001 871.475,3669.25 C869.024988,3667.44999 867.500003,3664.95002 866.9,3661.75 L866.6,3661.75 C864.999992,3665.75002 862.800014,3668.44999 860,3669.85 C857.199986,3671.25001 853.150026,3671.95 847.85,3671.95 C845.449988,3671.95 843.000013,3671.7 840.5,3671.2 C837.999987,3670.7 835.70001,3669.90001 833.6,3668.8 C831.499989,3667.69999 829.800006,3666.17501 828.5,3664.225 C827.199994,3662.27499 826.55,3659.90001 826.55,3657.1 C826.55,3654.19999 827.124994,3651.77501 828.275,3649.825 C829.425006,3647.87499 830.924991,3646.22501 832.775,3644.875 C834.625009,3643.52499 836.724988,3642.425 839.075,3641.575 C841.425012,3640.725 843.849987,3639.9 846.35,3639.1 C850.45002,3637.89999 853.774987,3636.875 856.325,3636.025 C858.875013,3635.175 860.849993,3634.275 862.25,3633.325 C863.650007,3632.375 864.624997,3631.30001 865.175,3630.1 C865.725003,3628.89999 866,3627.35001 866,3625.45 L866,3616.3 C866,3613.59999 865.350007,3611.15001 864.05,3608.95 C862.749994,3606.74999 860.300018,3605.65 856.7,3605.65 C854.399989,3605.65 852.400009,3606.17499 850.7,3607.225 C848.999991,3608.27501 848.15,3610.19999 848.15,3613 C848.15,3613.3 848.199999,3613.825 848.3,3614.575 C848.400001,3615.325 848.5,3616.15 848.6,3617.05 C848.7,3617.95 848.8,3618.8 848.9,3619.6 C849,3620.4 849.05,3620.95 849.05,3621.25 C849.05,3622.75001 848.700003,3623.925 848,3624.775 C847.299997,3625.625 846.475005,3626.25 845.525,3626.65 C844.574995,3627.05 843.575005,3627.275 842.525,3627.325 C841.474995,3627.375 840.600003,3627.4 839.9,3627.4 C838.899995,3627.4 837.875005,3627.325 836.825,3627.175 C835.774995,3627.025 834.850004,3626.675 834.05,3626.125 C833.249996,3625.575 832.575003,3624.80001 832.025,3623.8 C831.474997,3622.79999 831.2,3621.45001 831.2,3619.75 C831.2,3617.14999 831.924993,3614.82501 833.375,3612.775 C834.825007,3610.72499 836.749988,3609.02501 839.15,3607.675 C841.550012,3606.32499 844.274985,3605.3 847.325,3604.6 C850.375015,3603.9 853.549984,3603.55 856.85,3603.55 C860.650019,3603.55 864.224983,3603.85 867.575,3604.45 C870.925017,3605.05 873.824988,3606.14999 876.275,3607.75 C878.725012,3609.35001 880.674993,3611.52499 882.125,3614.275 C883.575007,3617.02501 884.3,3620.49998 884.3,3624.7 L884.3,3661.9 C884.3,3663.80001 884.574997,3665.47499 885.125,3666.925 C885.675003,3668.37501 887.049989,3669.1 889.25,3669.1 C890.550006,3669.1 891.624996,3668.85 892.475,3668.35 C893.325004,3667.85 894.149996,3667.15 894.95,3666.25 L896.3,3667.6 Z M904.4,3667.9 L914.3,3667.9 L914.3,3607.75 L904.4,3607.75 L904.4,3605.65 L932.3,3605.65 L932.3,3620.65 L932.6,3620.65 C933.000002,3619.75 933.699995,3618.37501 934.7,3616.525 C935.700005,3614.67499 937.149991,3612.85001 939.05,3611.05 C940.95001,3609.24999 943.399985,3607.67501 946.4,3606.325 C949.400015,3604.97499 953.149977,3604.3 957.65,3604.3 C964.250033,3604.3 969.374982,3606.19998 973.025,3610 C976.675018,3613.80002 978.5,3618.99997 978.5,3625.6 L978.5,3667.9 L988.55,3667.9 L988.55,3670 L950.9,3670 L950.9,3667.9 L960.2,3667.9 L960.2,3620.5 C960.2,3616.29998 959.350009,3613.22501 957.65,3611.275 C955.949992,3609.32499 953.650014,3608.35 950.75,3608.35 C948.349988,3608.35 946.050011,3608.92499 943.85,3610.075 C941.649989,3611.22501 939.725008,3612.94999 938.075,3615.25 C936.424992,3617.55001 935.100005,3620.39998 934.1,3623.8 C933.099995,3627.20002 932.6,3631.19998 932.6,3635.8 L932.6,3667.9 L942.05,3667.9 L942.05,3670 L904.4,3670 L904.4,3667.9 Z M1007.75,3586.3 C1009.25001,3586.9 1010.77499,3587.4 1012.325,3587.8 C1013.87501,3588.2 1015.39999,3588.4 1016.9,3588.4 C1018.40001,3588.4 1019.92499,3588.2 1021.475,3587.8 C1023.02501,3587.4 1024.54999,3586.9 1026.05,3586.3 L1026.05,3605.65 L1043.6,3605.65 L1043.6,3607.75 L1026.05,3607.75 L1026.05,3658 C1026.05,3659.50001 1026.15,3660.89999 1026.35,3662.2 C1026.55,3663.50001 1026.925,3664.67499 1027.475,3665.725 C1028.025,3666.77501 1028.82499,3667.6 1029.875,3668.2 C1030.92501,3668.8 1032.29999,3669.1 1034,3669.1 C1035.90001,3669.1 1037.52499,3668.7 1038.875,3667.9 C1040.22501,3667.1 1041.39999,3666.07501 1042.4,3664.825 C1043.4,3663.57499 1044.225,3662.15001 1044.875,3660.55 C1045.525,3658.94999 1046.05,3657.40001 1046.45,3655.9 L1048.7,3656.35 C1048.1,3659.75002 1047.07501,3662.47499 1045.625,3664.525 C1044.17499,3666.57501 1042.52501,3668.14999 1040.675,3669.25 C1038.82499,3670.35001 1036.85001,3671.075 1034.75,3671.425 C1032.64999,3671.775 1030.65001,3671.95 1028.75,3671.95 C1023.54997,3671.95 1019.52501,3671.35001 1016.675,3670.15 C1013.82499,3668.94999 1011.72501,3667.45001 1010.375,3665.65 C1009.02499,3663.84999 1008.25,3661.90001 1008.05,3659.8 C1007.85,3657.69999 1007.75,3655.75001 1007.75,3653.95 L1007.75,3607.75 L997.7,3607.75 L997.7,3605.65 L1007.75,3605.65 L1007.75,3586.3 Z M1093.85,3632.8 L1093.55,3632.8 C1093.35,3633.4 1092.975,3633.975 1092.425,3634.525 C1091.875,3635.075 1090.90001,3635.7 1089.5,3636.4 C1087.59999,3637.3 1085.70001,3638.175 1083.8,3639.025 C1081.89999,3639.875 1080.20001,3640.94999 1078.7,3642.25 C1077.19999,3643.55001 1075.975,3645.14999 1075.025,3647.05 C1074.075,3648.95001 1073.6,3651.39999 1073.6,3654.4 C1073.6,3655.60001 1073.675,3656.99999 1073.825,3658.6 C1073.975,3660.20001 1074.375,3661.74999 1075.025,3663.25 C1075.675,3664.75001 1076.64999,3666.02499 1077.95,3667.075 C1079.25001,3668.12501 1081.04999,3668.65 1083.35,3668.65 C1084.65001,3668.65 1085.92499,3668.35 1087.175,3667.75 C1088.42501,3667.15 1089.55,3666.22501 1090.55,3664.975 C1091.55001,3663.72499 1092.35,3662.07501 1092.95,3660.025 C1093.55,3657.97499 1093.85,3655.50001 1093.85,3652.6 L1093.85,3632.8 Z M1124.15,3667.6 C1122.74999,3669.70001 1120.72501,3670.95 1118.075,3671.35 C1115.42499,3671.75 1112.95001,3671.95 1110.65,3671.95 C1105.54997,3671.95 1101.77501,3671.05001 1099.325,3669.25 C1096.87499,3667.44999 1095.35,3664.95002 1094.75,3661.75 L1094.45,3661.75 C1092.84999,3665.75002 1090.65001,3668.44999 1087.85,3669.85 C1085.04999,3671.25001 1081.00003,3671.95 1075.7,3671.95 C1073.29999,3671.95 1070.85001,3671.7 1068.35,3671.2 C1065.84999,3670.7 1063.55001,3669.90001 1061.45,3668.8 C1059.34999,3667.69999 1057.65001,3666.17501 1056.35,3664.225 C1055.04999,3662.27499 1054.4,3659.90001 1054.4,3657.1 C1054.4,3654.19999 1054.97499,3651.77501 1056.125,3649.825 C1057.27501,3647.87499 1058.77499,3646.22501 1060.625,3644.875 C1062.47501,3643.52499 1064.57499,3642.425 1066.925,3641.575 C1069.27501,3640.725 1071.69999,3639.9 1074.2,3639.1 C1078.30002,3637.89999 1081.62499,3636.875 1084.175,3636.025 C1086.72501,3635.175 1088.69999,3634.275 1090.1,3633.325 C1091.50001,3632.375 1092.475,3631.30001 1093.025,3630.1 C1093.575,3628.89999 1093.85,3627.35001 1093.85,3625.45 L1093.85,3616.3 C1093.85,3613.59999 1093.20001,3611.15001 1091.9,3608.95 C1090.59999,3606.74999 1088.15002,3605.65 1084.55,3605.65 C1082.24999,3605.65 1080.25001,3606.17499 1078.55,3607.225 C1076.84999,3608.27501 1076,3610.19999 1076,3613 C1076,3613.3 1076.05,3613.825 1076.15,3614.575 C1076.25,3615.325 1076.35,3616.15 1076.45,3617.05 C1076.55,3617.95 1076.65,3618.8 1076.75,3619.6 C1076.85,3620.4 1076.9,3620.95 1076.9,3621.25 C1076.9,3622.75001 1076.55,3623.925 1075.85,3624.775 C1075.15,3625.625 1074.325,3626.25 1073.375,3626.65 C1072.425,3627.05 1071.42501,3627.275 1070.375,3627.325 C1069.32499,3627.375 1068.45,3627.4 1067.75,3627.4 C1066.75,3627.4 1065.72501,3627.325 1064.675,3627.175 C1063.62499,3627.025 1062.7,3626.675 1061.9,3626.125 C1061.1,3625.575 1060.425,3624.80001 1059.875,3623.8 C1059.325,3622.79999 1059.05,3621.45001 1059.05,3619.75 C1059.05,3617.14999 1059.77499,3614.82501 1061.225,3612.775 C1062.67501,3610.72499 1064.59999,3609.02501 1067,3607.675 C1069.40001,3606.32499 1072.12498,3605.3 1075.175,3604.6 C1078.22502,3603.9 1081.39998,3603.55 1084.7,3603.55 C1088.50002,3603.55 1092.07498,3603.85 1095.425,3604.45 C1098.77502,3605.05 1101.67499,3606.14999 1104.125,3607.75 C1106.57501,3609.35001 1108.52499,3611.52499 1109.975,3614.275 C1111.42501,3617.02501 1112.15,3620.49998 1112.15,3624.7 L1112.15,3661.9 C1112.15,3663.80001 1112.425,3665.47499 1112.975,3666.925 C1113.525,3668.37501 1114.89999,3669.1 1117.1,3669.1 C1118.40001,3669.1 1119.475,3668.85 1120.325,3668.35 C1121.175,3667.85 1122,3667.15 1122.8,3666.25 L1124.15,3667.6 Z M1146.95,3693.4 C1146.95,3695.20001 1147.2,3697.14999 1147.7,3699.25 C1148.2,3701.35001 1149.14999,3703.32499 1150.55,3705.175 C1151.95001,3707.02501 1153.84999,3708.54999 1156.25,3709.75 C1158.65001,3710.95001 1161.74998,3711.55 1165.55,3711.55 C1168.45001,3711.55 1171.19999,3711.05001 1173.8,3710.05 C1176.40001,3709.04999 1178.67499,3707.65001 1180.625,3705.85 C1182.57501,3704.04999 1184.14999,3701.90001 1185.35,3699.4 C1186.55001,3696.89999 1187.15,3694.15002 1187.15,3691.15 C1187.15,3688.14999 1186.65,3685.72501 1185.65,3683.875 C1184.65,3682.02499 1183.40001,3680.55001 1181.9,3679.45 C1180.39999,3678.34999 1178.75001,3677.6 1176.95,3677.2 C1175.14999,3676.8 1173.50001,3676.6 1172,3676.6 L1156.4,3676.6 C1153.39999,3679.00001 1151.07501,3681.39999 1149.425,3683.8 C1147.77499,3686.20001 1146.95,3689.39998 1146.95,3693.4 Z M1164.35,3644.95 C1166.15001,3644.95 1167.74999,3644.725 1169.15,3644.275 C1170.55001,3643.825 1171.75,3642.92501 1172.75,3641.575 C1173.75,3640.22499 1174.525,3638.27501 1175.075,3635.725 C1175.625,3633.17499 1175.9,3629.85002 1175.9,3625.75 C1175.9,3622.84999 1175.8,3620.17501 1175.6,3617.725 C1175.4,3615.27499 1174.9,3613.15001 1174.1,3611.35 C1173.3,3609.54999 1172.15001,3608.15 1170.65,3607.15 C1169.14999,3606.15 1167.05001,3605.65 1164.35,3605.65 C1161.84999,3605.65 1159.80001,3606.17499 1158.2,3607.225 C1156.59999,3608.27501 1155.375,3609.64999 1154.525,3611.35 C1153.675,3613.05001 1153.1,3614.99999 1152.8,3617.2 C1152.5,3619.40001 1152.35,3621.64999 1152.35,3623.95 C1152.35,3628.65002 1152.65,3632.39999 1153.25,3635.2 C1153.85,3638.00001 1154.67499,3640.12499 1155.725,3641.575 C1156.77501,3643.02501 1158.04999,3643.95 1159.55,3644.35 C1161.05001,3644.75 1162.64999,3644.95 1164.35,3644.95 Z M1168.85,3659.35 C1172.65002,3659.35 1176.27498,3659.725 1179.725,3660.475 C1183.17502,3661.225 1186.19999,3662.49999 1188.8,3664.3 C1191.40001,3666.10001 1193.49999,3668.52498 1195.1,3671.575 C1196.70001,3674.62502 1197.5,3678.44998 1197.5,3683.05 C1197.5,3686.95002 1196.70001,3690.74998 1195.1,3694.45 C1193.49999,3698.15002 1191.15002,3701.44999 1188.05,3704.35 C1184.94998,3707.25001 1181.22502,3709.59999 1176.875,3711.4 C1172.52498,3713.20001 1167.55003,3714.1 1161.95,3714.1 C1155.64997,3714.1 1150.62502,3713.40001 1146.875,3712 C1143.12498,3710.59999 1140.25001,3708.92501 1138.25,3706.975 C1136.24999,3705.02499 1134.95,3703.02501 1134.35,3700.975 C1133.75,3698.92499 1133.45,3697.20001 1133.45,3695.8 C1133.45,3693.09999 1134.04999,3690.70001 1135.25,3688.6 C1136.45001,3686.49999 1138.02499,3684.67501 1139.975,3683.125 C1141.92501,3681.57499 1144.07499,3680.25001 1146.425,3679.15 C1148.77501,3678.04999 1151.09999,3677.2 1153.4,3676.6 L1153.4,3676.3 C1151.39999,3676.3 1149.12501,3676.05 1146.575,3675.55 C1144.02499,3675.05 1141.65001,3674.20001 1139.45,3673 C1137.24999,3671.79999 1135.40001,3670.15001 1133.9,3668.05 C1132.39999,3665.94999 1131.65,3663.35002 1131.65,3660.25 C1131.65,3659.75 1131.775,3658.85001 1132.025,3657.55 C1132.275,3656.24999 1132.85,3654.72501 1133.75,3652.975 C1134.65,3651.22499 1136.02499,3649.40001 1137.875,3647.5 C1139.72501,3645.59999 1142.19998,3643.80001 1145.3,3642.1 C1144.4,3641.4 1143.40001,3640.575 1142.3,3639.625 C1141.19999,3638.675 1140.175,3637.57501 1139.225,3636.325 C1138.275,3635.07499 1137.475,3633.62501 1136.825,3631.975 C1136.175,3630.32499 1135.85,3628.40001 1135.85,3626.2 C1135.85,3623.09998 1136.52499,3620.17501 1137.875,3617.425 C1139.22501,3614.67499 1141.14999,3612.27501 1143.65,3610.225 C1146.15001,3608.17499 1149.22498,3606.55001 1152.875,3605.35 C1156.52502,3604.14999 1160.59998,3603.55 1165.1,3603.55 C1169.60002,3603.55 1173.47498,3604.24999 1176.725,3605.65 C1179.97502,3607.05001 1182.74999,3608.64999 1185.05,3610.45 C1187.55001,3608.14999 1189.79999,3606.42501 1191.8,3605.275 C1193.80001,3604.12499 1196.44998,3603.55 1199.75,3603.55 C1202.65001,3603.55 1204.82499,3604.27499 1206.275,3605.725 C1207.72501,3607.17501 1208.45,3609.04999 1208.45,3611.35 C1208.45,3613.35001 1207.85001,3614.92499 1206.65,3616.075 C1205.44999,3617.22501 1203.85001,3617.8 1201.85,3617.8 C1200.44999,3617.8 1199.325,3617.6 1198.475,3617.2 C1197.625,3616.8 1196.975,3616.325 1196.525,3615.775 C1196.075,3615.225 1195.775,3614.625 1195.625,3613.975 C1195.475,3613.325 1195.35,3612.8 1195.25,3612.4 C1195.05,3610.99999 1194.85,3609.95 1194.65,3609.25 C1194.45,3608.55 1193.80001,3608.2 1192.7,3608.2 C1192.1,3608.2 1191.4,3608.425 1190.6,3608.875 C1189.8,3609.325 1188.40001,3610.24999 1186.4,3611.65 C1187.60001,3612.95001 1188.89999,3614.67499 1190.3,3616.825 C1191.70001,3618.97501 1192.4,3622.09998 1192.4,3626.2 C1192.4,3628.70001 1191.925,3631.17499 1190.975,3633.625 C1190.025,3636.07501 1188.47501,3638.29999 1186.325,3640.3 C1184.17499,3642.30001 1181.40002,3643.92499 1178,3645.175 C1174.59998,3646.42501 1170.40003,3647.05 1165.4,3647.05 C1161.39998,3647.05 1157.85002,3646.65 1154.75,3645.85 C1151.64998,3645.05 1149.10001,3644.25 1147.1,3643.45 C1144.19999,3645.35001 1142.5,3646.97499 1142,3648.325 C1141.5,3649.67501 1141.25,3650.89999 1141.25,3652 C1141.25,3654.50001 1142.24999,3656.34999 1144.25,3657.55 C1146.25001,3658.75001 1148.94998,3659.35 1152.35,3659.35 L1168.85,3659.35 Z M1256,3630.25 L1256,3620.2 C1256,3619.09999 1255.95,3617.75001 1255.85,3616.15 C1255.75,3614.54999 1255.4,3612.95001 1254.8,3611.35 C1254.2,3609.74999 1253.22501,3608.40001 1251.875,3607.3 C1250.52499,3606.19999 1248.65001,3605.65 1246.25,3605.65 C1242.84998,3605.65 1240.22501,3606.44999 1238.375,3608.05 C1236.52499,3609.65001 1235.15,3611.67499 1234.25,3614.125 C1233.35,3616.57501 1232.775,3619.22499 1232.525,3622.075 C1232.275,3624.92501 1232.1,3627.64999 1232,3630.25 L1256,3630.25 Z M1232,3632.35 L1232,3639.1 C1232,3642.70002 1232.15,3646.32498 1232.45,3649.975 C1232.75,3653.62502 1233.54999,3656.92499 1234.85,3659.875 C1236.15001,3662.82501 1238.04999,3665.24999 1240.55,3667.15 C1243.05001,3669.05001 1246.54998,3670 1251.05,3670 C1255.05002,3670 1258.42499,3669.25001 1261.175,3667.75 C1263.92501,3666.24999 1266.17499,3664.52501 1267.925,3662.575 C1269.67501,3660.62499 1270.975,3658.70001 1271.825,3656.8 C1272.675,3654.89999 1273.15,3653.5 1273.25,3652.6 L1275.35,3653.35 C1274.85,3655.25001 1274.00001,3657.27499 1272.8,3659.425 C1271.59999,3661.57501 1269.95001,3663.57499 1267.85,3665.425 C1265.74999,3667.27501 1263.15002,3668.82499 1260.05,3670.075 C1256.94998,3671.32501 1253.20002,3671.95 1248.8,3671.95 C1243.59997,3671.95 1238.75002,3671.17501 1234.25,3669.625 C1229.74998,3668.07499 1225.82502,3665.82501 1222.475,3662.875 C1219.12498,3659.92499 1216.50001,3656.32502 1214.6,3652.075 C1212.69999,3647.82498 1211.75,3643.00003 1211.75,3637.6 C1211.75,3633.29998 1212.64999,3629.10002 1214.45,3625 C1216.25001,3620.89998 1218.72498,3617.27502 1221.875,3614.125 C1225.02502,3610.97498 1228.72498,3608.42501 1232.975,3606.475 C1237.22502,3604.52499 1241.79998,3603.55 1246.7,3603.55 C1250.20002,3603.55 1253.69998,3604.09999 1257.2,3605.2 C1260.70002,3606.30001 1263.84999,3607.99999 1266.65,3610.3 C1269.45001,3612.60001 1271.74999,3615.57498 1273.55,3619.225 C1275.35001,3622.87502 1276.25,3627.24997 1276.25,3632.35 L1232,3632.35 Z" id="Advantage"></path>
        </g>
    </g>
</svg>