<?xml version="1.0" encoding="UTF-8"?>
<svg width="266px" height="90px" viewBox="0 0 266 90" version="1.1" xmlns="http://www.w3.org/2000/svg" xmlns:xlink="http://www.w3.org/1999/xlink">
    <!-- Generator: Sketch 51.3 (57544) - http://www.bohemiancoding.com/sketch -->
    <title>CPM</title>
    <desc>Created with Sketch.</desc>
    <defs></defs>
    <g id="Page-1" stroke="none" stroke-width="1" fill="none" fill-rule="evenodd" opacity="0.1">
        <g id="index_v2" transform="translate(-682.000000, -2530.000000)" fill="#A0A4A6">
            <path d="M754.84,2557.04 L753.28,2557.04 C752.399996,2554.39999 751.340006,2551.62001 750.1,2548.7 C748.859994,2545.77999 747.26001,2543.10001 745.3,2540.66 C743.33999,2538.21999 740.900015,2536.22001 737.98,2534.66 C735.059985,2533.09999 731.440022,2532.32 727.12,2532.32 C721.279971,2532.32 716.680017,2533.39999 713.32,2535.56 C709.959983,2537.72001 707.420009,2540.71998 705.7,2544.56 C703.979991,2548.40002 702.880002,2552.97997 702.4,2558.3 C701.919998,2563.62003 701.68,2569.43997 701.68,2575.76 C701.68,2584.08004 702.159995,2590.95997 703.12,2596.4 C704.080005,2601.84003 705.57999,2606.15998 707.62,2609.36 C709.66001,2612.56002 712.299984,2614.79999 715.54,2616.08 C718.780016,2617.36001 722.639978,2618 727.12,2618 C730.720018,2618 733.979985,2617.28001 736.9,2615.84 C739.820015,2614.39999 742.399989,2612.50001 744.64,2610.14 C746.880011,2607.77999 748.759992,2605.08002 750.28,2602.04 C751.800008,2598.99998 752.919996,2595.84002 753.64,2592.56 L755.56,2592.56 L755.56,2618 L753.64,2618 C753.239998,2617.04 752.760003,2616.38 752.2,2616.02 C751.639997,2615.66 750.800006,2615.48 749.68,2615.48 C748.719995,2615.48 747.480008,2615.7 745.96,2616.14 C744.439992,2616.58 742.70001,2617.06 740.74,2617.58 C738.77999,2618.1 736.640012,2618.58 734.32,2619.02 C731.999988,2619.46 729.560013,2619.68 727,2619.68 C721.159971,2619.68 715.520027,2618.54001 710.08,2616.26 C704.639973,2613.97999 699.860021,2610.86002 695.74,2606.9 C691.619979,2602.93998 688.320012,2598.28003 685.84,2592.92 C683.359988,2587.55997 682.12,2581.76003 682.12,2575.52 C682.12,2568.71997 683.499986,2562.56003 686.26,2557.04 C689.020014,2551.51997 692.559978,2546.80002 696.88,2542.88 C701.200022,2538.95998 706.019973,2535.94001 711.34,2533.82 C716.660027,2531.69999 721.879974,2530.64 727,2530.64 C729.560013,2530.64 731.939989,2530.88 734.14,2531.36 C736.340011,2531.84 738.379991,2532.34 740.26,2532.86 C742.140009,2533.38 743.839992,2533.88 745.36,2534.36 C746.880008,2534.84 748.159995,2535.08 749.2,2535.08 C750.320006,2535.08 751.159997,2534.94 751.72,2534.66 C752.280003,2534.38 752.679999,2533.68001 752.92,2532.56 L754.84,2532.56 L754.84,2557.04 Z M795.16,2575.64 L798.88,2575.64 C805.680034,2575.64 810.599985,2574.10002 813.64,2571.02 C816.680015,2567.93998 818.2,2562.72004 818.2,2555.36 C818.2,2548.39997 816.880013,2543.08002 814.24,2539.4 C811.599987,2535.71998 806.800035,2533.88 799.84,2533.88 C798.959996,2533.88 798.120004,2533.92 797.32,2534 C796.519996,2534.08 795.800003,2534.16 795.16,2534.24 L795.16,2575.64 Z M795.16,2616.32 L806.2,2616.32 L806.2,2618 L766.72,2618 L766.72,2616.32 L777.76,2616.32 L777.76,2534.24 L766.72,2534.24 L766.72,2532.56 L777.76,2532.56 C781.84002,2532.56 785.91998,2532.5 790,2532.38 C794.08002,2532.26 798.15998,2532.2 802.24,2532.2 C805.840018,2532.2 809.719979,2532.5 813.88,2533.1 C818.040021,2533.7 821.879982,2534.81999 825.4,2536.46 C828.920018,2538.10001 831.859988,2540.37999 834.22,2543.3 C836.580012,2546.22001 837.76,2549.99998 837.76,2554.64 C837.76,2557.76002 837.000008,2560.69999 835.48,2563.46 C833.959992,2566.22001 831.640016,2568.61999 828.52,2570.66 C825.399984,2572.70001 821.480024,2574.31999 816.76,2575.52 C812.039976,2576.72001 806.480032,2577.32 800.08,2577.32 L795.16,2577.32 L795.16,2616.32 Z M844.48,2532.56 L875.32,2532.56 L896.08,2592.32 L896.32,2592.32 L917.44,2532.56 L947.44,2532.56 L947.44,2534.24 L936.4,2534.24 L936.4,2616.32 L947.44,2616.32 L947.44,2618 L908.08,2618 L908.08,2616.32 L919,2616.32 L919,2534.24 L918.76,2534.24 L889.24,2618 L887.32,2618 L857.68,2534.24 L857.44,2534.24 L857.44,2616.32 L868.48,2616.32 L868.48,2618 L844.48,2618 L844.48,2616.32 L855.52,2616.32 L855.52,2534.24 L844.48,2534.24 L844.48,2532.56 Z" id="CPM"></path>
        </g>
    </g>
</svg>