<?xml version="1.0" encoding="UTF-8"?>
<svg width="471px" height="151px" viewBox="0 0 471 151" version="1.1" xmlns="http://www.w3.org/2000/svg" xmlns:xlink="http://www.w3.org/1999/xlink">
    <!-- Generator: Sketch 63.1 (92452) - https://sketch.com -->
    <title>Beauty</title>
    <desc>Created with Sketch.</desc>
    <g id="Page-1" stroke="none" stroke-width="1" fill="none" fill-rule="evenodd" fill-opacity="0.1">
        <g id="index" transform="translate(-725.000000, -6970.000000)" fill="#A0A4A6" fill-rule="nonzero">
            <path d="M772.95,7078.3 C776.75,7078.3 781.05,7077.875 785.85,7077.025 C790.65,7076.175 795.175,7074.65 799.425,7072.45 C803.675,7070.25 807.275,7067.25 810.225,7063.45 C813.175,7059.65 814.65,7054.85 814.65,7049.05 C814.65,7043.75 813.5,7039.35 811.2,7035.85 C808.9,7032.35 806,7029.525 802.5,7027.375 C799,7025.225 795.15,7023.65 790.95,7022.65 C786.75,7021.65 782.7,7021 778.8,7020.7 L778.8,7020.1 C781.2,7019.8 784.125,7019.15 787.575,7018.15 C791.025,7017.15 794.35,7015.7 797.55,7013.8 C800.75,7011.9 803.475,7009.475 805.725,7006.525 C807.975,7003.575 809.1,6999.95 809.1,6995.65 C809.1,6990.85 807.95,6986.85 805.65,6983.65 C803.35,6980.45 800.425,6977.9 796.875,6976 C793.325,6974.1 789.4,6972.75 785.1,6971.95 C780.8,6971.15 776.7,6970.75 772.8,6970.75 C768.6,6970.75 764.45,6970.825 760.35,6970.975 C756.25,6971.125 752.1,6971.2 747.9,6971.2 L725.25,6971.2 L725.25,6973.3 L739.05,6973.3 L739.05,7075.9 L725.25,7075.9 L725.25,7078 L747.9,7078 C751.26,7078 754.604,7078.032 757.932,7078.096 L760.425,7078.15 C764.575,7078.25 768.75,7078.3 772.95,7078.3 Z M766.95,7019.65 L760.8,7019.65 L760.8,6973.3 C761.9,6973.2 763,6973.1 764.1,6973 C765.2,6972.9 766.3,6972.85 767.4,6972.85 C771.2,6972.85 774.325,6973.35 776.775,6974.35 C779.225,6975.35 781.15,6976.875 782.55,6978.925 C783.95,6980.975 784.95,6983.575 785.55,6986.725 C786.15,6989.875 786.45,6993.65 786.45,6998.05 C786.45,7000.75 786.275,7003.4 785.925,7006 C785.575,7008.6 784.75,7010.925 783.45,7012.975 C782.15,7015.025 780.2,7016.65 777.6,7017.85 C775,7019.05 771.45,7019.65 766.95,7019.65 Z M769.5,7076.35 C766.4,7076.35 763.5,7076.2 760.8,7075.9 L760.8,7021.75 L769.5,7021.75 C774.5,7021.75 778.375,7022.775 781.125,7024.825 C783.875,7026.875 785.925,7029.3 787.275,7032.1 C788.625,7034.9 789.45,7037.725 789.75,7040.575 C790.05,7043.425 790.2,7045.7 790.2,7047.4 C790.2,7053.5 789.725,7058.425 788.775,7062.175 C787.825,7065.925 786.45,7068.85 784.65,7070.95 C782.85,7073.05 780.675,7074.475 778.125,7075.225 C775.575,7075.975 772.7,7076.35 769.5,7076.35 Z M865.05,7079.95 C869.45,7079.95 873.2,7079.325 876.3,7078.075 C879.4,7076.825 882,7075.275 884.1,7073.425 C886.2,7071.575 887.85,7069.575 889.05,7067.425 C890.25,7065.275 891.1,7063.25 891.6,7061.35 L889.5,7060.6 C889.4,7061.5 888.925,7062.9 888.075,7064.8 C887.225,7066.7 885.925,7068.625 884.175,7070.575 C882.425,7072.525 880.175,7074.25 877.425,7075.75 C874.675,7077.25 871.3,7078 867.3,7078 C862.8,7078 859.3,7077.05 856.8,7075.15 C854.3,7073.25 852.4,7070.825 851.1,7067.875 C849.8,7064.925 849,7061.625 848.7,7057.975 C848.4,7054.325 848.25,7050.7 848.25,7047.1 L848.25,7040.35 L892.5,7040.35 C892.5,7035.25 891.6,7030.875 889.8,7027.225 C888,7023.575 885.7,7020.6 882.9,7018.3 C880.1,7016 876.95,7014.3 873.45,7013.2 C869.95,7012.1 866.45,7011.55 862.95,7011.55 C858.05,7011.55 853.475,7012.525 849.225,7014.475 C844.975,7016.425 841.275,7018.975 838.125,7022.125 C834.975,7025.275 832.5,7028.9 830.7,7033 C828.9,7037.1 828,7041.3 828,7045.6 C828,7051 828.95,7055.825 830.85,7060.075 C832.75,7064.325 835.375,7067.925 838.725,7070.875 C842.075,7073.825 846,7076.075 850.5,7077.625 C855,7079.175 859.85,7079.95 865.05,7079.95 Z M872.25,7038.25 L848.25,7038.25 C848.35,7035.65 848.525,7032.925 848.775,7030.075 C849.025,7027.225 849.6,7024.575 850.5,7022.125 C851.4,7019.675 852.775,7017.65 854.625,7016.05 C856.475,7014.45 859.1,7013.65 862.5,7013.65 C864.9,7013.65 866.775,7014.2 868.125,7015.3 C869.475,7016.4 870.45,7017.75 871.05,7019.35 C871.65,7020.95 872,7022.55 872.1,7024.15 C872.2,7025.75 872.25,7027.1 872.25,7028.2 L872.25,7038.25 Z M960.3,7079.95 C962.6,7079.95 965.075,7079.75 967.725,7079.35 C970.375,7078.95 972.4,7077.7 973.8,7075.6 L972.45,7074.25 C971.65,7075.15 970.825,7075.85 969.975,7076.35 C969.125,7076.85 968.05,7077.1 966.75,7077.1 C964.55,7077.1 963.175,7076.375 962.625,7074.925 C962.075,7073.475 961.8,7071.8 961.8,7069.9 L961.8,7032.7 C961.8,7028.5 961.075,7025.025 959.625,7022.275 C958.175,7019.525 956.225,7017.35 953.775,7015.75 C951.325,7014.15 948.425,7013.05 945.075,7012.45 C941.725,7011.85 938.15,7011.55 934.35,7011.55 C931.05,7011.55 927.875,7011.9 924.825,7012.6 C921.775,7013.3 919.05,7014.325 916.65,7015.675 C914.25,7017.025 912.325,7018.725 910.875,7020.775 C909.425,7022.825 908.7,7025.15 908.7,7027.75 C908.7,7029.45 908.975,7030.8 909.525,7031.8 C910.075,7032.8 910.75,7033.575 911.55,7034.125 C912.35,7034.675 913.275,7035.025 914.325,7035.175 C915.375,7035.325 916.4,7035.4 917.4,7035.4 C918.1,7035.4 918.975,7035.375 920.025,7035.325 C921.075,7035.275 922.075,7035.05 923.025,7034.65 C923.975,7034.25 924.8,7033.625 925.5,7032.775 C926.2,7031.925 926.55,7030.75 926.55,7029.25 C926.55,7028.95 926.5,7028.4 926.4,7027.6 C926.325,7027 926.25,7026.37187 926.175,7025.71562 L926.1,7025.05 C926,7024.15 925.9,7023.325 925.8,7022.575 C925.7,7021.825 925.65,7021.3 925.65,7021 C925.65,7018.2 926.5,7016.275 928.2,7015.225 C929.9,7014.175 931.9,7013.65 934.2,7013.65 C937.8,7013.65 940.25,7014.75 941.55,7016.95 C942.85,7019.15 943.5,7021.6 943.5,7024.3 L943.5,7033.45 C943.5,7035.35 943.225,7036.9 942.675,7038.1 C942.125,7039.3 941.15,7040.375 939.75,7041.325 C938.35,7042.275 936.375,7043.175 933.825,7044.025 C931.275,7044.875 927.95,7045.9 923.85,7047.1 C921.35,7047.9 918.925,7048.725 916.575,7049.575 C914.225,7050.425 912.125,7051.525 910.275,7052.875 C908.425,7054.225 906.925,7055.875 905.775,7057.825 C904.625,7059.775 904.05,7062.2 904.05,7065.1 C904.05,7067.9 904.7,7070.275 906,7072.225 C907.3,7074.175 909,7075.7 911.1,7076.8 C913.2,7077.9 915.5,7078.7 918,7079.2 C920.5,7079.7 922.95,7079.95 925.35,7079.95 C930.65,7079.95 934.7,7079.25 937.5,7077.85 C940.3,7076.45 942.5,7073.75 944.1,7069.75 L944.4,7069.75 C945,7072.95 946.525,7075.45 948.975,7077.25 C951.425,7079.05 955.2,7079.95 960.3,7079.95 Z M933,7076.65 C930.7,7076.65 928.9,7076.125 927.6,7075.075 C926.3,7074.025 925.325,7072.75 924.675,7071.25 C924.025,7069.75 923.625,7068.2 923.475,7066.6 C923.325,7065 923.25,7063.6 923.25,7062.4 C923.25,7059.4 923.725,7056.95 924.675,7055.05 C925.625,7053.15 926.85,7051.55 928.35,7050.25 C929.85,7048.95 931.55,7047.875 933.45,7047.025 C935.35,7046.175 937.25,7045.3 939.15,7044.4 C940.55,7043.7 941.525,7043.075 942.075,7042.525 C942.625,7041.975 943,7041.4 943.2,7040.8 L943.5,7040.8 L943.5,7060.6 C943.5,7063.5 943.2,7065.975 942.6,7068.025 C942,7070.075 941.2,7071.725 940.2,7072.975 C939.2,7074.225 938.075,7075.15 936.825,7075.75 C935.575,7076.35 934.3,7076.65 933,7076.65 Z M1011.3,7079.2 C1013.5,7079.2 1015.75,7078.925 1018.05,7078.375 C1020.35,7077.825 1022.525,7076.975 1024.575,7075.825 C1026.625,7074.675 1028.45,7073.275 1030.05,7071.625 C1031.65,7069.975 1032.85,7068.05 1033.65,7065.85 L1033.95,7065.85 L1033.95,7078 L1061.85,7078 L1061.85,7075.9 L1051.95,7075.9 L1051.95,7013.65 L1023.75,7013.65 L1023.75,7015.75 L1033.65,7015.75 L1033.65,7054.45 C1033.65,7057.15 1033.275,7059.75 1032.525,7062.25 C1031.775,7064.75 1030.725,7066.925 1029.375,7068.775 C1028.025,7070.625 1026.4,7072.1 1024.5,7073.2 C1022.6,7074.3 1020.5,7074.85 1018.2,7074.85 C1014.4,7074.85 1011.75,7073.525 1010.25,7070.875 C1008.75,7068.225 1008,7065 1008,7061.2 L1008,7013.65 L979.65,7013.65 L979.65,7015.75 L989.7,7015.75 L989.7,7059.1 C989.7,7066.4 991.55,7071.575 995.25,7074.625 C998.95,7077.675 1004.3,7079.2 1011.3,7079.2 Z M1103.4,7079.95 C1105.3,7079.95 1107.3,7079.775 1109.4,7079.425 C1111.5,7079.075 1113.475,7078.35 1115.325,7077.25 C1117.175,7076.15 1118.825,7074.575 1120.275,7072.525 C1121.725,7070.475 1122.75,7067.75 1123.35,7064.35 L1121.1,7063.9 C1120.7,7065.4 1120.175,7066.95 1119.525,7068.55 C1118.875,7070.15 1118.05,7071.575 1117.05,7072.825 C1116.05,7074.075 1114.875,7075.1 1113.525,7075.9 C1112.175,7076.7 1110.55,7077.1 1108.65,7077.1 C1106.95,7077.1 1105.575,7076.8 1104.525,7076.2 C1103.475,7075.6 1102.675,7074.775 1102.125,7073.725 C1101.575,7072.675 1101.2,7071.5 1101,7070.2 C1100.8,7068.9 1100.7,7067.5 1100.7,7066 L1100.7,7015.75 L1118.25,7015.75 L1118.25,7013.65 L1100.7,7013.65 L1100.7,6994.3 C1099.2,6994.9 1097.675,6995.4 1096.125,6995.8 C1094.575,6996.2 1093.05,6996.4 1091.55,6996.4 C1090.05,6996.4 1088.525,6996.2 1086.975,6995.8 C1085.425,6995.4 1083.9,6994.9 1082.4,6994.3 L1082.4,7013.65 L1072.35,7013.65 L1072.35,7015.75 L1082.4,7015.75 L1082.4,7061.95 C1082.4,7063.75 1082.5,7065.7 1082.7,7067.8 C1082.9,7069.9 1083.675,7071.85 1085.025,7073.65 C1086.375,7075.45 1088.475,7076.95 1091.325,7078.15 C1094.175,7079.35 1098.2,7079.95 1103.4,7079.95 Z M1133.25,7120.9 C1137.45,7120.9 1140.8,7119.85 1143.3,7117.75 C1145.8,7115.65 1148.05,7112.35 1150.05,7107.85 C1152.05,7103.55 1154.175,7098.575 1156.425,7092.925 C1158.675,7087.275 1161.275,7080.75 1164.225,7073.35 C1167.175,7065.95 1170.65,7057.5 1174.65,7048 C1178.65,7038.5 1183.45,7027.75 1189.05,7015.75 L1195.95,7015.75 L1195.95,7013.65 L1174.2,7013.65 L1174.2,7015.75 L1186.65,7015.75 L1167.6,7059.1 L1149.3,7015.75 L1159.8,7015.75 L1159.8,7013.65 L1121.7,7013.65 L1121.7,7015.75 L1129.65,7015.75 L1157.85,7083.25 L1151.4,7099.3 C1150.7,7101.1 1149.875,7103.1 1148.925,7105.3 C1147.975,7107.5 1146.875,7109.575 1145.625,7111.525 C1144.375,7113.475 1142.975,7115.1 1141.425,7116.4 C1139.875,7117.7 1138.2,7118.35 1136.4,7118.35 C1135.6,7118.35 1134.9,7118.075 1134.3,7117.525 C1133.7,7116.975 1133.4,7116.15 1133.4,7115.05 C1133.4,7113.55 1133.725,7112.25 1134.375,7111.15 C1135.025,7110.05 1135.35,7108.6 1135.35,7106.8 C1135.35,7104.7 1134.5,7103.125 1132.8,7102.075 C1131.1,7101.025 1129.3,7100.5 1127.4,7100.5 C1124.8,7100.5 1122.575,7101.15 1120.725,7102.45 C1118.875,7103.75 1117.95,7105.85 1117.95,7108.75 C1117.95,7112.55 1119.375,7115.525 1122.225,7117.675 C1125.075,7119.825 1128.75,7120.9 1133.25,7120.9 Z" id="Beauty"></path>
        </g>
    </g>
</svg>