<?xml version="1.0" encoding="UTF-8"?>
<svg width="952px" height="153px" viewBox="0 0 952 153" version="1.1" xmlns="http://www.w3.org/2000/svg" xmlns:xlink="http://www.w3.org/1999/xlink">
    <!-- Generator: Sketch 51.3 (57544) - http://www.bohemiancoding.com/sketch -->
    <title>effortlesslyme copy</title>
    <desc>Created with Sketch.</desc>
    <defs></defs>
    <g id="Page-1" stroke="none" stroke-width="1" fill="none" fill-rule="evenodd" fill-opacity="0.15">
        <path d="M44.25,69.45 L44.25,59.4 C44.25,58.2999945 44.2000005,56.950008 44.1,55.35 C43.9999995,53.749992 43.650003,52.150008 43.05,50.55 C42.449997,48.949992 41.4750068,47.6000055 40.125,46.5 C38.7749932,45.3999945 36.900012,44.85 34.5,44.85 C31.099983,44.85 28.4750092,45.649992 26.625,47.25 C24.7749908,48.850008 23.4000045,50.8749877 22.5,53.325 C21.5999955,55.7750123 21.0250012,58.4249857 20.775,61.275 C20.5249988,64.1250142 20.3500005,66.849987 20.25,69.45 L44.25,69.45 Z M20.25,71.55 L20.25,78.3 C20.25,81.900018 20.3999985,85.5249817 20.7,89.175 C21.0000015,92.8250182 21.7999935,96.1249852 23.1,99.075 C24.4000065,102.025015 26.2999875,104.449991 28.8,106.35 C31.3000125,108.250009 34.7999775,109.2 39.3,109.2 C43.30002,109.2 46.6749862,108.450007 49.425,106.95 C52.1750137,105.449993 54.4249912,103.72501 56.175,101.775 C57.9250087,99.8249903 59.2249958,97.9000095 60.075,96 C60.9250043,94.0999905 61.3999995,92.7000045 61.5,91.8 L63.6,92.55 C63.0999975,94.4500095 62.250006,96.4749892 61.05,98.625 C59.849994,100.775011 58.2000105,102.774991 56.1,104.625 C53.9999895,106.475009 51.4000155,108.024994 48.3,109.275 C45.1999845,110.525006 41.450022,111.15 37.05,111.15 C31.849974,111.15 27.0000225,110.375008 22.5,108.825 C17.9999775,107.274992 14.0750168,105.025015 10.725,102.075 C7.37498325,99.1249852 4.7500095,95.5250212 2.85,91.275 C0.9499905,87.0249787 0,82.200027 0,76.8 C0,72.4999785 0.899991,68.3000205 2.7,64.2 C4.500009,60.0999795 6.97498425,56.4750158 10.125,53.325 C13.2750157,50.1749842 16.9749787,47.6250097 21.225,45.675 C25.4750213,43.7249902 30.0499755,42.75 34.95,42.75 C38.4500175,42.75 41.9499825,43.2999945 45.45,44.4 C48.9500175,45.5000055 52.099986,47.1999885 54.9,49.5 C57.700014,51.8000115 59.999991,54.7749817 61.8,58.425 C63.600009,62.0750182 64.5,66.4499745 64.5,71.55 L20.25,71.55 Z M75.45,44.85 L85.35,44.85 C85.35,41.5499835 85.3999995,38.1500175 85.5,34.65 C85.6000005,31.1499825 85.9249973,27.7500165 86.475,24.45 C87.0250027,21.1499835 87.899994,18.0250148 89.1,15.075 C90.300006,12.1249852 91.999989,9.52501125 94.2,7.275 C96.400011,5.02498875 99.199983,3.2500065 102.6,1.95 C106.000017,0.6499935 110.199975,0 115.2,0 C117.500012,0 119.749989,0.27499725 121.95,0.825 C124.150011,1.37500275 126.149991,2.22499425 127.95,3.375 C129.750009,4.52500575 131.199995,6.02499075 132.3,7.875 C133.400006,9.72500925 133.95,11.949987 133.95,14.55 C133.95,16.8500115 133.100009,18.799992 131.4,20.4 C129.699992,22.000008 127.700012,22.8 125.4,22.8 C120.099974,22.8 117.45,20.2500255 117.45,15.15 C117.45,14.8499985 117.524999,14.3250038 117.675,13.575 C117.825001,12.8249962 117.974999,12.0250043 118.125,11.175 C118.275001,10.3249958 118.4,9.5500035 118.5,8.85 C118.6,8.1499965 118.65,7.6500015 118.65,7.35 C118.65,5.549991 118.000007,4.22500425 116.7,3.375 C115.399993,2.52499575 113.900009,2.1 112.2,2.1 C110.099989,2.1 108.450006,2.62499475 107.25,3.675 C106.049994,4.72500525 105.200002,6.149991 104.7,7.95 C104.199997,9.750009 103.900001,11.8249882 103.8,14.175 C103.699999,16.5250117 103.65,18.999987 103.65,21.6 L103.65,44.85 L116.1,44.85 L116.1,46.95 L103.65,46.95 L103.65,107.1 L115.2,107.1 L115.2,109.2 L75.45,109.2 L75.45,107.1 L85.35,107.1 L85.35,46.95 L75.45,46.95 L75.45,44.85 Z M128.25,44.85 L138.15,44.85 C138.15,41.5499835 138.199999,38.1500175 138.3,34.65 C138.400001,31.1499825 138.724997,27.7500165 139.275,24.45 C139.825003,21.1499835 140.699994,18.0250148 141.9,15.075 C143.100006,12.1249852 144.799989,9.52501125 147,7.275 C149.200011,5.02498875 151.999983,3.2500065 155.4,1.95 C158.800017,0.6499935 162.999975,0 168,0 C170.300011,0 172.549989,0.27499725 174.75,0.825 C176.950011,1.37500275 178.949991,2.22499425 180.75,3.375 C182.550009,4.52500575 183.999994,6.02499075 185.1,7.875 C186.200005,9.72500925 186.75,11.949987 186.75,14.55 C186.75,16.8500115 185.900009,18.799992 184.2,20.4 C182.499991,22.000008 180.500012,22.8 178.2,22.8 C172.899973,22.8 170.25,20.2500255 170.25,15.15 C170.25,14.8499985 170.324999,14.3250038 170.475,13.575 C170.625001,12.8249962 170.774999,12.0250043 170.925,11.175 C171.075001,10.3249958 171.199999,9.5500035 171.3,8.85 C171.400001,8.1499965 171.45,7.6500015 171.45,7.35 C171.45,5.549991 170.800006,4.22500425 169.5,3.375 C168.199994,2.52499575 166.700008,2.1 165,2.1 C162.899989,2.1 161.250006,2.62499475 160.05,3.675 C158.849994,4.72500525 158.000002,6.149991 157.5,7.95 C156.999998,9.750009 156.7,11.8249882 156.6,14.175 C156.5,16.5250117 156.45,18.999987 156.45,21.6 L156.45,44.85 L168.9,44.85 L168.9,46.95 L156.45,46.95 L156.45,107.1 L168,107.1 L168,109.2 L128.25,109.2 L128.25,107.1 L138.15,107.1 L138.15,46.95 L128.25,46.95 L128.25,44.85 Z M215.55,109.2 C219.45002,109.2 222.499989,108.275009 224.7,106.425 C226.900011,104.574991 228.524995,102.150015 229.575,99.15 C230.625005,96.149985 231.274999,92.7000195 231.525,88.8 C231.775001,84.8999805 231.9,80.95002 231.9,76.95 C231.9,72.94998 231.775001,69.0250192 231.525,65.175 C231.274999,61.3249807 230.625005,57.900015 229.575,54.9 C228.524995,51.899985 226.900011,49.4750092 224.7,47.625 C222.499989,45.7749908 219.45002,44.85 215.55,44.85 C211.64998,44.85 208.600011,45.7749908 206.4,47.625 C204.199989,49.4750092 202.575005,51.899985 201.525,54.9 C200.474995,57.900015 199.825001,61.3249807 199.575,65.175 C199.324999,69.0250192 199.2,72.94998 199.2,76.95 C199.2,80.95002 199.324999,84.8999805 199.575,88.8 C199.825001,92.7000195 200.474995,96.149985 201.525,99.15 C202.575005,102.150015 204.199989,104.574991 206.4,106.425 C208.600011,108.275009 211.64998,109.2 215.55,109.2 Z M215.55,42.75 C220.750026,42.75 225.574978,43.6749907 230.025,45.525 C234.475022,47.3750092 238.349984,49.8499845 241.65,52.95 C244.950016,56.0500155 247.524991,59.6749792 249.375,63.825 C251.225009,67.9750208 252.15,72.349977 252.15,76.95 C252.15,81.6500235 251.225009,86.0749793 249.375,90.225 C247.524991,94.3750207 244.950016,97.9999845 241.65,101.1 C238.349984,104.200015 234.475022,106.649991 230.025,108.45 C225.574978,110.250009 220.750026,111.15 215.55,111.15 C210.349974,111.15 205.525022,110.250009 201.075,108.45 C196.624978,106.649991 192.750017,104.200015 189.45,101.1 C186.149983,97.9999845 183.575009,94.3750207 181.725,90.225 C179.874991,86.0749793 178.95,81.6500235 178.95,76.95 C178.95,72.349977 179.874991,67.9750208 181.725,63.825 C183.575009,59.6749792 186.149983,56.0500155 189.45,52.95 C192.750017,49.8499845 196.624978,47.3750092 201.075,45.525 C205.525022,43.6749907 210.349974,42.75 215.55,42.75 Z M263.4,44.85 L291.15,44.85 L291.15,57.45 L291.45,57.45 C293.250009,53.649981 295.674985,50.3750138 298.725,47.625 C301.775015,44.8749862 305.799975,43.5 310.8,43.5 C315.000021,43.5 318.399987,44.6249887 321,46.875 C323.600013,49.1250113 324.9,52.24998 324.9,56.25 C324.9,59.250015 324.175007,61.5999915 322.725,63.3 C321.274993,65.0000085 318.950016,65.85 315.75,65.85 C313.449989,65.85 311.350009,65.3750047 309.45,64.425 C307.549991,63.4749952 306.6,61.700013 306.6,59.1 C306.6,58.7999985 306.65,58.2750037 306.75,57.525 C306.85,56.7749963 306.974999,55.9750042 307.125,55.125 C307.275001,54.2749958 307.4,53.5000035 307.5,52.8 C307.6,52.0999965 307.65,51.7000005 307.65,51.6 L307.575,51 C307.525,50.599998 307.400001,50.1750023 307.2,49.725 C306.999999,49.2749977 306.675002,48.8750017 306.225,48.525 C305.774998,48.1749982 305.100005,48 304.2,48 C303.199995,48 301.950007,48.4749952 300.45,49.425 C298.949993,50.3750047 297.550006,51.749991 296.25,53.55 C294.949994,55.350009 293.825005,57.5249872 292.875,60.075 C291.924995,62.6250127 291.45,65.499984 291.45,68.7 L291.45,107.1 L303.3,107.1 L303.3,109.2 L263.4,109.2 L263.4,107.1 L273.15,107.1 L273.15,46.95 L263.4,46.95 L263.4,44.85 Z M339,25.5 C340.500008,26.100003 342.024992,26.599998 343.575,27 C345.125008,27.400002 346.649993,27.6 348.15,27.6 C349.650008,27.6 351.174992,27.400002 352.725,27 C354.275008,26.599998 355.799993,26.100003 357.3,25.5 L357.3,44.85 L374.85,44.85 L374.85,46.95 L357.3,46.95 L357.3,97.2 C357.3,98.7000075 357.399999,100.099993 357.6,101.4 C357.800001,102.700007 358.174997,103.874995 358.725,104.925 C359.275003,105.975005 360.074995,106.799997 361.125,107.4 C362.175005,108.000003 363.549992,108.3 365.25,108.3 C367.15001,108.3 368.774993,107.900004 370.125,107.1 C371.475007,106.299996 372.649995,105.275006 373.65,104.025 C374.650005,102.774994 375.474997,101.350008 376.125,99.75 C376.775003,98.149992 377.299998,96.6000075 377.7,95.1 L379.95,95.55 C379.349997,98.950017 378.325007,101.67499 376.875,103.725 C375.424993,105.77501 373.775009,107.349994 371.925,108.45 C370.074991,109.550006 368.100011,110.274998 366,110.625 C363.899989,110.975002 361.90001,111.15 360,111.15 C354.799974,111.15 350.775014,110.550006 347.925,109.35 C345.074986,108.149994 342.975007,106.650009 341.625,104.85 C340.274993,103.049991 339.500001,101.10001 339.3,99 C339.099999,96.8999895 339,94.950009 339,93.15 L339,46.95 L328.95,46.95 L328.95,44.85 L339,44.85 L339,25.5 Z M384.75,1.05 L413.1,1.05 L413.1,107.1 L423.15,107.1 L423.15,109.2 L384.75,109.2 L384.75,107.1 L394.8,107.1 L394.8,3.15 L384.75,3.15 L384.75,1.05 Z M476.1,69.45 L476.1,59.4 C476.1,58.2999945 476.050001,56.950008 475.95,55.35 C475.849999,53.749992 475.500003,52.150008 474.9,50.55 C474.299997,48.949992 473.325007,47.6000055 471.975,46.5 C470.624993,45.3999945 468.750012,44.85 466.35,44.85 C462.949983,44.85 460.325009,45.649992 458.475,47.25 C456.624991,48.850008 455.250005,50.8749877 454.35,53.325 C453.449995,55.7750123 452.875001,58.4249857 452.625,61.275 C452.374999,64.1250142 452.2,66.849987 452.1,69.45 L476.1,69.45 Z M452.1,71.55 L452.1,78.3 C452.1,81.900018 452.249998,85.5249817 452.55,89.175 C452.850001,92.8250182 453.649994,96.1249852 454.95,99.075 C456.250007,102.025015 458.149987,104.449991 460.65,106.35 C463.150013,108.250009 466.649977,109.2 471.15,109.2 C475.15002,109.2 478.524986,108.450007 481.275,106.95 C484.025014,105.449993 486.274991,103.72501 488.025,101.775 C489.775009,99.8249903 491.074996,97.9000095 491.925,96 C492.775004,94.0999905 493.25,92.7000045 493.35,91.8 L495.45,92.55 C494.949997,94.4500095 494.100006,96.4749892 492.9,98.625 C491.699994,100.775011 490.050011,102.774991 487.95,104.625 C485.849989,106.475009 483.250016,108.024994 480.15,109.275 C477.049985,110.525006 473.300022,111.15 468.9,111.15 C463.699974,111.15 458.850023,110.375008 454.35,108.825 C449.849978,107.274992 445.925017,105.025015 442.575,102.075 C439.224983,99.1249852 436.60001,95.5250212 434.7,91.275 C432.799991,87.0249787 431.85,82.200027 431.85,76.8 C431.85,72.4999785 432.749991,68.3000205 434.55,64.2 C436.350009,60.0999795 438.824984,56.4750158 441.975,53.325 C445.125016,50.1749842 448.824979,47.6250097 453.075,45.675 C457.325021,43.7249902 461.899975,42.75 466.8,42.75 C470.300017,42.75 473.799983,43.2999945 477.3,44.4 C480.800017,45.5000055 483.949986,47.1999885 486.75,49.5 C489.550014,51.8000115 491.849991,54.7749817 493.65,58.425 C495.450009,62.0750182 496.35,66.4499745 496.35,71.55 L452.1,71.55 Z M508.2,87.45 L510.3,87.45 C511.500006,90.250014 512.724994,92.949987 513.975,95.55 C515.225006,98.150013 516.699992,100.44999 518.4,102.45 C520.100009,104.45001 522.149988,106.074994 524.55,107.325 C526.950012,108.575006 529.899983,109.2 533.4,109.2 C534.300004,109.2 535.499992,109.15 537,109.05 C538.500008,108.949999 539.974993,108.525004 541.425,107.775 C542.875007,107.024996 544.124995,105.875008 545.175,104.325 C546.225005,102.774992 546.75,100.550014 546.75,97.65 C546.75,96.7499955 546.625001,95.8250047 546.375,94.875 C546.124999,93.9249952 545.600004,92.950005 544.8,91.95 C543.999996,90.949995 542.825008,89.9750048 541.275,89.025 C539.724992,88.0749953 537.600013,87.100005 534.9,86.1 L522.75,81.6 C521.349993,81.0999975 519.850008,80.4250042 518.25,79.575 C516.649992,78.7249957 515.175007,77.600007 513.825,76.2 C512.474993,74.799993 511.350005,73.1250097 510.45,71.175 C509.549996,69.2249902 509.1,66.9000135 509.1,64.2 C509.1,61.2999855 509.699994,58.550013 510.9,55.95 C512.100006,53.349987 513.774989,51.0750097 515.925,49.125 C518.075011,47.1749902 520.674985,45.6250058 523.725,44.475 C526.775015,43.3249942 530.099982,42.75 533.7,42.75 C535.600009,42.75 537.374992,42.949998 539.025,43.35 C540.675008,43.750002 542.174993,44.1749977 543.525,44.625 C544.875007,45.0750022 546.074995,45.499998 547.125,45.9 C548.175005,46.300002 548.999997,46.5 549.6,46.5 C550.700005,46.5 551.399999,46.300002 551.7,45.9 C552.000002,45.499998 552.249999,45.0500025 552.45,44.55 L554.55,44.55 L554.55,62.85 L552.6,62.85 C551.599995,60.449988 550.575005,58.150011 549.525,55.95 C548.474995,53.749989 547.225007,51.8250082 545.775,50.175 C544.324993,48.5249917 542.550011,47.2250048 540.45,46.275 C538.349989,45.3249953 535.750016,44.85 532.65,44.85 C529.349984,44.85 526.325014,45.7249913 523.575,47.475 C520.824986,49.2250087 519.45,51.799983 519.45,55.2 C519.45,55.9000035 519.549999,56.6999955 519.75,57.6 C519.950001,58.5000045 520.399997,59.4249952 521.1,60.375 C521.800004,61.3250047 522.899992,62.2749952 524.4,63.225 C525.900007,64.1750047 527.899987,65.0999955 530.4,66 L543.15,70.35 C548.550027,72.2500095 552.649986,74.7499845 555.45,77.85 C558.250014,80.9500155 559.65,84.899976 559.65,89.7 C559.65,93.0000165 558.925007,95.9749867 557.475,98.625 C556.024993,101.275013 554.125012,103.524991 551.775,105.375 C549.424988,107.225009 546.700016,108.649995 543.6,109.65 C540.499984,110.650005 537.300017,111.15 534,111.15 C532.199991,111.15 530.25001,110.950002 528.15,110.55 C526.04999,110.149998 524.02501,109.675003 522.075,109.125 C520.12499,108.574997 518.350008,108.100002 516.75,107.7 C515.149992,107.299998 513.900005,107.1 513,107.1 C512.199996,107.1 511.625002,107.249998 511.275,107.55 C510.924998,107.850001 510.600001,108.399996 510.3,109.2 L508.2,109.2 L508.2,87.45 Z M572.1,87.45 L574.2,87.45 C575.400006,90.250014 576.624994,92.949987 577.875,95.55 C579.125006,98.150013 580.599991,100.44999 582.3,102.45 C584.000009,104.45001 586.049988,106.074994 588.45,107.325 C590.850012,108.575006 593.799982,109.2 597.3,109.2 C598.200004,109.2 599.399993,109.15 600.9,109.05 C602.400007,108.949999 603.874993,108.525004 605.325,107.775 C606.775007,107.024996 608.024995,105.875008 609.075,104.325 C610.125005,102.774992 610.65,100.550014 610.65,97.65 C610.65,96.7499955 610.525001,95.8250047 610.275,94.875 C610.024999,93.9249952 609.500004,92.950005 608.7,91.95 C607.899996,90.949995 606.725008,89.9750048 605.175,89.025 C603.624992,88.0749953 601.500014,87.100005 598.8,86.1 L586.65,81.6 C585.249993,81.0999975 583.750008,80.4250042 582.15,79.575 C580.549992,78.7249957 579.075007,77.600007 577.725,76.2 C576.374993,74.799993 575.250005,73.1250097 574.35,71.175 C573.449996,69.2249902 573,66.9000135 573,64.2 C573,61.2999855 573.599994,58.550013 574.8,55.95 C576.000006,53.349987 577.674989,51.0750097 579.825,49.125 C581.975011,47.1749902 584.574985,45.6250058 587.625,44.475 C590.675015,43.3249942 593.999982,42.75 597.6,42.75 C599.50001,42.75 601.274992,42.949998 602.925,43.35 C604.575008,43.750002 606.074993,44.1749977 607.425,44.625 C608.775007,45.0750022 609.974995,45.499998 611.025,45.9 C612.075005,46.300002 612.899997,46.5 613.5,46.5 C614.600005,46.5 615.299999,46.300002 615.6,45.9 C615.900001,45.499998 616.149999,45.0500025 616.35,44.55 L618.45,44.55 L618.45,62.85 L616.5,62.85 C615.499995,60.449988 614.475005,58.150011 613.425,55.95 C612.374995,53.749989 611.125007,51.8250082 609.675,50.175 C608.224993,48.5249917 606.45001,47.2250048 604.35,46.275 C602.24999,45.3249953 599.650015,44.85 596.55,44.85 C593.249983,44.85 590.225014,45.7249913 587.475,47.475 C584.724986,49.2250087 583.35,51.799983 583.35,55.2 C583.35,55.9000035 583.449999,56.6999955 583.65,57.6 C583.850001,58.5000045 584.299996,59.4249952 585,60.375 C585.700004,61.3250047 586.799992,62.2749952 588.3,63.225 C589.800007,64.1750047 591.799988,65.0999955 594.3,66 L607.05,70.35 C612.450027,72.2500095 616.549986,74.7499845 619.35,77.85 C622.150014,80.9500155 623.55,84.899976 623.55,89.7 C623.55,93.0000165 622.825007,95.9749867 621.375,98.625 C619.924993,101.275013 618.025012,103.524991 615.675,105.375 C613.324988,107.225009 610.600016,108.649995 607.5,109.65 C604.399985,110.650005 601.200016,111.15 597.9,111.15 C596.099991,111.15 594.150011,110.950002 592.05,110.55 C589.949989,110.149998 587.92501,109.675003 585.975,109.125 C584.02499,108.574997 582.250008,108.100002 580.65,107.7 C579.049992,107.299998 577.800004,107.1 576.9,107.1 C576.099996,107.1 575.525002,107.249998 575.175,107.55 C574.824998,107.850001 574.500002,108.399996 574.2,109.2 L572.1,109.2 L572.1,87.45 Z M634.8,1.05 L663.15,1.05 L663.15,107.1 L673.2,107.1 L673.2,109.2 L634.8,109.2 L634.8,107.1 L644.85,107.1 L644.85,3.15 L634.8,3.15 L634.8,1.05 Z M721.5,90.3 L740.55,46.95 L728.1,46.95 L728.1,44.85 L749.85,44.85 L749.85,46.95 L742.95,46.95 C737.349972,58.95006 732.55002,69.6999525 728.55,79.2 C724.54998,88.7000475 721.075015,97.149963 718.125,104.55 C715.174985,111.950037 712.575011,118.474972 710.325,124.125 C708.074989,129.775028 705.95001,134.749978 703.95,139.05 C701.94999,143.550022 699.700012,146.849989 697.2,148.95 C694.699987,151.050011 691.350021,152.1 687.15,152.1 C682.649977,152.1 678.975014,151.025011 676.125,148.875 C673.274986,146.724989 671.85,143.750019 671.85,139.95 C671.85,137.049985 672.774991,134.950007 674.625,133.65 C676.475009,132.349993 678.699987,131.7 681.3,131.7 C683.200009,131.7 684.999991,132.224995 686.7,133.275 C688.400009,134.325005 689.25,135.899989 689.25,138 C689.25,139.800009 688.925003,141.249994 688.275,142.35 C687.624997,143.450005 687.3,144.749993 687.3,146.25 C687.3,147.350005 687.599997,148.174997 688.2,148.725 C688.800003,149.275003 689.499996,149.55 690.3,149.55 C692.100009,149.55 693.774992,148.900007 695.325,147.6 C696.875008,146.299993 698.274994,144.67501 699.525,142.725 C700.775006,140.77499 701.874995,138.700011 702.825,136.5 C703.775005,134.299989 704.599997,132.300009 705.3,130.5 L711.75,114.45 L683.55,46.95 L675.6,46.95 L675.6,44.85 L713.7,44.85 L713.7,46.95 L703.2,46.95 L721.5,90.3 Z M755.1,44.85 L783,44.85 L783,55.5 L783.3,55.5 C783.900003,54.499995 784.699995,53.3250068 785.7,51.975 C786.700005,50.6249932 788.024992,49.3250063 789.675,48.075 C791.325008,46.8249937 793.324988,45.7500045 795.675,44.85 C798.025012,43.9499955 800.849984,43.5 804.15,43.5 C807.650017,43.5 810.574988,43.8749962 812.925,44.625 C815.275012,45.3750037 817.224992,46.3249942 818.775,47.475 C820.325008,48.6250058 821.574995,49.899993 822.525,51.3 C823.475005,52.700007 824.349996,54.099993 825.15,55.5 C826.650007,52.7999865 828.324991,50.6750078 830.175,49.125 C832.025009,47.5749922 833.899991,46.3750042 835.8,45.525 C837.700009,44.6749957 839.499991,44.1250012 841.2,43.875 C842.900009,43.6249987 844.299995,43.5 845.4,43.5 C851.100029,43.5 855.499984,44.3499915 858.6,46.05 C861.700016,47.7500085 863.949993,49.7749883 865.35,52.125 C866.750007,54.4750117 867.574999,56.949987 867.825,59.55 C868.075001,62.150013 868.2,64.349991 868.2,66.15 L868.2,107.1 L878.1,107.1 L878.1,109.2 L841.05,109.2 L841.05,107.1 L849.9,107.1 L849.9,60.6 C849.9,56.399979 849.125008,53.1750112 847.575,50.925 C846.024992,48.6749888 843.450018,47.55 839.85,47.55 C838.749994,47.55 837.400008,47.849997 835.8,48.45 C834.199992,49.050003 832.650007,49.949994 831.15,51.15 C829.649993,52.350006 828.375005,53.9249902 827.325,55.875 C826.274995,57.8250097 825.75,60.1499865 825.75,62.85 L825.75,107.1 L834.6,107.1 L834.6,109.2 L798.45,109.2 L798.45,107.1 L807.45,107.1 L807.45,59.4 C807.45,54.999978 806.50001,51.9250087 804.6,50.175 C802.699991,48.4249912 800.600012,47.55 798.3,47.55 C794.29998,47.55 790.800015,49.2999825 787.8,52.8 C786.999996,53.800005 786.300003,54.8249947 785.7,55.875 C785.099997,56.9250053 784.625002,58.1249932 784.275,59.475 C783.924998,60.8250068 783.675001,62.3749912 783.525,64.125 C783.374999,65.8750088 783.3,67.9999875 783.3,70.5 L783.3,107.1 L792.15,107.1 L792.15,109.2 L755.1,109.2 L755.1,107.1 L765,107.1 L765,46.95 L755.1,46.95 L755.1,44.85 Z M931.65,69.45 L931.65,59.4 C931.65,58.2999945 931.600001,56.950008 931.5,55.35 C931.4,53.749992 931.050003,52.150008 930.45,50.55 C929.849997,48.949992 928.875007,47.6000055 927.525,46.5 C926.174993,45.3999945 924.300012,44.85 921.9,44.85 C918.499983,44.85 915.875009,45.649992 914.025,47.25 C912.174991,48.850008 910.800004,50.8749877 909.9,53.325 C908.999995,55.7750123 908.425001,58.4249857 908.175,61.275 C907.924999,64.1250142 907.75,66.849987 907.65,69.45 L931.65,69.45 Z M907.65,71.55 L907.65,78.3 C907.65,81.900018 907.799998,85.5249817 908.1,89.175 C908.400001,92.8250182 909.199993,96.1249852 910.5,99.075 C911.800007,102.025015 913.699987,104.449991 916.2,106.35 C918.700012,108.250009 922.199977,109.2 926.7,109.2 C930.70002,109.2 934.074986,108.450007 936.825,106.95 C939.575014,105.449993 941.824991,103.72501 943.575,101.775 C945.325009,99.8249903 946.624996,97.9000095 947.475,96 C948.325004,94.0999905 948.8,92.7000045 948.9,91.8 L951,92.55 C950.499998,94.4500095 949.650006,96.4749892 948.45,98.625 C947.249994,100.775011 945.600011,102.774991 943.5,104.625 C941.399989,106.475009 938.800015,108.024994 935.7,109.275 C932.599985,110.525006 928.850022,111.15 924.45,111.15 C919.249974,111.15 914.400022,110.375008 909.9,108.825 C905.399977,107.274992 901.475017,105.025015 898.125,102.075 C894.774983,99.1249852 892.15001,95.5250212 890.25,91.275 C888.34999,87.0249787 887.4,82.200027 887.4,76.8 C887.4,72.4999785 888.299991,68.3000205 890.1,64.2 C891.900009,60.0999795 894.374984,56.4750158 897.525,53.325 C900.675016,50.1749842 904.374979,47.6250097 908.625,45.675 C912.875021,43.7249902 917.449976,42.75 922.35,42.75 C925.850017,42.75 929.349983,43.2999945 932.85,44.4 C936.350018,45.5000055 939.499986,47.1999885 942.3,49.5 C945.100014,51.8000115 947.399991,54.7749817 949.2,58.425 C951.000009,62.0750182 951.9,66.4499745 951.9,71.55 L907.65,71.55 Z" id="effortlesslyme-copy" fill="#A0A4A6"></path>
    </g>
</svg>