<?xml version="1.0" encoding="UTF-8"?>
<svg width="709px" height="89px" viewBox="0 0 709 89" version="1.1" xmlns="http://www.w3.org/2000/svg" xmlns:xlink="http://www.w3.org/1999/xlink">
    <!-- Generator: Sketch 51.3 (57544) - http://www.bohemiancoding.com/sketch -->
    <title>Introduction</title>
    <desc>Created with Sketch.</desc>
    <defs></defs>
    <g id="Page-1" stroke="none" stroke-width="1" fill="none" fill-rule="evenodd" opacity="0.110323661">
        <g id="index_v2" transform="translate(-4.000000, -2324.000000)" fill="#A0A4A6">
            <path d="M4.68,2325.56 L44.16,2325.56 L44.16,2327.24 L33.12,2327.24 L33.12,2409.32 L44.16,2409.32 L44.16,2411 L4.68,2411 L4.68,2409.32 L15.72,2409.32 L15.72,2327.24 L4.68,2327.24 L4.68,2325.56 Z M53.88,2409.32 L61.8,2409.32 L61.8,2361.2 L53.88,2361.2 L53.88,2359.52 L76.2,2359.52 L76.2,2371.52 L76.44,2371.52 C76.7600016,2370.8 77.319996,2369.70001 78.12,2368.22 C78.920004,2366.73999 80.0799924,2365.28001 81.6,2363.84 C83.1200076,2362.39999 85.079988,2361.14001 87.48,2360.06 C89.880012,2358.97999 92.879982,2358.44 96.48,2358.44 C101.760026,2358.44 105.859985,2359.95998 108.78,2363 C111.700015,2366.04002 113.16,2370.19997 113.16,2375.48 L113.16,2409.32 L121.2,2409.32 L121.2,2411 L91.08,2411 L91.08,2409.32 L98.52,2409.32 L98.52,2371.4 C98.52,2368.03998 97.8400068,2365.58001 96.48,2364.02 C95.1199932,2362.45999 93.2800116,2361.68 90.96,2361.68 C89.0399904,2361.68 87.2000088,2362.14 85.44,2363.06 C83.6799912,2363.98 82.1400066,2365.35999 80.82,2367.2 C79.4999934,2369.04001 78.440004,2371.31999 77.64,2374.04 C76.839996,2376.76001 76.44,2379.95998 76.44,2383.64 L76.44,2409.32 L84,2409.32 L84,2411 L53.88,2411 L53.88,2409.32 Z M136.56,2344.04 C137.760006,2344.52 138.979994,2344.92 140.22,2345.24 C141.460006,2345.56 142.679994,2345.72 143.88,2345.72 C145.080006,2345.72 146.299994,2345.56 147.54,2345.24 C148.780006,2344.92 149.999994,2344.52 151.2,2344.04 L151.2,2359.52 L165.24,2359.52 L165.24,2361.2 L151.2,2361.2 L151.2,2401.4 C151.2,2402.60001 151.279999,2403.71999 151.44,2404.76 C151.600001,2405.80001 151.899998,2406.74 152.34,2407.58 C152.780002,2408.42 153.419996,2409.08 154.26,2409.56 C155.100004,2410.04 156.199993,2410.28 157.56,2410.28 C159.080008,2410.28 160.379995,2409.96 161.46,2409.32 C162.540005,2408.68 163.479996,2407.86001 164.28,2406.86 C165.080004,2405.85999 165.739997,2404.72001 166.26,2403.44 C166.780003,2402.15999 167.199998,2400.92001 167.52,2399.72 L169.32,2400.08 C168.839998,2402.80001 168.020006,2404.97999 166.86,2406.62 C165.699994,2408.26001 164.380007,2409.52 162.9,2410.4 C161.419993,2411.28 159.840008,2411.86 158.16,2412.14 C156.479992,2412.42 154.880008,2412.56 153.36,2412.56 C149.199979,2412.56 145.980011,2412.08 143.7,2411.12 C141.419989,2410.16 139.740005,2408.96001 138.66,2407.52 C137.579995,2406.07999 136.960001,2404.52001 136.8,2402.84 C136.639999,2401.15999 136.56,2399.60001 136.56,2398.16 L136.56,2361.2 L128.52,2361.2 L128.52,2359.52 L136.56,2359.52 L136.56,2344.04 Z M173.76,2359.52 L195.96,2359.52 L195.96,2369.6 L196.2,2369.6 C197.640007,2366.55998 199.579988,2363.94001 202.02,2361.74 C204.460012,2359.53999 207.67998,2358.44 211.68,2358.44 C215.040017,2358.44 217.75999,2359.33999 219.84,2361.14 C221.92001,2362.94001 222.96,2365.43998 222.96,2368.64 C222.96,2371.04001 222.380006,2372.91999 221.22,2374.28 C220.059994,2375.64001 218.200013,2376.32 215.64,2376.32 C213.799991,2376.32 212.120008,2375.94 210.6,2375.18 C209.079992,2374.42 208.32,2373.00001 208.32,2370.92 C208.32,2370.68 208.36,2370.26 208.44,2369.66 C208.52,2369.06 208.619999,2368.42 208.74,2367.74 C208.860001,2367.06 208.96,2366.44 209.04,2365.88 C209.12,2365.32 209.16,2365 209.16,2364.92 L209.1,2364.44 C209.06,2364.12 208.960001,2363.78 208.8,2363.42 C208.639999,2363.06 208.380002,2362.74 208.02,2362.46 C207.659998,2362.18 207.120004,2362.04 206.4,2362.04 C205.599996,2362.04 204.600006,2362.42 203.4,2363.18 C202.199994,2363.94 201.080005,2365.03999 200.04,2366.48 C198.999995,2367.92001 198.100004,2369.65999 197.34,2371.7 C196.579996,2373.74001 196.2,2376.03999 196.2,2378.6 L196.2,2409.32 L205.68,2409.32 L205.68,2411 L173.76,2411 L173.76,2409.32 L181.56,2409.32 L181.56,2361.2 L173.76,2361.2 L173.76,2359.52 Z M255.48,2411 C258.600016,2411 261.039991,2410.26001 262.8,2408.78 C264.560009,2407.29999 265.859996,2405.36001 266.7,2402.96 C267.540004,2400.55999 268.059999,2397.80002 268.26,2394.68 C268.460001,2391.55998 268.56,2388.40002 268.56,2385.2 C268.56,2381.99998 268.460001,2378.86002 268.26,2375.78 C268.059999,2372.69998 267.540004,2369.96001 266.7,2367.56 C265.859996,2365.15999 264.560009,2363.22001 262.8,2361.74 C261.039991,2360.25999 258.600016,2359.52 255.48,2359.52 C252.359984,2359.52 249.920009,2360.25999 248.16,2361.74 C246.399991,2363.22001 245.100004,2365.15999 244.26,2367.56 C243.419996,2369.96001 242.900001,2372.69998 242.7,2375.78 C242.499999,2378.86002 242.4,2381.99998 242.4,2385.2 C242.4,2388.40002 242.499999,2391.55998 242.7,2394.68 C242.900001,2397.80002 243.419996,2400.55999 244.26,2402.96 C245.100004,2405.36001 246.399991,2407.29999 248.16,2408.78 C249.920009,2410.26001 252.359984,2411 255.48,2411 Z M255.48,2357.84 C259.640021,2357.84 263.499982,2358.57999 267.06,2360.06 C270.620018,2361.54001 273.719987,2363.51999 276.36,2366 C279.000013,2368.48001 281.059993,2371.37998 282.54,2374.7 C284.020007,2378.02002 284.76,2381.51998 284.76,2385.2 C284.76,2388.96002 284.020007,2392.49998 282.54,2395.82 C281.059993,2399.14002 279.000013,2402.03999 276.36,2404.52 C273.719987,2407.00001 270.620018,2408.95999 267.06,2410.4 C263.499982,2411.84001 259.640021,2412.56 255.48,2412.56 C251.319979,2412.56 247.460018,2411.84001 243.9,2410.4 C240.339982,2408.95999 237.240013,2407.00001 234.6,2404.52 C231.959987,2402.03999 229.900007,2399.14002 228.42,2395.82 C226.939993,2392.49998 226.2,2388.96002 226.2,2385.2 C226.2,2381.51998 226.939993,2378.02002 228.42,2374.7 C229.900007,2371.37998 231.959987,2368.48001 234.6,2366 C237.240013,2363.51999 240.339982,2361.54001 243.9,2360.06 C247.460018,2358.57999 251.319979,2357.84 255.48,2357.84 Z M333.72,2385.32 C333.72,2382.67999 333.580001,2379.84002 333.3,2376.8 C333.019999,2373.75998 332.440004,2370.96001 331.56,2368.4 C330.679996,2365.83999 329.360009,2363.72001 327.6,2362.04 C325.839991,2360.35999 323.480015,2359.52 320.52,2359.52 C318.51999,2359.52 316.820007,2359.96 315.42,2360.84 C314.019993,2361.72 312.880004,2363.15999 312,2365.16 C311.119996,2367.16001 310.500002,2369.81998 310.14,2373.14 C309.779998,2376.46002 309.6,2380.51998 309.6,2385.32 C309.6,2389.24002 309.699999,2392.77998 309.9,2395.94 C310.100001,2399.10002 310.539997,2401.79999 311.22,2404.04 C311.900003,2406.28001 312.899993,2407.99999 314.22,2409.2 C315.540007,2410.40001 317.319989,2411 319.56,2411 C322.920017,2411 325.539991,2410.14001 327.42,2408.42 C329.300009,2406.69999 330.719995,2404.54001 331.68,2401.94 C332.640005,2399.33999 333.219999,2396.54002 333.42,2393.54 C333.620001,2390.53998 333.72,2387.80001 333.72,2385.32 Z M348.36,2409.32 L356.28,2409.32 L356.28,2411 L333.96,2411 L333.96,2402.12 L333.72,2402.12 C332.439994,2405.48002 330.660011,2408.05999 328.38,2409.86 C326.099989,2411.66001 323.160018,2412.56 319.56,2412.56 C315.63998,2412.56 312.080016,2411.80001 308.88,2410.28 C305.679984,2408.75999 302.940011,2406.74001 300.66,2404.22 C298.379989,2401.69999 296.600006,2398.80002 295.32,2395.52 C294.039994,2392.23998 293.4,2388.80002 293.4,2385.2 C293.4,2382.39999 293.899995,2379.40002 294.9,2376.2 C295.900005,2372.99998 297.459989,2370.04001 299.58,2367.32 C301.700011,2364.59999 304.399984,2362.34001 307.68,2360.54 C310.960016,2358.73999 314.919977,2357.84 319.56,2357.84 C323.160018,2357.84 326.079989,2358.67999 328.32,2360.36 C330.560011,2362.04001 332.279994,2364.55998 333.48,2367.92 L333.72,2367.92 L333.72,2326.16 L325.56,2326.16 L325.56,2324.48 L348.36,2324.48 L348.36,2409.32 Z M363.24,2359.52 L385.92,2359.52 L385.92,2397.56 C385.92,2400.60002 386.519994,2403.17999 387.72,2405.3 C388.920006,2407.42001 391.039985,2408.48 394.08,2408.48 C395.920009,2408.48 397.599992,2408.04 399.12,2407.16 C400.640008,2406.28 401.939995,2405.10001 403.02,2403.62 C404.100005,2402.13999 404.939997,2400.40001 405.54,2398.4 C406.140003,2396.39999 406.44,2394.32001 406.44,2392.16 L406.44,2361.2 L398.52,2361.2 L398.52,2359.52 L421.08,2359.52 L421.08,2409.32 L429,2409.32 L429,2411 L406.68,2411 L406.68,2401.28 L406.44,2401.28 C405.799997,2403.04001 404.840006,2404.57999 403.56,2405.9 C402.279994,2407.22001 400.820008,2408.34 399.18,2409.26 C397.539992,2410.18 395.800009,2410.86 393.96,2411.3 C392.119991,2411.74 390.320009,2411.96 388.56,2411.96 C382.959972,2411.96 378.680015,2410.74001 375.72,2408.3 C372.759985,2405.85999 371.28,2401.72003 371.28,2395.88 L371.28,2361.2 L363.24,2361.2 L363.24,2359.52 Z M437.52,2385.2 C437.52,2382.23999 438.159994,2379.16002 439.44,2375.96 C440.720006,2372.75998 442.619987,2369.82001 445.14,2367.14 C447.660013,2364.45999 450.739982,2362.24001 454.38,2360.48 C458.020018,2358.71999 462.239976,2357.84 467.04,2357.84 C470.080015,2357.84 472.839988,2358.16 475.32,2358.8 C477.800012,2359.44 479.939991,2360.33999 481.74,2361.5 C483.540009,2362.66001 484.939995,2364.05999 485.94,2365.7 C486.940005,2367.34001 487.44,2369.15999 487.44,2371.16 C487.44,2373.80001 486.760007,2375.65999 485.4,2376.74 C484.039993,2377.82001 482.120012,2378.36 479.64,2378.36 C477.799991,2378.36 476.100008,2378.02 474.54,2377.34 C472.979992,2376.66 472.2,2375.24001 472.2,2373.08 C472.2,2372.76 472.299999,2372.2 472.5,2371.4 C472.700001,2370.6 472.899999,2369.76 473.1,2368.88 C473.300001,2368 473.499999,2367.16 473.7,2366.36 C473.900001,2365.56 474,2365 474,2364.68 C474,2363.07999 473.300007,2361.82 471.9,2360.9 C470.499993,2359.98 468.76001,2359.52 466.68,2359.52 C463.799986,2359.52 461.520008,2360.19999 459.84,2361.56 C458.159992,2362.92001 456.860005,2364.73999 455.94,2367.02 C455.019995,2369.30001 454.420001,2371.93998 454.14,2374.94 C453.859999,2377.94002 453.72,2381.11998 453.72,2384.48 C453.72,2387.60002 453.839999,2390.71998 454.08,2393.84 C454.320001,2396.96002 454.959995,2399.79999 456,2402.36 C457.040005,2404.92001 458.55999,2406.99999 460.56,2408.6 C462.56001,2410.20001 465.279983,2411 468.72,2411 C472.000016,2411 474.759989,2410.42001 477,2409.26 C479.240011,2408.09999 481.039993,2406.74001 482.4,2405.18 C483.760007,2403.61999 484.779997,2402.06001 485.46,2400.5 C486.140003,2398.93999 486.559999,2397.8 486.72,2397.08 L488.4,2397.68 C487.999998,2399.12001 487.380004,2400.69999 486.54,2402.42 C485.699996,2404.14001 484.480008,2405.73999 482.88,2407.22 C481.279992,2408.70001 479.220013,2409.95999 476.7,2411 C474.179987,2412.04001 471.000019,2412.56 467.16,2412.56 C466.119995,2412.56 464.660009,2412.46 462.78,2412.26 C460.899991,2412.06 458.860011,2411.62 456.66,2410.94 C454.459989,2410.26 452.240011,2409.32001 450,2408.12 C447.759989,2406.91999 445.700009,2405.30001 443.82,2403.26 C441.939991,2401.21999 440.420006,2398.72001 439.26,2395.76 C438.099994,2392.79999 437.52,2389.28002 437.52,2385.2 Z M503.16,2344.04 C504.360006,2344.52 505.579994,2344.92 506.82,2345.24 C508.060006,2345.56 509.279994,2345.72 510.48,2345.72 C511.680006,2345.72 512.899994,2345.56 514.14,2345.24 C515.380006,2344.92 516.599994,2344.52 517.8,2344.04 L517.8,2359.52 L531.84,2359.52 L531.84,2361.2 L517.8,2361.2 L517.8,2401.4 C517.8,2402.60001 517.879999,2403.71999 518.04,2404.76 C518.200001,2405.80001 518.499998,2406.74 518.94,2407.58 C519.380002,2408.42 520.019996,2409.08 520.86,2409.56 C521.700004,2410.04 522.799993,2410.28 524.16,2410.28 C525.680008,2410.28 526.979995,2409.96 528.06,2409.32 C529.140005,2408.68 530.079996,2407.86001 530.88,2406.86 C531.680004,2405.85999 532.339997,2404.72001 532.86,2403.44 C533.380003,2402.15999 533.799998,2400.92001 534.12,2399.72 L535.92,2400.08 C535.439998,2402.80001 534.620006,2404.97999 533.46,2406.62 C532.299994,2408.26001 530.980007,2409.52 529.5,2410.4 C528.019993,2411.28 526.440008,2411.86 524.76,2412.14 C523.079992,2412.42 521.480008,2412.56 519.96,2412.56 C515.799979,2412.56 512.580011,2412.08 510.3,2411.12 C508.019989,2410.16 506.340005,2408.96001 505.26,2407.52 C504.179995,2406.07999 503.560001,2404.52001 503.4,2402.84 C503.239999,2401.15999 503.16,2399.60001 503.16,2398.16 L503.16,2361.2 L495.12,2361.2 L495.12,2359.52 L503.16,2359.52 L503.16,2344.04 Z M546.6,2333.72 C546.6,2331.39999 547.439992,2329.40001 549.12,2327.72 C550.800008,2326.03999 552.799988,2325.2 555.12,2325.2 C557.440012,2325.2 559.439992,2326.03999 561.12,2327.72 C562.800008,2329.40001 563.64,2331.39999 563.64,2333.72 C563.64,2336.04001 562.800008,2338.03999 561.12,2339.72 C559.439992,2341.40001 557.440012,2342.24 555.12,2342.24 C552.799988,2342.24 550.800008,2341.40001 549.12,2339.72 C547.439992,2338.03999 546.6,2336.04001 546.6,2333.72 Z M539.76,2359.52 L562.44,2359.52 L562.44,2409.32 L570.48,2409.32 L570.48,2411 L539.76,2411 L539.76,2409.32 L547.8,2409.32 L547.8,2361.2 L539.76,2361.2 L539.76,2359.52 Z M606.6,2411 C609.720016,2411 612.159991,2410.26001 613.92,2408.78 C615.680009,2407.29999 616.979996,2405.36001 617.82,2402.96 C618.660004,2400.55999 619.179999,2397.80002 619.38,2394.68 C619.580001,2391.55998 619.68,2388.40002 619.68,2385.2 C619.68,2381.99998 619.580001,2378.86002 619.38,2375.78 C619.179999,2372.69998 618.660004,2369.96001 617.82,2367.56 C616.979996,2365.15999 615.680009,2363.22001 613.92,2361.74 C612.159991,2360.25999 609.720016,2359.52 606.6,2359.52 C603.479984,2359.52 601.040009,2360.25999 599.28,2361.74 C597.519991,2363.22001 596.220004,2365.15999 595.38,2367.56 C594.539996,2369.96001 594.020001,2372.69998 593.82,2375.78 C593.619999,2378.86002 593.52,2381.99998 593.52,2385.2 C593.52,2388.40002 593.619999,2391.55998 593.82,2394.68 C594.020001,2397.80002 594.539996,2400.55999 595.38,2402.96 C596.220004,2405.36001 597.519991,2407.29999 599.28,2408.78 C601.040009,2410.26001 603.479984,2411 606.6,2411 Z M606.6,2357.84 C610.760021,2357.84 614.619982,2358.57999 618.18,2360.06 C621.740018,2361.54001 624.839987,2363.51999 627.48,2366 C630.120013,2368.48001 632.179993,2371.37998 633.66,2374.7 C635.140007,2378.02002 635.88,2381.51998 635.88,2385.2 C635.88,2388.96002 635.140007,2392.49998 633.66,2395.82 C632.179993,2399.14002 630.120013,2402.03999 627.48,2404.52 C624.839987,2407.00001 621.740018,2408.95999 618.18,2410.4 C614.619982,2411.84001 610.760021,2412.56 606.6,2412.56 C602.439979,2412.56 598.580018,2411.84001 595.02,2410.4 C591.459982,2408.95999 588.360013,2407.00001 585.72,2404.52 C583.079987,2402.03999 581.020007,2399.14002 579.54,2395.82 C578.059993,2392.49998 577.32,2388.96002 577.32,2385.2 C577.32,2381.51998 578.059993,2378.02002 579.54,2374.7 C581.020007,2371.37998 583.079987,2368.48001 585.72,2366 C588.360013,2363.51999 591.459982,2361.54001 595.02,2360.06 C598.580018,2358.57999 602.439979,2357.84 606.6,2357.84 Z M645,2409.32 L652.92,2409.32 L652.92,2361.2 L645,2361.2 L645,2359.52 L667.32,2359.52 L667.32,2371.52 L667.56,2371.52 C667.880002,2370.8 668.439996,2369.70001 669.24,2368.22 C670.040004,2366.73999 671.199992,2365.28001 672.72,2363.84 C674.240008,2362.39999 676.199988,2361.14001 678.6,2360.06 C681.000012,2358.97999 683.999982,2358.44 687.6,2358.44 C692.880026,2358.44 696.979985,2359.95998 699.9,2363 C702.820015,2366.04002 704.28,2370.19997 704.28,2375.48 L704.28,2409.32 L712.32,2409.32 L712.32,2411 L682.2,2411 L682.2,2409.32 L689.64,2409.32 L689.64,2371.4 C689.64,2368.03998 688.960007,2365.58001 687.6,2364.02 C686.239993,2362.45999 684.400012,2361.68 682.08,2361.68 C680.15999,2361.68 678.320009,2362.14 676.56,2363.06 C674.799991,2363.98 673.260007,2365.35999 671.94,2367.2 C670.619993,2369.04001 669.560004,2371.31999 668.76,2374.04 C667.959996,2376.76001 667.56,2379.95998 667.56,2383.64 L667.56,2409.32 L675.12,2409.32 L675.12,2411 L645,2411 L645,2409.32 Z" id="Introduction"></path>
        </g>
    </g>
</svg>